<?xml version="1.0" encoding="utf-8"?>
<!-- Generator: Adobe Illustrator 16.0.3, SVG Export Plug-In . SVG Version: 6.00 Build 0)  -->
<!DOCTYPE svg PUBLIC "-//W3C//DTD SVG 1.1//EN" "http://www.w3.org/Graphics/SVG/1.1/DTD/svg11.dtd">
<svg version="1.1" id="Layer_1" xmlns="http://www.w3.org/2000/svg" xmlns:xlink="http://www.w3.org/1999/xlink" x="0px" y="0px"
	 width="84px" height="86px" viewBox="0 0 84 86" enable-background="new 0 0 84 86" xml:space="preserve">
<path fill="#97BBD5" d="M3.644,63.886c-1.896,0-3.439,1.578-3.439,3.52c0,1.938,1.543,3.516,3.439,3.516h5.488v8.297
	c0,3.443,2.742,6.244,6.111,6.244h55.324c3.369,0,6.111-2.801,6.111-6.244V69.103h4.236c1.602,0,2.904-1.334,2.904-2.975V46.866
	c0-1.638-1.303-2.97-2.904-2.97h-4.236v-9.321h4.236c1.602,0,2.904-1.334,2.904-2.973V12.335c0-1.639-1.303-2.973-2.904-2.973
	h-4.236V6.521c0-3.442-2.742-6.244-6.111-6.244H15.243c-3.369,0-6.111,2.802-6.111,6.244v8.297H3.644
	c-1.896,0-3.439,1.577-3.439,3.516c0,1.941,1.543,3.52,3.439,3.52h5.488v9.322H3.644c-1.896,0-3.439,1.576-3.439,3.514
	c0,1.941,1.543,3.52,3.439,3.52h5.488v9.322H3.644c-1.896,0-3.439,1.578-3.439,3.52c0,1.938,1.543,3.514,3.439,3.514h5.488v9.322
	H3.644z M16.004,70.921h7.273c1.894,0,3.433-1.577,3.433-3.516c0-1.941-1.539-3.52-3.433-3.52h-7.273v-9.322h7.273
	c1.894,0,3.433-1.576,3.433-3.514c0-1.941-1.539-3.52-3.433-3.52h-7.273v-9.322h7.273c1.894,0,3.433-1.578,3.433-3.52
	c0-1.938-1.539-3.514-3.433-3.514h-7.273v-9.322h7.273c1.894,0,3.433-1.578,3.433-3.52c0-1.938-1.539-3.516-3.433-3.516h-7.273
	v-2.482c0-2.771,2.221-5.025,4.95-5.025h11.779c2.728,0,4.947,2.254,4.947,5.025v61.066c0,2.771-2.22,5.027-4.947,5.027H20.954
	c-2.729,0-4.95-2.256-4.95-5.027V70.921z"/>
<rect id="_x3C_Slice_x3E__95_" fill="none" width="84" height="86"/>
</svg>
