<?xml version="1.0" encoding="UTF-8" standalone="no"?>
<!-- Generator: Adobe Illustrator 16.0.3, SVG Export Plug-In . SVG Version: 6.00 Build 0)  -->

<svg
   xmlns:dc="http://purl.org/dc/elements/1.1/"
   xmlns:cc="http://creativecommons.org/ns#"
   xmlns:rdf="http://www.w3.org/1999/02/22-rdf-syntax-ns#"
   xmlns:svg="http://www.w3.org/2000/svg"
   xmlns="http://www.w3.org/2000/svg"
   xmlns:sodipodi="http://sodipodi.sourceforge.net/DTD/sodipodi-0.dtd"
   xmlns:inkscape="http://www.inkscape.org/namespaces/inkscape"
   version="1.1"
   id="Layer_1"
   x="0px"
   y="0px"
   width="78px"
   height="78px"
   viewBox="0 0 78 78"
   enable-background="new 0 0 78 78"
   xml:space="preserve"
   inkscape:version="0.48.3.1 r9886"
   sodipodi:docname="arrow_divide.svg"><metadata
   id="metadata10"><rdf:RDF><cc:Work
       rdf:about=""><dc:format>image/svg+xml</dc:format><dc:type
         rdf:resource="http://purl.org/dc/dcmitype/StillImage" /><dc:title></dc:title></cc:Work></rdf:RDF></metadata><defs
   id="defs8" /><sodipodi:namedview
   pagecolor="#ffffff"
   bordercolor="#666666"
   borderopacity="1"
   objecttolerance="10"
   gridtolerance="10"
   guidetolerance="10"
   inkscape:pageopacity="0"
   inkscape:pageshadow="2"
   inkscape:window-width="1920"
   inkscape:window-height="929"
   id="namedview6"
   showgrid="false"
   inkscape:zoom="6.051282"
   inkscape:cx="77.945022"
   inkscape:cy="39.487559"
   inkscape:window-x="0"
   inkscape:window-y="27"
   inkscape:window-maximized="1"
   inkscape:current-layer="Layer_1" />
<path
   d="M 74.978701,5.4944505 H 63.35284 c -1.457685,0 -2.638832,1.6995392 -2.638832,3.7974812 V 50.653636 h -23.86573 c -0.0075,0 -0.01406,0.0019 -0.02062,0.0019 l -2.636957,-0.0019 c -4.553978,-0.0019 -4.558665,-0.05906 -4.558665,-4.566164 l -0.0075,-4.000901 c 9.37e-4,-0.40309 -0.143425,-0.756497 -0.416214,-1.033035 -0.273726,-0.274664 -0.626195,-0.419026 -1.021786,-0.419026 -0.316847,0 -0.614946,0.09749 -0.859612,0.276538 L 5.8947281,57.463042 c -0.4068395,0.45371 -0.6308825,1.033035 -0.6308825,1.646106 0.00281,0.611197 0.2259178,1.190521 0.6346322,1.642357 L 27.345669,77.34662 c 0.214669,0.16311 0.509956,0.25779 0.830553,0.25779 0.693689,0 1.438937,-0.739623 1.438937,-1.446437 l 0.0037,-4.009338 c 0,-4.560539 0,-4.560539 4.563352,-4.560539 l 13.44164,-0.0019 c 0.08718,0 0.173422,-0.0094 0.258727,-0.02718 h 15.470213 11.60805 0.01875 c 0.01406,0 0.02625,-0.0056 0.04125,-0.0056 1.439874,-0.03093 2.597586,-1.195208 2.597586,-2.633207 V 63.761555 53.294343 9.2919317 c -9.38e-4,-2.097942 -1.182085,-3.7974812 -2.63977,-3.7974812 z"
   id="path3"
   inkscape:connector-curvature="0"
   style="fill:#97bbd5" />
<rect
   id="_x3C_Slice_x3E__154_"
   width="73.118622"
   height="73.118622"
   x="4.8813791"
   y="4.8813791"
   style="fill:none" />
<path
   style="fill:#97bbd5"
   inkscape:connector-curvature="0"
   d="m 75.683685,34.001354 -7.548964,-8.841593 c -0.94651,-1.108583 -4.549736,-1.638363 -4.601482,0.458938 L 63.21459,38.533784 47.717971,20.383635 c -0.0049,-0.0057 -0.01055,-0.0095 -0.01482,-0.01447 l -1.710816,-2.006652 c -2.955587,-3.464568 -2.915142,-3.505262 0.512562,-6.43184 l 3.03786,-2.6035887 C 49.849919,9.0660661 50.02495,8.7268002 50.058131,8.3397787 50.089282,7.9532605 49.970202,7.5914658 49.713334,7.2906155 49.507597,7.0496494 49.239891,6.8862452 48.944855,6.8164338 L 22.440425,1.2646391 c -0.609223,-0.014802 -1.195282,0.190982 -1.66153,0.5890651 -0.462995,0.3990037 -0.75871,0.9448482 -0.836947,1.5490677 l 1.305434,27.0864491 c 0.01535,0.269171 0.135075,0.555216 0.343246,0.799034 0.450431,0.527559 1.496829,0.614072 2.034369,0.15512 l 3.05158,-2.600512 c 3.46834,-2.961272 3.46834,-2.961272 6.431439,0.509206 l 8.729421,10.221297 c 0.05661,0.0663 0.119736,0.125803 0.188672,0.179113 l 10.045199,11.765267 7.537399,8.828049 0.01218,0.01426 c 0.0091,0.0107 0.02132,0.01631 0.03106,0.02772 0.958473,1.074954 2.595647,1.199415 3.689261,0.265685 l 0.881165,-0.75234 7.960429,-6.796623 2.326933,-14.629762 c 1.594895,-1.362959 2.120471,-3.36479 1.173957,-4.473378 z"
   id="path3-1"
   sodipodi:nodetypes="ssscccccccscccccscccccccccscccs" /><rect
   style="fill:none"
   y="-72.84256"
   x="8.1474943"
   id="_x3C_Slice_x3E__154_-3"
   width="78"
   height="78"
   transform="matrix(0.64932513,0.76051093,-0.76051093,0.64932513,0,0)" /></svg>