<?xml version="1.0" encoding="utf-8"?>
<!-- Generator: Adobe Illustrator 16.0.3, SVG Export Plug-In . SVG Version: 6.00 Build 0)  -->
<!DOCTYPE svg PUBLIC "-//W3C//DTD SVG 1.1//EN" "http://www.w3.org/Graphics/SVG/1.1/DTD/svg11.dtd" [
	<!ENTITY ns_flows "http://ns.adobe.com/Flows/1.0/">
	<!ENTITY ns_extend "http://ns.adobe.com/Extensibility/1.0/">
	<!ENTITY ns_ai "http://ns.adobe.com/AdobeIllustrator/10.0/">
	<!ENTITY ns_graphs "http://ns.adobe.com/Graphs/1.0/">
]>
<svg version="1.1" id="Layer_1" xmlns:x="&ns_extend;" xmlns:i="&ns_ai;" xmlns:graph="&ns_graphs;"
	 xmlns="http://www.w3.org/2000/svg" xmlns:xlink="http://www.w3.org/1999/xlink" xmlns:a="http://ns.adobe.com/AdobeSVGViewerExtensions/3.0/"
	 x="0px" y="0px" width="83.527px" height="84.919px" viewBox="0 0 83.527 84.919" enable-background="new 0 0 83.527 84.919"
	 xml:space="preserve">
<g id="Download_-_Orange">
</g>
<g id="Icon_2_-_Comments1">
</g>
<g id="Comments_-_Grey">
</g>
<g id="Go_to_Web">
</g>
<g id="Notepad">
</g>
<g id="Checklist">
</g>
<g id="Loading_3">
</g>
<g id="Print">
</g>
<g id="Tools">
</g>
<g id="Plus">
	<path fill="#85D633" d="M1.902,36.428h79.723c1.051,0,1.902-0.587,1.902-1.312v-9.412c0-0.725-0.852-1.313-1.902-1.313H64.092
		L55.314,0.568c-0.16-0.433-0.551-0.669-0.873-0.527l-4.188,1.834c-0.322,0.142-0.455,0.606-0.295,1.04l7.916,21.477H25.381
		l7.916-21.477c0.158-0.434,0.027-0.898-0.295-1.04l-4.188-1.834c-0.322-0.142-0.713,0.095-0.875,0.527l-8.777,23.823H1.902
		C0.852,24.392,0,24.979,0,25.704v9.412C0,35.841,0.852,36.428,1.902,36.428z"/>
	<path fill="#85D633" d="M76.379,41.057H7.453c-0.664,0-1.203,0.587-1.203,1.313l6.369,41.237c0,0.725,0.539,1.313,1.201,1.313
		h55.764c0.666,0,1.205-0.588,1.205-1.313l6.793-41.237C77.582,41.644,77.043,41.057,76.379,41.057z M23.004,78.297l-4.512,0.009
		c-0.35,0.001-0.631-0.301-0.631-0.672l-0.047-28.2c-0.002-0.372,0.279-0.673,0.625-0.675l4.514-0.009
		c0.348-0.001,0.631,0.3,0.631,0.671l0.049,28.202C23.635,77.994,23.352,78.296,23.004,78.297z M33.549,78.297l-4.512,0.009
		c-0.35,0.001-0.631-0.301-0.633-0.672l-0.047-28.2c0-0.372,0.279-0.673,0.627-0.675l4.512-0.009c0.35-0.001,0.631,0.3,0.633,0.671
		l0.049,28.202C34.18,77.994,33.896,78.296,33.549,78.297z M44.197,78.297l-4.514,0.009c-0.346,0.001-0.629-0.301-0.629-0.672
		l-0.049-28.2c0-0.372,0.279-0.673,0.629-0.675l4.512-0.009c0.348-0.001,0.629,0.3,0.631,0.671l0.049,28.202
		C44.828,77.994,44.545,78.296,44.197,78.297z M55.082,78.297l-4.512,0.009c-0.348,0.001-0.631-0.301-0.631-0.672l-0.047-28.2
		c-0.002-0.372,0.279-0.673,0.627-0.675l4.512-0.009c0.35-0.001,0.631,0.3,0.631,0.671l0.049,28.202
		C55.713,77.994,55.43,78.296,55.082,78.297z M65.941,78.297l-4.514,0.009c-0.348,0.001-0.629-0.301-0.629-0.672l-0.049-28.2
		c-0.002-0.372,0.279-0.673,0.627-0.675l4.514-0.009c0.348-0.001,0.629,0.3,0.631,0.671l0.049,28.202
		C66.57,77.994,66.289,78.296,65.941,78.297z"/>
	<rect id="_x3C_Slice_x3E__29_" fill="none" width="83.527" height="84.919"/>
</g>
<g id="Credit_Card">
</g>
</svg>
