<?xml version="1.0" encoding="utf-8"?>
<!-- Generator: Adobe Illustrator 16.0.3, SVG Export Plug-In . SVG Version: 6.00 Build 0)  -->
<!DOCTYPE svg PUBLIC "-//W3C//DTD SVG 1.1//EN" "http://www.w3.org/Graphics/SVG/1.1/DTD/svg11.dtd" [
	<!ENTITY ns_flows "http://ns.adobe.com/Flows/1.0/">
	<!ENTITY ns_extend "http://ns.adobe.com/Extensibility/1.0/">
	<!ENTITY ns_ai "http://ns.adobe.com/AdobeIllustrator/10.0/">
	<!ENTITY ns_graphs "http://ns.adobe.com/Graphs/1.0/">
]>
<svg version="1.1" id="Layer_1" xmlns:x="&ns_extend;" xmlns:i="&ns_ai;" xmlns:graph="&ns_graphs;"
	 xmlns="http://www.w3.org/2000/svg" xmlns:xlink="http://www.w3.org/1999/xlink" xmlns:a="http://ns.adobe.com/AdobeSVGViewerExtensions/3.0/"
	 x="0px" y="0px" width="83.447px" height="79.299px" viewBox="0 0 83.447 79.299" enable-background="new 0 0 83.447 79.299"
	 xml:space="preserve">
<g id="Download_-_Orange">
</g>
<g id="Icon_2_-_Comments1">
</g>
<g id="Comments_-_Grey">
</g>
<g id="Go_to_Web">
</g>
<g id="Notepad">
</g>
<g id="Checklist">
</g>
<g id="Loading_3">
</g>
<g id="Print">
</g>
<g id="Tools">
</g>
<g id="Plus">
	<path fill="#3385AD" d="M58.953,48.031c2.197-0.438,3.979-2.574,3.979-4.772s-1.781-3.624-3.979-3.187
		c-2.199,0.438-3.98,2.574-3.98,4.771C54.973,47.042,56.754,48.469,58.953,48.031z"/>
	<path fill="#3385AD" d="M50.25,0.21c-0.021-0.012-0.041-0.022-0.064-0.033c-0.105-0.052-0.215-0.093-0.332-0.123
		c-0.018-0.005-0.041,0.001-0.061-0.003c-0.213-0.047-0.436-0.067-0.672-0.034L4.637,6.268l28.391,16.861l47.08-6.676
		C70.154,11.038,60.201,5.624,50.25,0.21z"/>
	<path fill="#3385AD" d="M0.094,9.184L0,59.831c-0.002,0.805,0.387,1.457,0.975,1.776c9.83,5.347,19.658,10.694,29.488,16.041
		V26.545L0.18,8.561C0.129,8.763,0.094,8.97,0.094,9.184z M20.723,40.273l2.463,1.494v14.777l-2.463-1.494V40.273z M17.473,38.3
		l1.641,0.996v14.777l-1.641-0.996V38.3z M15.83,37.304l0.82,0.498v14.777l-0.82-0.498V37.304z M13.17,35.689l0.822,0.498v14.777
		l-0.822-0.498V35.689z M10.707,34.195l1.643,0.996v14.777l-1.643-0.996V34.195z M7.275,32.113l1.643,0.996v14.777L7.275,46.89
		V32.113z"/>
	<path fill="#3385AD" d="M34.709,79.299l46.57-6.545c1.166-0.164,2.111-1.312,2.111-2.56l0.094-49.932L34.709,27.18V79.299z
		 M58.953,32.914c6.725-1.34,12.176,3.025,12.176,9.75c0,2.42-0.709,4.814-1.928,6.953h0.002l-9.367,16.514
		c-0.156,0.363-0.492,0.661-0.883,0.739c-0.387,0.077-0.711-0.089-0.871-0.382l-0.008,0.007l-1.23-1.705l-8.143-11.089l0.002-0.001
		c-1.219-1.653-1.928-3.765-1.928-6.185C46.775,40.791,52.227,34.254,58.953,32.914z"/>
	<rect id="_x3C_Slice_x3E__28_" fill="none" width="83.447" height="79.299"/>
</g>
<g id="Credit_Card">
</g>
</svg>
