<?xml version="1.0" encoding="utf-8"?>
<!-- Generator: Adobe Illustrator 16.0.3, SVG Export Plug-In . SVG Version: 6.00 Build 0)  -->
<!DOCTYPE svg PUBLIC "-//W3C//DTD SVG 1.1//EN" "http://www.w3.org/Graphics/SVG/1.1/DTD/svg11.dtd" [
	<!ENTITY ns_flows "http://ns.adobe.com/Flows/1.0/">
	<!ENTITY ns_extend "http://ns.adobe.com/Extensibility/1.0/">
	<!ENTITY ns_ai "http://ns.adobe.com/AdobeIllustrator/10.0/">
	<!ENTITY ns_graphs "http://ns.adobe.com/Graphs/1.0/">
]>
<svg version="1.1" id="Layer_1" xmlns:x="&ns_extend;" xmlns:i="&ns_ai;" xmlns:graph="&ns_graphs;"
	 xmlns="http://www.w3.org/2000/svg" xmlns:xlink="http://www.w3.org/1999/xlink" xmlns:a="http://ns.adobe.com/AdobeSVGViewerExtensions/3.0/"
	 x="0px" y="0px" width="83.527px" height="85.018px" viewBox="0 0 83.527 85.018" enable-background="new 0 0 83.527 85.018"
	 xml:space="preserve">
<g id="Download_-_Orange">
</g>
<g id="Icon_2_-_Comments1">
</g>
<g id="Comments_-_Grey">
</g>
<g id="Go_to_Web">
</g>
<g id="Notepad">
</g>
<g id="Checklist">
</g>
<g id="Loading_3">
</g>
<g id="Print">
</g>
<g id="Tools">
</g>
<g id="Plus">
	<path fill="#FF3385" d="M47.461,25.927l-6.992,10.551h41.156c1.051,0,1.902-0.587,1.902-1.312v-9.412
		c0-0.725-0.852-1.313-1.902-1.313H64.094L55.314,0.618c-0.16-0.433-0.551-0.669-0.873-0.527l-4.188,1.834
		c-0.322,0.142-0.455,0.606-0.295,1.04l7.916,21.477H47.359L47.461,25.927z"/>
	<path fill="#FF3385" d="M39.684,78.355c-0.346,0.001-0.629-0.301-0.629-0.672l-0.004-2.166l-4.623-6.366l4.602-6.021l-0.014-8.374
		l-8.902-11.303l1.555-2.347H7.453c-0.664,0-1.203,0.587-1.203,1.313l6.369,41.237c0,0.725,0.539,1.313,1.201,1.313h29.121
		l1.18-2.467l-3.012-4.149L39.684,78.355z M23.004,78.347l-4.512,0.009c-0.35,0.001-0.631-0.301-0.631-0.672l-0.047-28.2
		c-0.002-0.372,0.279-0.673,0.625-0.675l4.514-0.009c0.348-0.001,0.631,0.3,0.631,0.671l0.049,28.202
		C23.635,78.044,23.352,78.346,23.004,78.347z M33.549,78.347l-4.512,0.009c-0.35,0.001-0.631-0.301-0.633-0.672l-0.047-28.2
		c0-0.372,0.279-0.673,0.627-0.675l4.512-0.009c0.35-0.001,0.631,0.3,0.633,0.671l0.049,28.202
		C34.18,78.044,33.896,78.346,33.549,78.347z"/>
	<path fill="#FF3385" d="M76.379,41.106H37.4l-1.055,1.593l4.809,6.106l2.992-0.006c0.348-0.001,0.629,0.3,0.631,0.671l0.006,3.942
		l3.721,4.722l-3.703,4.846l0.02,11.145l5.533,7.623l-1.541,3.221h20.771c0.666,0,1.205-0.588,1.205-1.313l6.793-41.237
		C77.582,41.693,77.043,41.106,76.379,41.106z M55.082,78.347l-4.512,0.009c-0.348,0.001-0.631-0.301-0.631-0.672l-0.047-28.2
		c-0.002-0.372,0.279-0.673,0.627-0.675l4.512-0.009c0.35-0.001,0.631,0.3,0.631,0.671l0.049,28.202
		C55.713,78.044,55.43,78.346,55.082,78.347z M65.941,78.347l-4.514,0.009c-0.348,0.001-0.629-0.301-0.629-0.672l-0.049-28.2
		c-0.002-0.372,0.279-0.673,0.627-0.675l4.514-0.009c0.348-0.001,0.629,0.3,0.631,0.671l0.049,28.202
		C66.57,78.044,66.289,78.346,65.941,78.347z"/>
	<path fill="#FF3385" d="M1.902,36.478h32.834l6.49-9.796l-0.15-2.24H25.381l7.916-21.477c0.158-0.434,0.027-0.898-0.295-1.04
		l-4.188-1.834c-0.322-0.142-0.713,0.095-0.875,0.527l-8.777,23.823H1.902C0.852,24.441,0,25.029,0,25.754v9.412
		C0,35.891,0.852,36.478,1.902,36.478z"/>
	<rect id="_x3C_Slice_x3E__30_" fill="none" width="83.527" height="85.018"/>
</g>
<g id="Credit_Card">
</g>
</svg>
