<?xml version="1.0" encoding="utf-8"?>
<!-- Generator: Adobe Illustrator 16.0.3, SVG Export Plug-In . SVG Version: 6.00 Build 0)  -->
<!DOCTYPE svg PUBLIC "-//W3C//DTD SVG 1.1//EN" "http://www.w3.org/Graphics/SVG/1.1/DTD/svg11.dtd">
<svg version="1.1" id="Layer_1" xmlns="http://www.w3.org/2000/svg" xmlns:xlink="http://www.w3.org/1999/xlink" x="0px" y="0px"
	 width="83.527px" height="84.918px" viewBox="0 0 83.527 84.918" enable-background="new 0 0 83.527 84.918" xml:space="preserve">
<path fill="#97BBD5" d="M47.461,25.877l-6.992,10.551h41.156c1.051,0,1.902-0.588,1.902-1.313v-9.412
	c0-0.725-0.852-1.313-1.902-1.313H64.094L55.314,0.568c-0.16-0.434-0.551-0.67-0.873-0.527l-4.188,1.834
	c-0.322,0.141-0.455,0.605-0.295,1.039l7.916,21.477H47.359L47.461,25.877z"/>
<path fill="#97BBD5" d="M39.684,78.305c-0.346,0.002-0.629-0.301-0.629-0.672l-0.004-2.166l-4.623-6.365l4.602-6.021l-0.014-8.375
	l-8.902-11.303l1.555-2.346H7.453c-0.664,0-1.203,0.586-1.203,1.313l6.369,41.236c0,0.725,0.539,1.313,1.201,1.313h29.121
	l1.18-2.467l-3.012-4.148L39.684,78.305z M23.004,78.297l-4.512,0.008c-0.35,0.002-0.631-0.301-0.631-0.672l-0.047-28.199
	c-0.002-0.373,0.279-0.674,0.625-0.676l4.514-0.008c0.348-0.002,0.631,0.299,0.631,0.67l0.049,28.203
	C23.635,77.994,23.352,78.295,23.004,78.297z M33.549,78.297l-4.512,0.008c-0.35,0.002-0.631-0.301-0.633-0.672l-0.047-28.199
	c0-0.373,0.279-0.674,0.627-0.676l4.512-0.008c0.35-0.002,0.631,0.299,0.633,0.67l0.049,28.203
	C34.18,77.994,33.896,78.295,33.549,78.297z"/>
<path fill="#97BBD5" d="M76.379,41.057H37.4l-1.055,1.592l4.809,6.107l2.992-0.006c0.348-0.002,0.629,0.299,0.631,0.67l0.006,3.943
	l3.721,4.721l-3.703,4.846l0.02,11.145l5.533,7.623l-1.541,3.221h20.771c0.666,0,1.205-0.588,1.205-1.313l6.793-41.236
	C77.582,41.643,77.043,41.057,76.379,41.057z M55.082,78.297l-4.512,0.008c-0.348,0.002-0.631-0.301-0.631-0.672l-0.047-28.199
	c-0.002-0.373,0.279-0.674,0.627-0.676l4.512-0.008c0.35-0.002,0.631,0.299,0.631,0.67l0.049,28.203
	C55.713,77.994,55.43,78.295,55.082,78.297z M65.941,78.297l-4.514,0.008c-0.348,0.002-0.629-0.301-0.629-0.672L60.75,49.434
	c-0.002-0.373,0.279-0.674,0.627-0.676l4.514-0.008c0.348-0.002,0.629,0.299,0.631,0.67l0.049,28.203
	C66.57,77.994,66.289,78.295,65.941,78.297z"/>
<path fill="#97BBD5" d="M1.902,36.428h32.834l6.49-9.797l-0.15-2.24H25.381l7.916-21.477c0.158-0.434,0.027-0.898-0.295-1.039
	l-4.188-1.834c-0.322-0.143-0.713,0.094-0.875,0.527l-8.777,23.822H1.902C0.852,24.391,0,24.979,0,25.703v9.412
	C0,35.84,0.852,36.428,1.902,36.428z"/>
<rect id="_x3C_Slice_x3E__144_" fill="none" width="83.527" height="84.918"/>
</svg>
