<?xml version="1.0" encoding="utf-8"?>
<!-- Generator: Adobe Illustrator 16.0.3, SVG Export Plug-In . SVG Version: 6.00 Build 0)  -->
<!DOCTYPE svg PUBLIC "-//W3C//DTD SVG 1.1//EN" "http://www.w3.org/Graphics/SVG/1.1/DTD/svg11.dtd" [
	<!ENTITY ns_flows "http://ns.adobe.com/Flows/1.0/">
	<!ENTITY ns_extend "http://ns.adobe.com/Extensibility/1.0/">
	<!ENTITY ns_ai "http://ns.adobe.com/AdobeIllustrator/10.0/">
	<!ENTITY ns_graphs "http://ns.adobe.com/Graphs/1.0/">
]>
<svg version="1.1" id="Layer_1" xmlns:x="&ns_extend;" xmlns:i="&ns_ai;" xmlns:graph="&ns_graphs;"
	 xmlns="http://www.w3.org/2000/svg" xmlns:xlink="http://www.w3.org/1999/xlink" xmlns:a="http://ns.adobe.com/AdobeSVGViewerExtensions/3.0/"
	 x="0px" y="0px" width="81.998px" height="79.852px" viewBox="0 0 81.998 79.852" enable-background="new 0 0 81.998 79.852"
	 xml:space="preserve">
<g id="Download_-_Orange">
</g>
<g id="Icon_2_-_Comments1">
</g>
<g id="Comments_-_Grey">
</g>
<g id="Go_to_Web">
</g>
<g id="Notepad">
</g>
<g id="Checklist">
</g>
<g id="Loading_3">
</g>
<g id="Print">
</g>
<g id="Tools">
</g>
<g id="Plus">
	<path fill="#85D633" d="M57.924,24.37H24.076c-1.566,0-2.834,1.132-2.834,2.529v0.592c0,1.397,1.268,2.529,2.834,2.529h33.848
		c1.564,0,2.834-1.132,2.834-2.529v-0.592C60.758,25.502,59.488,24.37,57.924,24.37z"/>
	<path fill="#85D633" d="M57.924,34.85H24.076c-1.566,0-2.834,1.132-2.834,2.529v0.593c0,1.397,1.268,2.529,2.834,2.529h33.848
		c1.564,0,2.834-1.132,2.834-2.529v-0.593C60.758,35.981,59.488,34.85,57.924,34.85z"/>
	<path fill="#85D633" d="M57.924,44.968H24.076c-1.566,0-2.834,1.133-2.834,2.529v0.593c0,1.397,1.268,2.529,2.834,2.529h33.848
		c1.564,0,2.834-1.132,2.834-2.529v-0.593C60.758,46.101,59.488,44.968,57.924,44.968z"/>
	<path fill="#85D633" d="M81.998,37.035C81.998,16.614,63.607,0,41,0S0,16.614,0,37.035C0,58.075,15.967,73.94,37.139,73.94
		c0.418,0,0.848-0.006,1.275-0.021c1.955-0.057,3.932-0.332,5.844-0.599c1.873-0.261,3.641-0.507,5.367-0.561l0.127-0.004
		l0.123,0.028l31.299,7.067l-7.379-20.598l0.354-0.437C79.283,52.455,81.998,44.923,81.998,37.035z M69.404,68.728l-19.057-4.303
		l-0.912,0.033c-2.092,0.059-4.1,0.338-6.041,0.608c-1.736,0.245-3.535,0.5-5.162,0.546C20.639,66.159,7.188,53.683,7.188,37.035
		C7.188,21.196,22.355,8.312,41,8.312c18.643,0,33.811,12.885,33.811,28.724c0,7.263-3.217,12.772-5.914,16.117l-3.508,4.345
		L69.404,68.728z"/>
	<rect id="_x3C_Slice_x3E__44_" fill="none" width="81.998" height="79.852"/>
</g>
<g id="Credit_Card">
</g>
</svg>
