<?xml version="1.0" encoding="utf-8"?>
<!-- Generator: Adobe Illustrator 16.0.3, SVG Export Plug-In . SVG Version: 6.00 Build 0)  -->
<!DOCTYPE svg PUBLIC "-//W3C//DTD SVG 1.1//EN" "http://www.w3.org/Graphics/SVG/1.1/DTD/svg11.dtd">
<svg version="1.1" id="Layer_1" xmlns="http://www.w3.org/2000/svg" xmlns:xlink="http://www.w3.org/1999/xlink" x="0px" y="0px"
	 width="75px" height="86px" viewBox="0 0 75 86" enable-background="new 0 0 75 86" xml:space="preserve">
<path fill="#97BBD5" d="M43.898,66.883c-0.01-0.07-0.023-0.143-0.037-0.211c-0.002-0.006-0.004-0.012-0.005-0.018
	c-0.013-0.061-0.028-0.121-0.044-0.18c-0.006-0.018-0.01-0.035-0.017-0.053c-0.013-0.041-0.024-0.082-0.04-0.123
	c-0.012-0.035-0.023-0.068-0.036-0.102c-0.007-0.016-0.015-0.033-0.021-0.049c-0.16-0.398-0.404-0.756-0.713-1.035
	c-0.006-0.006-0.012-0.012-0.018-0.016c-0.031-0.029-0.062-0.057-0.094-0.082c-0.104-0.086-0.215-0.164-0.33-0.232
	c-0.008-0.006-0.016-0.01-0.022-0.014c0.004-0.006,0.01-0.01,0.015-0.016c-0.128-0.064-0.258-0.119-0.391-0.166
	c-0.119-0.047-0.24-0.082-0.363-0.107c-0.363-0.082-0.737-0.096-1.103-0.008c-0.022,0.006-0.045,0.012-0.067,0.018
	c-0.002,0-0.002,0-0.002,0c-0.002,0-0.002,0-0.004,0.002c-0.66,0.158-1.241,0.609-1.615,1.207c-0.002,0.004-0.004,0.006-0.006,0.01
	c-0.035,0.055-0.066,0.111-0.098,0.17c-0.005,0.008-0.01,0.016-0.014,0.025c-0.027,0.053-0.053,0.105-0.078,0.158
	c-0.007,0.018-0.014,0.033-0.021,0.051c-0.019,0.047-0.037,0.094-0.055,0.141c-0.01,0.027-0.019,0.053-0.027,0.082
	c-0.013,0.037-0.025,0.074-0.035,0.111c-0.012,0.041-0.021,0.08-0.031,0.121c-0.006,0.027-0.012,0.053-0.018,0.078
	c-0.012,0.055-0.021,0.111-0.029,0.168c-0.001,0.008-0.004,0.016-0.004,0.023c-0.002,0.006-0.002,0.014-0.002,0.018
	c-0.002,0.018-0.006,0.035-0.008,0.051c-0.004,0.025-0.006,0.051-0.008,0.076c-0.004,0.041-0.01,0.08-0.012,0.119
	c-0.029,0.418,0.035,0.84,0.178,1.229c0.039,0.121,0.084,0.242,0.133,0.359c0.006-0.006,0.01-0.012,0.016-0.016
	c0.037,0.072,0.078,0.145,0.123,0.215c0.01,0.016,0.021,0.031,0.031,0.047c0.024,0.039,0.049,0.076,0.076,0.113
	c0.02,0.027,0.041,0.057,0.063,0.084c0.021,0.025,0.043,0.053,0.064,0.078c0.023,0.027,0.046,0.055,0.069,0.08
	c0.024,0.027,0.05,0.053,0.075,0.078c0.023,0.023,0.046,0.047,0.07,0.07c0.023,0.021,0.049,0.045,0.074,0.066
	c0.031,0.025,0.061,0.053,0.092,0.076c0.008,0.006,0.013,0.01,0.02,0.016c0.613,0.48,1.418,0.688,2.167,0.5
	c0.368-0.08,0.713-0.25,1.013-0.486c0.013-0.01,0.024-0.018,0.036-0.027c0.02-0.016,0.04-0.033,0.061-0.051
	c0.304-0.256,0.552-0.582,0.728-0.949c0.003-0.008,0.007-0.016,0.01-0.023c0.026-0.055,0.051-0.109,0.072-0.166
	c0.003-0.008,0.007-0.016,0.01-0.025c0.101-0.26,0.164-0.539,0.188-0.82c0-0.006,0-0.014,0.001-0.02
	c0.003-0.043,0.005-0.086,0.007-0.129c0.004-0.109,0.004-0.219-0.004-0.326C43.912,67.01,43.906,66.945,43.898,66.883z"/>
<path fill="#97BBD5" d="M42.628,72.086c-0.63-0.416-1.421-0.52-2.132-0.309c-1.062,0.303-1.876,1.365-1.945,2.535
	c-0.104,1.139,0.506,2.291,1.464,2.793c0.981,0.539,2.27,0.35,3.063-0.475c0.566-0.555,0.88-1.385,0.843-2.203
	C43.896,73.48,43.389,72.57,42.628,72.086z"/>
<path fill="#97BBD5" d="M42.545,57.525c-0.578-0.361-1.285-0.432-1.934-0.291c-1.061,0.256-1.916,1.26-2.045,2.416
	c-0.15,1.08,0.34,2.221,1.209,2.795c0.864,0.6,2.051,0.596,2.914-0.002c0.761-0.512,1.246-1.451,1.234-2.41
	C43.935,59.01,43.379,58.021,42.545,57.525z"/>
<path fill="#97BBD5" d="M34.92,57.418c-0.553-0.279-1.195-0.311-1.786-0.172c-1.247,0.32-2.157,1.686-2.017,3.049
	c0.075,0.979,0.659,1.883,1.486,2.305c0.871,0.461,1.975,0.373,2.766-0.232c0.736-0.543,1.176-1.506,1.119-2.461
	C36.463,58.848,35.824,57.846,34.92,57.418z"/>
<path fill="#97BBD5" d="M33.818,70.162c1.309,0.023,2.522-1.125,2.653-2.516c0.128-0.975-0.267-1.992-0.986-2.602
	c-0.655-0.57-1.57-0.775-2.384-0.533c-1.309,0.34-2.217,1.848-1.955,3.262C31.334,69.125,32.539,70.199,33.818,70.162z"/>
<path fill="#97BBD5" d="M50.045,72.086c-0.629-0.416-1.421-0.518-2.132-0.309c-1.062,0.303-1.876,1.367-1.946,2.537
	c-0.103,1.139,0.507,2.291,1.465,2.791c0.982,0.541,2.27,0.35,3.063-0.475c0.565-0.555,0.88-1.383,0.843-2.201
	C51.313,73.48,50.807,72.572,50.045,72.086z"/>
<path fill="#97BBD5" d="M74.918,44.949c-0.066-3.424-1.257-6.807-3.336-9.416l-0.033,0.008c-0.283-0.363-0.578-0.717-0.89-1.049
	c-2.065-2.113-4.705-3.6-7.537-4.086c-1.501-0.291-3.031-0.195-4.55-0.211c-9.253-0.012-18.422,0.02-27.675-0.014h-0.087
	l-1.654,0.014c-5.062,0.002-10.125-0.006-15.188,0.004c-4.021,0.055-7.957,2.08-10.529,5.373c-2.079,2.609-3.27,5.992-3.336,9.416
	c-0.015,2.633,0.021,5.268-0.01,7.9l0.01,2.32C0.109,60.352,0.1,65.494,0.107,70.637c-0.006,1.309,0.463,2.621,1.349,3.537
	c0.837,0.896,2.014,1.398,3.197,1.404c3.591,0.006,7.182,0,10.772,0.002c-0.008,1.084,0.039,2.236,0.271,3.299
	c0.117,0.457,0.275,0.9,0.428,1.346c1.213,3.086,4.257,5.234,7.4,5.188c3.802,0.047,7.603,0.004,11.404,0.025
	c3.801-0.021,12.765-0.018,16.566-0.064c3.144,0.047,6.188-2.102,7.4-5.188c0.152-0.445,0.311-0.889,0.428-1.346
	c0.232-1.063,0.279-2.215,0.271-3.299c3.591-0.002,7.182,0.004,10.772-0.002c1.184-0.006,2.36-0.508,3.197-1.404
	c0.886-0.916,1.354-2.229,1.349-3.537c0.008-5.143-0.002-10.285,0.004-15.428l0.01-2.322C74.897,50.215,74.933,47.582,74.918,44.949
	z M70.693,54.516c-0.063,5.357-0.004,10.721-0.028,16.084c0.028,0.195-0.086,0.385-0.284,0.387l-14.525,0.02
	c-0.17,0-0.339,0-0.508,0c0.015,1.826,0.004,3.654,0.006,5.48c0.011,0.873-0.199,1.76-0.664,2.486
	c-0.715,1.174-2.012,1.898-3.32,1.871c-5.316,0.008-10.633-0.004-15.951,0.004c0.012,0.014,0.016,0.025,0.027,0.039
	c-3.932-0.002-7.861,0.002-11.793-0.002c-1.309,0.025-2.605-0.699-3.32-1.873c-0.465-0.727-0.675-1.613-0.664-2.486
	c0.002-1.826-0.009-3.654,0.006-5.479c-0.169-0.002-0.338-0.002-0.508-0.002L4.641,71.027c-0.198-0.004-0.313-0.191-0.284-0.389
	c-0.024-5.363,0.034-10.725-0.028-16.084l-0.004-0.977c0.063-2.033,0.014-4.07,0.029-6.104c0.022-1.393-0.087-2.801,0.178-4.176
	c0.463-2.547,1.852-4.875,3.795-6.428c1.619-1.307,3.622-2.072,5.654-2.119c5.13-0.008,10.266-0.006,15.4-0.014v0.002l0.107-0.002
	c0.002,0,0.004,0,0.007,0l5.401-0.01c1.599,0.047,3.198,0.01,4.797,0.021c7.068,0,14.135,0,21.203,0
	c2.498,0.014,4.962,1.123,6.745,2.984c1.306,1.445,2.392,3.309,2.786,5.283c0.348,1.543,0.203,3.141,0.24,4.711
	c0.009,1.938-0.03,3.875,0.029,5.811L70.693,54.516z"/>
<path fill="#97BBD5" d="M35.518,72.336c-0.01-0.008-0.02-0.016-0.029-0.023c0.005-0.006,0.01-0.012,0.014-0.016
	c-0.186-0.148-0.387-0.275-0.6-0.375c-0.018-0.01-0.036-0.016-0.054-0.025c-0.048-0.02-0.097-0.041-0.145-0.059
	c-0.027-0.01-0.053-0.02-0.08-0.029c-0.38-0.131-0.783-0.178-1.183-0.111c-0.08,0.01-0.159,0.025-0.236,0.043
	c-0.01,0.002-0.019,0.004-0.027,0.004c-0.037,0.01-0.072,0.021-0.107,0.033c-0.02,0.004-0.038,0.01-0.057,0.016
	c-0.053,0.016-0.104,0.035-0.154,0.057c-0.014,0.004-0.027,0.01-0.041,0.016c-0.053,0.021-0.104,0.047-0.156,0.072
	c-0.012,0.006-0.023,0.01-0.035,0.016c-0.049,0.025-0.096,0.055-0.145,0.084c-0.013,0.008-0.027,0.016-0.04,0.023
	c-0.038,0.023-0.076,0.051-0.114,0.076c-0.021,0.016-0.043,0.031-0.065,0.047c-0.016,0.012-0.03,0.025-0.046,0.037
	c-0.413,0.322-0.741,0.77-0.926,1.279c-0.006,0.016-0.012,0.031-0.017,0.045c-0.013,0.039-0.024,0.076-0.036,0.113
	c-0.014,0.043-0.025,0.084-0.036,0.127c-0.003,0.014-0.006,0.025-0.009,0.039c-0.021,0.086-0.037,0.172-0.049,0.262
	c-0.051,0.283-0.053,0.568-0.012,0.85c0.039,0.309,0.129,0.611,0.259,0.891c0.076,0.172,0.164,0.338,0.263,0.494
	c0.006-0.006,0.011-0.01,0.018-0.016c0.031,0.045,0.063,0.086,0.096,0.129c-0.002,0.004-0.005,0.008-0.008,0.01
	c0.209,0.244,0.456,0.447,0.727,0.604c0.146,0.088,0.301,0.158,0.461,0.213c0.025,0.01,0.049,0.018,0.074,0.027
	c0.014,0.004,0.027,0.008,0.043,0.012c0.447,0.137,0.924,0.156,1.381,0.035c1.1-0.273,1.976-1.355,2.037-2.563
	c0.002-0.021,0.004-0.043,0.004-0.063c0.001-0.004,0.001-0.008,0.002-0.012c0.062-0.9-0.326-1.789-0.96-2.373
	C35.524,72.328,35.521,72.332,35.518,72.336z"/>
<path fill="#97BBD5" d="M61.018,40.381L13.97,40.385c-1.249,0-2.354,1.186-2.345,2.52c-0.016,2.047,0,4.094-0.007,6.139
	c-0.001,0.404-0.01,0.813,0.065,1.213c0.176,0.895,0.846,1.652,1.668,1.902c0.761,0.201,1.557,0.061,2.332,0.1l25.74-0.012
	c1.666,0.002,3.346,0.018,5.002-0.02l13.993,0.039c0.54,0.018,1.079,0.012,1.578-0.232c0.884-0.42,1.458-1.439,1.415-2.467
	c-0.021-2.361-0.012-4.705-0.088-7.064C63.237,41.299,62.115,40.379,61.018,40.381z"/>
<path fill="#97BBD5" d="M48.404,70.15c0.692,0.055,1.457-0.137,1.941-0.701c0.262-0.297,0.575-0.559,0.736-0.936
	c0.47-1.049,0.279-2.396-0.491-3.223c-0.691-0.781-1.808-1.08-2.761-0.74c-1.244,0.404-2.072,1.855-1.824,3.223
	C46.185,69.021,47.225,70.055,48.404,70.15z"/>
<path fill="#97BBD5" d="M51.108,58.857c-0.417-1.016-1.423-1.73-2.466-1.691c-0.037,0-0.074,0.002-0.112,0.004
	c-0.003,0-0.005,0-0.009,0c-0.154,0.004-0.305,0.023-0.455,0.059c-0.012,0.002-0.025,0.002-0.037,0.006
	c-1.062,0.256-1.916,1.26-2.046,2.416c-0.048,0.346-0.03,0.695,0.045,1.033c0.015,0.094,0.032,0.186,0.051,0.275
	c0.007-0.006,0.013-0.01,0.019-0.018c0.193,0.615,0.575,1.16,1.096,1.504c0.275,0.189,0.582,0.32,0.9,0.389
	c0.178,0.039,0.358,0.059,0.541,0.059c0.018,0,0.036,0,0.053,0c0.027-0.002,0.055,0,0.08-0.002c0.021-0.002,0.043-0.004,0.064-0.006
	c0.006,0,0.011,0,0.017,0c1.146-0.059,2.19-1.002,2.427-2.201c0.003-0.016,0.004-0.029,0.008-0.045
	c0.039-0.197,0.061-0.4,0.058-0.605c0.003-0.215-0.021-0.426-0.066-0.635C51.238,59.213,51.186,59.029,51.108,58.857z"/>
<path fill="#97BBD5" d="M25.657,71.771c-1.064,0.297-1.897,1.354-1.97,2.529c-0.107,1.145,0.51,2.316,1.482,2.811
	c1.046,0.572,2.426,0.305,3.201-0.645c0.871-0.986,0.924-2.643,0.123-3.693C27.85,71.865,26.68,71.463,25.657,71.771z"/>
<path fill="#97BBD5" d="M28.197,62.143c0.799-0.76,1.085-2.055,0.694-3.115c-0.438-1.316-1.842-2.129-3.115-1.797
	c-1.196,0.266-2.124,1.498-2.097,2.807c-0.016,1,0.514,1.979,1.329,2.469C25.999,63.133,27.358,62.988,28.197,62.143z"/>
<path fill="#97BBD5" d="M25.535,64.555c-1.064,0.357-1.848,1.479-1.855,2.672c-0.045,1.213,0.727,2.393,1.805,2.773
	c0.9,0.354,1.965,0.121,2.676-0.563c0.811-0.754,1.125-2.051,0.742-3.127C28.455,64.885,26.864,64.053,25.535,64.555z"/>
<path fill="#97BBD5" d="M21.318,20.045c0.02,0.016,0.037,0.033,0.057,0.047c-0.01-4.611-0.002-9.221-0.005-13.832
	c-0.013-0.781,0.283-1.531,0.724-2.145c0.754-0.053,1.475-0.369,2.056-0.883c0.95,0.863,2.339,1.127,3.499,0.619
	c0.363-0.125,0.635-0.443,0.985-0.582c0.522,0.4,1.104,0.742,1.755,0.809c0.961,0.154,1.932-0.205,2.684-0.84
	c1.226,1.156,3.211,1.15,4.438-0.004c1.188,1.104,3.078,1.168,4.308,0.115c0.046-0.035,0.092-0.07,0.136-0.107
	c0.237,0.191,0.493,0.361,0.762,0.498c0.01,0.006,0.021,0.012,0.032,0.018c0.499,0.25,1.044,0.389,1.603,0.348
	c0.072,0,0.138-0.012,0.198-0.027c0.169-0.021,0.336-0.057,0.501-0.104c0.413-0.111,0.807-0.303,1.154-0.574
	c0.074-0.055,0.148-0.113,0.221-0.172c0.585,0.555,1.346,0.844,2.112,0.869c0.006,0,0.011,0,0.017,0
	c0.834,0.025,1.676-0.26,2.313-0.859c0.068,0.055,0.137,0.107,0.209,0.158c0.225,0.18,0.471,0.324,0.729,0.434
	c0.013,0.004,0.024,0.01,0.036,0.016c0.01,0.004,0.02,0.008,0.029,0.012C52.199,4,52.548,4.09,52.91,4.107
	c0.451,0.561,0.729,1.283,0.742,2.025c0.025,6.199-0.002,12.402,0.027,18.604h-0.016l0.028,3.873l2.237-0.016v-3.857
	c-0.001-6.156,0.004-12.314-0.003-18.471c0.005-1.773-0.435-4.088-2.163-4.584c0,0-0.105-0.063-0.414-0.027l-0.004-0.012
	c-0.027,0.01-0.055,0.018-0.082,0.021c-0.021,0.004-0.042,0.008-0.063,0.012c-0.009,0.002-0.019,0.002-0.028,0.004l-0.096,0.004
	c-0.405-0.002-0.773-0.293-0.982-0.664c-0.385-0.648-1.195-0.613-1.816-0.5c-0.293,0.059-0.483,0.275-0.66,0.51
	c0-0.006,0.002-0.01,0.003-0.018l-0.45,0.512c-0.059,0.037-0.121,0.068-0.187,0.092L48.457,1.66c-0.029-0.006-0.061-0.012-0.09-0.02
	c-0.002,0-0.002-0.002-0.004-0.002c-0.006,0-0.014-0.004-0.02-0.006c-0.198-0.068-0.377-0.201-0.52-0.369l-0.022-0.025
	c-0.056-0.068-0.106-0.141-0.149-0.219c-0.385-0.648-1.197-0.613-1.816-0.5c-0.09,0.018-0.169,0.051-0.242,0.094
	c-0.009,0.006-0.018,0.012-0.025,0.018c-0.021,0.012-0.04,0.025-0.06,0.041c-0.007,0.004-0.013,0.01-0.02,0.016
	c-0.001,0-0.003,0-0.003,0.002c-0.021,0.008-0.042,0.016-0.064,0.025c-0.016,0.025-0.031,0.051-0.047,0.078
	c-0.118,0.119-0.221,0.264-0.324,0.402c-0.107,0.137-0.222,0.266-0.363,0.352c-0.059,0.035-0.121,0.061-0.185,0.082
	c-0.006,0-0.012,0.004-0.017,0.004c-0.059,0.014-0.117,0.025-0.176,0.037c-0.16,0.018-0.322-0.002-0.474-0.057
	c-0.146-0.063-0.281-0.156-0.398-0.275c-0.019-0.02-0.036-0.043-0.053-0.064l0.001,0.01c-0.07-0.082-0.135-0.17-0.186-0.264
	c-0.387-0.648-1.198-0.613-1.818-0.5c-0.432,0.086-0.643,0.521-0.914,0.84c-0.403,0.459-1.176,0.412-1.535-0.086l0.001,0.01
	c-0.224-0.277-0.396-0.619-0.747-0.723c-0.423-0.115-0.881-0.111-1.307-0.014c-0.596,0.154-0.726,0.984-1.334,1.111
	c-0.506,0.162-0.998-0.172-1.252-0.625c-0.385-0.648-1.196-0.611-1.816-0.5c-0.433,0.088-0.645,0.521-0.914,0.84
	c-0.403,0.459-1.178,0.412-1.536-0.086c-0.226-0.313-0.456-0.68-0.849-0.756c-0.599-0.09-1.38-0.156-1.77,0.449
	c-0.252,0.438-0.693,0.814-1.204,0.697c-0.515-0.053-0.738-0.598-1.071-0.936c-0.472-0.389-1.111-0.25-1.646-0.131
	c-0.579,0.137-0.721,0.943-1.316,1.049c-0.414,0.037-0.977,0.135-1.282,0.412c-1.286,0.842-1.786,2.559-1.788,4.195
	c0,2.094,0,4.186,0,6.279h-0.001v16.105h2.218V20.045z"/>
<rect id="_x3C_Slice_x3E__125_" fill="none" width="75" height="86"/>
</svg>
