<?xml version="1.0" encoding="utf-8"?>
<!-- Generator: Adobe Illustrator 16.0.3, SVG Export Plug-In . SVG Version: 6.00 Build 0)  -->
<!DOCTYPE svg PUBLIC "-//W3C//DTD SVG 1.1//EN" "http://www.w3.org/Graphics/SVG/1.1/DTD/svg11.dtd">
<svg version="1.1" id="Layer_1" xmlns="http://www.w3.org/2000/svg" xmlns:xlink="http://www.w3.org/1999/xlink" x="0px" y="0px"
	 width="84px" height="86px" viewBox="0 0 84 86" enable-background="new 0 0 84 86" xml:space="preserve">
<path fill="#97BBD5" d="M47.412,30.625c-0.643-0.404-1.429-0.482-2.149-0.324c-1.18,0.283-2.131,1.402-2.274,2.688
	c-0.167,1.199,0.378,2.469,1.345,3.105c0.962,0.668,2.28,0.662,3.24-0.002c0.847-0.568,1.385-1.611,1.372-2.678
	C48.958,32.275,48.34,31.174,47.412,30.625z"/>
<path fill="#97BBD5" d="M48.917,41.027c-0.011-0.078-0.025-0.158-0.041-0.234c-0.002-0.006-0.004-0.014-0.004-0.02
	c-0.016-0.066-0.033-0.133-0.051-0.197c-0.006-0.02-0.011-0.041-0.017-0.061c-0.016-0.047-0.028-0.092-0.046-0.137
	c-0.013-0.037-0.026-0.074-0.039-0.113c-0.009-0.018-0.018-0.035-0.024-0.055c-0.178-0.441-0.449-0.84-0.792-1.15
	c-0.007-0.008-0.014-0.012-0.02-0.018c-0.035-0.031-0.067-0.061-0.104-0.09c-0.115-0.096-0.239-0.184-0.367-0.26
	c-0.009-0.006-0.018-0.01-0.023-0.016c0.004-0.006,0.011-0.012,0.015-0.018c-0.141-0.07-0.286-0.133-0.434-0.184
	c-0.133-0.053-0.268-0.092-0.404-0.119c-0.404-0.092-0.818-0.107-1.225-0.008c-0.026,0.004-0.05,0.012-0.076,0.02h-0.002h-0.005
	c-0.733,0.178-1.379,0.68-1.796,1.344c-0.002,0.002-0.004,0.006-0.006,0.01c-0.039,0.061-0.074,0.123-0.109,0.189
	c-0.004,0.01-0.011,0.02-0.015,0.027c-0.03,0.061-0.059,0.119-0.087,0.178c-0.007,0.018-0.016,0.037-0.024,0.057
	c-0.02,0.051-0.041,0.102-0.061,0.154c-0.011,0.031-0.02,0.061-0.03,0.092c-0.013,0.041-0.028,0.082-0.039,0.125
	c-0.013,0.043-0.023,0.09-0.035,0.135c-0.006,0.029-0.013,0.057-0.02,0.084c-0.013,0.064-0.023,0.125-0.032,0.189
	c0,0.008-0.004,0.018-0.004,0.027c-0.003,0.004-0.003,0.012-0.003,0.012c-0.002,0.023-0.006,0.043-0.009,0.063
	c-0.004,0.027-0.006,0.057-0.008,0.084c-0.005,0.045-0.012,0.088-0.014,0.133c-0.032,0.465,0.039,0.934,0.198,1.367
	c0.043,0.135,0.093,0.268,0.147,0.398c0.006-0.006,0.011-0.012,0.018-0.018c0.041,0.08,0.087,0.16,0.137,0.238
	c0.011,0.018,0.023,0.037,0.034,0.055c0.028,0.041,0.055,0.084,0.085,0.123c0.021,0.033,0.046,0.063,0.069,0.094
	c0.024,0.029,0.048,0.059,0.072,0.088c0.025,0.029,0.052,0.061,0.078,0.088c0.025,0.031,0.054,0.059,0.082,0.09
	c0.026,0.025,0.052,0.051,0.078,0.074c0.026,0.025,0.055,0.051,0.083,0.074c0.034,0.031,0.067,0.059,0.102,0.088
	c0.009,0.004,0.016,0.01,0.021,0.016c0.683,0.533,1.577,0.764,2.411,0.557c0.408-0.088,0.792-0.279,1.125-0.543
	c0.015-0.008,0.028-0.02,0.041-0.029c0.021-0.018,0.043-0.035,0.067-0.055c0.337-0.285,0.612-0.648,0.808-1.057
	c0.004-0.01,0.009-0.016,0.011-0.025c0.03-0.061,0.057-0.123,0.08-0.186c0.005-0.01,0.009-0.018,0.012-0.027
	c0.112-0.291,0.182-0.6,0.208-0.914c0-0.006,0-0.014,0.002-0.021c0.002-0.047,0.005-0.094,0.007-0.141
	c0.004-0.125,0.004-0.244-0.005-0.365C48.933,41.168,48.926,41.098,48.917,41.027z"/>
<path fill="#97BBD5" d="M56.935,32.104c-0.465-1.129-1.583-1.922-2.742-1.877c-0.041-0.002-0.083,0-0.124,0.002c0,0-0.007,0-0.011,0
	c-0.172,0.004-0.339,0.025-0.506,0.064c-0.014,0.002-0.028,0.004-0.041,0.008c-1.18,0.283-2.131,1.402-2.274,2.688
	c-0.054,0.383-0.034,0.771,0.05,1.146c0.016,0.104,0.035,0.207,0.057,0.309c0.007-0.008,0.014-0.014,0.02-0.021
	c0.215,0.684,0.641,1.291,1.219,1.672c0.306,0.213,0.646,0.355,1.001,0.434c0.197,0.043,0.399,0.064,0.602,0.063
	c0.02,0,0.041,0,0.059,0c0.03-0.002,0.061,0,0.089-0.002c0.024,0,0.048-0.002,0.071-0.004c0.007,0,0.014,0,0.021-0.002
	c1.272-0.064,2.434-1.113,2.696-2.447c0.005-0.016,0.005-0.033,0.009-0.049c0.044-0.221,0.067-0.447,0.065-0.672
	c0.002-0.24-0.024-0.477-0.074-0.707C57.078,32.5,57.02,32.297,56.935,32.104z"/>
<path fill="#97BBD5" d="M53.927,44.662c0.771,0.061,1.62-0.154,2.159-0.779c0.291-0.33,0.641-0.621,0.818-1.043
	c0.523-1.164,0.311-2.662-0.545-3.582c-0.769-0.869-2.011-1.199-3.07-0.824c-1.384,0.451-2.305,2.064-2.028,3.584
	C51.46,43.408,52.615,44.555,53.927,44.662z"/>
<path fill="#97BBD5" d="M38.935,30.504c-0.615-0.311-1.329-0.344-1.985-0.189c-1.388,0.354-2.399,1.873-2.243,3.389
	c0.085,1.088,0.734,2.094,1.652,2.564c0.969,0.512,2.195,0.414,3.075-0.262c0.819-0.602,1.308-1.674,1.244-2.734
	C40.649,32.096,39.939,30.98,38.935,30.504z"/>
<path fill="#97BBD5" d="M28.5,38.439c-1.184,0.396-2.055,1.645-2.063,2.971c-0.05,1.35,0.808,2.66,2.007,3.084
	c1.001,0.395,2.185,0.135,2.975-0.627c0.901-0.836,1.251-2.279,0.825-3.475C31.746,38.807,29.979,37.881,28.5,38.439z"/>
<path fill="#97BBD5" d="M31.46,35.758c0.888-0.846,1.207-2.283,0.772-3.465c-0.488-1.461-2.048-2.367-3.464-1.998
	c-1.331,0.295-2.362,1.666-2.332,3.121c-0.018,1.111,0.571,2.199,1.479,2.746C29.017,36.857,30.528,36.697,31.46,35.758z"/>
<path fill="#97BBD5" d="M14.953,24.656c0.847,0.225,1.73,0.066,2.593,0.109l28.62-0.012c1.853,0.002,3.72,0.02,5.562-0.02
	l15.56,0.041c0.6,0.02,1.198,0.012,1.755-0.26c0.981-0.467,1.62-1.6,1.572-2.742c-0.024-2.623-0.014-5.23-0.098-7.854
	c-0.096-1.338-1.345-2.361-2.565-2.357l-52.31,0.002c-1.39,0.002-2.617,1.318-2.608,2.805c-0.018,2.273,0,4.549-0.007,6.824
	c-0.002,0.449-0.011,0.902,0.072,1.348C13.294,23.537,14.039,24.379,14.953,24.656z"/>
<path fill="#97BBD5" d="M37.71,44.676c1.454,0.025,2.806-1.25,2.951-2.797c0.141-1.086-0.298-2.217-1.097-2.895
	c-0.73-0.635-1.746-0.861-2.652-0.592c-1.455,0.377-2.465,2.055-2.174,3.625C34.947,43.52,36.287,44.717,37.71,44.676z"/>
<path fill="#97BBD5" d="M55.493,65.834l-3.218-0.002c-3.658,0-3.658,0-3.658-3.662l-0.004-10.785
	c0.004-0.293-0.126-0.584-0.352-0.811c-0.225-0.223-0.515-0.352-0.798-0.352l-11.265-0.006c-0.314,0-0.599,0.117-0.82,0.34
	c-0.223,0.223-0.34,0.504-0.34,0.818l-0.01,10.787c-0.002,3.654-0.049,3.658-3.667,3.658l-3.208,0.006
	c-0.323,0-0.607,0.115-0.829,0.334c-0.22,0.221-0.335,0.504-0.335,0.82c-0.001,0.256,0.077,0.494,0.221,0.689L40.49,84.867
	c0.366,0.326,0.83,0.506,1.323,0.506c0.49-0.002,0.954-0.182,1.316-0.51l13.316-17.207c0.13-0.174,0.206-0.41,0.206-0.668
	C56.652,66.432,56.059,65.834,55.493,65.834z"/>
<path fill="#97BBD5" d="M83.407,16.643c-0.074-3.807-1.396-7.57-3.709-10.473l-0.037,0.012c-0.315-0.406-0.643-0.799-0.988-1.168
	c-2.298-2.35-5.231-4.004-8.38-4.543c-1.67-0.324-3.371-0.215-5.061-0.234C54.945,0.225,44.75,0.258,34.463,0.221h-0.098
	l-1.84,0.016C26.899,0.24,21.269,0.23,15.64,0.242C11.168,0.301,6.792,2.555,3.932,6.215c-2.311,2.902-3.635,6.664-3.709,10.471
	c-0.015,2.928,0.024,5.855-0.011,8.781l0.011,2.58c0.007,5.719-0.004,11.436,0.005,17.156c-0.007,1.453,0.515,2.914,1.5,3.932
	c0.93,0.998,2.239,1.557,3.555,1.561c3.992,0.01,7.985,0,11.977,0.004c-0.008,1.203,0.044,2.486,0.303,3.666
	c0.13,0.51,0.306,1.002,0.476,1.498c1.349,3.43,4.733,5.82,8.228,5.768c1.589,0.02,3.177,0.018,4.765,0.02l0.005-5.053
	c-1.543-0.002-3.085,0-4.628-0.002c-1.455,0.031-2.897-0.775-3.692-2.082c-0.517-0.809-0.749-1.793-0.738-2.764
	c0.003-2.031-0.008-4.063,0.007-6.092c-0.187-0.004-0.376-0.004-0.564-0.004l-16.15-0.02c-0.22-0.004-0.348-0.213-0.315-0.432
	C4.925,39.242,4.989,33.279,4.92,27.32l-0.004-1.084c0.069-2.264,0.015-4.527,0.032-6.789c0.026-1.547-0.096-3.113,0.197-4.641
	c0.515-2.834,2.059-5.422,4.22-7.148c1.801-1.451,4.028-2.303,6.287-2.355c5.705-0.008,11.414-0.008,17.123-0.014h0.119
	c0,0,0.005,0,0.009,0l6.005-0.012c1.778,0.051,3.558,0.01,5.334,0.023c7.858,0,15.716,0,23.575,0c2.777,0.016,5.518,1.248,7.5,3.316
	c1.451,1.609,2.658,3.68,3.098,5.875c0.386,1.715,0.226,3.492,0.267,5.24c0.011,2.152-0.032,4.307,0.032,6.461l-0.004,1.084
	c-0.069,5.959-0.005,11.92-0.03,17.883c0.03,0.219-0.096,0.428-0.317,0.432l-16.15,0.02c-0.188,0-0.376,0-0.564,0.002
	c0.018,2.029,0.004,4.063,0.007,6.094c0.013,0.971-0.222,1.955-0.739,2.764c-0.794,1.305-2.236,2.111-3.691,2.082
	c-1.536,0.002-3.072,0-4.608,0l0.002,5.068c1.869-0.008,3.545-0.02,4.748-0.033c3.496,0.053,6.88-2.338,8.228-5.768
	c0.17-0.498,0.346-0.99,0.476-1.498c0.259-1.18,0.311-2.463,0.303-3.666c3.993-0.004,7.984,0.004,11.979-0.004
	c1.315-0.004,2.623-0.564,3.555-1.561c0.983-1.018,1.505-2.479,1.498-3.934c0.009-5.719-0.002-11.436,0.005-17.154l0.011-2.58
	C83.386,22.496,83.425,19.568,83.407,16.643z"/>
<rect id="_x3C_Slice_x3E__158_" fill="none" width="84" height="86"/>
</svg>
