<?xml version="1.0" encoding="utf-8"?>
<!-- Generator: Adobe Illustrator 16.0.3, SVG Export Plug-In . SVG Version: 6.00 Build 0)  -->
<!DOCTYPE svg PUBLIC "-//W3C//DTD SVG 1.1//EN" "http://www.w3.org/Graphics/SVG/1.1/DTD/svg11.dtd">
<svg version="1.1" id="Layer_1" xmlns="http://www.w3.org/2000/svg" xmlns:xlink="http://www.w3.org/1999/xlink" x="0px" y="0px"
	 width="85px" height="86px" viewBox="0 0 85 86" enable-background="new 0 0 85 86" xml:space="preserve">
<path fill="#97BBD5" d="M60.854,85.781h21.705c0.818,0,1.48-0.932,1.48-2.084V3.328c0-1.152-0.662-2.084-1.48-2.084H60.854
	c-0.818,0-1.48,0.932-1.48,2.084v80.369C59.373,84.85,60.035,85.781,60.854,85.781z M64.539,6.289c0-0.191,0.387-0.346,0.861-0.346
	h12.611c0.475,0,0.861,0.154,0.861,0.346V19.6c0,0.189-0.387,0.344-0.861,0.344H65.4c-0.475,0-0.861-0.154-0.861-0.344V6.289z"/>
<path fill="#97BBD5" d="M31.692,85.846h21.704c0.818,0,1.482-0.938,1.482-2.096V2.924c0-1.156-0.664-2.096-1.482-2.096H31.692
	c-0.818,0-1.481,0.939-1.481,2.096V83.75C30.211,84.908,30.874,85.846,31.692,85.846z M35.378,6.289c0-0.191,0.386-0.346,0.86-0.346
	h12.613c0.475,0,0.859,0.154,0.859,0.346V19.6c0,0.189-0.385,0.344-0.859,0.344H36.238c-0.475,0-0.86-0.154-0.86-0.344V6.289z"/>
<path fill="#97BBD5" d="M2.3,85.781h21.704c0.818,0,1.481-0.936,1.481-2.092V2.984c0-1.154-0.663-2.092-1.481-2.092H2.3
	c-0.818,0-1.481,0.938-1.481,2.092v80.705C0.818,84.846,1.481,85.781,2.3,85.781z M5.985,6.289c0-0.191,0.386-0.346,0.86-0.346
	h12.612c0.475,0,0.86,0.154,0.86,0.346V19.6c0,0.189-0.386,0.344-0.86,0.344H6.846c-0.475,0-0.86-0.154-0.86-0.344V6.289z"/>
<rect id="_x3C_Slice_x3E__123_" fill="none" width="85" height="86"/>
</svg>
