<?xml version="1.0" encoding="utf-8"?>
<!-- Generator: Adobe Illustrator 16.0.3, SVG Export Plug-In . SVG Version: 6.00 Build 0)  -->
<!DOCTYPE svg PUBLIC "-//W3C//DTD SVG 1.1//EN" "http://www.w3.org/Graphics/SVG/1.1/DTD/svg11.dtd" [
	<!ENTITY ns_flows "http://ns.adobe.com/Flows/1.0/">
	<!ENTITY ns_extend "http://ns.adobe.com/Extensibility/1.0/">
	<!ENTITY ns_ai "http://ns.adobe.com/AdobeIllustrator/10.0/">
	<!ENTITY ns_graphs "http://ns.adobe.com/Graphs/1.0/">
]>
<svg version="1.1" id="Layer_1" xmlns:x="&ns_extend;" xmlns:i="&ns_ai;" xmlns:graph="&ns_graphs;"
	 xmlns="http://www.w3.org/2000/svg" xmlns:xlink="http://www.w3.org/1999/xlink" xmlns:a="http://ns.adobe.com/AdobeSVGViewerExtensions/3.0/"
	 x="0px" y="0px" width="83.221px" height="85.059px" viewBox="0 0 83.221 85.059" enable-background="new 0 0 83.221 85.059"
	 xml:space="preserve">
<g id="Download_-_Orange">
</g>
<g id="Icon_2_-_Comments1">
</g>
<g id="Comments_-_Grey">
</g>
<g id="Go_to_Web">
</g>
<g id="Notepad">
</g>
<g id="Checklist">
</g>
<g id="Loading_3">
</g>
<g id="Print">
</g>
<g id="Tools">
</g>
<g id="Plus">
	<path fill="#FFAD33" d="M23.186,0H1.48C0.662,0,0,0.938,0,2.096v80.865c0,1.159,0.662,2.098,1.48,2.098h21.705
		c0.818,0,1.48-0.938,1.48-2.098V2.096C24.666,0.938,24.004,0,23.186,0z M19.5,18.743c0,0.191-0.387,0.346-0.861,0.346H6.027
		c-0.475,0-0.861-0.154-0.861-0.346V5.407c0-0.192,0.387-0.347,0.861-0.347h12.611c0.475,0,0.861,0.154,0.861,0.347V18.743z"/>
	<path fill="#FFAD33" d="M52.682,0H30.977c-0.818,0-1.48,0.938-1.48,2.097v80.865c0,1.159,0.662,2.097,1.48,2.097h21.705
		c0.818,0,1.48-0.938,1.48-2.097V2.097C54.162,0.938,53.5,0,52.682,0z M48.996,18.778c0,0.192-0.387,0.347-0.861,0.347H35.523
		c-0.475,0-0.861-0.154-0.861-0.347V5.464c0-0.191,0.387-0.347,0.861-0.347h12.611c0.475,0,0.861,0.155,0.861,0.347V18.778z"/>
	<path fill="#FFAD33" d="M81.738-0.032H60.035c-0.818,0-1.482,0.938-1.482,2.096v80.835c0,1.157,0.664,2.096,1.482,2.096h21.703
		c0.818,0,1.482-0.938,1.482-2.096V2.063C83.221,0.906,82.557-0.032,81.738-0.032z M78.053,18.428c0,0.192-0.385,0.348-0.859,0.348
		H64.58c-0.475,0-0.859-0.155-0.859-0.348V5.042c0-0.191,0.385-0.347,0.859-0.347h12.613c0.475,0,0.859,0.155,0.859,0.347V18.428z"
		/>
	<rect id="_x3C_Slice_x3E__26_" fill="none" width="83.221" height="85.059"/>
</g>
<g id="Credit_Card">
</g>
</svg>
