<?xml version="1.0" encoding="utf-8"?>
<!-- Generator: Adobe Illustrator 16.0.3, SVG Export Plug-In . SVG Version: 6.00 Build 0)  -->
<!DOCTYPE svg PUBLIC "-//W3C//DTD SVG 1.1//EN" "http://www.w3.org/Graphics/SVG/1.1/DTD/svg11.dtd" [
	<!ENTITY ns_flows "http://ns.adobe.com/Flows/1.0/">
	<!ENTITY ns_extend "http://ns.adobe.com/Extensibility/1.0/">
	<!ENTITY ns_ai "http://ns.adobe.com/AdobeIllustrator/10.0/">
	<!ENTITY ns_graphs "http://ns.adobe.com/Graphs/1.0/">
]>
<svg version="1.1" id="Layer_1" xmlns:x="&ns_extend;" xmlns:i="&ns_ai;" xmlns:graph="&ns_graphs;"
	 xmlns="http://www.w3.org/2000/svg" xmlns:xlink="http://www.w3.org/1999/xlink" xmlns:a="http://ns.adobe.com/AdobeSVGViewerExtensions/3.0/"
	 x="0px" y="0px" width="84.063px" height="84.961px" viewBox="0 0 84.063 84.961" enable-background="new 0 0 84.063 84.961"
	 xml:space="preserve">
<g id="Download_-_Orange">
</g>
<g id="Icon_2_-_Comments1">
</g>
<g id="Comments_-_Grey">
</g>
<g id="Go_to_Web">
</g>
<g id="Notepad">
</g>
<g id="Checklist">
</g>
<g id="Loading_3">
</g>
<g id="Print">
</g>
<g id="Tools">
</g>
<g id="Plus">
	<path fill="#FF3385" d="M64.236,50.02l16.168,9.721c2.344-5.309,3.658-11.187,3.658-17.379c0-1.397-0.07-2.777-0.199-4.141
		L64.236,50.02z"/>
	<path fill="#FF3385" d="M8.119,67.521c7.648,10.571,19.986,17.439,33.912,17.439s26.264-6.868,33.912-17.439L42.031,47.133
		L8.119,67.521z"/>
	<path fill="#FF3385" d="M60.367,47.693l22.871-13.749c-0.838-4.235-2.291-8.245-4.268-11.925L48.316,40.448L60.367,47.693z"/>
	<path fill="#FF3385" d="M68.992,9.687l-22.521,13.54v13.68L76.92,18.6C74.703,15.262,72.029,12.263,68.992,9.687z"/>
	<path fill="#FF3385" d="M46.471,0v18.575L65.592,7.08C60.025,3.254,53.506,0.748,46.471,0z"/>
	<path fill="#FF3385" d="M37.592,0C16.465,2.248,0,20.354,0,42.361c0,6.192,1.314,12.07,3.658,17.378l33.934-20.4V0z"/>
	<rect id="_x3C_Slice_x3E__25_" fill="none" width="84.063" height="84.961"/>
</g>
<g id="Credit_Card">
</g>
</svg>
