<?xml version="1.0" encoding="utf-8"?>
<!-- Generator: Adobe Illustrator 16.0.3, SVG Export Plug-In . SVG Version: 6.00 Build 0)  -->
<!DOCTYPE svg PUBLIC "-//W3C//DTD SVG 1.1//EN" "http://www.w3.org/Graphics/SVG/1.1/DTD/svg11.dtd">
<svg version="1.1" id="Layer_1" xmlns="http://www.w3.org/2000/svg" xmlns:xlink="http://www.w3.org/1999/xlink" x="0px" y="0px"
	 width="86px" height="104px" viewBox="0 0 86 104" enable-background="new 0 0 86 104" xml:space="preserve">
<g>
	<polygon fill="#93B4CB" points="41.925,53.884 31.313,64.627 31.311,64.627 51.315,84.869 85.123,50.675 77.396,42.721 
		51.532,64.446 	"/>
	<g>
		<path fill="#97BBD5" d="M20.873,44.73h34.686c1.603,0,2.903-1.161,2.903-2.593v-0.606c0-1.432-1.301-2.593-2.903-2.593H20.873
			c-1.605,0-2.904,1.161-2.904,2.593v0.606C17.969,43.569,19.268,44.73,20.873,44.73z"/>
		<path fill="#97BBD5" d="M20.873,49.679c-1.605,0-2.904,1.158-2.904,2.59v0.607c0,1.433,1.299,2.593,2.904,2.593h11.311l5.722-5.79
			H20.873z"/>
		<path fill="#97BBD5" d="M55.559,49.679h-9.104l5.267,5.79h1.452l5.043-4.238C57.767,50.318,56.748,49.679,55.559,49.679z"/>
		<path fill="#97BBD5" d="M17.969,62.637v0.607c0,1.432,1.299,2.593,2.904,2.593h3.016l-0.977-0.987l4.748-4.805h-6.787
			C19.268,60.045,17.969,61.207,17.969,62.637z"/>
		<path fill="#97BBD5" d="M17.969,73.036v0.605c0,1.433,1.299,2.593,2.904,2.593h13.289l-5.723-5.791h-7.566
			C19.268,70.443,17.969,71.604,17.969,73.036z"/>
		<path fill="#97BBD5" d="M17.969,83.775v0.605c0,1.435,1.299,2.593,2.904,2.593h23.901l-5.721-5.789H20.873
			C19.268,81.184,17.969,82.342,17.969,83.775z"/>
		<path fill="#97BBD5" d="M68.321,76.885v19.268h-6.126l-0.028,0.05H8.111V28.542h5.348h50.146h0.171l4.545,4.422v9.78l7.463-6.269
			v-4.712l-0.004-0.636l-0.032-0.017c-0.078-0.59-0.284-1.16-0.603-1.665l0.053-0.106l-7.148-6.977l-0.303-0.29h-0.02
			c-0.585-0.481-1.288-0.788-2.041-0.891l-2.081-0.051l-9.274-0.001c-0.555-4.053-3.836-7.236-7.941-7.624
			c0.57-1.187,0.899-2.514,0.899-3.919c0-5.018-4.067-9.085-9.085-9.085c-5.017,0-9.085,4.067-9.085,9.085
			c0,1.405,0.33,2.732,0.9,3.92c-3.375,0.327-6.197,2.544-7.395,5.578c-0.285,0.641-0.471,1.32-0.535,2.042h-8.631l-8.712-0.006
			c-1.818,0-3.581,1.12-4.099,2.813v0.122v75.426c0,2.261,1.838,4.099,4.098,4.099l52.966,0.029l-0.002,0.006h13.941
			c2.26,0,4.098-1.839,4.098-4.097l0.002-0.557h0.033V69.339L68.321,76.885z M38.205,5.957c2.044,0,3.704,1.683,3.704,3.755
			c0,2.064-1.66,3.753-3.704,3.753c-2.043,0-3.708-1.688-3.708-3.753C34.497,7.639,36.162,5.957,38.205,5.957z"/>
	</g>
</g>
<rect id="_x3C_Slice_x3E__5_" fill="none" width="86" height="104"/>
</svg>
