<?xml version="1.0" encoding="UTF-8" standalone="no"?>
<!-- Generator: Adobe Illustrator 16.0.3, SVG Export Plug-In . SVG Version: 6.00 Build 0)  -->

<svg
   xmlns:dc="http://purl.org/dc/elements/1.1/"
   xmlns:cc="http://creativecommons.org/ns#"
   xmlns:rdf="http://www.w3.org/1999/02/22-rdf-syntax-ns#"
   xmlns:svg="http://www.w3.org/2000/svg"
   xmlns="http://www.w3.org/2000/svg"
   xmlns:sodipodi="http://sodipodi.sourceforge.net/DTD/sodipodi-0.dtd"
   xmlns:inkscape="http://www.inkscape.org/namespaces/inkscape"
   version="1.1"
   id="Layer_1"
   x="0px"
   y="0px"
   width="88px"
   height="88px"
   viewBox="0 0 88 88"
   enable-background="new 0 0 88 88"
   xml:space="preserve"
   inkscape:version="0.48.3.1 r9886"
   sodipodi:docname="coin.svg"><metadata
   id="metadata12"><rdf:RDF><cc:Work
       rdf:about=""><dc:format>image/svg+xml</dc:format><dc:type
         rdf:resource="http://purl.org/dc/dcmitype/StillImage" /></cc:Work></rdf:RDF></metadata><defs
   id="defs10" /><sodipodi:namedview
   pagecolor="#ffffff"
   bordercolor="#666666"
   borderopacity="1"
   objecttolerance="10"
   gridtolerance="10"
   guidetolerance="10"
   inkscape:pageopacity="0"
   inkscape:pageshadow="2"
   inkscape:window-width="1199"
   inkscape:window-height="705"
   id="namedview8"
   showgrid="false"
   inkscape:zoom="2.6818182"
   inkscape:cx="44"
   inkscape:cy="44"
   inkscape:window-x="0"
   inkscape:window-y="0"
   inkscape:window-maximized="0"
   inkscape:current-layer="Layer_1" />
<path
   fill="#97BBD5"
   d="M43.678,10.075c-18.717,0-33.891,15.174-33.891,33.891s15.174,33.891,33.891,33.891  c18.719,0,33.891-15.174,33.891-33.891S62.397,10.075,43.678,10.075z M58.7,55.253c-0.727,1.268-1.756,2.359-3.088,3.277  s-2.939,1.652-4.818,2.203c-1.881,0.553-3.963,0.9-6.246,1.049l-0.75,5.895c-0.023,0.146-0.078,0.273-0.16,0.385  c-0.084,0.109-0.238,0.201-0.465,0.275c-0.227,0.072-0.535,0.133-0.928,0.18c-0.393,0.045-0.887,0.068-1.482,0.068  c-0.762,0-1.373-0.027-1.838-0.082c-0.465-0.057-0.826-0.135-1.088-0.234c-0.264-0.102-0.436-0.234-0.518-0.4  c-0.084-0.166-0.102-0.348-0.055-0.551l0.75-5.592c-1.023-0.109-1.986-0.252-2.891-0.426c-0.904-0.176-1.727-0.367-2.463-0.578  c-0.738-0.213-1.375-0.428-1.91-0.648s-0.939-0.436-1.213-0.646c-0.275-0.211-0.471-0.523-0.59-0.938  c-0.119-0.412-0.178-1.023-0.178-1.832c0-0.623,0.023-1.137,0.07-1.543c0.049-0.402,0.131-0.715,0.25-0.936s0.268-0.371,0.447-0.455  c0.178-0.082,0.387-0.123,0.625-0.123c0.309,0,0.76,0.137,1.355,0.412c0.594,0.277,1.355,0.58,2.283,0.91  c0.93,0.33,2.055,0.633,3.375,0.908s2.873,0.414,4.658,0.414c2.783,0,4.854-0.4,6.211-1.199c1.355-0.799,2.033-1.859,2.033-3.182  c0-0.881-0.291-1.605-0.873-2.176c-0.584-0.568-1.363-1.068-2.338-1.5c-0.977-0.432-2.078-0.818-3.303-1.158  c-1.227-0.34-2.48-0.701-3.766-1.088c-1.285-0.385-2.541-0.834-3.766-1.35c-1.227-0.514-2.326-1.146-3.303-1.9  c-0.975-0.752-1.754-1.666-2.338-2.74c-0.582-1.074-0.873-2.373-0.873-3.898c0-1.377,0.297-2.629,0.891-3.76  c0.596-1.129,1.451-2.115,2.57-2.961c1.119-0.844,2.492-1.527,4.123-2.053c1.631-0.523,3.48-0.875,5.551-1.061l0.713-5.535  c0.025-0.146,0.078-0.271,0.162-0.373c0.082-0.1,0.236-0.191,0.463-0.275c0.227-0.082,0.529-0.141,0.91-0.178s0.881-0.055,1.5-0.055  c0.736,0,1.35,0.027,1.838,0.082s0.863,0.133,1.125,0.234c0.262,0.1,0.428,0.234,0.5,0.398c0.07,0.166,0.105,0.35,0.105,0.551  l-0.713,5.207c0.666,0.072,1.367,0.174,2.105,0.303s1.428,0.279,2.07,0.455c0.643,0.174,1.225,0.357,1.75,0.551  c0.523,0.191,0.887,0.367,1.088,0.523s0.357,0.313,0.465,0.467c0.107,0.156,0.189,0.35,0.25,0.578c0.059,0.23,0.1,0.506,0.125,0.828  c0.023,0.32,0.035,0.693,0.035,1.115c0,0.568-0.018,1.037-0.053,1.404c-0.037,0.367-0.102,0.646-0.197,0.84  s-0.203,0.322-0.322,0.387s-0.262,0.096-0.428,0.096c-0.309,0-0.762-0.119-1.355-0.357c-0.596-0.238-1.328-0.496-2.195-0.771  c-0.869-0.275-1.869-0.533-2.998-0.771c-1.131-0.238-2.375-0.359-3.73-0.359c-1.238,0-2.297,0.094-3.178,0.277  s-1.594,0.439-2.141,0.771c-0.549,0.33-0.953,0.725-1.215,1.184s-0.393,0.963-0.393,1.514c0,0.865,0.297,1.59,0.893,2.178  s1.387,1.092,2.375,1.514c0.986,0.424,2.105,0.809,3.354,1.158c1.25,0.348,2.523,0.715,3.82,1.102  c1.297,0.385,2.57,0.83,3.818,1.336c1.25,0.506,2.361,1.129,3.338,1.873c0.977,0.742,1.762,1.643,2.355,2.699  c0.596,1.057,0.893,2.328,0.893,3.814C59.788,52.563,59.424,53.985,58.7,55.253z"
   id="path3"
   style="fill:#ffff00" />
<path
   fill="#97BBD5"
   d="M43.678,0.302c-24.115,0-43.662,19.549-43.662,43.664S19.563,87.63,43.678,87.63  s43.664-19.549,43.664-43.664S67.793,0.302,43.678,0.302z M43.678,82.616c-21.346,0-38.65-17.305-38.65-38.65  s17.305-38.65,38.65-38.65c21.348,0,38.652,17.305,38.652,38.65S65.026,82.616,43.678,82.616z"
   id="path5"
   style="fill:#cbcb3a;fill-opacity:1" />
<rect
   id="_x3C_Slice_x3E__93_"
   fill="none"
   width="88"
   height="88" />
</svg>