<?xml version="1.0" encoding="utf-8"?>
<!-- Generator: Adobe Illustrator 16.0.3, SVG Export Plug-In . SVG Version: 6.00 Build 0)  -->
<!DOCTYPE svg PUBLIC "-//W3C//DTD SVG 1.1//EN" "http://www.w3.org/Graphics/SVG/1.1/DTD/svg11.dtd">
<svg version="1.1" id="Layer_1" xmlns="http://www.w3.org/2000/svg" xmlns:xlink="http://www.w3.org/1999/xlink" x="0px" y="0px"
	 width="103.076px" height="103.074px" viewBox="0 0 103.076 103.074" enable-background="new 0 0 103.076 103.074"
	 xml:space="preserve">
<g>
	<path fill="#97BBD5" d="M98.84,0H4.236C1.896,0,0,1.896,0,4.234V98.84c0,2.339,1.896,4.234,4.236,4.234H98.84
		c2.34,0,4.236-1.896,4.236-4.234V4.234C103.076,1.896,101.18,0,98.84,0z M96.755,92.62c0,1.333-1.085,2.417-2.418,2.417H8.338
		c-1.333,0-2.417-1.084-2.417-2.417V10.621c0-1.333,1.084-2.417,2.417-2.417h85.999c1.333,0,2.418,1.084,2.418,2.417V92.62z"/>
	<path fill="#97BBD5" d="M94.337,10.204H52.338v82.833h41.999c0.23,0,0.418-0.188,0.418-0.417V10.621
		C94.755,10.392,94.567,10.204,94.337,10.204z M91.517,87.993c0,0.935-0.668,1.692-1.492,1.692h-4.56v-0.03H85.5
		c0.251-1.292,0.379-2.604,0.379-3.938c0-1.541-0.263-2.98-0.786-4.319c-0.525-1.338-1.322-2.494-2.393-3.469
		c-1.071-0.973-2.414-1.732-4.03-2.279c-1.616-0.546-3.505-0.818-5.667-0.818c-1.371,0-2.688,0.128-3.951,0.386
		c-1.262,0.256-2.418,0.573-3.467,0.946c-1.05,0.376-1.933,0.761-2.649,1.156c-0.718,0.396-1.21,0.723-1.478,0.98
		c-0.268,0.256-0.455,0.476-0.562,0.658c-0.107,0.182-0.192,0.395-0.257,0.642c-0.064,0.246-0.113,0.535-0.145,0.867
		c-0.032,0.332-0.049,0.744-0.049,1.235c0,0.729,0.027,1.345,0.08,1.848c0.054,0.502,0.123,0.904,0.209,1.203
		c0.086,0.301,0.197,0.514,0.338,0.642c0.139,0.13,0.305,0.194,0.497,0.194c0.278,0,0.663-0.166,1.156-0.499
		c0.492-0.331,1.108-0.694,1.847-1.091s1.595-0.755,2.568-1.076c0.975-0.321,2.092-0.481,3.356-0.481
		c0.899,0,1.68,0.134,2.344,0.401c0.663,0.269,1.215,0.637,1.653,1.107c0.439,0.472,0.771,1.023,0.996,1.653
		c0.225,0.632,0.337,1.302,0.337,2.007c0,0.649-0.079,1.336-0.208,2.045l-0.018,0.03H57.709c-0.824,0-1.493-0.758-1.493-1.692V15.08
		c0-0.935,0.669-1.692,1.493-1.692h4.76c-0.051,0.042-0.103,0.083-0.139,0.118c-0.212,0.202-0.364,0.387-0.462,0.556
		c-0.096,0.168-0.174,0.371-0.238,0.603c-0.063,0.236-0.107,0.526-0.127,0.878c-0.021,0.35-0.031,0.789-0.031,1.321
		c0,0.635,0.02,1.155,0.063,1.559s0.107,0.711,0.191,0.922c0.085,0.213,0.19,0.354,0.318,0.433c0.127,0.069,0.275,0.107,0.445,0.107
		c0.256,0,0.653-0.17,1.193-0.509c0.541-0.341,1.199-0.702,1.973-1.098c0.774-0.393,1.65-0.752,2.625-1.08
		c0.979-0.331,2.018-0.494,3.12-0.494c0.976,0,1.823,0.131,2.545,0.397c0.722,0.265,1.31,0.628,1.769,1.082
		c0.455,0.456,0.799,0.996,1.033,1.624c0.232,0.624,0.35,1.289,0.35,1.985c0,0.917-0.17,1.749-0.509,2.501
		c-0.342,0.754-0.832,1.396-1.479,1.923c-0.649,0.53-1.448,0.941-2.402,1.227c-0.956,0.288-2.049,0.433-3.278,0.433h-3.597
		c-0.255,0-0.473,0.041-0.652,0.124c-0.182,0.085-0.328,0.235-0.445,0.447c-0.118,0.21-0.203,0.515-0.254,0.906
		c-0.055,0.391-0.081,0.898-0.081,1.511c0,0.659,0.026,1.194,0.081,1.606c0.051,0.418,0.142,0.739,0.27,0.972
		s0.286,0.389,0.479,0.462c0.19,0.076,0.423,0.111,0.699,0.111h3.564c1.505,0,2.816,0.15,3.929,0.444
		c1.115,0.301,2.039,0.72,2.77,1.261c0.732,0.54,1.284,1.19,1.655,1.955c0.37,0.764,0.557,1.626,0.557,2.577
		c0,0.871-0.154,1.66-0.461,2.373c-0.308,0.71-0.775,1.315-1.4,1.812c-0.627,0.502-1.384,0.887-2.275,1.164
		c-0.891,0.272-1.921,0.41-3.087,0.41c-1.38,0-2.609-0.142-3.692-0.426c-1.082-0.289-2.025-0.596-2.832-0.924
		c-0.807-0.331-1.471-0.637-1.988-0.922c-0.52-0.288-0.887-0.43-1.098-0.43c-0.342,0-0.595,0.194-0.764,0.587
		c-0.172,0.393-0.256,1.096-0.256,2.114c0,0.618,0.017,1.143,0.048,1.577c0.031,0.438,0.085,0.796,0.159,1.082
		c0.073,0.285,0.16,0.538,0.255,0.747c0.095,0.216,0.238,0.406,0.431,0.572c0.189,0.174,0.592,0.416,1.209,0.733
		c0.613,0.318,1.395,0.625,2.338,0.924c0.943,0.297,2.032,0.544,3.263,0.749c1.229,0.202,2.546,0.302,3.946,0.302
		c2.313,0,4.443-0.284,6.396-0.843c1.951-0.563,3.628-1.386,5.027-2.468c1.402-1.082,2.494-2.418,3.277-4.009
		c0.787-1.593,1.18-3.419,1.18-5.475c0-1.23-0.214-2.383-0.637-3.451c-0.424-1.075-1.034-2.032-1.83-2.88
		c-0.796-0.849-1.767-1.557-2.913-2.118c-1.145-0.563-2.438-0.929-3.882-1.1V30.26c1.21-0.297,2.275-0.742,3.198-1.335
		c0.923-0.596,1.691-1.316,2.309-2.167c0.614-0.847,1.08-1.811,1.398-2.896c0.319-1.08,0.478-2.246,0.478-3.499
		c0-1.612-0.27-3.058-0.811-4.347c-0.422-0.999-1.008-1.872-1.74-2.628h6.377c0.824,0,1.492,0.758,1.492,1.692V87.993z"/>
	<path fill="#97BBD5" d="M7.921,10.621V92.62c0,0.229,0.188,0.417,0.417,0.417h42V10.204h-42
		C8.108,10.204,7.921,10.392,7.921,10.621z M11.56,15.08c0-0.935,0.667-1.692,1.488-1.692h32.23c0.823,0,1.488,0.758,1.488,1.692
		v72.913c0,0.935-0.665,1.692-1.488,1.692h-32.23c-0.822,0-1.488-0.758-1.488-1.692V15.08z"/>
	<path fill="#97BBD5" d="M18.782,66.942c0.96,1.836,2.259,3.242,3.897,4.22c1.638,0.977,3.709,1.466,6.212,1.466
		c2.466,0,4.551-0.505,6.255-1.515c1.703-1.009,3.086-2.459,4.151-4.348c1.063-1.891,1.83-4.177,2.301-6.86s0.706-5.69,0.706-9.019
		c0-3.35-0.188-6.35-0.565-9.002c-0.376-2.652-1.044-4.896-2.004-6.732c-0.961-1.836-2.264-3.242-3.911-4.219
		c-1.647-0.977-3.723-1.466-6.226-1.466c-2.447,0-4.522,0.505-6.226,1.515c-1.704,1.009-3.088,2.458-4.151,4.348
		c-1.063,1.89-1.835,4.181-2.315,6.876c-0.48,2.695-0.72,5.696-0.72,9.003c0,3.35,0.192,6.35,0.579,9.002
		C17.149,62.863,17.823,65.107,18.782,66.942z M23.922,44.412c0.169-1.823,0.465-3.35,0.889-4.573s0.998-2.142,1.722-2.754
		c0.725-0.612,1.643-0.918,2.753-0.918c0.64,0,1.224,0.097,1.75,0.29s0.998,0.521,1.413,0.982c0.414,0.461,0.766,1.079,1.058,1.852
		c0.292,0.773,0.537,1.719,0.734,2.834c0.198,1.117,0.343,2.432,0.438,3.946c0.093,1.515,0.141,3.259,0.141,5.234
		c0,1.632-0.033,3.124-0.099,4.476c-0.066,1.354-0.188,2.567-0.367,3.641c-0.179,1.074-0.409,2.019-0.692,2.835
		c-0.282,0.815-0.635,1.492-1.059,2.028c-0.423,0.537-0.918,0.939-1.482,1.208c-0.564,0.27-1.214,0.402-1.949,0.402
		c-0.979,0-1.816-0.23-2.513-0.693c-0.696-0.461-1.266-1.266-1.708-2.414c-0.443-1.149-0.768-2.694-0.974-4.639
		c-0.208-1.943-0.311-4.396-0.311-7.359C23.667,48.364,23.752,46.237,23.922,44.412z"/>
</g>
<rect id="_x3C_Slice_x3E__6_" x="-0.691" y="-0.327" fill="none" width="104" height="104"/>
</svg>
