<?xml version="1.0" encoding="utf-8"?>
<!-- Generator: Adobe Illustrator 16.0.3, SVG Export Plug-In . SVG Version: 6.00 Build 0)  -->
<!DOCTYPE svg PUBLIC "-//W3C//DTD SVG 1.1//EN" "http://www.w3.org/Graphics/SVG/1.1/DTD/svg11.dtd">
<svg version="1.1" id="Layer_1" xmlns="http://www.w3.org/2000/svg" xmlns:xlink="http://www.w3.org/1999/xlink" x="0px" y="0px"
	 width="83px" height="58px" viewBox="0 0 83 58" enable-background="new 0 0 83 58" xml:space="preserve">
<path fill="#97BBD5" d="M75.102,0.383H7.784c-4.271,0-7.768,3.495-7.768,7.768v6.04v12.945v22.441c0,4.271,3.496,7.767,7.768,7.767
	h67.317c4.271,0,7.768-3.495,7.768-7.767V27.136V14.19V8.15C82.869,3.878,79.373,0.383,75.102,0.383z M78.985,49.577
	c0,2.141-1.742,3.883-3.884,3.883H7.784c-2.142,0-3.884-1.742-3.884-3.883V27.136h75.085V49.577z M78.985,14.19H3.9V8.15
	c0-2.142,1.742-3.884,3.884-3.884h67.317c2.142,0,3.884,1.742,3.884,3.884V14.19z"/>
<rect id="_x3C_Slice_x3E__109_" fill="none" width="83" height="58"/>
</svg>
