<?xml version="1.0" encoding="utf-8"?>
<!-- Generator: Adobe Illustrator 16.0.3, SVG Export Plug-In . SVG Version: 6.00 Build 0)  -->
<!DOCTYPE svg PUBLIC "-//W3C//DTD SVG 1.1//EN" "http://www.w3.org/Graphics/SVG/1.1/DTD/svg11.dtd" [
	<!ENTITY ns_flows "http://ns.adobe.com/Flows/1.0/">
	<!ENTITY ns_extend "http://ns.adobe.com/Extensibility/1.0/">
	<!ENTITY ns_ai "http://ns.adobe.com/AdobeIllustrator/10.0/">
	<!ENTITY ns_graphs "http://ns.adobe.com/Graphs/1.0/">
]>
<svg version="1.1" id="Layer_1" xmlns:x="&ns_extend;" xmlns:i="&ns_ai;" xmlns:graph="&ns_graphs;"
	 xmlns="http://www.w3.org/2000/svg" xmlns:xlink="http://www.w3.org/1999/xlink" xmlns:a="http://ns.adobe.com/AdobeSVGViewerExtensions/3.0/"
	 x="0px" y="0px" width="68.762px" height="85.156px" viewBox="0 0 68.762 85.156" enable-background="new 0 0 68.762 85.156"
	 xml:space="preserve">
<g id="Download_-_Orange">
</g>
<g id="Icon_2_-_Comments1">
</g>
<g id="Comments_-_Grey">
</g>
<g id="Go_to_Web">
</g>
<g id="Notepad">
</g>
<g id="Checklist">
</g>
<g id="Loading_3">
</g>
<g id="Print">
</g>
<g id="Tools">
</g>
<g id="Plus">
	<path fill="#3385AD" d="M66.451,61.285C61.338,54.57,54.742,51.099,43.6,49.98c-2.01-0.402-3.525-2.197-3.525-4.321
		c0-1.558,4.973-6.222,4.939-6.253c5.129-5.332,7.879-13.998,7.879-20.658C52.893,8.4,44.605,0,34.383,0
		C24.156,0,15.867,8.4,15.867,18.748c0,6.695,2.68,15.412,7.863,20.748c0,0,4.953,4.605,4.953,6.163
		c0,2.251-1.693,4.128-3.879,4.396C13.893,51.203,7.367,54.66,2.311,61.285C0.846,63.198,0.051,67.048,0,69.102
		c0.016,0.527,0,8.857,0,8.857c0,3.918,3.156,7.087,7.051,7.087h54.658c3.895,0,7.053-3.169,7.053-7.087c0,0-0.02-8.33,0-8.857
		C68.709,67.048,67.914,63.198,66.451,61.285z M55.762,66.768c-0.137,0.091-5.465,3.982-5.465,3.982s2.047,6.285,2.088,6.384
		c0.031,0.091,0.053,0.192,0.053,0.297c0,0.468-0.381,0.851-0.848,0.851c-0.178,0-0.346-0.057-0.484-0.152
		c-0.121-0.086-5.455-3.971-5.455-3.971l-5.453,3.971c-0.141,0.096-0.307,0.152-0.484,0.152c-0.467,0-0.848-0.378-0.848-0.851
		c0-0.104,0.023-0.206,0.053-0.297c0.039-0.099,2.086-6.384,2.086-6.384s-5.328-3.892-5.463-3.982
		c-0.217-0.154-0.361-0.41-0.361-0.699c0-0.471,0.369-0.878,0.838-0.878h6.762l2.061-6.36c0.102-0.359,0.422-0.62,0.811-0.62
		s0.713,0.261,0.813,0.62l2.068,6.36h6.764c0.467,0,0.83,0.407,0.83,0.873C56.125,66.357,55.98,66.613,55.762,66.768z"/>
	<rect id="_x3C_Slice_x3E__38_" fill="none" width="68.762" height="85.156"/>
</g>
<g id="Credit_Card">
</g>
</svg>
