<?xml version="1.0" encoding="utf-8"?>
<!-- Generator: Adobe Illustrator 16.0.3, SVG Export Plug-In . SVG Version: 6.00 Build 0)  -->
<!DOCTYPE svg PUBLIC "-//W3C//DTD SVG 1.1//EN" "http://www.w3.org/Graphics/SVG/1.1/DTD/svg11.dtd">
<svg version="1.1" id="Layer_1" xmlns="http://www.w3.org/2000/svg" xmlns:xlink="http://www.w3.org/1999/xlink" x="0px" y="0px"
	 width="85px" height="87px" viewBox="0 0 85 87" enable-background="new 0 0 85 87" xml:space="preserve">
<path fill="#97BBD5" d="M57.773,48.754c-0.242-0.502-0.568-0.871-0.967-1.096c-0.408-0.232-0.898-0.348-1.459-0.348
	c-0.516,0-0.973,0.11-1.357,0.33c-0.377,0.214-0.697,0.574-0.953,1.066c-0.268,0.521-0.473,1.213-0.604,2.057
	c-0.133,0.86-0.201,1.933-0.201,3.186c0,1.441,0.08,2.631,0.236,3.534c0.152,0.892,0.371,1.593,0.646,2.087
	c0.264,0.467,0.584,0.79,0.953,0.96c0.393,0.181,0.857,0.271,1.383,0.271c0.6,0,1.1-0.119,1.48-0.357
	c0.381-0.236,0.689-0.611,0.926-1.116c0.246-0.53,0.43-1.229,0.539-2.077c0.113-0.865,0.168-1.918,0.168-3.123
	c0-1.274-0.068-2.37-0.201-3.259C58.23,49.998,58.033,49.287,57.773,48.754z"/>
<path fill="#97BBD5" d="M75.162,27.34l-0.754-13.156l-12.557-2.641L54.299,0.895l-11.951,4.76l-11.953-4.76l-7.551,10.648
	l-12.559,2.641L9.531,27.34l-9.176,9.201l6.283,11.486L3.758,60.869l11.324,6.172l4.33,12.404l12.771-1.104l10.164,8.028
	l10.164-8.028l12.771,1.104l4.328-12.404l11.324-6.172l-2.879-12.842l6.281-11.486L75.162,27.34z M20.16,40.082
	c-0.803-1.082-1.377-2.395-1.707-3.897c-0.326-1.479-0.49-3.134-0.49-4.923c0-1.79,0.201-3.457,0.596-4.953
	c0.398-1.512,1.037-2.844,1.898-3.959c0.865-1.123,1.994-2.008,3.354-2.629c1.354-0.617,3-0.93,4.893-0.93
	c2.078,0,3.82,0.33,5.174,0.986c1.361,0.658,2.451,1.564,3.236,2.69c0.777,1.117,1.33,2.433,1.637,3.911
	c0.301,1.46,0.453,3.006,0.453,4.601c0,1.886-0.207,3.612-0.613,5.132c-0.412,1.535-1.063,2.869-1.936,3.963
	c-0.877,1.099-2.012,1.963-3.369,2.572c-1.354,0.605-2.99,0.912-4.857,0.912c-1.982,0-3.67-0.309-5.012-0.913
	C22.064,42.034,20.971,41.173,20.16,40.082z M29.754,65.472c-0.225,0.31-0.459,0.563-0.695,0.755
	c-0.244,0.198-0.547,0.365-0.9,0.494c-0.344,0.127-0.764,0.217-1.244,0.266c-0.469,0.049-1.047,0.072-1.717,0.072
	c-0.773,0-1.404-0.049-1.871-0.146c-0.512-0.109-0.877-0.275-1.117-0.51c-0.271-0.262-0.389-0.588-0.34-0.943
	c0.043-0.309,0.203-0.652,0.49-1.053l31.693-44.701c0.234-0.293,0.449-0.525,0.666-0.725c0.238-0.217,0.547-0.395,0.92-0.527
	c0.354-0.125,0.777-0.214,1.258-0.264c0.469-0.047,1.045-0.072,1.717-0.072c0.773,0,1.402,0.051,1.869,0.148
	c0.512,0.107,0.879,0.273,1.119,0.509c0.277,0.266,0.385,0.604,0.32,0.974c-0.057,0.311-0.209,0.645-0.467,1.02L29.754,65.472z
	 M65.406,59.011c-0.412,1.536-1.064,2.87-1.936,3.962c-0.879,1.1-2.012,1.965-3.369,2.572c-1.355,0.605-2.99,0.912-4.857,0.912
	c-1.982,0-3.67-0.307-5.012-0.912c-1.354-0.61-2.449-1.473-3.256-2.563c-0.803-1.084-1.377-2.395-1.709-3.898
	c-0.324-1.478-0.488-3.134-0.488-4.922c0-1.791,0.201-3.457,0.596-4.953c0.398-1.512,1.037-2.844,1.898-3.961
	c0.865-1.123,1.994-2.008,3.354-2.627c1.352-0.618,2.998-0.932,4.893-0.932c2.078,0,3.818,0.332,5.174,0.988
	c1.361,0.658,2.451,1.564,3.234,2.69c0.779,1.116,1.332,2.433,1.639,3.911c0.299,1.459,0.451,3.006,0.451,4.6
	C66.018,55.765,65.813,57.491,65.406,59.011z"/>
<path fill="#97BBD5" d="M26.299,36.67c0.266,0.468,0.584,0.791,0.953,0.96c0.393,0.181,0.857,0.272,1.383,0.272
	c0.6,0,1.102-0.121,1.484-0.358c0.379-0.237,0.688-0.611,0.924-1.116c0.246-0.531,0.428-1.23,0.537-2.077
	c0.113-0.866,0.17-1.917,0.17-3.123c0-1.274-0.068-2.371-0.203-3.259c-0.131-0.87-0.33-1.582-0.588-2.114
	c-0.244-0.502-0.57-0.871-0.969-1.097c-0.408-0.23-0.898-0.348-1.459-0.348c-0.516,0-0.973,0.11-1.357,0.33
	c-0.377,0.215-0.697,0.574-0.953,1.068c-0.268,0.52-0.471,1.211-0.604,2.055c-0.133,0.861-0.199,1.934-0.199,3.188
	c0,1.439,0.078,2.629,0.234,3.533C25.805,35.475,26.023,36.176,26.299,36.67z"/>
<rect id="_x3C_Slice_x3E__142_" x="0.355" y="0.895" fill="none" width="83.982" height="85.476"/>
<rect id="_x3C_Slice_x3E__81_" fill="none" width="85" height="87"/>
</svg>
