<?xml version="1.0" encoding="utf-8"?>
<!-- Generator: Adobe Illustrator 16.0.3, SVG Export Plug-In . SVG Version: 6.00 Build 0)  -->
<!DOCTYPE svg PUBLIC "-//W3C//DTD SVG 1.1//EN" "http://www.w3.org/Graphics/SVG/1.1/DTD/svg11.dtd" [
	<!ENTITY ns_flows "http://ns.adobe.com/Flows/1.0/">
	<!ENTITY ns_extend "http://ns.adobe.com/Extensibility/1.0/">
	<!ENTITY ns_ai "http://ns.adobe.com/AdobeIllustrator/10.0/">
	<!ENTITY ns_graphs "http://ns.adobe.com/Graphs/1.0/">
]>
<svg version="1.1" id="Layer_1" xmlns:x="&ns_extend;" xmlns:i="&ns_ai;" xmlns:graph="&ns_graphs;"
	 xmlns="http://www.w3.org/2000/svg" xmlns:xlink="http://www.w3.org/1999/xlink" xmlns:a="http://ns.adobe.com/AdobeSVGViewerExtensions/3.0/"
	 x="0px" y="0px" width="83.982px" height="85.476px" viewBox="0 0 83.982 85.476" enable-background="new 0 0 83.982 85.476"
	 xml:space="preserve">
<g id="Download_-_Orange">
</g>
<g id="Icon_2_-_Comments1">
</g>
<g id="Comments_-_Grey">
</g>
<g id="Go_to_Web">
</g>
<g id="Notepad">
</g>
<g id="Checklist">
</g>
<g id="Loading_3">
</g>
<g id="Print">
</g>
<g id="Tools">
</g>
<g id="Plus">
	<path fill="#AD5CAD" d="M57.418,47.859c-0.242-0.502-0.568-0.871-0.967-1.096c-0.408-0.232-0.898-0.348-1.459-0.348
		c-0.516,0-0.973,0.11-1.357,0.33c-0.377,0.214-0.697,0.574-0.953,1.066c-0.268,0.521-0.473,1.213-0.604,2.057
		c-0.133,0.86-0.201,1.933-0.201,3.186c0,1.441,0.08,2.631,0.236,3.534c0.152,0.892,0.371,1.593,0.646,2.087
		c0.264,0.467,0.584,0.79,0.953,0.96c0.393,0.181,0.857,0.271,1.383,0.271c0.6,0,1.1-0.119,1.48-0.357
		c0.381-0.236,0.689-0.611,0.926-1.116c0.246-0.53,0.43-1.229,0.539-2.077c0.113-0.865,0.168-1.918,0.168-3.123
		c0-1.274-0.068-2.37-0.201-3.259C57.875,49.104,57.678,48.393,57.418,47.859z"/>
	<path fill="#AD5CAD" d="M74.807,26.445l-0.754-13.156l-12.557-2.641L53.943,0L41.992,4.76L30.039,0l-7.551,10.648L9.93,13.289
		L9.176,26.445L0,35.646l6.283,11.486L3.402,59.975l11.324,6.172l4.33,12.404l12.771-1.104l10.164,8.028l10.164-8.028l12.771,1.104
		l4.328-12.404l11.324-6.172l-2.879-12.842l6.281-11.486L74.807,26.445z M19.805,39.188c-0.803-1.082-1.377-2.395-1.707-3.897
		c-0.326-1.479-0.49-3.134-0.49-4.923c0-1.79,0.201-3.457,0.596-4.953c0.398-1.512,1.037-2.844,1.898-3.959
		c0.865-1.123,1.994-2.008,3.354-2.629c1.354-0.617,3-0.93,4.893-0.93c2.078,0,3.82,0.33,5.174,0.986
		c1.361,0.658,2.451,1.564,3.236,2.69c0.777,1.117,1.33,2.433,1.637,3.911c0.301,1.46,0.453,3.006,0.453,4.601
		c0,1.886-0.207,3.612-0.613,5.132c-0.412,1.535-1.063,2.869-1.936,3.963c-0.877,1.099-2.012,1.963-3.369,2.572
		c-1.354,0.605-2.99,0.912-4.857,0.912c-1.982,0-3.67-0.309-5.012-0.913C21.709,41.14,20.615,40.278,19.805,39.188z M29.398,64.577
		c-0.225,0.31-0.459,0.563-0.695,0.755c-0.244,0.198-0.547,0.365-0.9,0.494c-0.344,0.127-0.764,0.217-1.244,0.266
		c-0.469,0.049-1.047,0.072-1.717,0.072c-0.773,0-1.404-0.049-1.871-0.146c-0.512-0.109-0.877-0.275-1.117-0.51
		c-0.271-0.262-0.389-0.588-0.34-0.943c0.043-0.309,0.203-0.652,0.49-1.053l31.693-44.701c0.234-0.293,0.449-0.525,0.666-0.725
		c0.238-0.217,0.547-0.395,0.92-0.527c0.354-0.125,0.777-0.214,1.258-0.264c0.469-0.047,1.045-0.072,1.717-0.072
		c0.773,0,1.402,0.051,1.869,0.148c0.512,0.107,0.879,0.273,1.119,0.509c0.277,0.266,0.385,0.604,0.32,0.974
		c-0.057,0.311-0.209,0.645-0.467,1.02L29.398,64.577z M65.051,58.116c-0.412,1.536-1.064,2.87-1.936,3.962
		c-0.879,1.1-2.012,1.965-3.369,2.572c-1.355,0.605-2.99,0.912-4.857,0.912c-1.982,0-3.67-0.307-5.012-0.912
		c-1.354-0.61-2.449-1.473-3.256-2.563c-0.803-1.084-1.377-2.395-1.709-3.898c-0.324-1.478-0.488-3.134-0.488-4.922
		c0-1.791,0.201-3.457,0.596-4.953c0.398-1.512,1.037-2.844,1.898-3.961c0.865-1.123,1.994-2.008,3.354-2.627
		c1.352-0.618,2.998-0.932,4.893-0.932c2.078,0,3.818,0.332,5.174,0.988c1.361,0.658,2.451,1.564,3.234,2.69
		c0.779,1.116,1.332,2.433,1.639,3.911c0.299,1.459,0.451,3.006,0.451,4.6C65.662,54.87,65.457,56.597,65.051,58.116z"/>
	<path fill="#AD5CAD" d="M25.943,35.775c0.266,0.468,0.584,0.791,0.953,0.96c0.393,0.181,0.857,0.272,1.383,0.272
		c0.6,0,1.102-0.121,1.484-0.358c0.379-0.237,0.688-0.611,0.924-1.116c0.246-0.531,0.428-1.23,0.537-2.077
		c0.113-0.866,0.17-1.917,0.17-3.123c0-1.274-0.068-2.371-0.203-3.259c-0.131-0.87-0.33-1.582-0.588-2.114
		c-0.244-0.502-0.57-0.871-0.969-1.097c-0.408-0.23-0.898-0.348-1.459-0.348c-0.516,0-0.973,0.11-1.357,0.33
		c-0.377,0.215-0.697,0.574-0.953,1.068c-0.268,0.52-0.471,1.211-0.604,2.055c-0.133,0.861-0.199,1.934-0.199,3.188
		c0,1.439,0.078,2.629,0.234,3.533C25.449,34.58,25.668,35.281,25.943,35.775z"/>
	<rect id="_x3C_Slice_x3E__32_" fill="none" width="83.982" height="85.476"/>
</g>
<g id="Credit_Card">
</g>
</svg>
