<?xml version="1.0" encoding="utf-8"?>
<!-- Generator: Adobe Illustrator 16.0.3, SVG Export Plug-In . SVG Version: 6.00 Build 0)  -->
<!DOCTYPE svg PUBLIC "-//W3C//DTD SVG 1.1//EN" "http://www.w3.org/Graphics/SVG/1.1/DTD/svg11.dtd">
<svg version="1.1" id="Layer_1" xmlns="http://www.w3.org/2000/svg" xmlns:xlink="http://www.w3.org/1999/xlink" x="0px" y="0px"
	 width="73px" height="87px" viewBox="0 0 73 87" enable-background="new 0 0 73 87" xml:space="preserve">
<path fill="#97BBD5" d="M70.05,38.859l-7.805-0.006c-8.871,0-8.871,0-8.871-8.877L53.37,3.826c0.004-0.707-0.307-1.418-0.854-1.965
	c-0.542-0.543-1.247-0.852-1.934-0.852L23.269,0.994c-0.761,0-1.451,0.285-1.988,0.824c-0.539,0.539-0.826,1.225-0.826,1.984
	l-0.025,26.156c-0.002,8.859-0.113,8.871-8.884,8.871l-7.781,0.012c-0.784-0.002-1.472,0.279-2.009,0.811
	c-0.533,0.533-0.814,1.219-0.814,1.988c-0.002,0.617,0.188,1.197,0.535,1.672l32.198,41.695c0.886,0.793,2.013,1.227,3.208,1.227
	c1.188-0.004,2.313-0.439,3.191-1.234L72.36,43.277c0.316-0.42,0.499-0.994,0.499-1.617C72.859,40.311,71.421,38.859,70.05,38.859z"
	/>
<rect id="_x3C_Slice_x3E__164_" fill="none" width="73" height="87"/>
</svg>
