<?xml version="1.0" encoding="utf-8"?>
<!-- Generator: Adobe Illustrator 16.0.3, SVG Export Plug-In . SVG Version: 6.00 Build 0)  -->
<!DOCTYPE svg PUBLIC "-//W3C//DTD SVG 1.1//EN" "http://www.w3.org/Graphics/SVG/1.1/DTD/svg11.dtd">
<svg version="1.1" id="Layer_1" xmlns="http://www.w3.org/2000/svg" xmlns:xlink="http://www.w3.org/1999/xlink" x="0px" y="0px"
	 width="84px" height="86px" viewBox="0 0 84 86" enable-background="new 0 0 84 86" xml:space="preserve">
<path fill="#97BBD5" d="M41.771,85.606c22.827,0,41.332-19.066,41.332-42.582c0-23.52-18.505-42.584-41.332-42.584
	c-22.828,0-41.334,19.064-41.334,42.584C0.437,66.54,18.942,85.606,41.771,85.606z M41.771,7.095
	c19.229,0,34.875,16.116,34.875,35.93c0,19.81-15.646,35.93-34.875,35.93c-19.23,0-34.875-16.12-34.875-35.93
	C6.896,23.211,22.54,7.095,41.771,7.095z"/>
<path fill="#97BBD5" d="M39.187,67.491c0.5,0.447,1.135,0.691,1.809,0.691c0.67-0.002,1.305-0.248,1.799-0.695l18.203-23.523
	c0.178-0.236,0.281-0.56,0.281-0.91c0-0.762-0.811-1.58-1.584-1.58l-4.4-0.004c-5,0-5,0-5-5.004l-0.002-14.743
	c0.002-0.399-0.174-0.8-0.482-1.108c-0.305-0.305-0.703-0.479-1.09-0.479l-15.399-0.01c-0.429,0-0.817,0.161-1.121,0.465
	c-0.304,0.303-0.466,0.689-0.466,1.119L31.72,36.456c-0.002,4.994-0.064,5.001-5.01,5.001l-4.386,0.007
	c-0.442-0.001-0.83,0.157-1.134,0.457c-0.299,0.301-0.458,0.688-0.458,1.121c-0.001,0.348,0.106,0.674,0.302,0.942L39.187,67.491z"
	/>
<rect id="_x3C_Slice_x3E__77_" fill="none" width="84" height="86"/>
</svg>
