<?xml version="1.0" encoding="utf-8"?>
<!-- Generator: Adobe Illustrator 16.0.3, SVG Export Plug-In . SVG Version: 6.00 Build 0)  -->
<!DOCTYPE svg PUBLIC "-//W3C//DTD SVG 1.1//EN" "http://www.w3.org/Graphics/SVG/1.1/DTD/svg11.dtd">
<svg version="1.1" id="Layer_1" xmlns="http://www.w3.org/2000/svg" xmlns:xlink="http://www.w3.org/1999/xlink" x="0px" y="0px"
	 width="89px" height="104px" viewBox="0 0 89 104" enable-background="new 0 0 89 104" xml:space="preserve">
<g>
	<path fill="#97BBD5" d="M75.177,31.571l-0.032-0.016c-0.077-0.589-0.284-1.158-0.602-1.663l0.054-0.105l-7.139-6.966l-0.303-0.291
		h-0.02c-0.584-0.479-1.285-0.785-2.037-0.887l-2.078-0.052l-9.262-0.001c-0.553-4.047-3.83-7.226-7.928-7.612
		c0.568-1.187,0.897-2.51,0.897-3.914c0-5.01-4.062-9.071-9.071-9.071s-9.07,4.062-9.07,9.071c0,1.404,0.328,2.728,0.897,3.915
		c-3.37,0.327-6.187,2.539-7.382,5.568c-0.285,0.64-0.472,1.319-0.535,2.04l-8.618-0.001L4.25,21.581
		c-1.815,0-3.574,1.12-4.093,2.81v0.122v75.312c0,2.258,1.836,4.093,4.092,4.093l21.604,0.035l1.87-7.403H7.609V28.992h5.34h50.071
		h0.172l4.537,4.414v8.602h7.451v-9.801L75.177,31.571z M37.658,6.439c2.04,0,3.698,1.681,3.698,3.749
		c0,2.063-1.658,3.747-3.698,3.747s-3.702-1.685-3.702-3.747C33.956,8.12,35.618,6.439,37.658,6.439z"/>
	<path fill="#93B4CB" d="M78.107,50.543c-2.103-2.087-5.506-2.122-7.563-0.088c-0.002,0.002-0.004,0.004-0.006,0.008l-0.001-0.004
		L38.991,81.723l-0.636,0.623l-5.462,21.605l21.78-5.416l2.033-2.05l30.136-29.871l0,0c0-0.002,0.003-0.002,0.005-0.006
		c2.054-2.034,2.015-5.408-0.088-7.49L78.107,50.543z M41.317,99.097l-3.49-3.641l2.763-10.932l11.906,11.797L41.317,99.097z
		 M54.685,89.021l-6.753-6.69l22.605-22.4l6.751,6.69L54.685,89.021z"/>
	<g>
		<path fill="#93B4CB" d="M21.204,45.066h34.634c1.601,0,2.899-1.157,2.899-2.588v-0.605c0-1.43-1.299-2.589-2.899-2.589H21.204
			c-1.602,0-2.898,1.159-2.898,2.589v0.605C18.306,43.909,19.603,45.066,21.204,45.066z"/>
		<path fill="#93B4CB" d="M58.737,52.596c0-1.432-1.299-2.588-2.899-2.588H21.204c-1.602,0-2.898,1.156-2.898,2.588v0.605
			c0,1.431,1.297,2.588,2.898,2.588h34.492l3.041-3.014V52.596z"/>
		<path fill="#93B4CB" d="M21.204,60.36c-1.602,0-2.898,1.159-2.898,2.588v0.607c0,1.429,1.297,2.588,2.898,2.588h24.045
			l5.836-5.783H21.204z"/>
		<path fill="#93B4CB" d="M37.164,74.1l1.212-1.146l2.232-2.213H21.204c-1.602,0-2.898,1.159-2.898,2.588v0.605
			c0,1.431,1.297,2.588,2.898,2.588h13.564l1.305-1.286L37.164,74.1z"/>
		<path fill="#93B4CB" d="M21.204,81.465c-1.602,0-2.898,1.157-2.898,2.588v0.605c0,1.431,1.297,2.588,2.898,2.588h9.049
			l1.461-5.781H21.204z"/>
	</g>
</g>
<rect id="_x3C_Slice_x3E__3_" fill="none" width="89" height="104"/>
</svg>
