<?xml version="1.0" encoding="utf-8"?>
<!-- Generator: Adobe Illustrator 16.0.3, SVG Export Plug-In . SVG Version: 6.00 Build 0)  -->
<!DOCTYPE svg PUBLIC "-//W3C//DTD SVG 1.1//EN" "http://www.w3.org/Graphics/SVG/1.1/DTD/svg11.dtd" [
	<!ENTITY ns_flows "http://ns.adobe.com/Flows/1.0/">
	<!ENTITY ns_extend "http://ns.adobe.com/Extensibility/1.0/">
	<!ENTITY ns_ai "http://ns.adobe.com/AdobeIllustrator/10.0/">
	<!ENTITY ns_graphs "http://ns.adobe.com/Graphs/1.0/">
]>
<svg version="1.1" id="Layer_1" xmlns:x="&ns_extend;" xmlns:i="&ns_ai;" xmlns:graph="&ns_graphs;"
	 xmlns="http://www.w3.org/2000/svg" xmlns:xlink="http://www.w3.org/1999/xlink" xmlns:a="http://ns.adobe.com/AdobeSVGViewerExtensions/3.0/"
	 x="0px" y="0px" width="71.971px" height="84.93px" viewBox="0 0 71.971 84.93" enable-background="new 0 0 71.971 84.93"
	 xml:space="preserve">
<g id="Download_-_Orange">
</g>
<g id="Icon_2_-_Comments1">
</g>
<g id="Comments_-_Grey">
</g>
<g id="Go_to_Web">
</g>
<g id="Notepad">
</g>
<g id="Checklist">
</g>
<g id="Loading_3">
</g>
<g id="Print">
</g>
<g id="Tools">
</g>
<g id="Plus">
	<path fill="#AD5CAD" d="M35.984,44.224c12.438,0,19.377-15.198,19.377-25.538c0-10.346-8.676-18.742-19.377-18.742
		c-10.707,0-19.377,8.396-19.377,18.742C16.607,29.025,23.324,44.224,35.984,44.224z"/>
	<path fill="#AD5CAD" d="M7.375,84.961h57.213c4.082,0,7.383-3.169,7.383-7.086v-3.543v-3.541c0-0.619-0.016-1.242,0-1.77
		c-0.057-2.053-0.885-5.9-2.42-7.813c-3.875-4.853-8.561-8.006-15.281-9.792l-6.293,21.146c0,1.948-1.658,3.544-3.689,3.544
		c-2.029,0-3.686-1.596-3.686-3.544V55.737c0-2.446-2.072-4.429-4.617-4.429s-4.615,1.982-4.615,4.429v16.825
		c0,1.948-1.658,3.544-3.691,3.544c-2.025,0-3.691-1.596-3.691-3.544l-6.293-21.146c-6.717,1.807-11.4,4.939-15.275,9.792
		C0.881,63.121,0.053,66.969,0,69.021c0.016,0.527,0,1.15,0,1.77v3.541v3.543C0,81.792,3.299,84.961,7.375,84.961z"/>
	<rect id="_x3C_Slice_x3E__37_" fill="none" width="71.971" height="84.93"/>
</g>
<g id="Credit_Card">
</g>
</svg>
