<?xml version="1.0" encoding="UTF-8" standalone="no"?>
<!-- Generator: Adobe Illustrator 16.0.3, SVG Export Plug-In . SVG Version: 6.00 Build 0)  -->

<svg
   xmlns:dc="http://purl.org/dc/elements/1.1/"
   xmlns:cc="http://creativecommons.org/ns#"
   xmlns:rdf="http://www.w3.org/1999/02/22-rdf-syntax-ns#"
   xmlns:svg="http://www.w3.org/2000/svg"
   xmlns="http://www.w3.org/2000/svg"
   xmlns:sodipodi="http://sodipodi.sourceforge.net/DTD/sodipodi-0.dtd"
   xmlns:inkscape="http://www.inkscape.org/namespaces/inkscape"
   version="1.1"
   id="Layer_1"
   x="0px"
   y="0px"
   width="84.01px"
   height="85.102px"
   viewBox="0 0 84.01 85.102"
   enable-background="new 0 0 84.01 85.102"
   xml:space="preserve"
   inkscape:version="0.48.3.1 r9886"
   sodipodi:docname="gears.svg"><metadata
   id="metadata23"><rdf:RDF><cc:Work
       rdf:about=""><dc:format>image/svg+xml</dc:format><dc:type
         rdf:resource="http://purl.org/dc/dcmitype/StillImage" /></cc:Work></rdf:RDF></metadata><defs
   id="defs21" /><sodipodi:namedview
   pagecolor="#ffffff"
   bordercolor="#666666"
   borderopacity="1"
   objecttolerance="10"
   gridtolerance="10"
   guidetolerance="10"
   inkscape:pageopacity="0"
   inkscape:pageshadow="2"
   inkscape:window-width="1024"
   inkscape:window-height="675"
   id="namedview19"
   showgrid="false"
   inkscape:zoom="2.7731429"
   inkscape:cx="42.005001"
   inkscape:cy="42.550999"
   inkscape:window-x="0"
   inkscape:window-y="27"
   inkscape:window-maximized="0"
   inkscape:current-layer="Plus" />
<g
   id="Download_-_Orange">
</g>
<g
   id="Icon_2_-_Comments1">
</g>
<g
   id="Comments_-_Grey">
</g>
<g
   id="Go_to_Web">
</g>
<g
   id="Notepad">
</g>
<g
   id="Checklist">
</g>
<g
   id="Loading_3">
</g>
<g
   id="Print">
</g>
<g
   id="Tools">
</g>
<g
   id="Plus">
	<path
   fill="#85D633"
   d="M84.01,53.221l-0.129-0.578c-0.275-1.227-0.664-2.466-1.189-3.785l-0.209-0.526l-0.564-0.036   c-2.063-0.132-4.256-0.051-6.416,0.237c-0.043-0.071-0.084-0.142-0.127-0.214c-0.291-0.491-0.59-1-0.979-1.478   c-0.348-0.497-0.752-1.001-1.227-1.528c0.951-1.728,1.752-3.549,2.498-5.68l0.203-0.579l-0.469-0.398   c-1.17-0.993-2.18-1.739-3.182-2.349l-0.477-0.291l-0.469,0.301c-1.838,1.166-3.529,2.49-5.037,3.939   c-0.453-0.199-0.908-0.364-1.352-0.523l-0.555-0.201c-0.604-0.179-1.238-0.361-1.893-0.506c-0.279-2.09-0.734-4.175-1.326-6.07   l-0.182-0.581l-0.611-0.043c-1.568-0.113-2.785-0.119-3.943-0.025l-0.551,0.046l-0.205,0.513c-0.76,1.881-1.363,3.997-1.76,6.153   c-0.666,0.146-1.311,0.333-1.924,0.515l-0.551,0.198c-0.436,0.157-0.883,0.318-1.326,0.513c-1.426-1.509-2.982-2.894-4.637-4.121   l-0.469-0.349l-0.508,0.289c-1.104,0.628-2.096,1.398-3.055,2.146l-0.637,0.495l0.154,0.575c0.617,2.275,1.326,4.202,2.209,6.011   c-0.48,0.534-0.893,1.046-1.25,1.552c-0.385,0.479-0.686,0.989-0.977,1.481c-0.037,0.062-0.074,0.121-0.109,0.182   c-2.012-0.372-4.096-0.582-6.201-0.625l-0.633-0.012l-0.313,0.824c-0.426,1.127-0.865,2.293-1.139,3.521l-0.119,0.533l0.418,0.35   c1.594,1.331,3.379,2.527,5.313,3.563c-0.035,0.372-0.049,0.74-0.061,1.099c-0.012,0.282-0.021,0.563-0.041,0.844l-0.006,0.069   l0.006,0.069c0.02,0.28,0.029,0.562,0.041,0.844c0.012,0.348,0.023,0.705,0.057,1.068c-1.939,0.922-3.783,1.995-5.363,3.124   l-0.484,0.345l0.129,0.579c0.279,1.237,0.668,2.476,1.191,3.786l0.207,0.525l0.564,0.035c2.064,0.135,4.26,0.052,6.416-0.236   c0.043,0.068,0.084,0.139,0.127,0.209c0.291,0.493,0.592,1.004,0.977,1.482c0.352,0.497,0.754,1.001,1.229,1.527   c-0.953,1.73-1.752,3.553-2.498,5.68l-0.201,0.58l0.467,0.398c1.17,0.994,2.182,1.74,3.184,2.348l0.477,0.291l0.469-0.299   c1.838-1.168,3.527-2.492,5.037-3.941c0.451,0.2,0.91,0.365,1.355,0.525l0.492,0.18l0.059,0.02c0.605,0.18,1.238,0.361,1.891,0.507   c0.279,2.092,0.736,4.178,1.326,6.069l0.184,0.581l0.609,0.044c0.836,0.061,1.574,0.09,2.258,0.09c0.596,0,1.146-0.021,1.688-0.065   l0.549-0.046l0.207-0.512c0.758-1.884,1.363-4,1.758-6.154c0.666-0.146,1.311-0.332,1.926-0.514l0.553-0.199   c0.436-0.158,0.881-0.318,1.322-0.512c1.426,1.508,2.982,2.892,4.637,4.121l0.469,0.349l0.508-0.29   c1.105-0.629,2.098-1.398,3.057-2.145l0.637-0.495l-0.156-0.576c-0.617-2.271-1.324-4.199-2.209-6.01   c0.482-0.537,0.895-1.048,1.248-1.552c0.389-0.479,0.688-0.988,0.979-1.48c0.037-0.062,0.072-0.122,0.109-0.185   c2.014,0.374,4.098,0.584,6.201,0.626l0.633,0.013l0.309-0.821c0.428-1.129,0.869-2.295,1.145-3.525l0.117-0.533l-0.418-0.35   c-1.596-1.331-3.379-2.527-5.313-3.563c0.037-0.374,0.049-0.742,0.063-1.102c0.012-0.281,0.02-0.563,0.041-0.842l0.006-0.069   l-0.006-0.069c-0.021-0.279-0.029-0.561-0.041-0.842c-0.014-0.35-0.023-0.707-0.059-1.069c1.939-0.923,3.781-1.995,5.363-3.124   L84.01,53.221z M66.99,65.117c-0.156,0.225-0.324,0.443-0.502,0.656c-1.246,1.487-2.98,2.654-4.963,3.326   c-0.227,0.074-0.459,0.135-0.691,0.193c-0.875,0.218-1.791,0.331-2.701,0.331c-1.156,0-2.311-0.175-3.379-0.521   c-2.275-0.771-4.221-2.187-5.494-4.008c-1.338-1.796-2.064-4.021-2.1-6.411c0.035-2.415,0.764-4.642,2.117-6.459   c1.256-1.8,3.201-3.215,5.467-3.982c1.076-0.351,2.219-0.528,3.391-0.528s2.313,0.178,3.381,0.523   c2.273,0.772,4.219,2.188,5.492,4.009c1.338,1.796,2.064,4.021,2.102,6.409C69.072,61.074,68.346,63.3,66.99,65.117z"
   id="path13"
   style="fill:#85d6f5;fill-opacity:1" />
	<path
   fill="#85D633"
   d="M36.795,46.289l0.486-0.307c0.666-0.416,1.242-0.805,1.762-1.186c0.449-0.328,0.854-0.65,1.238-0.984   l0.393-0.342l-0.129-0.502c-0.473-1.847-1.189-3.783-2.086-5.635c0.422-0.48,0.809-0.979,1.172-1.459l0.309-0.459   c0.242-0.359,0.49-0.729,0.719-1.121c1.914,0.351,3.861,0.533,5.797,0.546l0.547,0.005l0.227-0.503   c0.488-1.089,0.813-2.223,1.123-3.319l0.207-0.729l-0.438-0.352c-1.729-1.377-3.336-2.443-5.012-3.323   c0.07-0.674,0.098-1.29,0.084-1.866c0.029-0.58-0.027-1.132-0.08-1.666c-0.008-0.068-0.014-0.134-0.02-0.2   c1.732-0.835,3.428-1.833,5.043-2.97l0.484-0.341L48.4,18.783c-0.305-1.092-0.617-2.22-1.092-3.305l-0.205-0.469l-0.512-0.033   c-1.947-0.121-3.965-0.037-6,0.252c-0.18-0.303-0.377-0.589-0.566-0.868c-0.146-0.218-0.297-0.437-0.436-0.659l-0.035-0.057   l-0.041-0.049c-0.172-0.2-0.336-0.408-0.5-0.615c-0.203-0.257-0.41-0.521-0.637-0.777c0.953-1.773,1.754-3.609,2.326-5.344   l0.174-0.529l-0.418-0.367c-0.891-0.776-1.873-1.498-3.002-2.205l-0.451-0.283l-0.447,0.286c-1.635,1.046-3.25,2.325-4.729,3.743   c-0.07-0.031-0.141-0.061-0.213-0.091c-0.494-0.212-1.002-0.431-1.563-0.577c-0.539-0.182-1.125-0.339-1.775-0.476   c-0.24-1.835-0.646-3.659-1.262-5.688L26.85,0.121L26.271,0.08c-1.438-0.104-2.617-0.106-3.713-0.012l-0.521,0.044l-0.191,0.488   c-0.74,1.904-1.285,3.845-1.625,5.781c-0.451,0.099-0.889,0.228-1.313,0.353l-0.533,0.156c-0.555,0.201-1.137,0.414-1.713,0.668   c-1.371-1.428-2.875-2.754-4.375-3.859l-0.461-0.34l-0.484,0.307c-1.252,0.785-2.178,1.457-3,2.171L7.947,6.178L8.078,6.68   c0.471,1.846,1.188,3.783,2.084,5.637c-0.422,0.48-0.809,0.979-1.172,1.458L8.684,14.23c-0.242,0.36-0.492,0.731-0.719,1.124   c-1.918-0.351-3.863-0.535-5.799-0.546l-0.549-0.004l-0.225,0.501c-0.486,1.089-0.811,2.223-1.121,3.319l-0.209,0.73l0.439,0.349   c1.73,1.38,3.336,2.447,5.008,3.325c-0.066,0.672-0.094,1.288-0.082,1.868c-0.027,0.578,0.027,1.131,0.08,1.666   c0.008,0.066,0.014,0.133,0.021,0.197c-1.732,0.836-3.426,1.833-5.043,2.97L0,30.072l0.221,0.799   c0.305,1.09,0.617,2.217,1.092,3.299l0.205,0.471l0.512,0.031c1.947,0.121,3.965,0.038,6.002-0.252   c0.18,0.303,0.375,0.588,0.564,0.866c0.146,0.22,0.297,0.438,0.436,0.661l0.035,0.057l0.043,0.049   c0.172,0.202,0.334,0.408,0.5,0.617c0.203,0.256,0.41,0.52,0.637,0.775c-0.957,1.775-1.756,3.611-2.328,5.345l-0.174,0.529   l0.42,0.367c0.898,0.781,1.879,1.503,3.004,2.206l0.449,0.281l0.447-0.285c1.637-1.045,3.252-2.327,4.727-3.744   c0.07,0.029,0.141,0.061,0.209,0.09c0.498,0.213,1.006,0.432,1.566,0.58c0.541,0.181,1.127,0.338,1.777,0.475   c0.238,1.839,0.645,3.662,1.264,5.687l0.168,0.553l0.576,0.04c1.438,0.104,2.617,0.107,3.711,0.012l0.523-0.044l0.189-0.487   c0.742-1.906,1.287-3.848,1.627-5.782c0.451-0.099,0.891-0.229,1.316-0.354l0.473-0.138l0.057-0.019   c0.555-0.2,1.137-0.413,1.711-0.666c1.375,1.43,2.877,2.755,4.377,3.859L36.795,46.289z M34.582,25.564   c-0.117,1.816-0.783,3.664-1.914,5.273c-0.129,0.181-0.27,0.356-0.414,0.53c-0.543,0.651-1.172,1.244-1.861,1.751   c-0.877,0.643-1.848,1.151-2.848,1.482c-2.152,0.678-4.41,0.687-6.387,0.014c-2.008-0.615-3.795-1.898-5.15-3.686   c-1.313-1.85-1.996-3.94-1.982-6.066c-0.047-2.062,0.639-4.213,1.928-6.053c0.621-0.863,1.387-1.631,2.275-2.282   c0.885-0.649,1.85-1.149,2.85-1.479c2.15-0.68,4.408-0.688,6.385-0.016c2.008,0.617,3.795,1.898,5.15,3.687   c1.314,1.851,2,3.94,1.982,6.067C34.602,25.045,34.598,25.303,34.582,25.564z"
   id="path15"
   style="fill:#85d6ff;fill-opacity:1" />
	<rect
   id="_x3C_Slice_x3E__24_"
   fill="none"
   width="84.01"
   height="85.102" />
</g>
<g
   id="Credit_Card">
</g>
</svg>