<?xml version="1.0" encoding="utf-8"?>
<!-- Generator: Adobe Illustrator 16.0.3, SVG Export Plug-In . SVG Version: 6.00 Build 0)  -->
<!DOCTYPE svg PUBLIC "-//W3C//DTD SVG 1.1//EN" "http://www.w3.org/Graphics/SVG/1.1/DTD/svg11.dtd">
<svg version="1.1" id="Layer_1" xmlns="http://www.w3.org/2000/svg" xmlns:xlink="http://www.w3.org/1999/xlink" x="0px" y="0px"
	 width="85px" height="87px" viewBox="0 0 85 87" enable-background="new 0 0 85 87" xml:space="preserve">
<path fill="#97BBD5" d="M84.603,54.166l-0.129-0.578c-0.275-1.227-0.664-2.465-1.189-3.785l-0.209-0.525l-0.564-0.037
	c-2.063-0.131-4.256-0.051-6.416,0.238c-0.043-0.072-0.084-0.143-0.127-0.215c-0.291-0.49-0.59-1-0.979-1.477
	c-0.348-0.498-0.752-1.002-1.227-1.529c0.951-1.727,1.752-3.549,2.498-5.68L76.464,40l-0.469-0.398
	c-1.17-0.994-2.18-1.74-3.182-2.35l-0.477-0.291l-0.469,0.301c-1.838,1.166-3.529,2.49-5.037,3.939
	c-0.453-0.199-0.908-0.363-1.352-0.523l-0.555-0.201c-0.604-0.178-1.238-0.361-1.893-0.506c-0.279-2.09-0.734-4.174-1.326-6.07
	l-0.182-0.58l-0.611-0.043c-1.568-0.113-2.785-0.119-3.943-0.025l-0.551,0.045l-0.205,0.514c-0.76,1.881-1.363,3.996-1.76,6.152
	c-0.666,0.146-1.311,0.334-1.924,0.516l-0.551,0.197c-0.436,0.158-0.883,0.318-1.326,0.514c-1.426-1.51-2.982-2.895-4.637-4.121
	l-0.469-0.35l-0.508,0.289c-1.104,0.629-2.096,1.398-3.055,2.146l-0.637,0.494l0.154,0.576c0.617,2.275,1.326,4.201,2.209,6.01
	c-0.48,0.535-0.893,1.047-1.25,1.553c-0.385,0.479-0.686,0.988-0.977,1.48c-0.037,0.063-0.074,0.121-0.109,0.182
	c-2.012-0.371-4.096-0.582-6.201-0.625l-0.633-0.012l-0.313,0.824c-0.426,1.127-0.865,2.293-1.139,3.521l-0.119,0.533l0.418,0.35
	c1.594,1.332,3.379,2.527,5.313,3.564c-0.035,0.371-0.049,0.74-0.061,1.098c-0.012,0.283-0.021,0.563-0.041,0.844l-0.006,0.07
	l0.006,0.068c0.02,0.281,0.029,0.563,0.041,0.844c0.012,0.348,0.023,0.705,0.057,1.068c-1.939,0.922-3.783,1.996-5.363,3.125
	l-0.484,0.344l0.129,0.58c0.279,1.236,0.668,2.475,1.191,3.785l0.207,0.525l0.564,0.035c2.064,0.135,4.26,0.053,6.416-0.236
	c0.043,0.068,0.084,0.139,0.127,0.209c0.291,0.494,0.592,1.004,0.977,1.482c0.352,0.498,0.754,1.002,1.229,1.527
	c-0.953,1.73-1.752,3.553-2.498,5.68l-0.201,0.58l0.467,0.398c1.17,0.994,2.182,1.74,3.184,2.348l0.477,0.291l0.469-0.299
	c1.838-1.168,3.527-2.492,5.037-3.941c0.451,0.201,0.91,0.365,1.355,0.525l0.492,0.18l0.059,0.02
	c0.605,0.18,1.238,0.361,1.891,0.508c0.279,2.092,0.736,4.178,1.326,6.068l0.184,0.582l0.609,0.043
	c0.836,0.061,1.574,0.09,2.258,0.09c0.596,0,1.146-0.021,1.688-0.064l0.549-0.047l0.207-0.512c0.758-1.883,1.363-4,1.758-6.154
	c0.666-0.145,1.311-0.332,1.926-0.514l0.553-0.199c0.436-0.158,0.881-0.318,1.322-0.512c1.426,1.508,2.982,2.893,4.637,4.121
	l0.469,0.35l0.508-0.291c1.105-0.629,2.098-1.398,3.057-2.145l0.637-0.494L75.95,79.01c-0.617-2.271-1.324-4.199-2.209-6.01
	c0.482-0.537,0.895-1.049,1.248-1.553c0.389-0.479,0.688-0.988,0.979-1.48c0.037-0.061,0.072-0.121,0.109-0.184
	c2.014,0.373,4.098,0.584,6.201,0.625l0.633,0.014L83.22,69.6c0.428-1.129,0.869-2.295,1.145-3.525l0.117-0.533l-0.418-0.35
	c-1.596-1.33-3.379-2.527-5.313-3.563c0.037-0.373,0.049-0.742,0.063-1.102c0.012-0.281,0.02-0.563,0.041-0.842l0.006-0.068
	l-0.006-0.07c-0.021-0.279-0.029-0.561-0.041-0.842c-0.014-0.35-0.023-0.707-0.059-1.068c1.939-0.924,3.781-1.996,5.363-3.125
	L84.603,54.166z M67.583,66.063c-0.156,0.225-0.324,0.443-0.502,0.656c-1.246,1.488-2.98,2.654-4.963,3.326
	c-0.227,0.074-0.459,0.135-0.691,0.193c-0.875,0.219-1.791,0.332-2.701,0.332c-1.156,0-2.311-0.176-3.379-0.521
	c-2.275-0.771-4.221-2.186-5.494-4.008c-1.338-1.795-2.064-4.021-2.1-6.41c0.035-2.416,0.764-4.643,2.117-6.459
	c1.256-1.801,3.201-3.215,5.467-3.982c1.076-0.352,2.219-0.529,3.391-0.529s2.313,0.178,3.381,0.523
	c2.273,0.773,4.219,2.188,5.492,4.01c1.338,1.795,2.064,4.021,2.102,6.408C69.665,62.02,68.938,64.246,67.583,66.063z"/>
<path fill="#97BBD5" d="M37.388,47.234l0.486-0.307c0.666-0.416,1.242-0.805,1.762-1.186c0.449-0.328,0.854-0.65,1.238-0.984
	l0.393-0.342l-0.129-0.502c-0.473-1.846-1.189-3.783-2.086-5.635c0.422-0.48,0.809-0.979,1.172-1.459l0.309-0.459
	c0.242-0.359,0.49-0.729,0.719-1.121c1.914,0.352,3.861,0.533,5.797,0.547l0.547,0.004l0.227-0.502
	c0.488-1.09,0.813-2.223,1.123-3.32l0.207-0.729l-0.438-0.352c-1.729-1.377-3.336-2.443-5.012-3.322
	c0.07-0.674,0.098-1.291,0.084-1.867c0.029-0.58-0.027-1.131-0.08-1.666c-0.008-0.068-0.014-0.133-0.02-0.199
	c1.732-0.836,3.428-1.834,5.043-2.971l0.484-0.34l-0.221-0.795c-0.305-1.092-0.617-2.219-1.092-3.305l-0.205-0.469l-0.512-0.033
	c-1.947-0.121-3.965-0.037-6,0.252c-0.18-0.303-0.377-0.588-0.566-0.867c-0.146-0.219-0.297-0.438-0.436-0.66l-0.035-0.057
	l-0.041-0.049c-0.172-0.199-0.336-0.408-0.5-0.615c-0.203-0.256-0.41-0.521-0.637-0.777c0.953-1.773,1.754-3.609,2.326-5.344
	l0.174-0.529l-0.418-0.367c-0.891-0.775-1.873-1.498-3.002-2.205L37.599,4.42l-0.447,0.287c-1.635,1.045-3.25,2.324-4.729,3.742
	c-0.07-0.031-0.141-0.061-0.213-0.09c-0.494-0.213-1.002-0.432-1.563-0.578c-0.539-0.182-1.125-0.338-1.775-0.475
	c-0.24-1.836-0.646-3.66-1.262-5.688l-0.168-0.553l-0.578-0.041c-1.438-0.104-2.617-0.105-3.713-0.012L22.63,1.059l-0.191,0.488
	c-0.74,1.904-1.285,3.844-1.625,5.781c-0.451,0.098-0.889,0.227-1.313,0.352l-0.533,0.156c-0.555,0.201-1.137,0.414-1.713,0.668
	C15.884,7.076,14.38,5.75,12.88,4.645l-0.461-0.34l-0.484,0.307c-1.252,0.785-2.178,1.457-3,2.172L8.54,7.123l0.131,0.502
	c0.471,1.846,1.188,3.783,2.084,5.637c-0.422,0.48-0.809,0.979-1.172,1.459l-0.307,0.455c-0.242,0.361-0.492,0.732-0.719,1.125
	c-1.918-0.352-3.863-0.535-5.799-0.547L2.21,15.75l-0.225,0.502c-0.486,1.088-0.811,2.223-1.121,3.318l-0.209,0.73l0.439,0.35
	c1.73,1.379,3.336,2.447,5.008,3.324c-0.066,0.672-0.094,1.289-0.082,1.869c-0.027,0.578,0.027,1.131,0.08,1.666
	c0.008,0.066,0.014,0.133,0.021,0.197c-1.732,0.836-3.426,1.832-5.043,2.969l-0.486,0.342l0.221,0.799
	c0.305,1.09,0.617,2.217,1.092,3.299l0.205,0.471l0.512,0.031c1.947,0.121,3.965,0.039,6.002-0.252
	c0.18,0.303,0.375,0.588,0.564,0.867c0.146,0.219,0.297,0.438,0.436,0.66l0.035,0.057l0.043,0.049
	c0.172,0.203,0.334,0.408,0.5,0.617c0.203,0.256,0.41,0.52,0.637,0.775c-0.957,1.775-1.756,3.611-2.328,5.346l-0.174,0.529
	l0.42,0.367c0.898,0.781,1.879,1.502,3.004,2.205l0.449,0.281l0.447-0.285c1.637-1.045,3.252-2.326,4.727-3.744
	c0.07,0.029,0.141,0.061,0.209,0.09c0.498,0.213,1.006,0.432,1.566,0.58c0.541,0.182,1.127,0.338,1.777,0.475
	c0.238,1.84,0.645,3.662,1.264,5.688l0.168,0.553l0.576,0.039c1.438,0.104,2.617,0.107,3.711,0.012l0.523-0.043l0.189-0.488
	c0.742-1.906,1.287-3.848,1.627-5.781c0.451-0.1,0.891-0.229,1.316-0.354l0.473-0.139l0.057-0.018
	c0.555-0.201,1.137-0.414,1.711-0.666c1.375,1.43,2.877,2.754,4.377,3.859L37.388,47.234z M35.175,26.51
	c-0.117,1.816-0.783,3.664-1.914,5.273c-0.129,0.182-0.27,0.357-0.414,0.531c-0.543,0.65-1.172,1.244-1.861,1.75
	c-0.877,0.643-1.848,1.152-2.848,1.482c-2.152,0.678-4.41,0.688-6.387,0.014c-2.008-0.615-3.795-1.898-5.15-3.686
	c-1.313-1.85-1.996-3.939-1.982-6.066c-0.047-2.061,0.639-4.213,1.928-6.053c0.621-0.863,1.387-1.631,2.275-2.281
	c0.885-0.65,1.85-1.15,2.85-1.48c2.15-0.68,4.408-0.688,6.385-0.016c2.008,0.617,3.795,1.898,5.15,3.688
	c1.314,1.85,2,3.939,1.982,6.066C35.194,25.99,35.19,26.248,35.175,26.51z"/>
<rect id="_x3C_Slice_x3E__150_" x="0.593" y="0.795" fill="none" width="84.01" height="85.252"/>
<rect id="_x3C_Slice_x3E__155_" fill="none" width="85" height="87"/>
</svg>
