<?xml version="1.0" encoding="utf-8"?>
<!-- Generator: Adobe Illustrator 16.0.3, SVG Export Plug-In . SVG Version: 6.00 Build 0)  -->
<!DOCTYPE svg PUBLIC "-//W3C//DTD SVG 1.1//EN" "http://www.w3.org/Graphics/SVG/1.1/DTD/svg11.dtd">
<svg version="1.1" id="Layer_1" xmlns="http://www.w3.org/2000/svg" xmlns:xlink="http://www.w3.org/1999/xlink" x="0px" y="0px"
	 width="85px" height="86px" viewBox="0 0 85 86" enable-background="new 0 0 85 86" xml:space="preserve">
<path fill="#97BBD5" d="M0.507,51.603l0.218,0.971c0.447,1.994,1.074,3.994,1.918,6.111l0.351,0.882l0.946,0.062
	c3.316,0.213,6.845,0.082,10.314-0.38c0.061,0.101,0.12,0.202,0.18,0.304c0.47,0.797,0.956,1.621,1.585,2.396
	c0.556,0.793,1.199,1.598,1.952,2.438c-1.525,2.776-2.811,5.707-4.01,9.131l-0.34,0.973l0.785,0.666
	c1.892,1.606,3.522,2.812,5.134,3.793l0.798,0.486l0.788-0.502c2.952-1.878,5.672-4.006,8.1-6.334
	c0.721,0.316,1.446,0.578,2.155,0.834l0.791,0.289l0.098,0.033c0.963,0.284,1.975,0.576,3.014,0.809
	c0.45,3.359,1.183,6.71,2.135,9.755l0.305,0.975l1.019,0.073c1.354,0.099,2.547,0.146,3.647,0.146c0.96,0,1.85-0.035,2.721-0.107
	l0.923-0.076l0.347-0.859c1.219-3.029,2.189-6.431,2.83-9.895c1.057-0.234,2.088-0.531,3.066-0.82l0.889-0.321
	c0.693-0.25,1.402-0.506,2.105-0.813c2.289,2.42,4.791,4.645,7.453,6.623l0.785,0.584l0.852-0.484
	c1.779-1.014,3.377-2.256,4.922-3.457l1.066-0.829l-0.262-0.964c-0.994-3.657-2.131-6.758-3.547-9.666
	c0.768-0.855,1.422-1.672,1.988-2.479c0.629-0.775,1.115-1.6,1.586-2.398c0.051-0.085,0.1-0.17,0.15-0.255
	c3.238,0.598,6.584,0.935,9.963,1.002l1.061,0.021l0.514-1.362c0.689-1.822,1.4-3.705,1.844-5.692l0.199-0.892l-0.701-0.586
	c-2.564-2.143-5.432-4.068-8.537-5.734c0.057-0.591,0.076-1.171,0.098-1.74c0.016-0.452,0.031-0.904,0.066-1.355l0.01-0.117
	l-0.01-0.116c-0.035-0.45-0.051-0.903-0.066-1.356c-0.021-0.551-0.041-1.113-0.092-1.686c3.115-1.484,6.076-3.211,8.617-5.025
	l0.811-0.578l-0.219-0.971c-0.445-1.988-1.072-3.988-1.918-6.112l-0.35-0.882l-0.947-0.061c-3.316-0.213-6.842-0.083-10.314,0.379
	c-0.059-0.102-0.119-0.202-0.178-0.303c-0.471-0.799-0.957-1.623-1.586-2.398c-0.557-0.793-1.201-1.597-1.953-2.437
	c1.525-2.776,2.811-5.708,4.01-9.131l0.34-0.972l-0.785-0.668c-1.895-1.607-3.525-2.813-5.135-3.793l-0.797-0.484l-0.789,0.5
	c-2.951,1.879-5.672,4.008-8.098,6.335c-0.721-0.317-1.447-0.579-2.156-0.835l-0.791-0.288l-0.098-0.032
	c-0.963-0.285-1.975-0.576-3.014-0.81c-0.449-3.358-1.182-6.71-2.135-9.755l-0.305-0.975l-1.019-0.074
	c-2.534-0.184-4.499-0.192-6.368-0.039l-0.923,0.076l-0.346,0.859c-1.219,3.031-2.19,6.432-2.83,9.896
	c-1.058,0.234-2.088,0.531-3.067,0.821l-0.889,0.32c-0.692,0.25-1.401,0.506-2.106,0.813c-2.288-2.421-4.791-4.646-7.451-6.622
	l-0.785-0.584l-0.852,0.484c-1.782,1.014-3.381,2.258-4.928,3.461l-1.062,0.824l0.263,0.965c0.993,3.656,2.13,6.758,3.547,9.666
	c-0.768,0.854-1.424,1.671-1.988,2.478c-0.629,0.775-1.115,1.601-1.586,2.397c-0.05,0.086-0.101,0.171-0.15,0.256
	c-3.238-0.598-6.585-0.935-9.964-1.002l-1.06-0.021l-0.515,1.363c-0.688,1.821-1.4,3.705-1.845,5.691L0.7,33.308l0.702,0.586
	c2.563,2.141,5.432,4.066,8.537,5.733c-0.056,0.591-0.076,1.171-0.097,1.739c-0.016,0.453-0.031,0.906-0.066,1.356l-0.01,0.116
	l0.01,0.117c0.035,0.451,0.051,0.904,0.066,1.356c0.021,0.552,0.04,1.113,0.092,1.686c-3.115,1.485-6.076,3.211-8.618,5.026
	L0.507,51.603z M28.044,32.479c2.02-2.893,5.145-5.167,8.781-6.398c1.731-0.563,3.564-0.85,5.446-0.85s3.715,0.286,5.432,0.844
	c3.654,1.238,6.779,3.512,8.824,6.441c2.148,2.885,3.316,6.463,3.375,10.299C59.844,46.7,58.676,50.278,56.5,53.2
	c-2.018,2.892-5.143,5.166-8.779,6.398c-3.469,1.125-7.45,1.119-10.878,0.006c-3.654-1.238-6.779-3.513-8.825-6.441
	c-2.147-2.887-3.315-6.465-3.375-10.301C24.702,38.98,25.87,35.402,28.044,32.479z"/>
<rect id="_x3C_Slice_x3E__86_" fill="none" width="85" height="86"/>
</svg>
