<?xml version="1.0" encoding="UTF-8" standalone="no"?>
<!-- Generator: Adobe Illustrator 16.0.3, SVG Export Plug-In . SVG Version: 6.00 Build 0)  -->

<svg
   xmlns:dc="http://purl.org/dc/elements/1.1/"
   xmlns:cc="http://creativecommons.org/ns#"
   xmlns:rdf="http://www.w3.org/1999/02/22-rdf-syntax-ns#"
   xmlns:svg="http://www.w3.org/2000/svg"
   xmlns="http://www.w3.org/2000/svg"
   xmlns:sodipodi="http://sodipodi.sourceforge.net/DTD/sodipodi-0.dtd"
   xmlns:inkscape="http://www.inkscape.org/namespaces/inkscape"
   version="1.1"
   id="Layer_1"
   x="0px"
   y="0px"
   width="83px"
   height="58px"
   viewBox="0 0 83 58"
   enable-background="new 0 0 83 58"
   xml:space="preserve"
   inkscape:version="0.48.3.1 r9886"
   sodipodi:docname="credit_card.svg"><metadata
   id="metadata10"><rdf:RDF><cc:Work
       rdf:about=""><dc:format>image/svg+xml</dc:format><dc:type
         rdf:resource="http://purl.org/dc/dcmitype/StillImage" /><dc:title></dc:title></cc:Work></rdf:RDF></metadata><defs
   id="defs8" /><sodipodi:namedview
   pagecolor="#ffffff"
   bordercolor="#666666"
   borderopacity="1"
   objecttolerance="10"
   gridtolerance="10"
   guidetolerance="10"
   inkscape:pageopacity="0"
   inkscape:pageshadow="2"
   inkscape:window-width="1335"
   inkscape:window-height="682"
   id="namedview6"
   showgrid="false"
   inkscape:zoom="4"
   inkscape:cx="22.236815"
   inkscape:cy="11.592189"
   inkscape:window-x="631"
   inkscape:window-y="250"
   inkscape:window-maximized="0"
   inkscape:current-layer="Layer_1" />
<path
   d="m 7.78125,0.375 c -4.271,0 -7.75,3.50825 -7.75,7.78125 l 0,6.03125 0,12.9375 0,22.4375 c 0,4.271 3.478,7.78125 7.75,7.78125 l 67.3125,0 c 4.271,0 7.78125,-3.50925 7.78125,-7.78125 l 0,-22.4375 0,-12.9375 0,-6.03125 c 0,-4.272 -3.51025,-7.78125 -7.78125,-7.78125 z m 0,3.90625 67.3125,0 c 2.142,0 3.90625,1.733 3.90625,3.875 0.09055,14.278408 -0.04121,28.299893 0,41.40625 0,2.141 -1.76425,3.90625 -3.90625,3.90625 l -67.3125,0 c -2.142,0 -3.875,-1.76525 -3.875,-3.90625 0.077086,-13.628878 -0.00427,-29.006311 0,-41.40625 0,-2.142 1.733,-3.875 3.875,-3.875 z"
   id="path3"
   style="fill:#97bbd5;fill-opacity:1"
   inkscape:connector-curvature="0"
   sodipodi:nodetypes="ssccssssccsssssccssccs" />
<rect
   id="_x3C_Slice_x3E__109_"
   fill="none"
   width="83"
   height="58" />
<text
   xml:space="preserve"
   style="font-size:40px;font-style:normal;font-weight:normal;line-height:125%;letter-spacing:0px;word-spacing:0px;fill:#97bbd5;fill-opacity:1;stroke:none;font-family:Sans"
   x="23.5"
   y="42.75"
   id="text3759"
   sodipodi:linespacing="125%"><tspan
     sodipodi:role="line"
     id="tspan3761"
     x="23.5"
     y="42.75"
     style="font-weight:bold;-inkscape-font-specification:Sans Bold;fill:#97bbd5;fill-opacity:1">G</tspan></text>
</svg>