<?xml version="1.0" encoding="utf-8"?>
<!-- Generator: Adobe Illustrator 16.0.3, SVG Export Plug-In . SVG Version: 6.00 Build 0)  -->
<!DOCTYPE svg PUBLIC "-//W3C//DTD SVG 1.1//EN" "http://www.w3.org/Graphics/SVG/1.1/DTD/svg11.dtd" [
	<!ENTITY ns_flows "http://ns.adobe.com/Flows/1.0/">
	<!ENTITY ns_extend "http://ns.adobe.com/Extensibility/1.0/">
	<!ENTITY ns_ai "http://ns.adobe.com/AdobeIllustrator/10.0/">
	<!ENTITY ns_graphs "http://ns.adobe.com/Graphs/1.0/">
]>
<svg version="1.1" id="Layer_1" xmlns:x="&ns_extend;" xmlns:i="&ns_ai;" xmlns:graph="&ns_graphs;"
	 xmlns="http://www.w3.org/2000/svg" xmlns:xlink="http://www.w3.org/1999/xlink" xmlns:a="http://ns.adobe.com/AdobeSVGViewerExtensions/3.0/"
	 x="0px" y="0px" width="83.764px" height="85.018px" viewBox="0 0 83.764 85.018" enable-background="new 0 0 83.764 85.018"
	 xml:space="preserve">
<g id="Download_-_Orange">
</g>
<g id="Icon_2_-_Comments1">
</g>
<g id="Comments_-_Grey">
</g>
<g id="Go_to_Web">
</g>
<g id="Notepad">
</g>
<g id="Checklist">
</g>
<g id="Loading_3">
</g>
<g id="Print">
</g>
<g id="Tools">
</g>
<g id="Plus">
	<path fill="#AD5CAD" d="M59.604,56.443c-1.906-1.416-2.613-3.814-5.029-4.906c-5.492-2.48-14.176-0.55-19.547-3.336
		c0.023-1.333-0.336-2.278-0.193-3.729c1.313-1.548,3.324-2.386,6.193-2.356c1.082,1.143,1.533,3.918,2.902,4.122
		c0.201-1.521-0.881-2.303-0.969-3.925c-0.35-6.514,3.34-12.465,6.387-16.094c-2.396-2.943-5.607-6.895-8.709-9.616
		c-1.861-1.634-3.584-3.612-6.193-2.159c-1.549-0.781-3.453-1.207-5.029-1.963c-4.203,1.234-8.516,2.355-12.773,3.533
		c-0.988,1.482-2.383,2.557-3.289,4.121c0.457,0.781,1.1,1.371,1.355,2.355c0.818,0.363,1.166-1.25,2.322-1.178
		c1.125,0.428,2.184,0.926,3.289,1.374c0.326,1.304,0.953,2.306,1.355,3.532c-1.053,2.465-1.557,5.488-2.129,8.439
		c2.461,3.326,2.23,9.382,4.838,12.561c-0.18-1.913-0.91-3.264-1.162-5.104c1.773,2.634,3.277,6.108,6,8.047
		c1.219,0.869,3.574,2.056,5.223,2.355c3.482,0.633,7.633-0.631,11.613,0.196c0.541,3.442-1.508,5.987-1.549,8.832
		c-0.02,1.402,0.887,5.22,1.355,6.477c1.137,3.062,4.691,6,6,8.636c2.143-1.064,5.303-1.16,5.996-3.729
		c0.406-1.497-0.26-3.612,0-5.495C58.355,63.869,60.523,61.094,59.604,56.443z"/>
	<path fill="#AD5CAD" d="M47.799,10.322c1.174-1.035,2.232-2.186,3.098-3.532c-5.588-1.846-11.967-1.562-17.805,0
		c1.736,0.995,3.428,3.42,5.807,3.925C41.619,11.293,44.516,9.937,47.799,10.322z"/>
	<path fill="#AD5CAD" d="M65.023,15.033c-2.438,2.348,0.369,7.105-1.162,10.4c0.752,0.286,1.547,0.526,2.127,0.982
		c1.16-0.527,1.951-1.426,3.098-1.963c1.994,0.66,4.01,2.344,5.805,2.552C71.758,22.855,69.801,17.513,65.023,15.033z"/>
	<path fill="#AD5CAD" d="M41.881,0.033C18.75,0.033,0,19.05,0,42.509c0,23.458,18.75,42.476,41.881,42.476
		s41.883-19.018,41.883-42.476C83.764,19.05,65.012,0.033,41.881,0.033z M70.248,68.807c-5.982,6.573-15.219,11.898-26.125,12.365
		c-12.285,0.525-21.334-4.088-28.254-10.402C8.941,64.448,4.248,56.305,3.484,44.275c-1.146-18.064,8.967-30.767,20.9-36.897
		c4.438-2.278,9.514-3.701,15.48-4.121C51.773,2.42,62.158,7.748,68.313,13.463c6.162,5.721,11.684,15.392,12.191,26.69
		C81.072,52.838,76.371,62.078,70.248,68.807z"/>
	<path fill="#AD5CAD" d="M62.314,35.443c0,1.111,0,2.225,0,3.337c2.209,2.634,3,5.459,5.805,7.457
		c1.441,1.028,3.52,1.165,4.838,2.356c1.457,1.317,1.701,3.525,3.096,4.905c2.488-5.216,2.988-14.425,1.355-20.999
		c-2.754-1.331-5.803-2.361-9.096-3.141C66.229,31.303,64.236,33.338,62.314,35.443z"/>
	<rect id="_x3C_Slice_x3E__42_" fill="none" width="83.764" height="85.018"/>
</g>
<g id="Credit_Card">
</g>
</svg>
