<?xml version="1.0" encoding="utf-8"?>
<!-- Generator: Adobe Illustrator 16.0.3, SVG Export Plug-In . SVG Version: 6.00 Build 0)  -->
<!DOCTYPE svg PUBLIC "-//W3C//DTD SVG 1.1//EN" "http://www.w3.org/Graphics/SVG/1.1/DTD/svg11.dtd">
<svg version="1.1" id="Layer_1" xmlns="http://www.w3.org/2000/svg" xmlns:xlink="http://www.w3.org/1999/xlink" x="0px" y="0px"
	 width="66.615px" height="85.018px" viewBox="0 0 66.615 85.018" enable-background="new 0 0 66.615 85.018" xml:space="preserve">
<g>
	<path fill="#97BBD5" d="M63.615,19.523c0-1.248-1.104-2.26-2.467-2.26H50.293C47.563,7.133,41.094-0.01,33.564-0.01
		c-7.531,0-14,7.143-16.73,17.273H5.467c-1.361,0-2.465,1.012-2.465,2.26L0,82.77c0,1.246,1.104,2.258,2.467,2.258h61.682
		c1.363,0,2.467-1.012,2.467-2.258L63.615,19.523z M53.924,26.396c0,1.598-0.943,2.965-2.295,3.605
		c0.029-0.66,0.051-1.326,0.051-1.998c0-1.824-0.117-3.607-0.334-5.334C52.85,23.244,53.924,24.691,53.924,26.396z M48.68,28.004
		c0,0.727-0.023,1.445-0.061,2.156c-1.564-0.543-2.695-2.014-2.695-3.764c0-1.645,0.994-3.055,2.414-3.67
		C48.559,24.43,48.68,26.193,48.68,28.004z M33.564,2.99c6.012,0,11.215,5.842,13.648,14.273H19.914
		C22.348,8.832,27.551,2.99,33.564,2.99z M18.754,22.984c1.156,0.701,1.938,1.961,1.938,3.412c0,1.557-0.896,2.889-2.193,3.551
		c-0.029-0.643-0.051-1.289-0.051-1.943C18.447,26.285,18.553,24.607,18.754,22.984z M12.691,26.396c0-1.9,1.33-3.486,3.109-3.893
		c-0.23,1.779-0.354,3.617-0.354,5.5c0,0.74,0.025,1.469,0.061,2.195C13.881,29.691,12.691,28.191,12.691,26.396z M20.896,71.703
		c0,0.162-0.053,0.309-0.158,0.439c-0.105,0.129-0.281,0.234-0.525,0.316c-0.242,0.082-0.568,0.146-0.975,0.195
		s-0.926,0.072-1.559,0.072c-0.617,0-1.133-0.023-1.549-0.072c-0.414-0.049-0.742-0.113-0.986-0.195s-0.418-0.188-0.523-0.316
		c-0.105-0.131-0.158-0.277-0.158-0.439V41.922c0-0.162,0.053-0.309,0.158-0.439c0.105-0.129,0.283-0.234,0.535-0.316
		c0.252-0.08,0.582-0.146,0.988-0.195c0.404-0.049,0.918-0.072,1.535-0.072c0.633,0,1.152,0.023,1.559,0.072
		s0.732,0.115,0.975,0.195c0.244,0.082,0.42,0.188,0.525,0.316c0.105,0.131,0.158,0.277,0.158,0.439V71.703z M52.834,63.771
		c-0.756,2.055-1.84,3.732-3.254,5.031c-1.412,1.301-3.131,2.254-5.154,2.863c-2.021,0.609-4.432,0.914-7.225,0.914H29.67
		c-0.537,0-0.986-0.158-1.354-0.475c-0.365-0.316-0.547-0.832-0.547-1.547V43.066c0-0.713,0.182-1.23,0.547-1.547
		c0.367-0.316,0.816-0.475,1.354-0.475h8.092c2.811,0,5.193,0.328,7.152,0.986c1.957,0.658,3.607,1.633,4.947,2.926
		c1.34,1.291,2.359,2.887,3.059,4.787c0.699,1.902,1.049,4.104,1.049,6.605C53.969,59.242,53.59,61.715,52.834,63.771z"/>
	<path fill="#97BBD5" d="M45.133,49.063c-0.771-0.941-1.762-1.678-2.973-2.205s-2.799-0.793-4.766-0.793h-3.24v21.447h3.338
		c1.756,0,3.234-0.227,4.436-0.682c1.203-0.455,2.207-1.143,3.01-2.061c0.805-0.918,1.406-2.059,1.805-3.424
		s0.598-2.957,0.598-4.777c0-1.494-0.176-2.883-0.525-4.166S45.904,50.006,45.133,49.063z"/>
</g>
<rect id="_x3C_Slice_x3E__131_" fill="none" width="66.615" height="85.018"/>
</svg>
