<?xml version="1.0" encoding="utf-8"?>
<!-- Generator: Adobe Illustrator 16.0.3, SVG Export Plug-In . SVG Version: 6.00 Build 0)  -->
<!DOCTYPE svg PUBLIC "-//W3C//DTD SVG 1.1//EN" "http://www.w3.org/Graphics/SVG/1.1/DTD/svg11.dtd">
<svg version="1.1" id="Layer_1" xmlns="http://www.w3.org/2000/svg" xmlns:xlink="http://www.w3.org/1999/xlink" x="0px" y="0px"
	 width="83.816px" height="85.018px" viewBox="0 0 83.816 85.018" enable-background="new 0 0 83.816 85.018" xml:space="preserve">
<path fill="#97BBD5" d="M6.719,85.008h54.277l2.018-0.01l0.996,0.01h13.088c3.705,0,6.719-3.264,6.719-7.273v-8.139h0.082v-5h-0.082
	V54.41l-0.031-2.412l0.031-1.906V7.281c0-4.01-3.014-7.273-6.719-7.273H6.719C3.014,0.008,0,3.271,0,7.281v70.453
	C0,81.744,3.014,85.008,6.719,85.008z M61.289,80.008h-5.33V69.596h12.072L61.289,80.008z M78.816,77.734
	c0,1.232-0.787,2.273-1.719,2.273h-9.852l6.74-10.412h4.83V77.734z M78.816,64.596h-1.594l1.594-2.461V64.596z M55.959,5.008h21.139
	c0.932,0,1.719,1.041,1.719,2.273v0.727H55.959V5.008z M5,13.008h4.459v22.254H5V13.008z M5,40.262h4.459v7.246H5V40.262z M5,52.508
	h4.48c0.119,4.73,2.076,9,5.184,12.088H5V52.508z M5,69.596h28.48l-3.203-5h-3.594c-6.592,0-11.969-5.385-12.203-12.088h8.055
	l-3.203-5h-4.873v-7.246h1.621c-0.467-1.631-0.779-3.303-0.939-5h-0.682V13.008h8.777c2.029-2.006,4.369-3.695,6.938-5H5V7.281
	c0-1.232,0.787-2.273,1.719-2.273h44.24v1.287c4.232,1.336,8.027,3.666,11.113,6.713h16.744v22.254h-8.648
	c-0.16,1.697-0.475,3.371-0.941,5h9.59v7.246H65.973l-3.195,5h16.039v0.426l-7.549,11.662H55.959v-1.424l-5,7.82v9.016h-7.244
	c-0.344,0.084-0.697,0.137-1.061,0.137c-0.367,0-0.725-0.051-1.07-0.137H6.719C5.787,80.008,5,78.967,5,77.734V69.596z"/>
<path fill="#97BBD5" d="M41.027,72.174l0.014-0.01c0.299,0.604,0.898,1.029,1.613,1.029c0.725,0,1.346-0.43,1.637-1.043l0,0
	l17.344-27.123l-0.002-0.002c2.256-3.51,3.568-7.682,3.568-12.162c0-12.453-10.096-22.547-22.547-22.547
	c-12.453,0-22.547,10.094-22.547,22.547c0,4.48,1.313,8.652,3.566,12.162l-0.002,0.002L38.75,68.564L41.027,72.174z M35.285,30.939
	c0-4.068,3.299-7.369,7.369-7.369c4.068,0,7.369,3.301,7.369,7.369c0,4.07-3.301,7.369-7.369,7.369
	C38.584,38.309,35.285,35.01,35.285,30.939z"/>
<rect id="_x3C_Slice_x3E__147_" fill="none" width="83.816" height="85.018"/>
</svg>
