<?xml version="1.0" encoding="utf-8"?>
<!-- Generator: Adobe Illustrator 16.0.3, SVG Export Plug-In . SVG Version: 6.00 Build 0)  -->
<!DOCTYPE svg PUBLIC "-//W3C//DTD SVG 1.1//EN" "http://www.w3.org/Graphics/SVG/1.1/DTD/svg11.dtd">
<svg version="1.1" id="Layer_1" xmlns="http://www.w3.org/2000/svg" xmlns:xlink="http://www.w3.org/1999/xlink" x="0px" y="0px"
	 width="85px" height="86px" viewBox="0 0 85 86" enable-background="new 0 0 85 86" xml:space="preserve">
<path fill="#97BBD5" d="M0.344,43.498c0.016,0.185,0.026,0.373,0.046,0.559c0.049,0.521,0.113,1.038,0.185,1.553
	c0.009,0.062,0.016,0.122,0.024,0.181c0.079,0.56,0.172,1.111,0.274,1.66c0.001,0.01,0.003,0.021,0.004,0.027h0.001
	c3.084,16.387,16.629,29.302,33.814,32.246c0.002,0.003,0.004,0.005,0.006,0.008c0.128,0.021,0.258,0.037,0.386,0.059
	c0.392,0.063,0.783,0.121,1.177,0.176c0.271,0.036,0.543,0.068,0.814,0.098c0.369,0.043,0.734,0.085,1.105,0.119
	c0.359,0.032,0.723,0.054,1.086,0.078c0.29,0.02,0.579,0.045,0.873,0.057c0.668,0.031,1.34,0.049,2.016,0.049
	c0.044,0,0.088,0,0.123,0v-0.371v-8.954c-0.035,0-0.079,0.015-0.123,0.015c-1.876,0-3.713-0.164-5.502-0.459
	c-1.377-4.024-2.646-9.32-3.434-15.867c2.896,0.172,5.879,0.266,8.936,0.266c0.044,0,0.088,0,0.123,0v-5.322
	c-0.035,0-0.079,0-0.123,0c-3.35,0-6.497-0.107-9.446-0.298c-0.2-2.81-0.312-5.81-0.312-9.001c0-3.195,0.112-6.201,0.313-9.015
	c2.948-0.19,6.096-0.298,9.445-0.298c3.343,0,6.484,0.107,9.428,0.295c0.013,0.164,0.029,0.316,0.041,0.479
	c0.853,0.288,1.663,0.745,2.357,1.351l3.436,3.008c-0.046-1.473-0.123-2.918-0.215-4.349c6.871,0.752,12.429,1.963,16.651,3.279
	c0.31,1.706,0.481,3.458,0.481,5.249c0,1.788-0.178,3.531-0.488,5.232c-1.313,0.408-2.746,0.807-4.314,1.183l3.284,2.882
	c0,0-0.001,0-0.001,0.002l7.754,6.786c1.302-2.841,2.264-5.849,2.856-8.976c0.003-0.003,0.005-0.003,0.008-0.006
	c0.015-0.078,0.024-0.156,0.038-0.234c0.074-0.405,0.142-0.811,0.202-1.221c0.034-0.22,0.063-0.441,0.093-0.664
	c0.051-0.391,0.101-0.781,0.141-1.175c0.03-0.305,0.053-0.61,0.076-0.918c0.023-0.317,0.053-0.632,0.068-0.952
	c0.034-0.645,0.055-1.289,0.055-1.939c0-0.637-0.02-1.267-0.051-1.896c-0.02-0.396-0.054-0.789-0.086-1.182
	c-0.017-0.207-0.028-0.412-0.049-0.62c-0.049-0.503-0.111-1.007-0.18-1.505c-0.011-0.08-0.021-0.161-0.032-0.239
	c-0.075-0.526-0.163-1.052-0.259-1.572c-0.006-0.034-0.011-0.068-0.017-0.103l-0.003-0.002C80.126,15.71,64.843,2.139,45.94,0.524
	c-0.027-0.002-0.054-0.004-0.08-0.004c-0.579-0.049-1.158-0.094-1.743-0.117c-0.65-0.032-1.304-0.049-1.962-0.049
	s-1.312,0.017-1.962,0.049c-0.585,0.023-1.164,0.068-1.743,0.117c-0.026,0-0.053,0.002-0.08,0.004
	C19.468,2.139,4.185,15.71,0.88,33.255l-0.002,0.002c-0.007,0.034-0.012,0.068-0.018,0.105c-0.097,0.52-0.184,1.043-0.259,1.569
	C0.59,35.01,0.58,35.091,0.569,35.171c-0.068,0.498-0.131,1.002-0.18,1.505c-0.02,0.208-0.032,0.413-0.049,0.62
	c-0.032,0.393-0.066,0.786-0.086,1.182c-0.031,0.63-0.051,1.26-0.051,1.896c0,0.631,0.019,1.261,0.051,1.886
	C0.274,42.675,0.311,43.087,0.344,43.498z M72.056,29.052c-4.492-1.14-9.674-2.026-15.324-2.596
	c-0.594-5.383-1.521-10.324-2.715-14.605C62.229,14.968,68.784,21.219,72.056,29.052z M36.653,10.138
	c1.79-0.295,3.626-0.459,5.502-0.459c1.869,0,3.699,0.162,5.481,0.455c1.378,4.026,2.644,9.316,3.433,15.871
	c-2.889-0.171-5.865-0.267-8.914-0.267c-3.057,0-6.039,0.096-8.934,0.267C34.009,19.458,35.276,14.162,36.653,10.138z
	 M12.251,51.683c4.49,1.141,9.67,2.026,15.317,2.594c0.597,5.386,1.524,10.325,2.72,14.605
	C22.077,65.764,15.522,59.514,12.251,51.683z M30.291,11.853c-1.196,4.279-2.126,9.221-2.722,14.606
	c-5.646,0.566-10.825,1.453-15.314,2.593C15.526,21.222,22.08,14.97,30.291,11.853z M10.457,35.125
	c4.22-1.316,9.772-2.524,16.64-3.276c-0.182,2.762-0.282,5.608-0.282,8.525c0,2.914,0.101,5.756,0.28,8.513
	c-6.866-0.75-12.42-1.958-16.64-3.272c-0.309-1.704-0.479-3.452-0.479-5.24C9.976,38.583,10.147,36.831,10.457,35.125z"/>
<polygon fill="#97BBD5" points="49.258,38.085 49.258,80.726 60.765,69.759 69.12,85.112 75.188,82.119 67.146,67.329 
	82.681,67.329 "/>
<rect id="_x3C_Slice_x3E__90_" fill="none" width="85" height="86"/>
</svg>
