<?xml version="1.0" encoding="utf-8"?>
<!-- Generator: Adobe Illustrator 16.0.3, SVG Export Plug-In . SVG Version: 6.00 Build 0)  -->
<!DOCTYPE svg PUBLIC "-//W3C//DTD SVG 1.1//EN" "http://www.w3.org/Graphics/SVG/1.1/DTD/svg11.dtd">
<svg version="1.1" id="Layer_1" xmlns="http://www.w3.org/2000/svg" xmlns:xlink="http://www.w3.org/1999/xlink" x="0px" y="0px"
	 width="83px" height="86px" viewBox="0 0 83 86" enable-background="new 0 0 83 86" xml:space="preserve">
<path fill="#97BBD5" d="M41.645,85.765c22.827,0,41.333-19.066,41.333-42.583c0-23.519-18.506-42.583-41.333-42.583
	S0.312,19.663,0.312,43.182C0.312,66.698,18.817,85.765,41.645,85.765z M41.645,7.252c19.229,0,34.875,16.116,34.875,35.93
	c0,19.81-15.646,35.93-34.875,35.93S6.77,62.991,6.77,43.182C6.77,23.368,22.415,7.252,41.645,7.252z"/>
<path fill="#97BBD5" d="M32.112,64.274c0.37,0.438,0.914,0.72,1.529,0.72c0.596,0,1.125-0.263,1.494-0.673l0.017,0.021
	l31.713-32.077l-0.002-0.004c0.438-0.369,0.725-0.916,0.725-1.535c0-0.658-0.321-1.238-0.811-1.605l0.005-0.006l-5.096-5.242
	l-0.006,0.008c-0.362-0.348-0.852-0.564-1.395-0.564c-0.48,0-0.916,0.176-1.262,0.457l-0.003-0.002L33.888,44.884l-8.232-9.051
	c-0.36-0.543-0.977-0.901-1.677-0.901c-0.583,0-1.104,0.252-1.472,0.648l-7.963,8.06l0.01,0.008
	c-0.371,0.365-0.602,0.873-0.602,1.434c0,0.584,0.252,1.104,0.647,1.473h-0.001L32.112,64.274z"/>
<rect id="_x3C_Slice_x3E__76_" fill="none" width="83" height="86"/>
</svg>
