<?xml version="1.0" encoding="utf-8"?>
<!-- Generator: Adobe Illustrator 16.0.3, SVG Export Plug-In . SVG Version: 6.00 Build 0)  -->
<!DOCTYPE svg PUBLIC "-//W3C//DTD SVG 1.1//EN" "http://www.w3.org/Graphics/SVG/1.1/DTD/svg11.dtd">
<svg version="1.1" id="Layer_1" xmlns="http://www.w3.org/2000/svg" xmlns:xlink="http://www.w3.org/1999/xlink" x="0px" y="0px"
	 width="68px" height="86px" viewBox="0 0 68 86" enable-background="new 0 0 68 86" xml:space="preserve">
<path fill="#97BBD5" d="M3.149,85.1h61.682c1.362,0,2.466-1.012,2.466-2.26l-3-63.244c0-1.248-1.104-2.26-2.466-2.26H50.975
	C48.245,7.203,41.776,0.061,34.246,0.061S20.247,7.203,17.517,17.336H6.149c-1.362,0-2.466,1.012-2.466,2.26L0.683,82.84
	C0.683,84.088,1.786,85.1,3.149,85.1z M54.861,25.246c0,1.684-1.042,3.117-2.515,3.709c0.006-0.293,0.015-0.584,0.015-0.879
	c0-2.309-0.185-4.549-0.526-6.695C53.57,21.816,54.861,23.375,54.861,25.246z M48.878,21.793c0.315,2.008,0.483,4.113,0.483,6.283
	c0,0.291-0.007,0.58-0.014,0.869c-1.457-0.596-2.486-2.025-2.486-3.699C46.861,23.764,47.679,22.482,48.878,21.793z M34.246,3.061
	c6.013,0,11.216,5.842,13.648,14.275H20.597C23.029,8.902,28.233,3.061,34.246,3.061z M19.613,21.793
	c1.199,0.689,2.017,1.971,2.017,3.453c0,1.674-1.029,3.104-2.486,3.699c-0.006-0.289-0.014-0.578-0.014-0.869
	C19.13,25.906,19.298,23.801,19.613,21.793z M18.786,63.564c0.05-0.385,0.139-0.684,0.273-0.91c0.158-0.268,0.379-0.463,0.657-0.58
	c0.579-0.246,1.253-0.262,2.441,0.24c0.521,0.221,1.204,0.469,2.029,0.736c0.813,0.264,1.817,0.51,2.986,0.732
	c1.149,0.219,2.528,0.33,4.098,0.33c2.396,0,4.18-0.307,5.305-0.91c1.089-0.586,1.619-1.342,1.619-2.311
	c0-0.641-0.219-1.146-0.667-1.547c-0.483-0.43-1.143-0.814-1.962-1.145c-0.856-0.346-1.84-0.66-2.921-0.934
	c-1.109-0.279-2.273-0.586-3.455-0.91c-1.194-0.328-2.377-0.715-3.513-1.148c-1.167-0.447-2.229-1.004-3.159-1.66
	c-0.944-0.664-1.709-1.479-2.27-2.424c-0.561-0.943-0.846-2.092-0.846-3.416c0-1.199,0.29-2.309,0.859-3.297
	c0.573-0.992,1.411-1.873,2.489-2.615c1.073-0.74,2.405-1.346,3.962-1.803c1.404-0.41,2.999-0.703,4.747-0.869l0.604-4.275
	c0.034-0.195,0.113-0.359,0.24-0.5c0.141-0.154,0.362-0.281,0.679-0.387c0.266-0.09,0.6-0.15,1.019-0.188
	c0.376-0.033,0.85-0.049,1.446-0.049c0.699,0,1.296,0.025,1.769,0.072c0.513,0.055,0.909,0.131,1.211,0.236
	c0.487,0.172,0.686,0.414,0.766,0.584c0.086,0.18,0.13,0.379,0.13,0.596l-0.005,0.045l-0.59,3.934
	c0.447,0.053,0.911,0.119,1.388,0.193c0.696,0.111,1.356,0.244,1.961,0.395c0.606,0.15,1.165,0.311,1.66,0.477
	c0.546,0.182,0.926,0.352,1.162,0.52c0.229,0.16,0.408,0.326,0.533,0.494c0.126,0.166,0.223,0.367,0.288,0.6
	c0.061,0.211,0.102,0.455,0.125,0.748c0.022,0.277,0.034,0.594,0.034,0.955c0,0.484-0.017,0.889-0.05,1.205
	c-0.038,0.352-0.109,0.619-0.218,0.82c-0.135,0.248-0.304,0.418-0.518,0.523c-0.504,0.248-1.153,0.217-2.264-0.189
	c-0.527-0.193-1.187-0.404-1.955-0.627c-0.768-0.223-1.666-0.434-2.671-0.627c-0.976-0.188-2.068-0.283-3.248-0.283
	c-1.071,0-1.994,0.072-2.743,0.215c-0.721,0.137-1.307,0.328-1.739,0.566c-0.424,0.234-0.726,0.502-0.926,0.822
	c-0.204,0.326-0.307,0.691-0.307,1.09c0,0.625,0.224,1.133,0.686,1.547c0.489,0.443,1.157,0.83,1.984,1.152
	c0.868,0.34,1.87,0.654,2.977,0.936c1.146,0.293,2.313,0.6,3.503,0.924c1.2,0.324,2.396,0.707,3.555,1.133
	c1.19,0.439,2.266,0.99,3.197,1.637c0.942,0.656,1.711,1.459,2.284,2.387c0.575,0.932,0.866,2.061,0.866,3.354
	c0,1.369-0.352,2.627-1.048,3.734c-0.694,1.107-1.695,2.076-2.974,2.881c-1.268,0.797-2.813,1.441-4.594,1.918
	c-1.624,0.434-3.427,0.725-5.366,0.867l-0.637,4.561c-0.034,0.191-0.109,0.355-0.228,0.496c-0.145,0.174-0.385,0.313-0.716,0.41
	c-0.256,0.076-0.581,0.135-0.993,0.178c-0.393,0.041-0.877,0.063-1.446,0.063c-0.733,0-1.314-0.023-1.773-0.074
	c-0.492-0.053-0.877-0.129-1.176-0.234c-0.379-0.135-0.638-0.324-0.771-0.564c-0.118-0.211-0.145-0.443-0.08-0.693l0.617-4.217
	c-0.743-0.086-1.455-0.186-2.121-0.305c-0.847-0.148-1.626-0.314-2.315-0.496c-0.693-0.182-1.307-0.371-1.821-0.563
	c-0.549-0.207-0.959-0.408-1.254-0.617c-0.333-0.232-0.569-0.566-0.702-0.992c-0.12-0.377-0.179-0.906-0.179-1.621
	C18.718,64.357,18.741,63.91,18.786,63.564z M16.657,21.381c-0.342,2.146-0.527,4.387-0.527,6.695c0,0.295,0.009,0.586,0.015,0.879
	c-1.473-0.592-2.515-2.025-2.515-3.709C13.63,23.375,14.921,21.816,16.657,21.381z"/>
<rect id="_x3C_Slice_x3E__118_" fill="none" width="68" height="86"/>
</svg>
