<?xml version="1.0" encoding="utf-8"?>
<!-- Generator: Adobe Illustrator 16.0.3, SVG Export Plug-In . SVG Version: 6.00 Build 0)  -->
<!DOCTYPE svg PUBLIC "-//W3C//DTD SVG 1.1//EN" "http://www.w3.org/Graphics/SVG/1.1/DTD/svg11.dtd">
<svg version="1.1" id="Layer_1" xmlns="http://www.w3.org/2000/svg" xmlns:xlink="http://www.w3.org/1999/xlink" x="0px" y="0px"
	 width="70px" height="86px" viewBox="0 0 70 86" enable-background="new 0 0 70 86" xml:space="preserve">
<path fill="#97BBD5" d="M50.867,34.253H9.069c-2.039,0-3.693,1.652-3.693,3.693v43.382c0,2.04,1.654,3.692,3.693,3.692h41.798
	c2.04,0,3.692-1.652,3.692-3.692V37.946C54.56,35.905,52.907,34.253,50.867,34.253z"/>
<path fill="#97BBD5" d="M65.851,34.253h-5.658c0.563,1.266,0.882,2.662,0.882,4.133v43.383c0,1.138-0.195,2.229-0.54,3.252h5.316
	c2.039,0,3.692-1.652,3.692-3.692V37.946C69.543,35.905,67.89,34.253,65.851,34.253z"/>
<path fill="#97BBD5" d="M2.964,28.913c1.432-0.768,3.066-1.205,4.803-1.205h28.82l12.287-7.197c0.979-0.573,1.578-1.529,1.757-2.566
	l16.106-3.232l-0.774-3.858c-0.401-1.999-2.348-3.296-4.348-2.894L47.466,10.8l-5.218-8.907c-1.03-1.76-3.292-2.351-5.053-1.319
	L2.534,20.875c-1.76,1.031-2.35,3.294-1.32,5.054L2.964,28.913z M21.819,17.165c0.102-0.372,0.283-0.731,0.545-1.078
	c0.262-0.346,0.598-0.674,1.008-0.982l-0.74-1.611c-0.02-0.043-0.027-0.084-0.026-0.121c0.001-0.039,0.02-0.084,0.054-0.135
	c0.035-0.051,0.09-0.105,0.165-0.162s0.179-0.125,0.31-0.201c0.156-0.092,0.291-0.16,0.403-0.205
	c0.112-0.047,0.204-0.072,0.276-0.077s0.129,0.011,0.17,0.048c0.043,0.037,0.079,0.082,0.112,0.139l0.687,1.521
	c0.154-0.064,0.319-0.123,0.497-0.18c0.177-0.057,0.349-0.1,0.513-0.131c0.165-0.032,0.317-0.055,0.46-0.067
	c0.142-0.013,0.247-0.009,0.315,0.009s0.126,0.042,0.174,0.072c0.048,0.029,0.097,0.071,0.146,0.127s0.103,0.127,0.16,0.213
	c0.057,0.084,0.119,0.186,0.188,0.302c0.092,0.156,0.163,0.288,0.215,0.394s0.082,0.189,0.094,0.254
	c0.01,0.066,0.009,0.115-0.006,0.146c-0.016,0.033-0.04,0.061-0.076,0.082c-0.065,0.037-0.181,0.061-0.346,0.069
	c-0.164,0.007-0.361,0.028-0.59,0.06c-0.229,0.033-0.482,0.086-0.761,0.162c-0.278,0.074-0.563,0.195-0.851,0.365
	c-0.263,0.153-0.473,0.311-0.63,0.47c-0.157,0.161-0.268,0.321-0.33,0.479c-0.063,0.158-0.085,0.317-0.067,0.477
	c0.02,0.159,0.072,0.314,0.161,0.465c0.14,0.238,0.319,0.4,0.54,0.489c0.221,0.087,0.471,0.128,0.749,0.122
	c0.277-0.008,0.577-0.041,0.898-0.101s0.65-0.116,0.988-0.171c0.337-0.057,0.681-0.092,1.026-0.107
	c0.347-0.018,0.684,0.016,1.011,0.1s0.639,0.233,0.935,0.449c0.297,0.217,0.565,0.531,0.805,0.939
	c0.255,0.434,0.407,0.871,0.457,1.311c0.05,0.438,0.008,0.867-0.127,1.285c-0.135,0.419-0.357,0.82-0.668,1.207
	c-0.311,0.385-0.696,0.738-1.158,1.064l0.791,1.715c0.02,0.043,0.028,0.085,0.028,0.125c0,0.043-0.019,0.086-0.054,0.135
	c-0.037,0.049-0.093,0.103-0.169,0.164s-0.177,0.13-0.303,0.203c-0.162,0.096-0.297,0.164-0.404,0.207
	c-0.107,0.042-0.197,0.065-0.269,0.07c-0.072,0.004-0.13-0.01-0.174-0.045c-0.045-0.036-0.078-0.084-0.101-0.146l-0.742-1.632
	c-0.235,0.097-0.463,0.178-0.683,0.242c-0.221,0.064-0.426,0.113-0.616,0.146c-0.19,0.035-0.36,0.053-0.511,0.059
	c-0.148,0.007-0.27-0.002-0.361-0.025c-0.092-0.024-0.184-0.086-0.275-0.186c-0.093-0.098-0.203-0.259-0.334-0.481
	c-0.101-0.172-0.179-0.316-0.233-0.434c-0.055-0.116-0.087-0.212-0.098-0.288c-0.01-0.075-0.003-0.136,0.021-0.182
	c0.024-0.045,0.062-0.081,0.112-0.111c0.066-0.037,0.185-0.057,0.355-0.055s0.381-0.01,0.631-0.034s0.538-0.081,0.863-0.169
	c0.324-0.088,0.677-0.244,1.056-0.465c0.591-0.348,0.966-0.715,1.126-1.104c0.158-0.389,0.132-0.765-0.082-1.128
	c-0.142-0.243-0.32-0.405-0.536-0.491c-0.216-0.082-0.461-0.124-0.738-0.121c-0.276,0.002-0.572,0.033-0.887,0.092
	c-0.315,0.06-0.641,0.115-0.976,0.17c-0.335,0.053-0.674,0.085-1.018,0.096c-0.342,0.012-0.679-0.025-1.007-0.111
	c-0.329-0.086-0.641-0.24-0.938-0.463c-0.297-0.225-0.567-0.545-0.813-0.965c-0.222-0.379-0.361-0.76-0.417-1.146
	C21.696,17.915,21.718,17.536,21.819,17.165z"/>
<path fill="#97BBD5" d="M48.848,27.364h0.704h14.982c1.821,0,3.527,0.484,5.009,1.323l-1.384-6.896l-27.761,5.572H48.848z"/>
<rect id="_x3C_Slice_x3E__89_" fill="none" width="70" height="86"/>
</svg>
