<?xml version="1.0" encoding="utf-8"?>
<!-- Generator: Adobe Illustrator 16.0.3, SVG Export Plug-In . SVG Version: 6.00 Build 0)  -->
<!DOCTYPE svg PUBLIC "-//W3C//DTD SVG 1.1//EN" "http://www.w3.org/Graphics/SVG/1.1/DTD/svg11.dtd">
<svg version="1.1" id="Layer_1" xmlns="http://www.w3.org/2000/svg" xmlns:xlink="http://www.w3.org/1999/xlink" x="0px" y="0px"
	 width="85px" height="86px" viewBox="0 0 85 86" enable-background="new 0 0 85 86" xml:space="preserve">
<path fill="#97BBD5" d="M41.724,69.431c0,1.703,1.369,3.091,3.055,3.091c1.688,0,3.057-1.388,3.057-3.091V53.989h18.361
	c1.33,0,2.42-1.115,2.42-2.473c0-0.677-0.271-1.297-0.711-1.742l-9.068-9.266V19.392h1.832c1.687,0,3.059-1.383,3.059-3.088
	s-1.372-3.088-3.059-3.088H30.11c-1.688,0-3.053,1.383-3.053,3.088s1.365,3.088,3.053,3.088h1.834v21.131l-9.047,9.227
	c-0.453,0.444-0.732,1.073-0.732,1.768c0,1.357,1.088,2.473,2.42,2.473h17.139V69.431z M40.501,40.397
	c-1.346,0-2.445-1.114-2.445-2.469V21.864c0-1.359,1.1-2.473,2.445-2.473c1.344,0,2.443,1.113,2.443,2.473v16.064
	C42.944,39.283,41.845,40.397,40.501,40.397z"/>
<path fill="#97BBD5" d="M7.257,85.369h54.277l2.018-0.011l0.995,0.011h13.088c3.705,0,6.719-3.263,6.719-7.274v-8.139h0.082v-5
	h-0.082V54.772l-0.031-2.414l0.031-1.906V7.644c0-4.012-3.014-7.274-6.719-7.274H7.257c-3.705,0-6.719,3.263-6.719,7.274v70.451
	C0.538,82.106,3.552,85.369,7.257,85.369z M61.827,80.369h-5.331V69.956h12.072L61.827,80.369z M79.354,78.095
	c0,1.232-0.787,2.274-1.719,2.274h-9.852l6.741-10.413h4.829V78.095z M79.354,64.956h-1.593l1.593-2.461V64.956z M5.538,13.369
	h4.458v22.253H5.538V13.369z M5.538,40.622h4.458v7.247H5.538V40.622z M5.538,52.869h4.48c0.119,4.73,2.076,8.999,5.183,12.087
	H5.538V52.869z M5.538,69.956h30.844c-0.006-0.124-0.019-0.246-0.019-0.372v-4.628h-9.142c-6.593,0-11.969-5.383-12.203-12.087
	h1.891c-0.064-0.392-0.105-0.79-0.105-1.2c0-1.343,0.374-2.657,1.045-3.8h-2.853v-7.247h9.638l1.95-1.989v-3.011H14.996V13.369
	h7.313c1.211-2.932,4.088-5,7.439-5H5.538V7.644c0-1.232,0.787-2.274,1.719-2.274h44.239v3h5v-3h21.139
	c0.932,0,1.719,1.042,1.719,2.274v0.726H60.309c3.354,0,6.233,2.068,7.444,5h11.601v22.253H63.477v3l1.958,2h13.919v7.247h-7.137
	c0.671,1.134,1.039,2.438,1.039,3.8c0,0.41-0.042,0.809-0.104,1.2h6.202v0.426l-7.549,11.661H56.496v-5.814h-4.022v10.442
	c0,1.396-0.354,2.712-0.978,3.859v6.926H7.257c-0.932,0-1.719-1.042-1.719-2.274V69.956z"/>
<rect id="_x3C_Slice_x3E__94_" fill="none" width="85" height="86"/>
</svg>
