<?xml version="1.0" encoding="utf-8"?>
<!-- Generator: Adobe Illustrator 16.0.3, SVG Export Plug-In . SVG Version: 6.00 Build 0)  -->
<!DOCTYPE svg PUBLIC "-//W3C//DTD SVG 1.1//EN" "http://www.w3.org/Graphics/SVG/1.1/DTD/svg11.dtd" [
	<!ENTITY ns_flows "http://ns.adobe.com/Flows/1.0/">
	<!ENTITY ns_extend "http://ns.adobe.com/Extensibility/1.0/">
	<!ENTITY ns_ai "http://ns.adobe.com/AdobeIllustrator/10.0/">
	<!ENTITY ns_graphs "http://ns.adobe.com/Graphs/1.0/">
]>
<svg version="1.1" id="Layer_1" xmlns:x="&ns_extend;" xmlns:i="&ns_ai;" xmlns:graph="&ns_graphs;"
	 xmlns="http://www.w3.org/2000/svg" xmlns:xlink="http://www.w3.org/1999/xlink" xmlns:a="http://ns.adobe.com/AdobeSVGViewerExtensions/3.0/"
	 x="0px" y="0px" width="83.32px" height="85.164px" viewBox="0 0 83.32 85.164" enable-background="new 0 0 83.32 85.164"
	 xml:space="preserve">
<g id="Download_-_Orange">
</g>
<g id="Icon_2_-_Comments1">
</g>
<g id="Comments_-_Grey">
</g>
<g id="Go_to_Web">
</g>
<g id="Notepad">
</g>
<g id="Checklist">
</g>
<g id="Loading_3">
</g>
<g id="Print">
</g>
<g id="Tools">
</g>
<g id="Plus">
	<path fill="#FF3385" d="M41.66,0C18.652,0,0,19.064,0,42.583C0,66.1,18.652,85.166,41.66,85.166S83.32,66.1,83.32,42.583
		C83.32,19.064,64.668,0,41.66,0z M41.66,78.513c-19.383,0-35.15-16.12-35.15-35.93c0-19.813,15.768-35.93,35.15-35.93
		s35.15,16.116,35.15,35.93C76.811,62.393,61.043,78.513,41.66,78.513z"/>
	<path fill="#FF3385" d="M38.256,25.845c-0.555-0.403-1.234-0.646-1.971-0.646c-1.83,0-3.311,1.482-3.311,3.311v3.313v21.523v3.313
		c0,1.829,1.48,3.309,3.311,3.309c0.736,0,1.416-0.238,1.971-0.646l16.682-13.797c1.621-1.624,1.621-4.259,0-5.88L38.256,25.845z"/>
	<rect id="_x3C_Slice_x3E__40_" fill="none" width="83.32" height="85.164"/>
</g>
<g id="Credit_Card">
</g>
</svg>
