<?xml version="1.0" encoding="utf-8"?>
<!-- Generator: Adobe Illustrator 16.0.3, SVG Export Plug-In . SVG Version: 6.00 Build 0)  -->
<!DOCTYPE svg PUBLIC "-//W3C//DTD SVG 1.1//EN" "http://www.w3.org/Graphics/SVG/1.1/DTD/svg11.dtd">
<svg version="1.1" id="Layer_1" xmlns="http://www.w3.org/2000/svg" xmlns:xlink="http://www.w3.org/1999/xlink" x="0px" y="0px"
	 width="76px" height="86px" viewBox="0 0 76 86" enable-background="new 0 0 76 86" xml:space="preserve">
<path fill="#97BBD5" d="M50.652,71.709c-0.629-0.417-1.42-0.52-2.131-0.311c-1.063,0.303-1.877,1.367-1.947,2.537
	c-0.102,1.139,0.508,2.291,1.465,2.792c0.982,0.54,2.27,0.35,3.064-0.475c0.564-0.556,0.879-1.384,0.842-2.202
	C51.92,73.103,51.414,72.193,50.652,71.709z"/>
<path fill="#97BBD5" d="M43.152,57.147c-0.578-0.362-1.285-0.433-1.934-0.291c-1.061,0.255-1.916,1.261-2.045,2.417
	c-0.15,1.078,0.34,2.221,1.209,2.793c0.865,0.601,2.051,0.596,2.914-0.002c0.762-0.511,1.246-1.449,1.234-2.408
	C44.543,58.633,43.986,57.643,43.152,57.147z"/>
<path fill="#97BBD5" d="M21.926,19.668c0.02,0.014,0.037,0.031,0.057,0.046c-0.01-4.61-0.002-9.222-0.004-13.832
	c-0.014-0.781,0.283-1.53,0.723-2.144c0.754-0.053,1.475-0.369,2.057-0.885c0.949,0.863,2.338,1.129,3.498,0.62
	c0.363-0.126,0.635-0.444,0.986-0.581c0.521,0.399,1.104,0.742,1.754,0.807c0.961,0.154,1.932-0.205,2.684-0.84
	c1.227,1.157,3.211,1.15,4.438-0.004c1.188,1.104,3.078,1.168,4.309,0.117c0.045-0.035,0.092-0.071,0.135-0.108
	c0.238,0.19,0.494,0.36,0.762,0.498c0.01,0.006,0.021,0.011,0.033,0.017c0.498,0.25,1.043,0.389,1.602,0.348
	c0.072,0,0.139-0.01,0.199-0.027c0.168-0.021,0.336-0.057,0.5-0.103c0.414-0.112,0.807-0.302,1.154-0.575
	c0.074-0.055,0.148-0.111,0.221-0.172c0.586,0.556,1.346,0.844,2.113,0.869L49.16,3.72c0.834,0.024,1.676-0.26,2.313-0.86
	c0.068,0.055,0.137,0.109,0.209,0.16c0.225,0.18,0.471,0.322,0.73,0.432c0.012,0.005,0.023,0.011,0.035,0.016
	c0.01,0.004,0.02,0.008,0.029,0.013c0.33,0.144,0.68,0.233,1.041,0.249c0.451,0.561,0.729,1.283,0.742,2.025
	c0.025,6.2-0.002,12.403,0.027,18.604h-0.016l0.029,3.872l2.236-0.014v-3.858c0-6.157,0.004-12.314-0.002-18.472
	C56.539,4.113,56.1,1.8,54.371,1.303c0,0-0.105-0.061-0.414-0.026l-0.004-0.011c-0.027,0.009-0.055,0.016-0.082,0.021
	c-0.02,0.003-0.041,0.006-0.063,0.01c-0.01,0.002-0.02,0.003-0.029,0.004l-0.096,0.005c-0.404-0.003-0.773-0.294-0.982-0.665
	c-0.385-0.647-1.195-0.611-1.816-0.499c-0.293,0.058-0.482,0.276-0.66,0.511c0-0.007,0.002-0.012,0.004-0.018l-0.451,0.512
	c-0.059,0.037-0.121,0.068-0.186,0.091l-0.527,0.046c-0.029-0.006-0.061-0.012-0.09-0.021l-0.004-0.001
	c-0.006-0.002-0.014-0.006-0.02-0.007c-0.197-0.068-0.377-0.201-0.52-0.368L48.41,0.861c-0.057-0.068-0.107-0.143-0.15-0.221
	c-0.385-0.647-1.197-0.611-1.816-0.499c-0.09,0.018-0.168,0.051-0.242,0.094c-0.008,0.006-0.018,0.011-0.025,0.017
	c-0.021,0.012-0.039,0.026-0.059,0.041c-0.008,0.005-0.014,0.01-0.021,0.016l-0.002,0.002c-0.021,0.009-0.041,0.016-0.064,0.027
	c-0.016,0.024-0.031,0.05-0.047,0.076c-0.117,0.12-0.221,0.265-0.324,0.402c-0.107,0.139-0.221,0.266-0.363,0.354
	c-0.059,0.033-0.121,0.06-0.184,0.08c-0.006,0.002-0.012,0.004-0.018,0.006c-0.059,0.013-0.117,0.024-0.176,0.035
	c-0.16,0.018-0.322-0.002-0.473-0.057c-0.146-0.062-0.281-0.156-0.398-0.275c-0.02-0.02-0.037-0.041-0.053-0.064v0.01
	c-0.07-0.08-0.135-0.169-0.186-0.264c-0.387-0.647-1.197-0.611-1.818-0.499c-0.432,0.087-0.643,0.521-0.914,0.839
	c-0.402,0.461-1.176,0.414-1.535-0.086l0.002,0.011c-0.225-0.277-0.396-0.62-0.748-0.722c-0.422-0.117-0.881-0.113-1.307-0.016
	c-0.596,0.156-0.725,0.985-1.334,1.111c-0.506,0.162-0.998-0.172-1.252-0.624c-0.385-0.647-1.195-0.612-1.816-0.5
	c-0.432,0.087-0.645,0.521-0.914,0.839c-0.402,0.461-1.178,0.413-1.535-0.085c-0.227-0.313-0.457-0.681-0.85-0.757
	c-0.598-0.09-1.379-0.156-1.77,0.449c-0.252,0.438-0.693,0.814-1.203,0.697c-0.516-0.053-0.738-0.597-1.072-0.934
	c-0.471-0.389-1.111-0.25-1.646-0.133c-0.578,0.137-0.721,0.943-1.316,1.049c-0.414,0.039-0.977,0.135-1.281,0.412
	c-1.287,0.843-1.787,2.56-1.789,4.196c0,2.093,0,4.187,0,6.278l0,0v16.107h2.217V19.668z"/>
<path fill="#97BBD5" d="M44.506,66.504c-0.01-0.07-0.023-0.142-0.037-0.211c-0.002-0.006-0.004-0.012-0.004-0.018
	c-0.014-0.06-0.029-0.119-0.045-0.178c-0.006-0.018-0.01-0.037-0.016-0.055c-0.014-0.041-0.025-0.081-0.041-0.123
	c-0.012-0.033-0.023-0.066-0.035-0.101c-0.008-0.016-0.016-0.032-0.021-0.05c-0.16-0.396-0.404-0.756-0.713-1.034
	c-0.006-0.007-0.012-0.011-0.018-0.017c-0.031-0.027-0.061-0.055-0.094-0.081c-0.104-0.086-0.215-0.165-0.33-0.233
	c-0.008-0.005-0.016-0.009-0.021-0.014c0.004-0.005,0.01-0.01,0.014-0.016c-0.127-0.063-0.258-0.119-0.391-0.166
	c-0.119-0.046-0.24-0.081-0.363-0.106c-0.363-0.083-0.736-0.097-1.102-0.007c-0.023,0.004-0.045,0.01-0.068,0.017h-0.002
	l-0.004,0.001c-0.66,0.16-1.24,0.61-1.615,1.209c-0.002,0.002-0.004,0.005-0.006,0.008c-0.035,0.055-0.066,0.111-0.098,0.17
	c-0.004,0.009-0.01,0.018-0.014,0.025c-0.027,0.054-0.053,0.106-0.078,0.159c-0.006,0.017-0.014,0.034-0.021,0.051
	c-0.018,0.046-0.037,0.093-0.055,0.14c-0.01,0.027-0.018,0.055-0.027,0.082c-0.012,0.037-0.025,0.074-0.035,0.113
	c-0.012,0.039-0.021,0.08-0.031,0.12c-0.006,0.026-0.012,0.052-0.018,0.077c-0.012,0.057-0.021,0.112-0.029,0.17
	c0,0.007-0.004,0.015-0.004,0.023c-0.002,0.005-0.002,0.012-0.002,0.012c-0.002,0.021-0.006,0.039-0.008,0.056
	c-0.004,0.025-0.006,0.051-0.008,0.076c-0.004,0.04-0.01,0.079-0.012,0.119c-0.029,0.418,0.035,0.84,0.178,1.229
	c0.039,0.121,0.084,0.24,0.133,0.357c0.006-0.005,0.01-0.01,0.016-0.016c0.037,0.073,0.078,0.145,0.123,0.215
	c0.01,0.016,0.021,0.033,0.031,0.049c0.025,0.037,0.049,0.075,0.076,0.111c0.02,0.029,0.041,0.057,0.063,0.084
	s0.043,0.053,0.064,0.079c0.023,0.026,0.047,0.054,0.07,0.079c0.023,0.027,0.049,0.053,0.074,0.08
	c0.023,0.023,0.047,0.046,0.07,0.068s0.049,0.045,0.074,0.066c0.031,0.027,0.061,0.053,0.092,0.078
	c0.008,0.004,0.014,0.01,0.02,0.014c0.613,0.48,1.418,0.688,2.168,0.501c0.367-0.079,0.713-0.251,1.012-0.487
	c0.014-0.008,0.025-0.018,0.037-0.027c0.02-0.016,0.039-0.031,0.061-0.049c0.303-0.256,0.551-0.584,0.727-0.95
	c0.004-0.009,0.008-0.015,0.01-0.022c0.027-0.055,0.051-0.111,0.072-0.168c0.004-0.008,0.008-0.015,0.01-0.023
	c0.102-0.262,0.164-0.54,0.188-0.822c0-0.006,0-0.013,0.002-0.02c0.002-0.043,0.004-0.085,0.006-0.127
	c0.004-0.111,0.004-0.219-0.004-0.328C44.52,66.631,44.514,66.566,44.506,66.504z"/>
<path fill="#97BBD5" d="M51.717,58.479c-0.418-1.016-1.424-1.729-2.467-1.689c-0.037-0.001-0.074,0.001-0.111,0.002
	c0,0-0.006,0-0.01,0c-0.154,0.004-0.305,0.023-0.455,0.059c-0.012,0.002-0.025,0.004-0.037,0.007
	c-1.061,0.255-1.916,1.261-2.045,2.417c-0.049,0.344-0.031,0.694,0.045,1.031c0.014,0.094,0.031,0.187,0.051,0.277
	c0.006-0.006,0.012-0.012,0.018-0.019c0.193,0.614,0.576,1.161,1.096,1.503c0.275,0.191,0.582,0.32,0.9,0.39
	c0.178,0.04,0.359,0.059,0.541,0.058c0.018,0,0.037,0,0.053,0c0.027-0.002,0.055,0,0.08-0.002c0.021,0,0.043-0.003,0.064-0.004
	c0.006-0.001,0.012-0.001,0.018-0.002c1.145-0.059,2.189-1.001,2.426-2.201c0.004-0.014,0.004-0.029,0.008-0.043
	c0.039-0.199,0.061-0.402,0.059-0.605c0.002-0.215-0.021-0.428-0.066-0.635C51.846,58.834,51.793,58.652,51.717,58.479z"/>
<path fill="#97BBD5" d="M49.012,69.773c0.693,0.055,1.457-0.139,1.941-0.701c0.262-0.297,0.576-0.56,0.736-0.938
	c0.471-1.048,0.279-2.395-0.49-3.223c-0.691-0.781-1.809-1.079-2.762-0.74c-1.244,0.405-2.072,1.855-1.824,3.223
	C46.793,68.645,47.832,69.676,49.012,69.773z"/>
<path fill="#97BBD5" d="M43.236,71.708c-0.631-0.417-1.422-0.519-2.133-0.31c-1.061,0.303-1.875,1.367-1.945,2.537
	c-0.104,1.138,0.506,2.29,1.465,2.791c0.98,0.541,2.27,0.35,3.063-0.475c0.566-0.555,0.881-1.383,0.844-2.202
	C44.504,73.102,43.996,72.193,43.236,71.708z"/>
<path fill="#97BBD5" d="M35.527,57.04c-0.553-0.279-1.195-0.311-1.785-0.171c-1.248,0.318-2.158,1.684-2.018,3.048
	c0.076,0.978,0.66,1.883,1.486,2.306c0.871,0.46,1.975,0.373,2.766-0.234c0.736-0.542,1.176-1.506,1.119-2.46
	C37.07,58.471,36.432,57.469,35.527,57.04z"/>
<path fill="#97BBD5" d="M26.143,64.176c-1.064,0.357-1.848,1.479-1.855,2.673c-0.045,1.213,0.727,2.392,1.805,2.773
	c0.9,0.354,1.965,0.121,2.676-0.563c0.811-0.753,1.125-2.05,0.742-3.125C29.063,64.506,27.473,63.674,26.143,64.176z"/>
<path fill="#97BBD5" d="M28.805,61.764c0.799-0.76,1.086-2.053,0.695-3.115c-0.439-1.314-1.842-2.129-3.115-1.797
	c-1.197,0.266-2.125,1.498-2.098,2.807c-0.016,1,0.514,1.979,1.33,2.471C26.607,62.754,27.967,62.609,28.805,61.764z"/>
<path fill="#97BBD5" d="M26.266,71.394c-1.064,0.296-1.898,1.353-1.971,2.528c-0.107,1.146,0.51,2.316,1.482,2.811
	c1.047,0.573,2.426,0.305,3.201-0.645c0.871-0.986,0.924-2.643,0.123-3.692C28.457,71.487,27.287,71.085,26.266,71.394z"/>
<path fill="#97BBD5" d="M36.125,71.958c-0.01-0.009-0.02-0.017-0.029-0.024c0.006-0.005,0.01-0.01,0.014-0.015
	c-0.186-0.149-0.387-0.275-0.6-0.376c-0.018-0.009-0.035-0.016-0.053-0.023c-0.049-0.021-0.098-0.041-0.145-0.061
	c-0.027-0.01-0.053-0.02-0.08-0.028c-0.381-0.132-0.783-0.178-1.184-0.11c-0.08,0.009-0.158,0.024-0.236,0.042
	c-0.01,0.001-0.018,0.003-0.027,0.004c-0.037,0.009-0.072,0.021-0.107,0.032c-0.02,0.006-0.037,0.01-0.057,0.016
	c-0.053,0.017-0.104,0.035-0.154,0.057c-0.014,0.006-0.027,0.01-0.041,0.016c-0.053,0.021-0.104,0.047-0.156,0.073
	c-0.012,0.005-0.023,0.011-0.035,0.017c-0.049,0.025-0.096,0.053-0.145,0.082c-0.012,0.008-0.027,0.016-0.039,0.024
	c-0.039,0.023-0.076,0.052-0.115,0.077c-0.021,0.016-0.043,0.029-0.064,0.047c-0.016,0.012-0.031,0.023-0.047,0.035
	c-0.412,0.324-0.74,0.771-0.926,1.28c-0.006,0.015-0.012,0.03-0.016,0.046c-0.014,0.037-0.025,0.074-0.037,0.112
	c-0.014,0.043-0.025,0.085-0.035,0.128c-0.004,0.012-0.006,0.024-0.01,0.037c-0.02,0.086-0.037,0.174-0.049,0.262
	c-0.051,0.284-0.053,0.57-0.012,0.85c0.039,0.311,0.129,0.611,0.26,0.891c0.076,0.172,0.164,0.338,0.262,0.494
	c0.006-0.004,0.012-0.01,0.018-0.014c0.031,0.043,0.063,0.086,0.096,0.127c-0.002,0.004-0.004,0.008-0.008,0.012
	c0.209,0.242,0.457,0.445,0.727,0.603c0.146,0.088,0.301,0.157,0.461,0.213c0.025,0.009,0.049,0.019,0.074,0.026
	c0.014,0.004,0.027,0.008,0.043,0.012c0.447,0.137,0.924,0.158,1.381,0.035c1.1-0.273,1.977-1.354,2.037-2.563
	c0.002-0.021,0.004-0.041,0.004-0.062c0.002-0.005,0.002-0.008,0.002-0.008c0.063-0.904-0.326-1.794-0.959-2.378
	C36.133,71.95,36.129,71.954,36.125,71.958z"/>
<path fill="#97BBD5" d="M13.959,51.779c0.762,0.203,1.557,0.061,2.332,0.1l25.74-0.012c1.666,0.003,3.346,0.019,5.002-0.018
	l13.994,0.037c0.539,0.018,1.078,0.012,1.578-0.232c0.883-0.42,1.457-1.439,1.414-2.467c-0.021-2.359-0.012-4.705-0.088-7.063
	c-0.086-1.203-1.209-2.123-2.307-2.12l-47.047,0.002c-1.25,0.002-2.354,1.186-2.346,2.521c-0.016,2.045,0,4.092-0.006,6.139
	c-0.002,0.404-0.01,0.812,0.064,1.211C12.467,50.773,13.137,51.53,13.959,51.779z"/>
<path fill="#97BBD5" d="M34.426,69.785c1.309,0.022,2.523-1.125,2.654-2.516c0.127-0.977-0.268-1.993-0.986-2.604
	c-0.656-0.57-1.57-0.773-2.385-0.531c-1.309,0.339-2.217,1.847-1.955,3.26C31.941,68.746,33.146,69.822,34.426,69.785z"/>
<path fill="#97BBD5" d="M0.711,54.83c0.006,5.143-0.004,10.285,0.004,15.429c-0.006,1.308,0.463,2.621,1.35,3.537
	c0.836,0.897,2.014,1.399,3.197,1.403c3.59,0.008,7.182,0,10.771,0.004c-0.008,1.082,0.039,2.236,0.271,3.297
	c0.117,0.458,0.275,0.9,0.428,1.348c1.213,3.084,4.258,5.234,7.4,5.188c3.803,0.047,7.604,0.002,11.404,0.023
	c3.801-0.021,12.766-0.016,16.566-0.063c3.145,0.048,6.188-2.103,7.4-5.188c0.152-0.446,0.311-0.89,0.428-1.347
	c0.232-1.062,0.279-2.215,0.271-3.297c3.592-0.004,7.182,0.004,10.773-0.004c1.184-0.004,2.359-0.507,3.197-1.403
	c0.885-0.916,1.354-2.229,1.348-3.537c0.008-5.144-0.002-10.286,0.004-15.429l0.01-2.32c-0.029-2.633,0.006-5.267-0.01-7.898
	c-0.066-3.424-1.256-6.808-3.336-9.418l-0.033,0.01c-0.283-0.365-0.578-0.719-0.889-1.051c-2.066-2.112-4.705-3.6-7.537-4.086
	c-1.502-0.291-3.031-0.193-4.551-0.211c-9.252-0.01-18.422,0.02-27.674-0.014h-0.088l-1.654,0.014
	c-5.061,0.004-10.125-0.005-15.188,0.006c-4.021,0.053-7.957,2.08-10.529,5.371c-2.078,2.61-3.27,5.994-3.336,9.418
	c-0.014,2.633,0.021,5.266-0.01,7.898L0.711,54.83z M4.961,47.096c0.023-1.393-0.086-2.801,0.178-4.175
	c0.463-2.548,1.852-4.876,3.795-6.429c1.619-1.306,3.623-2.071,5.654-2.118c5.131-0.007,10.266-0.007,15.4-0.013l0,0h0.107
	c0,0,0.004,0,0.008,0l5.4-0.01c1.6,0.045,3.199,0.008,4.797,0.021c7.068,0,14.135,0,21.203,0c2.498,0.014,4.963,1.122,6.746,2.983
	c1.305,1.447,2.391,3.31,2.785,5.283c0.348,1.543,0.203,3.141,0.24,4.713c0.01,1.936-0.029,3.873,0.029,5.811l-0.004,0.975
	c-0.063,5.359-0.004,10.722-0.027,16.084c0.027,0.197-0.086,0.385-0.285,0.389l-14.525,0.018c-0.17,0-0.338,0-0.508,0.002
	c0.016,1.825,0.004,3.652,0.006,5.479c0.012,0.874-0.199,1.759-0.664,2.485c-0.715,1.175-2.012,1.899-3.32,1.873
	c-5.316,0.006-10.633-0.005-15.951,0.004c0.012,0.012,0.016,0.024,0.027,0.037c-3.932,0-7.861,0.002-11.793-0.002
	c-1.309,0.027-2.605-0.698-3.32-1.873c-0.465-0.727-0.674-1.611-0.664-2.484c0.002-1.828-0.008-3.654,0.006-5.48
	c-0.168-0.002-0.338-0.002-0.508-0.002L5.248,70.648c-0.197-0.004-0.313-0.191-0.283-0.389c-0.025-5.361,0.033-10.725-0.029-16.084
	l-0.004-0.975C4.994,51.166,4.945,49.13,4.961,47.096z"/>
<rect id="_x3C_Slice_x3E__143_" x="0.701" y="0.077" fill="none" width="74.824" height="84.972"/>
<rect id="_x3C_Slice_x3E__80_" fill="none" width="76" height="86"/>
</svg>
