<?xml version="1.0" encoding="utf-8"?>
<!-- Generator: Adobe Illustrator 16.0.3, SVG Export Plug-In . SVG Version: 6.00 Build 0)  -->
<!DOCTYPE svg PUBLIC "-//W3C//DTD SVG 1.1//EN" "http://www.w3.org/Graphics/SVG/1.1/DTD/svg11.dtd">
<svg version="1.1" id="Layer_1" xmlns="http://www.w3.org/2000/svg" xmlns:xlink="http://www.w3.org/1999/xlink" x="0px" y="0px"
	 width="84px" height="86px" viewBox="0 0 84 86" enable-background="new 0 0 84 86" xml:space="preserve">
<path fill="#97BBD5" d="M56.385,46.957c-0.698-0.461-1.576-0.576-2.364-0.344c-1.179,0.336-2.082,1.518-2.16,2.814
	c-0.112,1.264,0.563,2.541,1.625,3.098c1.09,0.6,2.518,0.389,3.399-0.527c0.626-0.615,0.976-1.533,0.934-2.443
	C57.791,48.504,57.229,47.496,56.385,46.957z"/>
<path fill="#97BBD5" d="M48.064,30.805c-0.642-0.402-1.426-0.48-2.146-0.322c-1.177,0.281-2.125,1.396-2.268,2.68
	c-0.168,1.197,0.376,2.463,1.341,3.098c0.96,0.668,2.274,0.662,3.232-0.002c0.846-0.566,1.382-1.607,1.369-2.67
	C49.606,32.453,48.99,31.354,48.064,30.805z"/>
<path fill="#97BBD5" d="M49.565,41.184c-0.01-0.078-0.025-0.156-0.041-0.234c-0.002-0.006-0.004-0.012-0.004-0.02
	c-0.015-0.066-0.032-0.133-0.05-0.197c-0.007-0.02-0.012-0.041-0.018-0.061c-0.015-0.045-0.028-0.09-0.045-0.137
	c-0.013-0.037-0.026-0.074-0.039-0.111c-0.009-0.018-0.019-0.035-0.024-0.055c-0.178-0.439-0.448-0.84-0.79-1.146
	c-0.007-0.008-0.014-0.012-0.021-0.02c-0.033-0.029-0.066-0.061-0.104-0.09c-0.114-0.096-0.238-0.184-0.366-0.26
	c-0.008-0.004-0.018-0.008-0.023-0.014c0.004-0.006,0.011-0.012,0.016-0.018c-0.142-0.07-0.286-0.133-0.435-0.186
	c-0.132-0.049-0.266-0.088-0.402-0.117c-0.403-0.092-0.817-0.107-1.223-0.008c-0.025,0.004-0.049,0.012-0.075,0.018h-0.003
	l-0.004,0.002c-0.732,0.178-1.376,0.678-1.791,1.342c-0.003,0.002-0.005,0.006-0.008,0.008c-0.039,0.061-0.072,0.125-0.107,0.189
	c-0.004,0.01-0.012,0.02-0.016,0.027c-0.03,0.061-0.058,0.119-0.086,0.178c-0.007,0.018-0.016,0.037-0.024,0.057
	c-0.02,0.049-0.041,0.102-0.061,0.154c-0.012,0.029-0.02,0.061-0.03,0.09c-0.014,0.043-0.028,0.084-0.039,0.127
	c-0.014,0.043-0.024,0.088-0.034,0.133c-0.007,0.029-0.013,0.057-0.021,0.086c-0.013,0.063-0.023,0.125-0.032,0.188
	c0,0.008-0.005,0.016-0.005,0.027c-0.002,0.006-0.002,0.012-0.002,0.012c-0.002,0.025-0.006,0.043-0.008,0.063
	c-0.005,0.027-0.007,0.057-0.009,0.084c-0.004,0.045-0.011,0.088-0.014,0.133c-0.032,0.463,0.04,0.932,0.198,1.363
	c0.043,0.135,0.092,0.266,0.146,0.396c0.007-0.004,0.011-0.012,0.018-0.018c0.041,0.082,0.086,0.162,0.137,0.238
	c0.011,0.018,0.023,0.037,0.034,0.055c0.028,0.041,0.054,0.084,0.085,0.125c0.021,0.031,0.045,0.061,0.069,0.092
	s0.047,0.059,0.071,0.088c0.025,0.029,0.052,0.059,0.078,0.088c0.026,0.031,0.054,0.059,0.082,0.088
	c0.026,0.027,0.053,0.053,0.078,0.076c0.026,0.025,0.055,0.049,0.082,0.074c0.034,0.029,0.067,0.059,0.102,0.086
	c0.009,0.006,0.017,0.012,0.022,0.016c0.68,0.533,1.572,0.762,2.405,0.557c0.406-0.09,0.79-0.279,1.122-0.541
	c0.015-0.01,0.028-0.02,0.041-0.031c0.021-0.018,0.043-0.033,0.067-0.053c0.336-0.285,0.61-0.648,0.806-1.055
	c0.005-0.01,0.009-0.018,0.012-0.025c0.03-0.061,0.056-0.123,0.08-0.186c0.004-0.01,0.008-0.016,0.01-0.027
	c0.113-0.291,0.183-0.598,0.209-0.912c0-0.006,0-0.014,0.002-0.021c0.002-0.047,0.004-0.094,0.006-0.141
	c0.005-0.123,0.005-0.242-0.004-0.363C49.582,41.324,49.575,41.254,49.565,41.184z"/>
<path fill="#97BBD5" d="M57.565,32.281c-0.464-1.127-1.579-1.918-2.736-1.875c-0.041,0-0.082,0.002-0.123,0.002c0,0-0.008,0-0.012,0
	c-0.171,0.006-0.338,0.025-0.504,0.064c-0.014,0.004-0.029,0.006-0.041,0.01c-1.178,0.281-2.127,1.396-2.27,2.68
	c-0.054,0.381-0.034,0.771,0.05,1.145c0.015,0.104,0.035,0.207,0.057,0.309c0.007-0.008,0.013-0.014,0.02-0.021
	c0.215,0.682,0.639,1.287,1.216,1.666c0.306,0.213,0.646,0.357,0.998,0.434c0.197,0.045,0.398,0.064,0.601,0.064
	c0.02,0,0.041,0,0.059,0c0.03-0.002,0.061,0,0.089-0.002c0.023,0,0.048-0.004,0.072-0.006c0.006,0,0.012,0,0.019-0.002
	c1.27-0.064,2.429-1.109,2.69-2.441c0.005-0.016,0.005-0.033,0.01-0.049c0.043-0.221,0.067-0.445,0.064-0.67
	c0.003-0.238-0.023-0.475-0.074-0.705C57.708,32.676,57.65,32.473,57.565,32.281z"/>
<path fill="#97BBD5" d="M54.564,44.811c0.769,0.061,1.616-0.154,2.154-0.777c0.29-0.33,0.639-0.621,0.816-1.039
	c0.522-1.164,0.31-2.658-0.544-3.576c-0.768-0.867-2.007-1.197-3.063-0.822c-1.38,0.451-2.299,2.061-2.024,3.576
	C52.103,43.559,53.257,44.703,54.564,44.811z"/>
<path fill="#97BBD5" d="M48.157,46.957c-0.699-0.463-1.577-0.576-2.365-0.344c-1.177,0.336-2.08,1.518-2.158,2.814
	c-0.115,1.262,0.562,2.541,1.625,3.096c1.088,0.602,2.518,0.389,3.397-0.525c0.629-0.615,0.977-1.533,0.936-2.443
	C49.563,48.502,49,47.496,48.157,46.957z"/>
<path fill="#97BBD5" d="M39.605,30.686c-0.612-0.311-1.326-0.346-1.979-0.189c-1.385,0.354-2.395,1.867-2.238,3.381
	c0.084,1.084,0.731,2.088,1.648,2.557c0.967,0.512,2.19,0.414,3.068-0.26c0.816-0.6,1.305-1.67,1.241-2.729
	C41.317,32.271,40.609,31.16,39.605,30.686z"/>
<path fill="#97BBD5" d="M29.195,38.602c-1.182,0.396-2.05,1.641-2.06,2.965c-0.049,1.346,0.807,2.652,2.002,3.076
	c0.999,0.395,2.181,0.135,2.969-0.625c0.899-0.834,1.249-2.273,0.823-3.467C32.434,38.967,30.671,38.043,29.195,38.602z"/>
<path fill="#97BBD5" d="M32.147,35.926c0.887-0.844,1.205-2.277,0.771-3.457c-0.487-1.457-2.043-2.361-3.455-1.992
	c-1.329,0.293-2.357,1.66-2.328,3.113c-0.017,1.109,0.57,2.193,1.477,2.74C29.711,37.023,31.218,36.863,32.147,35.926z"/>
<path fill="#97BBD5" d="M29.331,46.607c-1.181,0.33-2.105,1.5-2.186,2.805c-0.12,1.273,0.565,2.57,1.645,3.119
	c1.161,0.635,2.69,0.338,3.551-0.715c0.967-1.094,1.024-2.932,0.137-4.098C31.763,46.713,30.465,46.266,29.331,46.607z"/>
<path fill="#97BBD5" d="M40.269,47.234c-0.01-0.01-0.021-0.02-0.032-0.027c0.006-0.006,0.011-0.01,0.015-0.016
	c-0.205-0.166-0.429-0.307-0.664-0.418c-0.021-0.01-0.039-0.018-0.059-0.025c-0.055-0.023-0.108-0.047-0.16-0.066
	c-0.031-0.012-0.06-0.023-0.09-0.033c-0.422-0.146-0.868-0.195-1.313-0.121c-0.09,0.01-0.176,0.025-0.263,0.047
	c-0.01,0-0.02,0.002-0.03,0.004c-0.041,0.01-0.08,0.023-0.119,0.035c-0.021,0.006-0.041,0.01-0.063,0.018
	c-0.059,0.018-0.115,0.039-0.172,0.063c-0.015,0.006-0.029,0.01-0.045,0.018c-0.059,0.023-0.115,0.053-0.173,0.082
	c-0.014,0.004-0.026,0.012-0.039,0.018c-0.055,0.027-0.106,0.059-0.161,0.092c-0.013,0.008-0.029,0.016-0.043,0.025
	c-0.043,0.027-0.084,0.059-0.128,0.086c-0.023,0.018-0.048,0.033-0.071,0.053c-0.018,0.014-0.034,0.025-0.053,0.039
	c-0.456,0.359-0.821,0.854-1.026,1.42c-0.007,0.016-0.014,0.033-0.018,0.051c-0.015,0.041-0.028,0.082-0.041,0.125
	c-0.015,0.047-0.028,0.094-0.039,0.143c-0.004,0.012-0.006,0.027-0.011,0.041c-0.021,0.096-0.041,0.191-0.055,0.289
	c-0.056,0.316-0.058,0.633-0.013,0.943c0.044,0.344,0.144,0.678,0.289,0.988c0.084,0.189,0.182,0.375,0.29,0.549
	c0.007-0.006,0.013-0.012,0.019-0.016c0.035,0.047,0.07,0.096,0.106,0.141c-0.002,0.004-0.004,0.008-0.008,0.012
	c0.231,0.27,0.506,0.494,0.805,0.668c0.164,0.1,0.334,0.176,0.512,0.238c0.028,0.01,0.055,0.02,0.082,0.029
	c0.016,0.004,0.031,0.008,0.049,0.012c0.496,0.152,1.024,0.176,1.531,0.039c1.22-0.303,2.192-1.5,2.261-2.844
	c0.002-0.021,0.004-0.045,0.004-0.066c0.002-0.006,0.002-0.01,0.002-0.01c0.069-1.004-0.362-1.99-1.064-2.639
	C40.277,47.225,40.273,47.23,40.269,47.234z"/>
<path fill="#97BBD5" d="M15.679,24.85c0.846,0.225,1.727,0.066,2.588,0.109l28.554-0.012c1.849,0.002,3.712,0.02,5.55-0.02
	l15.524,0.041c0.598,0.02,1.195,0.014,1.75-0.258c0.979-0.467,1.616-1.598,1.568-2.736c-0.023-2.619-0.012-5.221-0.098-7.836
	c-0.095-1.336-1.341-2.355-2.558-2.354l-52.191,0.002c-1.387,0.004-2.611,1.316-2.603,2.799c-0.018,2.268,0,4.539-0.007,6.809
	c-0.002,0.449-0.011,0.9,0.072,1.344C14.023,23.732,14.767,24.572,15.679,24.85z"/>
<path fill="#97BBD5" d="M38.384,44.824c1.451,0.023,2.799-1.248,2.945-2.791c0.14-1.084-0.297-2.211-1.095-2.889
	c-0.729-0.633-1.742-0.857-2.646-0.59c-1.452,0.377-2.459,2.049-2.17,3.617C35.628,43.672,36.965,44.865,38.384,44.824z"/>
<path fill="#97BBD5" d="M83.978,16.854c-0.073-3.797-1.394-7.551-3.701-10.447l-0.037,0.012c-0.314-0.406-0.641-0.799-0.984-1.168
	c-2.293-2.342-5.221-3.992-8.362-4.531c-1.665-0.322-3.362-0.215-5.048-0.234c-10.264-0.01-20.437,0.021-30.7-0.014h-0.098
	l-1.835,0.014C27.598,0.488,21.98,0.479,16.363,0.49c-4.461,0.059-8.826,2.309-11.68,5.959C2.378,9.346,1.056,13.1,0.982,16.896
	c-0.015,2.922,0.023,5.842-0.011,8.764l0.011,2.572c0.007,5.707-0.005,11.41,0.004,17.117C0.98,46.799,1.5,48.256,2.484,49.273
	c0.927,0.994,2.233,1.551,3.546,1.557c2.571,0.006,5.144,0.004,7.715,0.002v33.104c0,0.867,0.704,1.57,1.572,1.57h54.314
	c0.869,0,1.573-0.703,1.573-1.57V50.789c2.575,0,5.15,0.002,7.727-0.004c1.313-0.004,2.616-0.561,3.546-1.557
	c0.982-1.016,1.502-2.473,1.496-3.922c0.009-5.707-0.002-11.412,0.004-17.117l0.011-2.572
	C83.956,22.695,83.994,19.773,83.978,16.854z M68.108,80.77c0,0.645-0.522,1.166-1.167,1.166H18.485
	c-0.022,0-0.041-0.012-0.063-0.012s-0.041,0.012-0.063,0.012c-0.645,0-1.167-0.521-1.167-1.166V51.902
	c0-0.645,0.522-1.168,1.167-1.168s1.167,0.523,1.167,1.168v27.699h46.249V51.902c0-0.645,0.522-1.168,1.167-1.168
	s1.167,0.523,1.167,1.168V80.77z M35.709,68.049c0-0.146,0.053-0.275,0.153-0.377c0.102-0.1,0.23-0.152,0.379-0.152l1.466-0.002
	c1.652,0,1.675-0.002,1.675-1.672l0.005-4.928c0-0.145,0.054-0.273,0.155-0.375s0.231-0.154,0.375-0.154l5.146,0.002
	c0.13,0,0.263,0.059,0.365,0.16c0.103,0.104,0.161,0.238,0.16,0.371l0.001,4.928c0,1.674,0,1.674,1.672,1.674h1.47
	c0.259,0,0.53,0.273,0.53,0.527c0,0.119-0.035,0.227-0.095,0.305l-6.084,7.863c-0.165,0.15-0.377,0.23-0.601,0.232
	c-0.226,0-0.438-0.082-0.604-0.23l-6.068-7.859C35.744,68.273,35.708,68.164,35.709,68.049z M79.29,27.463
	c-0.068,5.947-0.004,11.896-0.029,17.844c0.029,0.219-0.096,0.426-0.316,0.432l-16.114,0.02c-0.188,0-0.375,0-0.563,0.002
	c0.019,2.025,0.005,4.051,0.007,6.078c0.014,0.971-0.222,1.951-0.737,2.758c-0.792,1.303-2.231,2.107-3.683,2.078
	c-5.897,0.006-11.795-0.006-17.695,0.004c0.013,0.012,0.017,0.027,0.03,0.041c-4.361,0-8.721,0.002-13.082-0.002
	c-1.451,0.031-2.891-0.775-3.684-2.078c-0.516-0.807-0.748-1.787-0.736-2.756c0.002-2.027-0.01-4.053,0.007-6.08
	c-0.187-0.002-0.375-0.002-0.563-0.002l-16.114-0.02c-0.219-0.004-0.347-0.213-0.314-0.432c-0.027-5.947,0.037-11.896-0.032-17.842
	l-0.005-1.08c0.069-2.26,0.016-4.518,0.033-6.775c0.026-1.543-0.095-3.105,0.196-4.629c0.514-2.828,2.055-5.41,4.211-7.133
	c1.796-1.447,4.019-2.297,6.272-2.35c5.691-0.008,11.388-0.008,17.084-0.014h0.119c0,0,0.005,0,0.009,0l5.99-0.012
	c1.775,0.051,3.55,0.01,5.322,0.023c7.842,0,15.681,0,23.521,0c2.771,0.016,5.505,1.244,7.483,3.309
	c1.447,1.605,2.652,3.672,3.089,5.861c0.387,1.711,0.227,3.484,0.268,5.229c0.011,2.146-0.032,4.295,0.033,6.445L79.29,27.463z"/>
<rect id="_x3C_Slice_x3E__157_" fill="none" width="84" height="86"/>
</svg>
