<?xml version="1.0" encoding="utf-8"?>
<!-- Generator: Adobe Illustrator 16.0.3, SVG Export Plug-In . SVG Version: 6.00 Build 0)  -->
<!DOCTYPE svg PUBLIC "-//W3C//DTD SVG 1.1//EN" "http://www.w3.org/Graphics/SVG/1.1/DTD/svg11.dtd">
<svg version="1.1" id="Layer_1" xmlns="http://www.w3.org/2000/svg" xmlns:xlink="http://www.w3.org/1999/xlink" x="0px" y="0px"
	 width="76px" height="87px" viewBox="0 0 76 87" enable-background="new 0 0 76 87" xml:space="preserve">
<path fill="#97BBD5" d="M14.527,70.438c-2.865,0-5.479-1.124-7.414-2.948c-0.069-0.068-0.498-0.482-0.603-0.645
	c-0.668-0.766-1.648-1.268-2.758-1.268c-1.974,0-3.581,1.609-3.581,3.576l0.037,10.221c0,3.951,3.203,7.147,7.156,7.147h60.848
	c3.956,0,7.155-3.196,7.155-7.147V63.791c0-1.961-1.607-3.571-3.578-3.571c-1.002,0-1.913,0.407-2.571,1.089l-0.703,0.752
	c-1.934,1.875-4.563,3.02-7.465,3.02c-5.92,0-10.733-4.811-10.733-10.726c0-5.918,4.813-10.725,10.733-10.725
	c2.918,0,5.548,1.163,7.486,3.04l0.552,0.588c0.662,0.752,1.626,1.233,2.701,1.233c1.971,0,3.578-1.61,3.578-3.573V36.48
	c0-3.952-3.199-7.147-7.155-7.147H47.881c-1.968,0-3.578-1.61-3.578-3.577c0-0.998,0.413-1.911,1.091-2.57
	c2.988-2.271,4.924-5.883,4.924-9.941c0-6.913-5.602-12.51-12.526-12.51c-6.929,0-12.53,5.597-12.53,12.51
	c0,3.912,1.809,7.419,4.637,9.708l0.034,0.055c0.811,0.643,1.309,1.641,1.309,2.749c0,1.967-1.592,3.577-3.581,3.577H7.365
	c-3.953,0-7.156,3.195-7.156,7.147v13.801c0,1.963,1.608,3.572,3.578,3.572c1.091,0,2.056-0.48,2.724-1.252
	c0.12-0.143,0.552-0.59,0.643-0.676c1.931-1.824,4.527-2.932,7.374-2.932c5.923,0,10.733,4.805,10.733,10.724
	C25.261,65.633,20.45,70.438,14.527,70.438z"/>
<rect id="_x3C_Slice_x3E__97_" fill="none" width="76" height="87"/>
</svg>
