<?xml version="1.0" encoding="utf-8"?>
<!-- Generator: Adobe Illustrator 16.0.3, SVG Export Plug-In . SVG Version: 6.00 Build 0)  -->
<!DOCTYPE svg PUBLIC "-//W3C//DTD SVG 1.1//EN" "http://www.w3.org/Graphics/SVG/1.1/DTD/svg11.dtd">
<svg version="1.1" id="Layer_1" xmlns="http://www.w3.org/2000/svg" xmlns:xlink="http://www.w3.org/1999/xlink" x="0px" y="0px"
	 width="74px" height="86px" viewBox="0 0 74 86" enable-background="new 0 0 74 86" xml:space="preserve">
<path fill="#97BBD5" d="M61.418,53.561c-2.303,11.725-12.627,20.193-24.614,20.193c-13.822,0-25.068-11.23-25.068-25.031
	c0-13.729,11.193-24.961,24.95-25.035l3.887-0.021v11.393c0,0.061,0.117,0.174,0.33,0.174c0.107,0,0.186-0.027,0.223-0.055
	l21.883-16.307c0.498-0.539,0.613-0.869,0.615-0.934c-0.002-0.064-0.117-0.395-0.617-0.936L41.08,0.662
	c0.027,0.023-0.047-0.021-0.178-0.021c-0.229,0-0.33,0.125-0.33,0.174v11.357l-3.855,0.01C16.566,12.234,0.173,28.627,0.173,48.723
	c0,20.145,16.433,36.535,36.631,36.535c18.579,0,34.226-13.844,36.394-32.199l0.037-0.324c0.008-0.072,0.012-0.146,0.014-0.207
	l-9.697,0.061C62.359,52.588,61.6,53.27,61.418,53.561z"/>
<rect id="_x3C_Slice_x3E__160_" fill="none" width="74" height="86"/>
</svg>
