<?xml version="1.0" encoding="UTF-8" standalone="no"?>
<!-- Generator: Adobe Illustrator 16.0.3, SVG Export Plug-In . SVG Version: 6.00 Build 0)  -->

<svg
   xmlns:dc="http://purl.org/dc/elements/1.1/"
   xmlns:cc="http://creativecommons.org/ns#"
   xmlns:rdf="http://www.w3.org/1999/02/22-rdf-syntax-ns#"
   xmlns:svg="http://www.w3.org/2000/svg"
   xmlns="http://www.w3.org/2000/svg"
   xmlns:sodipodi="http://sodipodi.sourceforge.net/DTD/sodipodi-0.dtd"
   xmlns:inkscape="http://www.inkscape.org/namespaces/inkscape"
   version="1.1"
   id="Layer_1"
   x="0px"
   y="0px"
   width="78px"
   height="78px"
   viewBox="0 0 78 78"
   enable-background="new 0 0 78 78"
   xml:space="preserve"
   inkscape:version="0.48.3.1 r9886"
   sodipodi:docname="return.svg"><metadata
   id="metadata10"><rdf:RDF><cc:Work
       rdf:about=""><dc:format>image/svg+xml</dc:format><dc:type
         rdf:resource="http://purl.org/dc/dcmitype/StillImage" /><dc:title></dc:title></cc:Work></rdf:RDF></metadata><defs
   id="defs8" /><sodipodi:namedview
   pagecolor="#ffffff"
   bordercolor="#666666"
   borderopacity="1"
   objecttolerance="10"
   gridtolerance="10"
   guidetolerance="10"
   inkscape:pageopacity="0"
   inkscape:pageshadow="2"
   inkscape:window-width="777"
   inkscape:window-height="480"
   id="namedview6"
   showgrid="false"
   inkscape:zoom="3.025641"
   inkscape:cx="39"
   inkscape:cy="39"
   inkscape:window-x="505"
   inkscape:window-y="155"
   inkscape:window-maximized="0"
   inkscape:current-layer="Layer_1" />
<path
   fill="#97BBD5"
   d="M74.777,0.654H62.375c-1.555,0-2.815,1.813-2.815,4.051v44.123H34.101c-0.008,0-0.015,0.002-0.022,0.002  l-2.813-0.002c-4.858-0.002-4.863-0.063-4.863-4.871l-0.008-4.268c0.001-0.43-0.153-0.807-0.444-1.102  c-0.292-0.293-0.668-0.447-1.09-0.447c-0.338,0-0.656,0.104-0.917,0.295L1.081,56.092c-0.434,0.484-0.673,1.102-0.673,1.756  c0.003,0.652,0.241,1.27,0.677,1.752l22.879,17.703c0.229,0.174,0.544,0.275,0.886,0.275c0.74,0,1.535-0.789,1.535-1.543  l0.004-4.277c0-4.865,0-4.865,4.868-4.865l14.339-0.002c0.093,0,0.185-0.01,0.276-0.029h16.503h12.383h0.02  c0.015,0,0.028-0.006,0.044-0.006c1.536-0.033,2.771-1.275,2.771-2.809v-1.236V51.645V4.705C77.592,2.467,76.332,0.654,74.777,0.654  z"
   id="path3"
   style="fill:#ff0000;fill-opacity:1" />
<rect
   id="_x3C_Slice_x3E__154_"
   fill="none"
   width="78"
   height="78" />
</svg>