<?xml version="1.0" encoding="utf-8"?>
<!-- Generator: Adobe Illustrator 16.0.3, SVG Export Plug-In . SVG Version: 6.00 Build 0)  -->
<!DOCTYPE svg PUBLIC "-//W3C//DTD SVG 1.1//EN" "http://www.w3.org/Graphics/SVG/1.1/DTD/svg11.dtd">
<svg version="1.1" id="Layer_1" xmlns="http://www.w3.org/2000/svg" xmlns:xlink="http://www.w3.org/1999/xlink" x="0px" y="0px"
	 width="84px" height="91px" viewBox="0 0 84 91" enable-background="new 0 0 84 91" xml:space="preserve">
<g>
	<path fill="#93B4CB" d="M55.535,47.449c-0.697-0.461-1.576-0.576-2.363-0.344c-1.18,0.336-2.082,1.518-2.16,2.814
		c-0.113,1.264,0.563,2.541,1.625,3.098c1.09,0.6,2.518,0.389,3.398-0.527c0.627-0.615,0.977-1.533,0.934-2.443
		C56.941,48.996,56.381,47.988,55.535,47.449z"/>
	<path fill="#93B4CB" d="M47.215,31.297c-0.641-0.402-1.426-0.48-2.145-0.322c-1.178,0.281-2.125,1.396-2.268,2.68
		c-0.168,1.197,0.375,2.463,1.34,3.098c0.961,0.668,2.275,0.662,3.232-0.002c0.846-0.566,1.383-1.607,1.369-2.67
		C48.758,32.945,48.141,31.846,47.215,31.297z"/>
	<path fill="#93B4CB" d="M48.717,41.676c-0.01-0.078-0.025-0.156-0.041-0.234c-0.002-0.006-0.004-0.012-0.004-0.02
		c-0.016-0.066-0.033-0.133-0.051-0.197c-0.006-0.02-0.012-0.041-0.018-0.061c-0.014-0.045-0.027-0.09-0.045-0.137
		c-0.012-0.037-0.025-0.074-0.039-0.111c-0.008-0.018-0.018-0.035-0.023-0.055c-0.178-0.439-0.449-0.84-0.791-1.146
		c-0.006-0.008-0.014-0.012-0.02-0.02c-0.033-0.029-0.066-0.061-0.104-0.09c-0.115-0.096-0.238-0.184-0.367-0.26
		c-0.008-0.004-0.018-0.008-0.023-0.014c0.004-0.006,0.012-0.012,0.016-0.018c-0.141-0.07-0.285-0.133-0.434-0.186
		c-0.133-0.049-0.266-0.088-0.402-0.117c-0.404-0.092-0.818-0.107-1.223-0.008c-0.025,0.004-0.049,0.012-0.076,0.018H45.07
		l-0.004,0.002c-0.732,0.178-1.377,0.678-1.791,1.342c-0.004,0.002-0.006,0.006-0.008,0.008c-0.039,0.061-0.072,0.125-0.107,0.189
		c-0.004,0.01-0.012,0.02-0.016,0.027c-0.031,0.061-0.059,0.119-0.086,0.178c-0.008,0.018-0.016,0.037-0.025,0.057
		c-0.02,0.049-0.041,0.102-0.061,0.154c-0.012,0.029-0.02,0.061-0.029,0.09c-0.014,0.043-0.029,0.084-0.039,0.127
		c-0.014,0.043-0.025,0.088-0.035,0.133c-0.006,0.029-0.012,0.057-0.02,0.086c-0.014,0.063-0.023,0.125-0.033,0.188
		c0,0.008-0.004,0.016-0.004,0.027c-0.002,0.006-0.002,0.012-0.002,0.012c-0.002,0.025-0.006,0.043-0.008,0.063
		c-0.006,0.027-0.008,0.057-0.01,0.084c-0.004,0.045-0.01,0.088-0.014,0.133c-0.031,0.463,0.041,0.932,0.199,1.363
		c0.043,0.135,0.092,0.266,0.146,0.396c0.006-0.004,0.01-0.012,0.018-0.018c0.041,0.082,0.086,0.162,0.137,0.238
		c0.01,0.018,0.023,0.037,0.033,0.055c0.029,0.041,0.055,0.084,0.086,0.125c0.021,0.031,0.045,0.061,0.068,0.092
		c0.025,0.031,0.047,0.059,0.072,0.088s0.051,0.059,0.078,0.088c0.025,0.031,0.053,0.059,0.082,0.088
		c0.025,0.027,0.053,0.053,0.078,0.076c0.025,0.025,0.055,0.049,0.082,0.074c0.033,0.029,0.066,0.059,0.102,0.086
		c0.008,0.006,0.016,0.012,0.021,0.016c0.68,0.533,1.572,0.762,2.406,0.557c0.406-0.09,0.789-0.279,1.121-0.541
		c0.016-0.01,0.029-0.02,0.041-0.031c0.021-0.018,0.043-0.033,0.068-0.053c0.336-0.285,0.609-0.648,0.805-1.055
		c0.006-0.01,0.01-0.018,0.012-0.025c0.031-0.061,0.057-0.123,0.08-0.186c0.004-0.01,0.008-0.016,0.01-0.027
		c0.113-0.291,0.184-0.598,0.209-0.912c0-0.006,0-0.014,0.002-0.021c0.002-0.047,0.004-0.094,0.006-0.141
		c0.006-0.123,0.006-0.242-0.004-0.363C48.732,41.816,48.727,41.746,48.717,41.676z"/>
	<path fill="#93B4CB" d="M56.717,32.773c-0.465-1.127-1.58-1.918-2.736-1.875c-0.041,0-0.082,0.002-0.123,0.002c0,0-0.008,0-0.012,0
		c-0.172,0.006-0.338,0.025-0.504,0.064c-0.014,0.004-0.029,0.006-0.041,0.01c-1.178,0.281-2.127,1.396-2.27,2.68
		c-0.055,0.381-0.035,0.771,0.049,1.145c0.016,0.104,0.035,0.207,0.057,0.309c0.008-0.008,0.014-0.014,0.02-0.021
		c0.215,0.682,0.639,1.287,1.217,1.666c0.305,0.213,0.645,0.357,0.998,0.434c0.197,0.045,0.398,0.064,0.6,0.064
		c0.02,0,0.041,0,0.059,0c0.031-0.002,0.061,0,0.09-0.002c0.023,0,0.047-0.004,0.072-0.006c0.006,0,0.012,0,0.018-0.002
		c1.27-0.064,2.43-1.109,2.691-2.441c0.004-0.016,0.004-0.033,0.01-0.049c0.043-0.221,0.066-0.445,0.064-0.67
		c0.002-0.238-0.023-0.475-0.074-0.705C56.859,33.168,56.801,32.965,56.717,32.773z"/>
	<path fill="#93B4CB" d="M53.715,45.303c0.77,0.061,1.617-0.154,2.154-0.777c0.291-0.33,0.639-0.621,0.816-1.039
		c0.523-1.164,0.311-2.658-0.543-3.576c-0.768-0.867-2.008-1.197-3.064-0.822c-1.379,0.451-2.299,2.061-2.023,3.576
		C51.254,44.051,52.408,45.195,53.715,45.303z"/>
	<path fill="#93B4CB" d="M47.309,47.449c-0.699-0.463-1.578-0.576-2.365-0.344c-1.178,0.336-2.08,1.518-2.158,2.814
		c-0.115,1.262,0.561,2.541,1.625,3.096c1.088,0.602,2.518,0.389,3.396-0.525c0.629-0.615,0.977-1.533,0.936-2.443
		C48.715,48.994,48.15,47.988,47.309,47.449z"/>
	<path fill="#93B4CB" d="M38.756,31.178c-0.611-0.311-1.326-0.346-1.979-0.189c-1.385,0.354-2.395,1.867-2.238,3.381
		c0.084,1.084,0.73,2.088,1.648,2.557c0.967,0.512,2.189,0.414,3.068-0.26c0.816-0.6,1.305-1.67,1.24-2.729
		C40.469,32.764,39.76,31.652,38.756,31.178z"/>
	<path fill="#93B4CB" d="M28.346,39.094c-1.182,0.396-2.049,1.641-2.059,2.965c-0.049,1.346,0.807,2.652,2.002,3.076
		c0.998,0.395,2.18,0.135,2.969-0.625c0.898-0.834,1.248-2.273,0.822-3.467C31.584,39.459,29.822,38.535,28.346,39.094z"/>
	<path fill="#93B4CB" d="M31.299,36.418c0.887-0.844,1.205-2.277,0.771-3.457c-0.488-1.457-2.043-2.361-3.455-1.992
		c-1.33,0.293-2.357,1.66-2.328,3.113c-0.018,1.109,0.57,2.193,1.477,2.74C28.861,37.516,30.369,37.355,31.299,36.418z"/>
	<path fill="#93B4CB" d="M28.482,47.1c-1.182,0.33-2.105,1.5-2.186,2.805c-0.121,1.273,0.564,2.57,1.645,3.119
		c1.16,0.635,2.689,0.338,3.551-0.715c0.967-1.094,1.023-2.932,0.137-4.098C30.914,47.205,29.615,46.758,28.482,47.1z"/>
	<path fill="#93B4CB" d="M39.42,47.727c-0.01-0.01-0.021-0.02-0.033-0.027c0.006-0.006,0.012-0.01,0.016-0.016
		c-0.205-0.166-0.43-0.307-0.664-0.418c-0.021-0.01-0.039-0.018-0.059-0.025c-0.055-0.023-0.109-0.047-0.16-0.066
		c-0.031-0.012-0.061-0.023-0.09-0.033c-0.422-0.146-0.869-0.195-1.313-0.121c-0.09,0.01-0.176,0.025-0.264,0.047
		c-0.01,0-0.02,0.002-0.029,0.004c-0.041,0.01-0.08,0.023-0.119,0.035c-0.021,0.006-0.041,0.01-0.063,0.018
		c-0.059,0.018-0.115,0.039-0.172,0.063c-0.016,0.006-0.029,0.01-0.045,0.018c-0.059,0.023-0.115,0.053-0.174,0.082
		c-0.014,0.004-0.025,0.012-0.039,0.018c-0.055,0.027-0.105,0.059-0.16,0.092c-0.014,0.008-0.029,0.016-0.043,0.025
		c-0.043,0.027-0.084,0.059-0.129,0.086c-0.023,0.018-0.047,0.033-0.07,0.053c-0.018,0.014-0.035,0.025-0.053,0.039
		c-0.457,0.359-0.822,0.854-1.027,1.42c-0.006,0.016-0.014,0.033-0.018,0.051c-0.014,0.041-0.027,0.082-0.041,0.125
		c-0.014,0.047-0.027,0.094-0.039,0.143c-0.004,0.012-0.006,0.027-0.01,0.041c-0.021,0.096-0.041,0.191-0.055,0.289
		c-0.057,0.316-0.059,0.633-0.014,0.943c0.045,0.344,0.145,0.678,0.289,0.988c0.084,0.189,0.182,0.375,0.291,0.549
		c0.006-0.006,0.012-0.012,0.018-0.016c0.035,0.047,0.07,0.096,0.107,0.141c-0.002,0.004-0.004,0.008-0.008,0.012
		c0.23,0.27,0.506,0.494,0.805,0.668c0.164,0.1,0.334,0.176,0.512,0.238c0.027,0.01,0.055,0.02,0.082,0.029
		c0.016,0.004,0.031,0.008,0.049,0.012c0.496,0.152,1.023,0.176,1.531,0.039c1.219-0.303,2.191-1.5,2.26-2.844
		c0.002-0.021,0.004-0.045,0.004-0.066c0.002-0.006,0.002-0.01,0.002-0.01c0.07-1.004-0.361-1.99-1.064-2.639
		C39.428,47.717,39.424,47.723,39.42,47.727z"/>
	<path fill="#93B4CB" d="M14.83,25.342c0.846,0.225,1.727,0.066,2.588,0.109l28.553-0.012c1.85,0.002,3.713,0.02,5.551-0.02
		l15.523,0.041c0.598,0.02,1.195,0.014,1.75-0.258c0.98-0.467,1.617-1.598,1.568-2.736c-0.023-2.619-0.012-5.221-0.098-7.836
		c-0.094-1.336-1.34-2.355-2.557-2.354l-52.191,0.002c-1.387,0.004-2.611,1.316-2.604,2.799c-0.018,2.268,0,4.539-0.006,6.809
		c-0.002,0.449-0.012,0.9,0.072,1.344C13.174,24.225,13.918,25.064,14.83,25.342z"/>
	<path fill="#93B4CB" d="M37.535,45.316c1.451,0.023,2.799-1.248,2.945-2.791c0.139-1.084-0.297-2.211-1.096-2.889
		c-0.729-0.633-1.742-0.857-2.645-0.59c-1.453,0.377-2.459,2.049-2.17,3.617C34.779,44.164,36.115,45.357,37.535,45.316z"/>
	<path fill="#93B4CB" d="M83.129,17.346c-0.074-3.797-1.395-7.551-3.701-10.447L79.391,6.91c-0.314-0.406-0.641-0.799-0.984-1.168
		C76.113,3.4,73.186,1.75,70.043,1.211c-1.664-0.322-3.361-0.215-5.047-0.234c-10.264-0.01-20.438,0.021-30.701-0.014h-0.098
		l-1.834,0.014c-5.615,0.004-11.232-0.006-16.85,0.006C11.053,1.041,6.688,3.291,3.834,6.941c-2.306,2.896-3.628,6.65-3.701,10.447
		c-0.015,2.922,0.023,5.842-0.011,8.764l0.011,2.572c0.007,5.707-0.005,11.41,0.004,17.117c-0.006,1.449,0.514,2.906,1.498,3.924
		c0.927,0.994,2.233,1.551,3.546,1.557c2.571,0.006,5.143,0.004,7.715,0.002v33.104l0.008,0.002
		c-0.008,1.773,0.677,4.088,3.373,4.584c0,0,0.164,0.063,0.646,0.027l0.007,0.012c0.043-0.01,0.084-0.018,0.127-0.021
		c0.032-0.004,0.066-0.008,0.1-0.012c0.014-0.002,0.029-0.002,0.044-0.004l0.149-0.004c0.631,0.002,1.206,0.293,1.532,0.664
		c0.601,0.648,1.864,0.613,2.833,0.5c0.457-0.059,0.754-0.275,1.029-0.51c0,0.006-0.003,0.01-0.004,0.018l0.702-0.512
		c0.091-0.037,0.188-0.068,0.29-0.092l0.821-0.045c0.046,0.006,0.095,0.012,0.14,0.02c0.004,0,0.004,0.002,0.007,0.002
		c0.009,0,0.021,0.004,0.03,0.006c0.31,0.068,0.588,0.201,0.811,0.369l0.035,0.025c0.087,0.068,0.166,0.141,0.232,0.219
		c0.601,0.648,1.868,0.613,2.834,0.5c0.141-0.018,0.264-0.051,0.377-0.094c0.014-0.006,0.027-0.012,0.039-0.018
		c0.035-0.012,0.063-0.025,0.094-0.041c0.011-0.004,0.02-0.01,0.03-0.016c0.001,0,0.005,0,0.005-0.002
		c0.033-0.008,0.065-0.016,0.1-0.025c0.025-0.025,0.05-0.051,0.074-0.078c0.184-0.119,0.344-0.264,0.506-0.402
		c0.167-0.137,0.346-0.266,0.566-0.352c0.092-0.035,0.188-0.061,0.287-0.082c0.01,0,0.019-0.004,0.026-0.004
		c0.092-0.014,0.183-0.025,0.274-0.037c0.25-0.018,0.503,0.002,0.738,0.057c0.229,0.063,0.439,0.156,0.621,0.275
		c0.029,0.02,0.057,0.043,0.083,0.064l-0.002-0.01c0.11,0.082,0.21,0.17,0.29,0.264c0.604,0.648,1.869,0.613,2.836,0.5
		c0.674-0.086,1.002-0.521,1.426-0.84c0.629-0.459,1.834-0.412,2.395,0.086l-0.002-0.01c0.35,0.277,0.617,0.619,1.165,0.723
		c0.659,0.115,1.374,0.111,2.038,0.014c0.93-0.154,1.132-0.984,2.081-1.111c0.789-0.162,1.557,0.172,1.952,0.625
		c0.6,0.648,1.866,0.611,2.833,0.5c0.675-0.088,1.006-0.521,1.427-0.84c0.628-0.459,1.836-0.412,2.395,0.086
		c0.353,0.313,0.712,0.68,1.324,0.756c0.934,0.09,2.152,0.156,2.76-0.449c0.393-0.438,1.082-0.814,1.879-0.697
		c0.802,0.053,1.15,0.598,1.67,0.936c0.736,0.389,1.734,0.25,2.568,0.131c0.903-0.137,1.125-0.943,2.053-1.049
		c0.646-0.037,1.523-0.135,2-0.412c1.883-0.79,2.699-2.351,2.796-3.893l0.009-0.303V51.281c2.576,0,5.15,0.002,7.727-0.004
		c1.313-0.004,2.617-0.561,3.547-1.557c0.982-1.016,1.502-2.473,1.496-3.922c0.008-5.707-0.002-11.412,0.004-17.117l0.01-2.572
		C83.107,23.188,83.145,20.266,83.129,17.346z M67.26,81.262l-0.031,3.144c0.021,0.781-0.868,1.562-1.555,2.175
		c-1.176,0.053-2.301,0.369-3.207,0.883c-1.482-0.863-3.647-1.127-5.457-0.619c-0.567,0.125-0.99,0.443-1.537,0.582
		c-0.814-0.4-1.723-0.742-2.737-0.809c-1.499-0.154-3.013,0.205-4.186,0.84c-1.911-1.156-5.009-1.15-6.921,0.004
		c-1.852-1.104-4.802-1.168-6.719-0.115c-0.071,0.035-0.143,0.07-0.212,0.107c-0.37-0.191-0.769-0.361-1.188-0.498
		c-0.016-0.006-0.034-0.012-0.051-0.018c-0.778-0.25-1.628-0.389-2.499-0.348c-0.113,0-0.215,0.012-0.31,0.027
		c-0.264,0.021-0.524,0.057-0.782,0.104c-0.644,0.111-1.258,0.303-1.801,0.574c-0.115,0.055-0.23,0.113-0.344,0.172
		c-0.912-0.555-2.098-0.844-3.294-0.869c-0.009,0-0.017,0-0.026,0c-1.301-0.025-2.613,0.26-3.606,0.859
		c-0.106-0.055-0.213-0.107-0.325-0.158c-0.352-0.18-0.735-0.324-1.139-0.434c-0.02-0.004-0.038-0.01-0.057-0.016
		c-0.015-0.004-0.03-0.008-0.045-0.012c-0.516-0.143-1.059-0.232-1.624-0.25c-0.704-0.561-1.136-1.283-1.157-2.025l-0.109-3.301
		V52.395c0-0.645,0.523-1.168,1.168-1.168s1.166,0.523,1.166,1.168v27.699h0.018v3.753l0.021,0.646
		c0.381,0.056,0.76,0.136,1.135,0.239l0.091,0.024c0.294,0.08,0.579,0.173,0.853,0.279c1.045-0.408,2.239-0.627,3.47-0.627
		l0.204,0.002c1.178,0.025,2.307,0.245,3.295,0.632c0.451-0.175,0.939-0.317,1.453-0.422l0.217-0.055l0.195-0.021
		c0.249-0.042,0.51-0.077,0.775-0.101c0.16-0.023,0.332-0.039,0.516-0.042c1.078-0.048,2.17,0.109,3.247,0.455l0.152,0.053
		c0.115,0.037,0.237,0.08,0.362,0.128c0.531-0.214,1.112-0.376,1.726-0.483l0.214-0.031l0.153-0.025
		c1.618-0.216,3.411-0.03,4.869,0.533c2.101-0.819,4.862-0.817,6.955,0.006c1.387-0.53,2.903-0.75,4.387-0.596
		c0.962,0.063,1.837,0.321,2.553,0.605c0.258-0.113,0.571-0.235,0.938-0.322c1.916-0.523,4.185-0.395,6.014,0.315
		c0.702-0.274,1.453-0.467,2.23-0.568c0.088-0.088,0.164-0.172,0.225-0.246V60.457h-0.018v-8.063c0-0.645,0.521-1.168,1.166-1.168
		s1.168,0.523,1.168,1.168V81.262z M34.438,64.11c-0.105,0-0.195-0.031-0.27-0.096c-0.072-0.062-0.136-0.16-0.188-0.291
		c-0.054-0.133-0.093-0.307-0.118-0.522c-0.027-0.215-0.04-0.477-0.04-0.781c0-0.316,0.013-0.585,0.04-0.807
		c0.025-0.221,0.064-0.397,0.118-0.529c0.053-0.132,0.116-0.227,0.188-0.284c0.074-0.058,0.164-0.087,0.27-0.087H48.85
		c0.096,0,0.182,0.029,0.262,0.087c0.078,0.058,0.145,0.152,0.197,0.284s0.092,0.309,0.117,0.529
		c0.027,0.222,0.041,0.49,0.041,0.807c0,0.305-0.014,0.566-0.041,0.781c-0.025,0.216-0.064,0.39-0.117,0.522
		c-0.053,0.131-0.119,0.229-0.197,0.291c-0.08,0.064-0.166,0.096-0.262,0.096h-5.12v16.482c0,0.105-0.034,0.2-0.103,0.285
		c-0.068,0.084-0.182,0.153-0.34,0.204c-0.158,0.054-0.371,0.096-0.64,0.127c-0.27,0.031-0.604,0.048-1.004,0.048
		s-0.735-0.017-1.003-0.048c-0.27-0.031-0.482-0.073-0.641-0.127c-0.158-0.051-0.271-0.12-0.34-0.204
		c-0.068-0.085-0.102-0.18-0.102-0.285V64.11H34.438z M78.441,27.955c-0.068,5.947-0.004,11.896-0.029,17.844
		c0.029,0.219-0.096,0.426-0.316,0.432L61.98,46.25c-0.188,0-0.375,0-0.563,0.002c0.018,2.025,0.004,4.051,0.006,6.078
		c0.014,0.971-0.221,1.951-0.736,2.758c-0.793,1.303-2.232,2.107-3.684,2.078c-5.896,0.006-11.795-0.006-17.695,0.004
		c0.014,0.012,0.018,0.027,0.031,0.041c-4.361,0-8.721,0.002-13.082-0.002c-1.451,0.031-2.891-0.775-3.684-2.078
		c-0.516-0.807-0.748-1.787-0.736-2.756c0.002-2.027-0.01-4.053,0.006-6.08c-0.186-0.002-0.375-0.002-0.563-0.002l-16.115-0.02
		c-0.219-0.004-0.347-0.213-0.314-0.432C4.825,39.895,4.889,33.945,4.82,28l-0.005-1.08c0.069-2.26,0.016-4.518,0.033-6.775
		c0.026-1.543-0.095-3.105,0.196-4.629c0.514-2.828,2.055-5.41,4.211-7.133c1.795-1.447,4.018-2.297,6.271-2.35
		c5.691-0.008,11.389-0.008,17.084-0.014h0.119c0,0,0.006,0,0.01,0l5.99-0.012c1.775,0.051,3.549,0.01,5.322,0.023
		c7.842,0,15.68,0,23.521,0c2.771,0.016,5.504,1.244,7.482,3.309c1.447,1.605,2.652,3.672,3.09,5.861
		c0.387,1.711,0.227,3.484,0.268,5.229c0.01,2.146-0.033,4.295,0.033,6.445L78.441,27.955z"/>
</g>
<rect id="_x3C_Slice_x3E__18_" fill="none" width="84" height="91"/>
</svg>
