<?xml version="1.0" encoding="utf-8"?>
<!-- Generator: Adobe Illustrator 16.0.3, SVG Export Plug-In . SVG Version: 6.00 Build 0)  -->
<!DOCTYPE svg PUBLIC "-//W3C//DTD SVG 1.1//EN" "http://www.w3.org/Graphics/SVG/1.1/DTD/svg11.dtd">
<svg version="1.1" id="Layer_1" xmlns="http://www.w3.org/2000/svg" xmlns:xlink="http://www.w3.org/1999/xlink" x="0px" y="0px"
	 width="68px" height="86px" viewBox="0 0 68 86" enable-background="new 0 0 68 86" xml:space="preserve">
<path fill="#97BBD5" d="M61.84,17.607H50.983C48.254,7.475,41.785,0.332,34.255,0.332S20.256,7.475,17.525,17.607H6.158
	c-1.362,0-2.466,1.01-2.466,2.258L0.691,83.111c0,1.246,1.104,2.258,2.467,2.258H64.84c1.362,0,2.466-1.012,2.466-2.258l-3-63.246
	C64.306,18.617,63.202,17.607,61.84,17.607z M54.614,26.738c0,1.598-0.942,2.965-2.295,3.605c0.03-0.66,0.051-1.324,0.051-1.998
	c0-1.824-0.117-3.605-0.333-5.334C53.541,23.586,54.614,25.033,54.614,26.738z M49.37,28.346c0,0.729-0.022,1.445-0.06,2.158
	c-1.565-0.543-2.696-2.016-2.696-3.766c0-1.645,0.995-3.055,2.414-3.67C49.25,24.771,49.37,26.535,49.37,28.346z M34.255,3.332
	c6.013,0,11.216,5.842,13.648,14.275H20.605C23.038,9.174,28.242,3.332,34.255,3.332z M19.444,23.328
	c1.157,0.701,1.938,1.959,1.938,3.41c0,1.557-0.897,2.891-2.194,3.551c-0.029-0.641-0.05-1.287-0.05-1.943
	C19.139,26.627,19.244,24.949,19.444,23.328z M16.491,22.848c-0.229,1.779-0.353,3.617-0.353,5.498c0,0.74,0.024,1.471,0.061,2.195
	c-1.627-0.508-2.816-2.008-2.816-3.803C13.383,24.838,14.713,23.254,16.491,22.848z M48.529,71.977l-14.216-5.809l-14.183,5.889
	l1.132-15.316l-9.983-11.668l14.914-3.658l8.014-13.1l8.088,13.055l14.936,3.574l-9.918,11.725L48.529,71.977z"/>
<rect id="_x3C_Slice_x3E__117_" fill="none" width="68" height="86"/>
</svg>
