<?xml version="1.0" encoding="utf-8"?>
<!-- Generator: Adobe Illustrator 16.0.3, SVG Export Plug-In . SVG Version: 6.00 Build 0)  -->
<!DOCTYPE svg PUBLIC "-//W3C//DTD SVG 1.1//EN" "http://www.w3.org/Graphics/SVG/1.1/DTD/svg11.dtd">
<svg version="1.1" id="Layer_1" xmlns="http://www.w3.org/2000/svg" xmlns:xlink="http://www.w3.org/1999/xlink" x="0px" y="0px"
	 width="85px" height="87px" viewBox="0 0 85 87" enable-background="new 0 0 85 87" xml:space="preserve">
<path fill="#97BBD5" d="M76.326,32.992h-1.748v-6.201c0-2.563-1.791-4.721-4.158-5.238v-3.404L52.827,0.467H13.982v21.086
	c-2.367,0.518-4.158,2.676-4.158,5.238v6.201H8.076c-4.333,0-7.875,2.803-7.875,6.229c0,0.27,0,24.705,0,24.705
	c0,4.426,3.542,8.043,7.875,8.043h5.906v14.199H70.42V71.969h5.906c4.334,0,7.875-3.617,7.875-8.043c0,0,0-24.436,0-24.705
	C84.201,35.795,80.66,32.992,76.326,32.992z M52.762,6.039l11.433,11.492H52.762V6.039z M19.232,5.828h29.592v15.725H65.17v11.439
	H19.232V5.828z M65.17,80.807H19.232V58.828H65.17V80.807z M77.639,63.926c0,0.729-0.599,1.34-1.313,1.34H70.42V53.465H13.982
	v11.801H8.076c-0.714,0-1.313-0.611-1.313-1.34V45.361h70.875V63.926z"/>
<rect id="_x3C_Slice_x3E__124_" fill="none" width="85" height="87"/>
</svg>
