<?xml version="1.0" encoding="utf-8"?>
<!-- Generator: Adobe Illustrator 16.0.3, SVG Export Plug-In . SVG Version: 6.00 Build 0)  -->
<!DOCTYPE svg PUBLIC "-//W3C//DTD SVG 1.1//EN" "http://www.w3.org/Graphics/SVG/1.1/DTD/svg11.dtd">
<svg version="1.1" id="Layer_1" xmlns="http://www.w3.org/2000/svg" xmlns:xlink="http://www.w3.org/1999/xlink" x="0px" y="0px"
	 width="84px" height="86px" viewBox="0 0 84 86" enable-background="new 0 0 84 86" xml:space="preserve">
<path fill="#97BBD5" d="M7.251,57.281l-0.838,9.518l8.971,2.855l2.809,9.121l9.362-0.852l6.027,7.332l8.329-4.43l8.33,4.43
	l6.027-7.332l9.361,0.852l2.81-9.121l8.97-2.855l-0.837-9.518l7.212-6.129l-4.357-8.469l4.357-8.467l-7.212-6.129l0.837-9.518
	l-8.97-2.855l-2.81-9.121l-9.361,0.852l-6.027-7.332l-8.33,4.43l-8.329-4.43l-6.027,7.332l-9.362-0.852l-2.809,9.121L6.413,18.57
	l0.838,9.518l-7.213,6.129l4.357,8.467l-4.357,8.469L7.251,57.281z M64.374,45.465c0.779,1.115,1.33,2.434,1.637,3.91
	c0.299,1.459,0.453,3.006,0.453,4.6c0,1.887-0.207,3.613-0.611,5.133c-0.414,1.535-1.064,2.869-1.936,3.963
	c-0.879,1.098-2.014,1.963-3.371,2.57c-1.355,0.607-2.988,0.912-4.855,0.912c-1.984,0-3.672-0.307-5.014-0.912
	c-1.352-0.609-2.447-1.473-3.254-2.563c-0.805-1.082-1.379-2.395-1.711-3.896c-0.322-1.479-0.486-3.135-0.486-4.924
	s0.199-3.457,0.594-4.953c0.4-1.512,1.039-2.844,1.9-3.959c0.865-1.125,1.994-2.008,3.352-2.629c1.352-0.617,3-0.932,4.895-0.932
	c2.076,0,3.818,0.334,5.174,0.988C62.501,43.432,63.589,44.338,64.374,45.465z M54.499,19.801c0.234-0.293,0.449-0.523,0.666-0.725
	c0.236-0.215,0.545-0.395,0.918-0.525c0.355-0.125,0.779-0.215,1.258-0.266c0.469-0.047,1.045-0.072,1.717-0.072
	c0.773,0,1.404,0.051,1.869,0.15c0.512,0.107,0.879,0.273,1.121,0.508c0.275,0.266,0.385,0.604,0.318,0.975
	c-0.057,0.311-0.207,0.643-0.467,1.018L30.2,65.568c-0.227,0.311-0.459,0.563-0.697,0.754c-0.242,0.199-0.545,0.365-0.898,0.494
	c-0.344,0.127-0.764,0.217-1.246,0.268c-0.467,0.047-1.045,0.072-1.717,0.072c-0.773,0-1.402-0.051-1.869-0.148
	c-0.512-0.109-0.877-0.275-1.119-0.51c-0.271-0.262-0.389-0.588-0.34-0.941c0.045-0.309,0.203-0.652,0.49-1.053L54.499,19.801z
	 M19.005,26.404c0.398-1.512,1.037-2.844,1.898-3.959c0.865-1.123,1.992-2.008,3.352-2.629c1.355-0.617,3.002-0.93,4.895-0.93
	c2.076,0,3.818,0.332,5.174,0.986c1.361,0.66,2.449,1.564,3.234,2.691c0.779,1.117,1.33,2.434,1.637,3.912
	c0.303,1.459,0.453,3.004,0.453,4.6c0,1.885-0.207,3.611-0.611,5.131c-0.414,1.537-1.064,2.871-1.936,3.965
	c-0.877,1.098-2.012,1.963-3.371,2.57c-1.354,0.605-2.988,0.912-4.855,0.912c-1.984,0-3.672-0.307-5.014-0.912
	c-1.35-0.611-2.445-1.473-3.254-2.564c-0.805-1.082-1.379-2.393-1.707-3.896c-0.326-1.479-0.49-3.133-0.49-4.924
	C18.409,29.568,18.61,27.9,19.005,26.404z"/>
<path fill="#97BBD5" d="M26.745,36.768c0.264,0.467,0.584,0.789,0.953,0.959C28.089,37.906,28.556,38,29.079,38
	c0.602,0,1.102-0.121,1.484-0.359c0.379-0.236,0.688-0.611,0.924-1.117c0.246-0.531,0.428-1.229,0.539-2.076
	c0.111-0.865,0.168-1.916,0.168-3.123c0-1.275-0.068-2.371-0.201-3.26c-0.133-0.869-0.33-1.58-0.59-2.113
	c-0.242-0.502-0.568-0.871-0.967-1.096c-0.408-0.232-0.9-0.35-1.459-0.35c-0.518,0-0.973,0.111-1.357,0.33
	c-0.379,0.215-0.699,0.574-0.953,1.068c-0.268,0.52-0.473,1.211-0.604,2.057c-0.133,0.859-0.201,1.932-0.201,3.186
	c0,1.441,0.08,2.629,0.234,3.535C26.249,35.57,26.468,36.271,26.745,36.768z"/>
<path fill="#97BBD5" d="M58.22,48.852c-0.244-0.502-0.568-0.871-0.967-1.098c-0.408-0.23-0.9-0.348-1.461-0.348
	c-0.516,0-0.971,0.111-1.355,0.33c-0.379,0.215-0.699,0.574-0.955,1.068c-0.266,0.52-0.471,1.211-0.604,2.055
	c-0.131,0.861-0.201,1.934-0.201,3.188c0,1.441,0.08,2.629,0.236,3.533c0.154,0.891,0.371,1.594,0.648,2.086
	c0.264,0.467,0.582,0.791,0.953,0.961c0.391,0.18,0.857,0.271,1.381,0.271c0.602,0,1.102-0.121,1.482-0.359
	c0.381-0.234,0.689-0.609,0.926-1.115c0.246-0.531,0.428-1.23,0.537-2.076c0.113-0.867,0.168-1.918,0.168-3.125
	c0-1.273-0.066-2.369-0.199-3.258C58.677,50.094,58.478,49.385,58.22,48.852z"/>
<rect id="_x3C_Slice_x3E__116_" fill="none" width="84" height="86"/>
</svg>
