<?xml version="1.0" encoding="utf-8"?>
<!-- Generator: Adobe Illustrator 16.0.3, SVG Export Plug-In . SVG Version: 6.00 Build 0)  -->
<!DOCTYPE svg PUBLIC "-//W3C//DTD SVG 1.1//EN" "http://www.w3.org/Graphics/SVG/1.1/DTD/svg11.dtd">
<svg version="1.1" id="Layer_1" xmlns="http://www.w3.org/2000/svg" xmlns:xlink="http://www.w3.org/1999/xlink" x="0px" y="0px"
	 width="62px" height="104px" viewBox="0 0 62 104" enable-background="new 0 0 62 104" xml:space="preserve">
<g>
	<path fill="#97BBD5" d="M14.663,4.808c-0.031,0.422-0.052,0.846-0.052,1.273c0,9.242,7.415,16.76,16.529,16.76
		c9.115,0,16.531-7.518,16.531-16.76c0-0.428-0.021-0.852-0.053-1.271c-4.768-3.023-10.416-4.78-16.479-4.78
		S19.43,1.786,14.663,4.808z"/>
	<path fill="#97BBD5" d="M61.967,32.065c0-9.34-4.159-17.703-10.721-23.355c-0.723,10.582-9.461,18.971-20.105,18.971
		S11.758,19.292,11.035,8.708C4.474,14.361,0.314,22.725,0.314,32.065l0.084,0.605h61.483L61.967,32.065z"/>
	<path fill="#97BBD5" d="M0.91,36.905l8.231,58.426c0,4.468,9.849,8.089,21.999,8.089c12.149,0,21.998-3.621,21.998-8.089
		l8.231-58.426H0.91z M30.92,79.277l-0.02,0.107c-0.053,0.141-0.136,0.25-0.238,0.315l-0.111,0.043l-0.172,0.028l-4.942,0.001
		c-1.644,0-3.288,0-4.933-0.002l-0.07-0.009c-0.094-0.022-0.188-0.025-0.271-0.026l-0.074-0.008
		c-0.068-0.016-0.137-0.025-0.188-0.03c-0.08-0.015-0.135-0.023-0.188-0.031l-0.064-0.013c-0.09-0.025-0.182-0.046-0.272-0.063
		c-0.113-0.034-0.182-0.056-0.23-0.066l-0.405-0.146c-0.122-0.051-0.191-0.08-0.239-0.095c-0.568-0.274-1.043-0.589-1.447-0.95
		c-0.071-0.066-0.139-0.123-0.205-0.179c-0.098-0.082-0.15-0.148-0.213-0.229c-0.051-0.065-0.104-0.134-0.16-0.187
		c-0.089-0.085-0.166-0.191-0.246-0.305l-0.084-0.118c-0.304-0.433-0.533-0.861-0.69-1.284l-0.162-0.472
		c-0.029-0.115-0.054-0.2-0.075-0.271c-0.016-0.058-0.027-0.104-0.037-0.158l-0.11-0.606c0.001-0.145,0.001-0.261-0.024-0.373
		l-0.008-0.065c-0.004-0.229-0.004-0.459-0.001-0.688c0.026-0.149,0.031-0.237,0.036-0.335c0.021-0.126,0.027-0.205,0.033-0.292
		l0.043-0.215c0.01-0.046,0.018-0.101,0.026-0.156l0.026-0.118c0.021-0.068,0.031-0.1,0.045-0.132l0.127-0.455
		c0.033-0.086,0.062-0.15,0.09-0.217c0.047-0.103,0.084-0.191,0.117-0.282c0.318-0.585,0.617-1.125,0.917-1.665l0.923-1.663
		c0.152-0.267,0.299-0.532,0.445-0.799c0.174-0.316,0.347-0.63,0.525-0.939l0.05-0.184l-0.056-0.027
		c-0.154-0.076-0.301-0.167-0.448-0.26c-0.147-0.09-0.247-0.152-0.33-0.196c-0.091-0.058-0.157-0.097-0.224-0.133
		c-0.166-0.094-0.316-0.178-0.415-0.318l-0.056-0.131l-0.006-0.37l0.047-0.075c0.063-0.097,0.145-0.175,0.236-0.229l0.085-0.032
		c0.069-0.016,0.14-0.035,0.203-0.056l0.29-0.074c0.076-0.021,0.153-0.047,0.206-0.065l0.185-0.046
		c0.064-0.018,0.146-0.043,0.207-0.065l0.306-0.076c0.062-0.017,0.131-0.04,0.208-0.065c0.151-0.037,0.279-0.071,0.375-0.105
		l0.182-0.047c0.071-0.02,0.15-0.045,0.208-0.064l0.31-0.078c0.072-0.021,0.152-0.046,0.205-0.065l0.182-0.046
		c0.068-0.019,0.15-0.044,0.215-0.066l0.299-0.075c0.07-0.019,0.145-0.043,0.211-0.066l0.125-0.03
		c0.119-0.033,0.197-0.058,0.254-0.076l0.18-0.046c0.067-0.019,0.146-0.043,0.206-0.063l0.313-0.078
		c0.051-0.016,0.117-0.037,0.182-0.06l0.182-0.02l0.238,0.024l0.055,0.043c0.111,0.086,0.195,0.208,0.242,0.354
		c0.018,0.092,0.027,0.137,0.038,0.188c0.017,0.072,0.042,0.151,0.065,0.229c0.016,0.064,0.021,0.095,0.027,0.112l0.045,0.199
		c0.018,0.071,0.042,0.152,0.066,0.231l0.038,0.163c0.019,0.076,0.042,0.154,0.066,0.233c0.016,0.068,0.026,0.106,0.032,0.129
		c0.014,0.067,0.023,0.113,0.037,0.157c0.014,0.073,0.024,0.116,0.035,0.159l0.034,0.095c0.029,0.124,0.05,0.214,0.077,0.32
		c0.004,0.013,0.014,0.039,0.023,0.064l-0.27,0.173l0.296-0.062l0.017,0.076c0.018,0.067,0.043,0.152,0.065,0.227
		c0.015,0.062,0.024,0.101,0.03,0.121c0.016,0.075,0.027,0.121,0.035,0.147c0.016,0.075,0.027,0.126,0.044,0.186l0.065,0.247
		c0.02,0.074,0.043,0.159,0.063,0.216l0.066,0.278c0.029,0.122,0.052,0.2,0.077,0.278l0.038,0.167
		c0.019,0.072,0.039,0.15,0.065,0.229l0.036,0.152c0.01,0.05,0.023,0.1,0.033,0.14c0.021,0.097,0.047,0.181,0.068,0.252l0.045,0.155
		v0.045l0.002,0.262l-0.055,0.121c-0.049,0.072-0.113,0.139-0.197,0.206l-0.149,0.065l-0.12,0.011l-0.227-0.056
		c-0.235-0.135-0.469-0.275-0.701-0.416c-0.211-0.126-0.401-0.241-0.594-0.354l-0.068-0.04l-0.043,0.068
		c-0.182,0.294-0.35,0.6-0.512,0.896c-0.127,0.23-0.247,0.451-0.378,0.674l-1.711,3.058c-0.054,0.095-0.104,0.187-0.145,0.29
		c-0.018,0.048-0.035,0.104-0.053,0.157l-0.03,0.109c-0.02,0.159-0.02,0.359,0.008,0.558l0.023,0.077
		c0.016,0.044,0.033,0.1,0.054,0.155c0.159,0.429,0.53,0.759,0.991,0.885c0.154,0.021,0.292,0.023,0.396,0.023l0.311-0.003
		l6.275,0.001h3.07l0.064,0.034c0.072,0.034,0.111,0.06,0.136,0.077l0.052,0.052c0.037,0.047,0.059,0.1,0.09,0.182l0.027,0.127
		C30.918,76.885,30.918,78.081,30.92,79.277z M31.139,53.686l-0.342,0.05c-0.041,0.014-0.102,0.038-0.162,0.063l-0.152,0.059
		c-0.219,0.142-0.396,0.319-0.522,0.548c-0.071,0.163-0.173,0.344-0.282,0.535c-0.064,0.113-0.128,0.225-0.184,0.33l-1.627,2.933
		c-0.887,1.596-1.77,3.187-2.659,4.795c-0.046,0.097-0.132,0.194-0.247,0.276l-0.08,0.058l-0.352-0.003l-0.953-0.568
		c-0.67-0.402-1.34-0.804-2.018-1.217c-0.071-0.04-0.142-0.107-0.2-0.195l-0.052-0.077l0.002-0.383l0.033-0.065
		c0.135-0.264,0.279-0.521,0.424-0.777l0.073-0.133c0.083-0.146,0.163-0.291,0.239-0.436l4.173-7.508
		c0.533-0.875,1.26-1.596,2.108-2.091c0.283-0.167,0.588-0.293,0.852-0.398l1.18-0.29c0.12-0.009,0.211-0.012,0.307-0.034
		l0.066-0.008l0.33-0.003l0.457,0.012c0.091,0.021,0.181,0.024,0.268,0.027l0.078,0.007c0.07,0.015,0.139,0.024,0.186,0.029
		c0.09,0.018,0.15,0.026,0.213,0.035c0.088,0.021,0.121,0.031,0.154,0.038l0.254,0.065c0.146,0.05,0.243,0.082,0.342,0.114
		c0.354,0.114,0.688,0.291,1.081,0.524c0.121,0.068,0.245,0.16,0.376,0.26l0.197,0.144c0.063,0.044,0.135,0.111,0.209,0.185
		c0.071,0.072,0.139,0.138,0.209,0.19c0.085,0.065,0.149,0.147,0.219,0.234c0.055,0.069,0.105,0.133,0.16,0.188
		c0.082,0.084,0.158,0.188,0.238,0.301l0.097,0.138c0.147,0.201,0.265,0.422,0.39,0.655c0.076,0.141,0.15,0.28,0.225,0.403
		l1.008,1.814c0.436,0.782,0.869,1.564,1.301,2.349l0.041,0.073l0.072-0.041c0.179-0.103,0.355-0.211,0.531-0.319
		c0.263-0.16,0.511-0.313,0.768-0.45l0.189-0.06l0.166,0.031c0.183,0.062,0.292,0.183,0.362,0.362l0.021,0.055l-0.073,0.509
		c-0.031,0.105-0.055,0.184-0.071,0.256c-0.015,0.055-0.025,0.102-0.03,0.132l-0.033,0.143c-0.024,0.072-0.034,0.104-0.045,0.141
		c-0.008,0.03-0.018,0.067-0.021,0.087c-0.023,0.091-0.034,0.14-0.04,0.169l-0.036,0.151c-0.032,0.109-0.056,0.188-0.071,0.256
		c-0.014,0.054-0.025,0.1-0.028,0.124c-0.019,0.077-0.03,0.119-0.04,0.162c-0.031,0.107-0.054,0.186-0.074,0.265
		c-0.014,0.05-0.023,0.098-0.029,0.127c-0.014,0.058-0.022,0.097-0.03,0.137l-0.023,0.076l-0.298-0.067l0.272,0.143
		c-0.007,0.028-0.017,0.072-0.025,0.116c-0.016,0.062-0.023,0.094-0.026,0.111c-0.021,0.083-0.031,0.125-0.035,0.146
		c-0.021,0.085-0.032,0.129-0.041,0.173c-0.032,0.108-0.056,0.187-0.072,0.258c-0.015,0.052-0.024,0.096-0.032,0.14
		c-0.019,0.073-0.029,0.114-0.037,0.148c-0.029,0.103-0.054,0.184-0.072,0.259c-0.011,0.046-0.022,0.094-0.026,0.119
		c-0.018,0.068-0.027,0.106-0.029,0.124c-0.039,0.129-0.063,0.215-0.082,0.298c-0.014,0.052-0.025,0.104-0.033,0.146
		c-0.015,0.055-0.023,0.094-0.032,0.132c-0.032,0.107-0.054,0.185-0.071,0.257c-0.016,0.056-0.025,0.101-0.029,0.126
		c-0.018,0.069-0.028,0.11-0.032,0.132l-0.077,0.208c-0.049,0.064-0.107,0.125-0.176,0.182l-0.084,0.069l-0.396-0.014l-0.113-0.035
		c-0.101-0.031-0.158-0.05-0.215-0.063l-0.25-0.062c-0.107-0.036-0.189-0.063-0.275-0.084l-0.25-0.063
		c-0.104-0.035-0.184-0.059-0.279-0.085l-0.232-0.056c-0.109-0.037-0.191-0.063-0.275-0.086l-0.245-0.06
		c-0.108-0.036-0.191-0.061-0.282-0.086c-0.035-0.01-0.074-0.019-0.092-0.022c-0.083-0.022-0.131-0.034-0.163-0.041l-0.126-0.032
		c-0.106-0.034-0.188-0.061-0.273-0.084l-0.254-0.063c-0.101-0.032-0.182-0.059-0.273-0.083l-0.766-0.205
		c-0.101-0.032-0.184-0.059-0.262-0.08l-0.537-0.165c-0.055-0.034-0.152-0.11-0.205-0.224l-0.045-0.174v-0.166l0.045-0.17
		l0.129-0.169c0.141-0.104,0.295-0.195,0.461-0.29c0.101-0.06,0.2-0.117,0.292-0.175l0.1-0.063c0.175-0.107,0.331-0.203,0.491-0.281
		l0.08-0.039l-0.045-0.079c-0.393-0.705-0.78-1.413-1.168-2.119l-0.058-0.104c-0.466-0.849-0.929-1.692-1.397-2.528
		c-0.164-0.297-0.425-0.523-0.754-0.655c-0.117-0.04-0.252-0.053-0.382-0.066L31.139,53.686z M46.978,75.62
		c-0.098,0.344-0.255,0.673-0.419,1.021c-0.104,0.222-0.238,0.42-0.38,0.629L46.1,77.382c-0.19,0.256-0.366,0.49-0.58,0.697
		c-0.556,0.539-1.139,0.942-1.732,1.201c-0.625,0.289-1.317,0.455-2.055,0.493h-5.577l-0.001,0.084c-0.001,0.518,0,1.035,0.002,1.56
		c0.004,0.198-0.166,0.351-0.239,0.407c-0.083,0.058-0.17,0.084-0.263,0.084c-0.078,0-0.16-0.021-0.236-0.056
		c-0.101-0.045-0.184-0.136-0.271-0.231l-0.088-0.093l-1.893-1.971c-0.167-0.175-0.318-0.336-0.463-0.45
		c-0.174-0.169-0.319-0.321-0.465-0.474l-0.477-0.495c-0.109-0.111-0.214-0.219-0.299-0.341c-0.135-0.18-0.131-0.466,0.012-0.658
		c0.063-0.091,0.154-0.188,0.251-0.286l3.298-3.431c0.102-0.108,0.217-0.233,0.364-0.322c0.047-0.042,0.201-0.066,0.353-0.047
		l0.104,0.032c0.198,0.103,0.326,0.342,0.314,0.582c-0.005,0.359-0.004,0.73-0.004,1.101v0.449h1.76h3.388h0.142
		c0.137,0,0.283-0.005,0.422-0.048c0.496-0.146,0.885-0.592,0.994-1.137c0.049-0.386-0.007-0.71-0.175-0.973
		c-0.11-0.165-0.212-0.347-0.317-0.539c-0.073-0.136-0.141-0.258-0.207-0.367c-0.963-1.74-1.923-3.471-2.883-5.201l-1.332-2.399
		c-0.068-0.135-0.143-0.275-0.141-0.427c0-0.194,0.102-0.373,0.268-0.461c0.497-0.306,1.013-0.615,1.528-0.925l0.201-0.12
		c0.37-0.222,0.739-0.443,1.12-0.675c0.207-0.133,0.555-0.094,0.701,0.1c0.069,0.096,0.124,0.194,0.178,0.294l0.069,0.127
		c1.567,2.828,3.136,5.656,4.695,8.467c0.245,0.496,0.401,0.902,0.497,1.29c0.082,0.304,0.121,0.614,0.163,0.942l0.02,0.152
		l0.003,0.893C47.194,74.663,47.121,75.149,46.978,75.62z"/>
</g>
<rect id="_x3C_Slice_x3E__13_" fill="none" width="62" height="104"/>
</svg>
