<?xml version="1.0" encoding="utf-8"?>
<!-- Generator: Adobe Illustrator 16.0.3, SVG Export Plug-In . SVG Version: 6.00 Build 0)  -->
<!DOCTYPE svg PUBLIC "-//W3C//DTD SVG 1.1//EN" "http://www.w3.org/Graphics/SVG/1.1/DTD/svg11.dtd">
<svg version="1.1" id="Layer_1" xmlns="http://www.w3.org/2000/svg" xmlns:xlink="http://www.w3.org/1999/xlink" x="0px" y="0px"
	 width="68px" height="86px" viewBox="0 0 68 86" enable-background="new 0 0 68 86" xml:space="preserve">
<path fill="#97BBD5" d="M23.644,58.124l19.983,2.656l1.551,13l16.678,2.877l2.6,7.656l0.356,0.945H65.1
	c1.362,0,2.466-1.012,2.466-2.259l-3-63.245c0-1.248-1.104-2.26-2.466-2.26H51.243C48.513,7.363,42.044,0.221,34.515,0.221
	s-14,7.143-16.729,17.274H6.418c-1.362,0-2.466,1.012-2.466,2.26l-0.189,4.007l16.091,14.317L23.644,58.124z M16.465,30.449
	c-1.499-0.577-2.566-2.021-2.566-3.724c0-1.799,1.196-3.304,2.831-3.807c-0.215,1.723-0.331,3.498-0.331,5.316
	C16.398,28.981,16.428,29.718,16.465,30.449z M39.585,44.135c-0.383-0.515-0.656-1.139-0.813-1.854
	c-0.154-0.703-0.233-1.49-0.233-2.342s0.097-1.645,0.284-2.357c0.188-0.718,0.492-1.352,0.902-1.883
	c0.411-0.534,0.948-0.955,1.596-1.25c0.644-0.294,1.427-0.443,2.327-0.443c0.989,0,1.817,0.158,2.462,0.471
	c0.647,0.313,1.166,0.744,1.539,1.279c0.37,0.531,0.633,1.157,0.779,1.861c0.143,0.694,0.215,1.43,0.215,2.188
	c0,0.897-0.099,1.718-0.291,2.44c-0.197,0.731-0.506,1.365-0.922,1.887s-0.956,0.934-1.603,1.223
	c-0.644,0.289-1.422,0.434-2.311,0.434c-0.943,0-1.745-0.146-2.385-0.434C40.49,45.063,39.97,44.653,39.585,44.135z M60.407,46.649
	c0.371,0.531,0.633,1.157,0.779,1.861c0.143,0.693,0.215,1.43,0.215,2.188c0,0.897-0.098,1.719-0.291,2.441
	c-0.197,0.732-0.507,1.366-0.92,1.886c-0.418,0.522-0.959,0.935-1.604,1.224c-0.645,0.288-1.423,0.434-2.311,0.434
	c-0.944,0-1.747-0.146-2.385-0.434c-0.645-0.29-1.165-0.701-1.55-1.219c-0.382-0.516-0.655-1.141-0.813-1.854
	c-0.154-0.704-0.23-1.491-0.23-2.342c0-0.852,0.095-1.646,0.281-2.357c0.191-0.719,0.494-1.353,0.904-1.884
	c0.412-0.535,0.949-0.955,1.596-1.25c0.643-0.294,1.427-0.443,2.328-0.443c0.988,0,1.816,0.158,2.461,0.471
	C59.517,45.683,60.034,46.114,60.407,46.649z M55.13,26.726c0,1.7-1.065,3.144-2.562,3.723c0.038-0.731,0.062-1.467,0.062-2.213
	c0-1.818-0.116-3.594-0.331-5.316C53.934,23.422,55.13,24.927,55.13,26.726z M55.71,34.44c0.11-0.14,0.213-0.25,0.316-0.345
	c0.111-0.103,0.259-0.188,0.437-0.25c0.169-0.06,0.37-0.103,0.599-0.126c0.223-0.021,0.497-0.035,0.816-0.035
	c0.368,0,0.668,0.023,0.889,0.071c0.244,0.052,0.418,0.13,0.533,0.241c0.132,0.127,0.184,0.288,0.152,0.465
	c-0.026,0.147-0.1,0.305-0.223,0.483L44.147,56.214c-0.106,0.148-0.218,0.268-0.33,0.359c-0.115,0.095-0.26,0.174-0.428,0.235
	c-0.164,0.061-0.363,0.104-0.592,0.126c-0.223,0.023-0.498,0.035-0.817,0.035c-0.368,0-0.667-0.024-0.89-0.07
	c-0.243-0.052-0.418-0.131-0.532-0.242c-0.129-0.125-0.185-0.281-0.161-0.448c0.021-0.147,0.097-0.311,0.232-0.501L55.71,34.44z
	 M49.319,23.178c0.203,1.634,0.311,3.325,0.311,5.058c0,0.732-0.023,1.457-0.061,2.174c-1.434-0.608-2.439-2.029-2.439-3.684
	C47.13,25.172,48.024,23.841,49.319,23.178z M34.515,3.221c6.013,0,11.216,5.842,13.648,14.274H20.865
	C23.298,9.063,28.501,3.221,34.515,3.221z M19.398,28.235c0-1.732,0.107-3.424,0.312-5.058c1.293,0.663,2.188,1.994,2.188,3.548
	c0,1.652-1.003,3.07-2.434,3.681C19.427,29.688,19.398,28.968,19.398,28.235z"/>
<path fill="#97BBD5" d="M42.505,42.513c0.126,0.222,0.277,0.375,0.453,0.455c0.187,0.086,0.408,0.13,0.658,0.13
	c0.286,0,0.523-0.057,0.705-0.171c0.181-0.111,0.328-0.291,0.441-0.53c0.115-0.253,0.201-0.586,0.255-0.988
	c0.054-0.411,0.08-0.911,0.08-1.485c0-0.607-0.032-1.129-0.096-1.551c-0.063-0.414-0.157-0.753-0.28-1.006
	c-0.115-0.238-0.271-0.415-0.461-0.521c-0.193-0.109-0.428-0.166-0.693-0.166c-0.246,0-0.463,0.053-0.646,0.157
	c-0.179,0.103-0.332,0.272-0.453,0.509c-0.127,0.246-0.224,0.576-0.287,0.978c-0.063,0.409-0.096,0.919-0.096,1.516
	c0,0.687,0.037,1.251,0.111,1.683C42.269,41.942,42.374,42.276,42.505,42.513z"/>
<path fill="#97BBD5" d="M3.418,85.259h55.625l-1.241-3.656l-16.678-2.877l-1.551-13L19.59,63.069L15.8,43.024L3.373,31.968L0.952,83
	C0.952,84.247,2.056,85.259,3.418,85.259z"/>
<path fill="#97BBD5" d="M57.479,48.261c-0.116-0.239-0.271-0.414-0.461-0.521c-0.193-0.11-0.428-0.166-0.694-0.166
	c-0.245,0-0.462,0.053-0.646,0.157c-0.18,0.103-0.331,0.272-0.454,0.509c-0.126,0.246-0.224,0.576-0.286,0.979
	c-0.063,0.408-0.096,0.918-0.096,1.516c0,0.686,0.038,1.25,0.111,1.68c0.074,0.425,0.178,0.76,0.309,0.994
	c0.125,0.222,0.277,0.375,0.454,0.456c0.185,0.086,0.407,0.13,0.657,0.13c0.285,0,0.523-0.059,0.705-0.172
	c0.18-0.111,0.327-0.29,0.44-0.531c0.116-0.252,0.203-0.584,0.255-0.987c0.055-0.412,0.081-0.913,0.081-1.485
	c0-0.606-0.032-1.128-0.096-1.551C57.696,48.853,57.603,48.515,57.479,48.261z"/>
<rect id="_x3C_Slice_x3E__107_" fill="none" width="68" height="86"/>
</svg>
