<?xml version="1.0" encoding="utf-8"?>
<!-- Generator: Adobe Illustrator 16.0.3, SVG Export Plug-In . SVG Version: 6.00 Build 0)  -->
<!DOCTYPE svg PUBLIC "-//W3C//DTD SVG 1.1//EN" "http://www.w3.org/Graphics/SVG/1.1/DTD/svg11.dtd">
<svg version="1.1" id="Layer_1" xmlns="http://www.w3.org/2000/svg" xmlns:xlink="http://www.w3.org/1999/xlink" x="0px" y="0px"
	 width="81px" height="86px" viewBox="0 0 81 86" enable-background="new 0 0 81 86" xml:space="preserve">
<path fill="#97BBD5" d="M70.563,52.068C67.54,66.016,55.15,76.016,40.804,76.016c-16.779,0-30.433-13.631-30.433-30.385
	c0-16.668,13.586-30.301,30.286-30.393l6.268-0.035v5.393l22.162-10.1L46.925,0.398v5.338l-6.217,0.016
	C18.712,5.809,0.82,23.697,0.82,45.631c0,21.984,17.937,39.871,39.983,39.871c19.767,0,36.493-14.357,39.515-33.639h-8.992
	C70.979,51.863,70.722,51.973,70.563,52.068z"/>
<path fill="#97BBD5" d="M41.735,23.311c-9.947,0-18.01,8.064-18.01,18.01c0,3.58,1.048,6.912,2.85,9.717h-0.002L38.618,69.84
	l1.818,2.885l0.012-0.008c0.239,0.48,0.716,0.82,1.287,0.82c0.579,0,1.076-0.344,1.309-0.832l13.854-21.668h-0.001
	c1.802-2.805,2.851-6.137,2.851-9.717C59.747,31.375,51.683,23.311,41.735,23.311z M41.737,45.672c-3.253,0-5.888-2.635-5.888-5.887
	c0-3.25,2.635-5.887,5.888-5.887c3.248,0,5.886,2.637,5.886,5.887C47.623,43.037,44.985,45.672,41.737,45.672z"/>
<rect id="_x3C_Slice_x3E__161_" fill="none" width="81" height="86"/>
</svg>
