<?xml version="1.0" encoding="utf-8"?>
<!-- Generator: Adobe Illustrator 16.0.3, SVG Export Plug-In . SVG Version: 6.00 Build 0)  -->
<!DOCTYPE svg PUBLIC "-//W3C//DTD SVG 1.1//EN" "http://www.w3.org/Graphics/SVG/1.1/DTD/svg11.dtd">
<svg version="1.1" id="Layer_1" xmlns="http://www.w3.org/2000/svg" xmlns:xlink="http://www.w3.org/1999/xlink" x="0px" y="0px"
	 width="84px" height="66px" viewBox="0 0 84 66" enable-background="new 0 0 84 66" xml:space="preserve">
<path fill="#97BBD5" d="M79.089,0.188h-8.225c0.574,1.474,0.902,3.069,0.902,4.745v16.219h10.93c0.39,0,0.77,0.033,1.138,0.096
	V4.933C83.834,2.312,81.71,0.188,79.089,0.188z"/>
<path fill="#97BBD5" d="M58.651,0.188H4.95c-2.621,0-4.746,2.124-4.746,4.745v55.738c0,2.621,2.125,4.745,4.746,4.745h53.701
	c2.621,0,4.746-2.124,4.746-4.745v-16.15H49.315c-3.125,0-5.656-2.125-5.656-4.746V25.829c0-2.62,2.531-4.744,5.656-4.744h14.082
	V4.933C63.397,2.312,61.272,0.188,58.651,0.188z"/>
<circle fill="#97BBD5" cx="54.259" cy="32.802" r="5.58"/>
<path fill="#97BBD5" d="M71.767,44.587v16.084c0,1.676-0.328,3.271-0.902,4.745h8.225c2.621,0,4.745-2.124,4.745-4.745v-16.18
	c-0.368,0.063-0.748,0.096-1.138,0.096H71.767z"/>
<rect id="_x3C_Slice_x3E__96_" fill="none" width="84" height="66"/>
</svg>
