<?xml version="1.0" encoding="utf-8"?>
<!-- Generator: Adobe Illustrator 16.0.3, SVG Export Plug-In . SVG Version: 6.00 Build 0)  -->
<!DOCTYPE svg PUBLIC "-//W3C//DTD SVG 1.1//EN" "http://www.w3.org/Graphics/SVG/1.1/DTD/svg11.dtd">
<svg version="1.1" id="Layer_1" xmlns="http://www.w3.org/2000/svg" xmlns:xlink="http://www.w3.org/1999/xlink" x="0px" y="0px"
	 width="81px" height="102px" viewBox="0 0 81 102" enable-background="new 0 0 81 102" xml:space="preserve">
<g>
	<path fill="#93B4CB" d="M80.606,7.968c-0.135-2.15-1.272-4.327-3.899-5.431c-0.665-0.388-1.89-0.523-2.791-0.575
		c-1.297-0.147-1.605-1.272-2.866-1.464c-1.165-0.166-2.556-0.359-3.582,0.183c-0.725,0.472-1.212,1.232-2.333,1.306
		c-1.112,0.163-2.071-0.362-2.619-0.973c-0.849-0.845-2.548-0.752-3.852-0.627c-0.854,0.106-1.356,0.618-1.846,1.055
		c-0.78,0.695-2.466,0.76-3.344,0.12c-0.586-0.444-1.046-1.05-1.989-1.172c-1.349-0.155-3.115-0.207-3.952,0.697
		c-0.553,0.633-1.624,1.099-2.725,0.872c-1.324-0.177-1.608-1.335-2.902-1.551c-0.927-0.136-1.924-0.142-2.845,0.02
		c-0.764,0.145-1.138,0.621-1.625,1.008l0.002-0.014c-0.783,0.695-2.464,0.761-3.341,0.12c-0.59-0.444-1.05-1.052-1.989-1.172
		c-1.35-0.158-3.115-0.207-3.957,0.698c-0.111,0.131-0.251,0.253-0.405,0.367l0.002-0.014c-0.036,0.03-0.075,0.063-0.115,0.09
		c-0.254,0.167-0.547,0.298-0.866,0.385C26.439,1.973,26.086,2,25.737,1.976c-0.127-0.017-0.254-0.033-0.382-0.052
		c-0.011,0-0.023-0.006-0.036-0.006c-0.139-0.029-0.274-0.065-0.402-0.114c-0.308-0.12-0.556-0.3-0.79-0.49
		c-0.226-0.193-0.448-0.396-0.705-0.562c-0.034-0.038-0.068-0.073-0.103-0.109c-0.048-0.014-0.093-0.024-0.14-0.035
		c0-0.003-0.005-0.003-0.007-0.003c-0.015-0.008-0.027-0.017-0.042-0.021C23.087,0.562,23.047,0.542,23,0.525
		c-0.016-0.008-0.036-0.016-0.054-0.024c-0.16-0.06-0.331-0.106-0.527-0.131c-1.347-0.158-3.116-0.207-3.953,0.698
		c-0.092,0.108-0.204,0.209-0.325,0.305l-0.049,0.035c-0.311,0.234-0.699,0.42-1.131,0.516c-0.013,0.003-0.029,0.008-0.042,0.008
		c-0.004,0-0.004,0.003-0.009,0.003c-0.063,0.011-0.131,0.02-0.196,0.027l-1.145-0.063c-0.143-0.033-0.278-0.076-0.405-0.128
		l-0.98-0.715c0.002,0.012,0.006,0.017,0.006,0.025c-0.384-0.327-0.799-0.63-1.437-0.712C11.401,0.212,9.637,0.163,8.8,1.068
		C8.345,1.586,7.543,1.992,6.662,1.994L6.454,1.989C6.433,1.986,6.411,1.986,6.392,1.983C6.345,1.979,6.298,1.973,6.254,1.967
		c-0.06-0.005-0.119-0.016-0.179-0.029L6.066,1.954c-0.671-0.05-0.901,0.038-0.901,0.038C1.404,2.684,0.448,5.913,0.459,8.388
		L0.448,8.391v37.815v0.94v0.404v45.783l0.011,0.003c-0.011,2.475,0.945,5.704,4.706,6.396c0,0,0.23,0.088,0.901,0.038l0.009,0.017
		c0.06-0.014,0.119-0.024,0.179-0.03c0.044-0.005,0.091-0.011,0.138-0.016c0.019-0.003,0.041-0.003,0.062-0.006l0.208-0.006
		c0.881,0.003,1.683,0.409,2.138,0.927c0.837,0.905,2.601,0.855,3.952,0.698c0.638-0.082,1.053-0.385,1.437-0.712
		c0,0.009-0.004,0.014-0.006,0.024l0.98-0.714c0.127-0.052,0.263-0.095,0.405-0.128l1.145-0.063
		c0.065,0.008,0.132,0.017,0.196,0.027c0.005,0,0.005,0.003,0.009,0.003c0.013,0,0.029,0.005,0.042,0.008
		c0.432,0.096,0.82,0.28,1.131,0.515l0.049,0.036c0.121,0.095,0.232,0.196,0.325,0.305c0.837,0.905,2.606,0.855,3.953,0.698
		c0.196-0.024,0.368-0.071,0.527-0.131c0.018-0.009,0.038-0.017,0.054-0.024c0.048-0.017,0.088-0.036,0.13-0.058
		c0.015-0.006,0.027-0.014,0.042-0.021c0.002,0,0.007,0,0.007-0.003c0.046-0.011,0.091-0.021,0.14-0.035
		c0.035-0.036,0.069-0.071,0.103-0.109c0.257-0.166,0.479-0.368,0.705-0.562c0.234-0.19,0.482-0.37,0.79-0.49
		c0.128-0.049,0.264-0.085,0.402-0.114c0.013,0,0.025-0.006,0.036-0.006c0.128-0.019,0.255-0.035,0.382-0.052
		c0.349-0.024,0.703,0.003,1.032,0.079c0.319,0.087,0.612,0.218,0.866,0.384c0.041,0.027,0.079,0.061,0.115,0.091l-0.002-0.014
		c0.153,0.114,0.293,0.236,0.405,0.367c0.841,0.905,2.607,0.855,3.957,0.698c0.939-0.12,1.399-0.728,1.989-1.172
		c0.877-0.641,2.558-0.575,3.341,0.12l-0.002-0.014c0.487,0.387,0.861,0.863,1.625,1.008c0.921,0.161,1.918,0.155,2.845,0.02
		c1.294-0.216,1.578-1.374,2.902-1.551c1.101-0.227,2.172,0.239,2.725,0.872c0.837,0.904,2.603,0.853,3.952,0.697
		c0.943-0.122,1.403-0.728,1.989-1.172c0.877-0.641,2.564-0.575,3.344,0.12c0.49,0.436,0.992,0.948,1.846,1.055
		c1.304,0.125,3.003,0.218,3.852-0.627c0.548-0.61,1.507-1.137,2.619-0.973c1.12,0.073,1.608,0.834,2.333,1.306
		c1.026,0.542,2.417,0.349,3.582,0.182c1.261-0.19,1.568-1.315,2.866-1.463c0.9-0.052,2.125-0.188,2.791-0.575
		c2.627-1.103,3.765-3.279,3.899-5.431l0.014-0.423V47.551v-0.464V8.391L80.606,7.968z M68.55,22.516
		c0,1.951-1.771,3.529-3.954,3.529h-0.934c1.168,1.477,2.094,3.155,2.727,5.022c0.266,0.786,0.463,1.617,0.625,2.472
		c0.928,0.646,1.536,1.642,1.536,2.773v0.826c0,1.018-0.488,1.927-1.259,2.571c-0.091,1.23-0.231,2.479-0.479,3.754
		c-0.24,1.222-0.576,2.434-0.986,3.627c1.578,0.463,2.725,1.775,2.725,3.338v0.829c0,1.948-1.771,3.528-3.954,3.528h-2.899
		c-0.141,0.182-0.27,0.368-0.415,0.547c-1.51,1.875-3.363,3.547-5.511,4.965c-0.405,0.268-0.83,0.514-1.258,0.759h10.083
		c2.183,0,3.954,1.581,3.954,3.529v0.825c0,1.951-1.771,3.529-3.954,3.529H38.362l-1.285,6.739h27.52
		c2.183,0,3.954,1.578,3.954,3.529v0.825c0,1.951-1.771,3.529-3.954,3.529H17.371c-2.186,0-3.954-1.578-3.954-3.529v-0.825
		c0-1.144,0.617-2.147,1.559-2.792c-0.128-0.889-0.099-1.809,0.117-2.727l0.944-4.97c-1.525-0.488-2.621-1.777-2.621-3.31v-0.825
		c0-1.948,1.769-3.529,3.954-3.529h0.123l1.191-6.271h-1.314c-2.186,0-3.954-1.58-3.954-3.528v-0.829
		c0-1.948,1.769-3.528,3.954-3.528h2.813l1.184-6.232h-3.998c-2.186,0-3.954-1.578-3.954-3.529v-0.826
		c0-1.951,1.769-3.528,3.954-3.528h5.496l0.988-5.198c0.098-0.535,0.249-1.042,0.408-1.541h-6.892c-2.186,0-3.954-1.578-3.954-3.529
		V21.69c0-1.948,1.769-3.529,3.954-3.529h47.225c2.183,0,3.954,1.581,3.954,3.529V22.516z"/>
	<path fill="#93B4CB" d="M43.515,43.033c0.272-0.4,0.499-0.827,0.67-1.269c0.145-0.366,0.246-0.734,0.327-1.097h-0.798l-0.513,2.744
		C43.317,43.296,43.422,43.169,43.515,43.033z"/>
</g>
<path fill="#97BBD5" d="M62.023,32.633c-0.505-1.492-1.249-2.813-2.21-3.93c-0.952-1.105-2.117-2.034-3.463-2.764
	c-1.322-0.715-2.823-1.25-4.458-1.59c-1.048-0.219-2.123-0.38-3.196-0.476c-1.072-0.097-2.292-0.146-3.619-0.146H34.377
	c-1.38,0-2.575,0.406-3.549,1.207c-0.989,0.819-1.634,2.02-1.916,3.561l-8.79,46.253c-0.213,0.827,0.012,1.427,0.238,1.781
	c0.278,0.438,0.71,0.763,1.322,0.991c0.448,0.171,1.018,0.289,1.74,0.367c0.66,0.069,1.483,0.106,2.45,0.106
	c0.986,0,1.84-0.036,2.535-0.106c0.741-0.075,1.346-0.187,1.853-0.344c0.632-0.196,1.111-0.47,1.46-0.839
	c0.374-0.392,0.613-0.852,0.712-1.372l2.942-15.437h4.107c2.996,0,5.648-0.33,7.884-0.981c2.246-0.652,4.257-1.559,5.975-2.695
	c1.724-1.138,3.205-2.469,4.401-3.955c1.184-1.469,2.164-3.047,2.912-4.689c0.744-1.64,1.291-3.337,1.624-5.047
	c0.33-1.695,0.499-3.348,0.499-4.911C62.776,35.783,62.522,34.104,62.023,32.633z M49.663,41.151
	c-0.136,0.793-0.36,1.596-0.667,2.385c-0.304,0.777-0.702,1.535-1.187,2.245c-0.463,0.682-1.031,1.279-1.688,1.775
	c-0.663,0.504-1.456,0.921-2.355,1.236c-0.893,0.312-2.003,0.47-3.302,0.47h-3.06l2.775-14.899h3.385
	c0.76,0,1.458,0.031,2.075,0.093c0.56,0.059,1.068,0.165,1.553,0.334c0.931,0.286,1.587,0.75,2.007,1.422
	c0.451,0.723,0.67,1.572,0.67,2.599C49.87,39.555,49.799,40.342,49.663,41.151z"/>
<rect id="_x3C_Slice_x3E__26_" fill="none" width="81" height="102"/>
</svg>
