<?xml version="1.0" encoding="UTF-8" standalone="no"?>
<!-- Generator: Adobe Illustrator 16.0.3, SVG Export Plug-In . SVG Version: 6.00 Build 0)  -->

<svg
   xmlns:dc="http://purl.org/dc/elements/1.1/"
   xmlns:cc="http://creativecommons.org/ns#"
   xmlns:rdf="http://www.w3.org/1999/02/22-rdf-syntax-ns#"
   xmlns:svg="http://www.w3.org/2000/svg"
   xmlns="http://www.w3.org/2000/svg"
   xmlns:sodipodi="http://sodipodi.sourceforge.net/DTD/sodipodi-0.dtd"
   xmlns:inkscape="http://www.inkscape.org/namespaces/inkscape"
   version="1.1"
   id="Layer_1"
   x="0px"
   y="0px"
   width="83px"
   height="86px"
   viewBox="0 0 83 86"
   enable-background="new 0 0 83 86"
   xml:space="preserve"
   inkscape:version="0.48.4 r9939"
   sodipodi:docname="up.svg"><metadata
     id="metadata12"><rdf:RDF><cc:Work
         rdf:about=""><dc:format>image/svg+xml</dc:format><dc:type
           rdf:resource="http://purl.org/dc/dcmitype/StillImage" /><dc:title></dc:title></cc:Work></rdf:RDF></metadata><defs
     id="defs10" /><sodipodi:namedview
     pagecolor="#ffffff"
     bordercolor="#666666"
     borderopacity="1"
     objecttolerance="10"
     gridtolerance="10"
     guidetolerance="10"
     inkscape:pageopacity="0"
     inkscape:pageshadow="2"
     inkscape:window-width="640"
     inkscape:window-height="480"
     id="namedview8"
     showgrid="false"
     inkscape:zoom="2.744186"
     inkscape:cx="41.5"
     inkscape:cy="43"
     inkscape:window-x="204"
     inkscape:window-y="113"
     inkscape:window-maximized="0"
     inkscape:current-layer="Layer_1" /><path
     fill="#97BBD5"
     d="M23.59,44.491l4.4,0.004c5.001,0,5.001,0,5.001,5.005l0.002,14.743c-0.002,0.399,0.173,0.801,0.481,1.107  c0.306,0.307,0.703,0.48,1.09,0.48l15.4,0.009c0.428,0,0.817-0.161,1.121-0.464c0.303-0.305,0.465-0.691,0.465-1.12l0.014-14.745  c0.002-4.995,0.064-5.002,5.01-5.002l4.387-0.006c0.441,0,0.83-0.158,1.133-0.458c0.3-0.3,0.459-0.687,0.459-1.12  c0.001-0.348-0.106-0.676-0.302-0.943L44.098,18.475c-0.499-0.446-1.135-0.691-1.809-0.691c-0.67,0.002-1.304,0.248-1.799,0.696  L22.287,42.001c-0.178,0.236-0.281,0.561-0.281,0.912C22.006,43.673,22.816,44.491,23.59,44.491z"
     id="path3" /><path
     fill="#97BBD5"
     d="M41.515,85.524c22.827,0,41.333-19.063,41.333-42.582c0-23.518-18.506-42.584-41.333-42.584  S0.182,19.425,0.182,42.942C0.182,66.461,18.688,85.524,41.515,85.524z M41.515,7.013c19.229,0,34.875,16.119,34.875,35.93  c0,19.813-15.646,35.93-34.875,35.93S6.64,62.755,6.64,42.942C6.64,23.132,22.285,7.013,41.515,7.013z"
     id="path5" /><rect
     id="_x3C_Slice_x3E__78_"
     fill="none"
     width="83"
     height="86" /></svg>