<?xml version="1.0" encoding="utf-8"?>
<!-- Generator: Adobe Illustrator 16.0.3, SVG Export Plug-In . SVG Version: 6.00 Build 0)  -->
<!DOCTYPE svg PUBLIC "-//W3C//DTD SVG 1.1//EN" "http://www.w3.org/Graphics/SVG/1.1/DTD/svg11.dtd">
<svg version="1.1" id="Layer_1" xmlns="http://www.w3.org/2000/svg" xmlns:xlink="http://www.w3.org/1999/xlink" x="0px" y="0px"
	 width="77px" height="86px" viewBox="0 0 77 86" enable-background="new 0 0 77 86" xml:space="preserve">
<path fill="#97BBD5" d="M37.188,73.191c0.482,0.482,1.382,0.501,1.882,0l9.976-12.059c0.012-0.021,0.096-0.181,0.096-0.395
	c0-0.43-0.35-0.779-0.78-0.779h-2.407c-2.738,0-2.831,0-2.831-2.83v-7.223c0-0.432-0.351-0.779-0.78-0.779h-8.427
	c-0.429,0-0.778,0.348-0.778,0.779v7.223c0,2.852-0.229,2.83-2.834,2.83h-2.406c-0.431,0-0.781,0.35-0.781,0.779
	c0,0.213,0.086,0.375,0.158,0.474L37.188,73.191z"/>
<path fill="#97BBD5" d="M5.422,85.912h65.796c2.834,0,5.141-2.588,5.141-5.769V17.246c0-1.943-0.658-3.762-1.855-5.121l-8.347-9.33
	c-1.278-1.447-2.983-2.24-4.809-2.24H5.422c-2.835,0-5.142,2.586-5.142,5.766v73.823C0.28,83.324,2.587,85.912,5.422,85.912z
	 M7.629,12.228c0-3.13,2.269-5.676,5.056-5.676h4.044v16.01c0,1.372,0.958,2.446,2.183,2.446h4.275c1.201,0,2.18-1.098,2.18-2.446
	V6.552h32.363c2.789,0,5.057,2.546,5.057,5.676v17.716c0,3.129-2.268,5.676-5.057,5.676H12.685c-2.787,0-5.056-2.547-5.056-5.676
	V12.228z M7.629,44.811c0-1.418,1.484-2.566,3.314-2.566h55.144c1.83,0,3.314,1.148,3.314,2.566v33.064
	c0,1.418-1.484,2.568-3.314,2.568H10.943c-1.83,0-3.314-1.15-3.314-2.568V44.811z"/>
<rect id="_x3C_Slice_x3E__108_" fill="none" width="77" height="86"/>
</svg>
