<?xml version="1.0" encoding="utf-8"?>
<!-- Generator: Adobe Illustrator 16.0.3, SVG Export Plug-In . SVG Version: 6.00 Build 0)  -->
<!DOCTYPE svg PUBLIC "-//W3C//DTD SVG 1.1//EN" "http://www.w3.org/Graphics/SVG/1.1/DTD/svg11.dtd">
<svg version="1.1" id="Layer_1" xmlns="http://www.w3.org/2000/svg" xmlns:xlink="http://www.w3.org/1999/xlink" x="0px" y="0px"
	 width="87px" height="86px" viewBox="0 0 87 86" enable-background="new 0 0 87 86" xml:space="preserve">
<path fill="#97BBD5" d="M56.154,41.868c0,5.395,6.835,9.77,15.267,9.77c8.43,0,15.265-4.375,15.265-9.77
	c0-0.691-0.382-1.351-1.027-1.964L72.857,8.958l5.286-0.867c0.636-0.104,0.852-1.928,0.481-4.072
	c-0.369-2.144-1.185-3.798-1.819-3.693L8.761,11.489c-0.637,0.104-0.851,1.928-0.481,4.07c0.368,2.146,1.184,3.801,1.819,3.695
	l3.854-0.633L1.967,47.599c-0.806,0.719-1.295,1.576-1.295,2.609c0,5.395,6.835,9.77,15.267,9.77c8.43,0,15.265-4.375,15.265-9.77
	c0-0.691-0.382-1.351-1.027-1.964L17.671,18.013l22.219-3.646v57.73c-11.821,0.549-22.354,3.673-29.835,8.39H7.752
	c-0.851,0-1.54,0.657-1.54,1.467v2.035c0,0.81,0.689,1.467,1.54,1.467h71.726c0.851,0,1.54-0.657,1.54-1.467v-2.035
	c0-0.81-0.689-1.467-1.54-1.467h-2.3c-7.55-4.761-18.209-7.9-30.164-8.406V13.198l22.758-3.733L57.449,39.259
	C56.643,39.978,56.154,40.835,56.154,41.868z M15.933,52.78c-6.98,0-12.64-1.17-12.64-2.615c0-1.443,5.659-2.614,12.64-2.614
	c6.979,0,12.639,1.171,12.639,2.614C28.572,51.61,22.913,52.78,15.933,52.78z M15.939,44.396c-3.552,0-7.977,0.421-11.147,1.604
	l11.146-26.947L27.28,46.473C24.294,45.202,20.019,44.396,15.939,44.396z M71.415,44.44c-6.98,0-12.64-1.17-12.64-2.615
	c0-1.443,5.659-2.614,12.64-2.614c6.979,0,12.639,1.171,12.639,2.614C84.053,43.271,78.394,44.44,71.415,44.44z M71.419,10.714
	l11.342,27.419c-2.985-1.271-7.261-2.076-11.341-2.076c-3.552,0-7.977,0.421-11.147,1.604L71.419,10.714z"/>
<rect id="_x3C_Slice_x3E__112_" fill="none" width="87" height="86"/>
</svg>
