<?xml version="1.0" encoding="UTF-8" standalone="no"?>
<!-- Generator: Adobe Illustrator 16.0.3, SVG Export Plug-In . SVG Version: 6.00 Build 0)  -->

<svg
   xmlns:dc="http://purl.org/dc/elements/1.1/"
   xmlns:cc="http://creativecommons.org/ns#"
   xmlns:rdf="http://www.w3.org/1999/02/22-rdf-syntax-ns#"
   xmlns:svg="http://www.w3.org/2000/svg"
   xmlns="http://www.w3.org/2000/svg"
   xmlns:sodipodi="http://sodipodi.sourceforge.net/DTD/sodipodi-0.dtd"
   xmlns:inkscape="http://www.inkscape.org/namespaces/inkscape"
   version="1.1"
   id="Layer_1"
   x="0px"
   y="0px"
   width="84px"
   height="86px"
   viewBox="0 0 84 86"
   enable-background="new 0 0 84 86"
   xml:space="preserve"
   inkscape:version="0.48.3.1 r9886"
   sodipodi:docname="stack.svg"><metadata
   id="metadata14"><rdf:RDF><cc:Work
       rdf:about=""><dc:format>image/svg+xml</dc:format><dc:type
         rdf:resource="http://purl.org/dc/dcmitype/StillImage" /><dc:title></dc:title></cc:Work></rdf:RDF></metadata><defs
   id="defs12" /><sodipodi:namedview
   pagecolor="#ffffff"
   bordercolor="#666666"
   borderopacity="1"
   objecttolerance="10"
   gridtolerance="10"
   guidetolerance="10"
   inkscape:pageopacity="0"
   inkscape:pageshadow="2"
   inkscape:window-width="1188"
   inkscape:window-height="750"
   id="namedview10"
   showgrid="false"
   inkscape:zoom="5.4883721"
   inkscape:cx="58.284768"
   inkscape:cy="41.614833"
   inkscape:window-x="0"
   inkscape:window-y="0"
   inkscape:window-maximized="0"
   inkscape:current-layer="Layer_1" />



<rect
   id="_x3C_Slice_x3E__99_"
   fill="none"
   width="84"
   height="86" />
<path
   style="fill:#97bbd5;fill-opacity:1;stroke:none"
   d="M 31.683806,0.86175863 C 21.75197,0.86652029 12.4146,7.0001985 8.79891,16.871221 c -4.6280818,12.63491 1.879893,26.593693 14.514803,31.221774 6.645712,2.43428 15.686053,0.737856 19.400172,-1.162513 L 69.052199,84.942267 76.603284,79.614655 48.423991,42.944724 C 51.086884,40.43621 53.224497,37.281158 54.568702,33.611407 59.196785,20.976497 52.688808,6.9845 40.053898,2.356418 37.290012,1.344025 34.46472,0.86042495 31.683806,0.86175863 z M 30.720581,5.8107419 c 2.521815,-0.1262688 5.119285,0.239423 7.63937,1.1625129 C 48.440294,10.665616 53.644227,21.870331 49.951865,31.950674 46.259504,42.031017 35.05479,47.168518 24.974446,43.476159 14.894104,39.783796 9.723386,28.645511 13.415747,18.565169 16.185019,11.004911 23.155136,6.1895484 30.720581,5.8107419 z"
   id="path2991"
   inkscape:connector-curvature="0"
   sodipodi:nodetypes="sssccccsssssssss" /></svg>