<?xml version="1.0" encoding="utf-8"?>
<!-- Generator: Adobe Illustrator 16.0.3, SVG Export Plug-In . SVG Version: 6.00 Build 0)  -->
<!DOCTYPE svg PUBLIC "-//W3C//DTD SVG 1.1//EN" "http://www.w3.org/Graphics/SVG/1.1/DTD/svg11.dtd">
<svg version="1.1" id="Layer_1" xmlns="http://www.w3.org/2000/svg" xmlns:xlink="http://www.w3.org/1999/xlink" x="0px" y="0px"
	 width="84px" height="81px" viewBox="0 0 84 81" enable-background="new 0 0 84 81" xml:space="preserve">
<path fill="#97BBD5" d="M80.191,17.219C70.238,11.804,60.287,6.39,50.334,0.976c-0.02-0.012-0.041-0.022-0.063-0.033
	c-0.105-0.052-0.217-0.093-0.334-0.123c-0.018-0.005-0.039,0.001-0.059-0.003c-0.213-0.047-0.436-0.067-0.672-0.034l-19.279,2.71
	l27.67,16.93L80.191,17.219z"/>
<path fill="#97BBD5" d="M34.793,80.064l46.572-6.545c1.166-0.164,2.109-1.312,2.111-2.56l0.092-49.932l-48.775,6.917V80.064z
	 M69.154,31.627c0-0.293,0.078-0.523,0.232-0.691c0.156-0.168,0.361-0.268,0.613-0.301l2.898-0.375
	c0.291-0.037,0.568-0.063,0.832-0.075c0.262-0.012,0.578-0.006,0.945,0.019s0.74,0.108,1.117,0.253
	c0.377,0.146,0.697,0.349,0.963,0.61c0.268,0.262,0.469,0.581,0.609,0.959c0.139,0.378,0.209,0.813,0.209,1.307
	c0,0.68-0.107,1.296-0.324,1.848c-0.215,0.553-0.527,1.035-0.939,1.449s-0.918,0.754-1.516,1.021
	c-0.6,0.267-1.305,0.454-2.115,0.562l-1.025,0.137v3.875c0,0.063-0.021,0.121-0.063,0.178c-0.041,0.055-0.109,0.104-0.203,0.148
	c-0.096,0.045-0.223,0.086-0.381,0.127c-0.158,0.039-0.361,0.076-0.607,0.109c-0.242,0.033-0.443,0.051-0.604,0.053
	c-0.162,0.004-0.291-0.004-0.385-0.022c-0.096-0.019-0.162-0.05-0.201-0.095c-0.037-0.045-0.057-0.1-0.057-0.162V31.627z
	 M68.1,56.838c0.061,0.068,0.105,0.15,0.154,0.228c0.973,1.526,1.947,3.05,2.92,4.573c0.127,0.224,0.238,0.459,0.309,0.715
	c0.061,0.211,0.086,0.434,0.117,0.655v0.534c-0.037,0.287-0.082,0.575-0.17,0.859c-0.063,0.225-0.164,0.441-0.264,0.656
	c-0.07,0.156-0.164,0.303-0.258,0.448c-0.125,0.181-0.248,0.363-0.398,0.526c-0.318,0.346-0.682,0.66-1.086,0.894
	c-0.412,0.247-0.859,0.414-1.309,0.508c-1.135,0.179-2.268,0.362-3.4,0.544c-0.002,0.307,0,0.613,0,0.921
	c0.004,0.124-0.084,0.238-0.18,0.323c-0.102,0.082-0.238,0.104-0.346,0.072c-0.102-0.027-0.17-0.106-0.246-0.168
	c-0.359-0.301-0.717-0.6-1.076-0.9c-0.131-0.105-0.252-0.223-0.396-0.313c-0.166-0.129-0.324-0.27-0.486-0.402
	c-0.092-0.08-0.193-0.15-0.271-0.244c-0.1-0.113-0.1-0.308,0-0.451c0.063-0.096,0.143-0.181,0.217-0.268
	c0.639-0.737,1.277-1.475,1.916-2.213c0.098-0.109,0.186-0.234,0.307-0.322c0.086-0.069,0.195-0.081,0.295-0.082
	c0.164,0.029,0.279,0.188,0.27,0.361c-0.004,0.293-0.002,0.586-0.002,0.877c1.039-0.164,2.08-0.33,3.119-0.496
	c0.121-0.02,0.244-0.03,0.361-0.084c0.287-0.127,0.514-0.411,0.576-0.711c0.025-0.191,0.012-0.393-0.098-0.537
	c-0.123-0.156-0.219-0.332-0.332-0.496c-0.863-1.357-1.73-2.713-2.598-4.071c-0.051-0.085-0.111-0.173-0.109-0.283
	c0-0.128,0.064-0.269,0.182-0.345c0.588-0.438,1.182-0.865,1.771-1.299C67.744,56.726,67.98,56.705,68.1,56.838z M63.967,31.756
	c0-0.063,0.02-0.123,0.061-0.178s0.111-0.105,0.209-0.15c0.1-0.043,0.227-0.085,0.385-0.124c0.16-0.04,0.359-0.075,0.6-0.106
	c0.246-0.031,0.449-0.049,0.607-0.05c0.158-0.002,0.285,0.007,0.381,0.025c0.096,0.02,0.162,0.052,0.205,0.096
	c0.041,0.045,0.061,0.099,0.061,0.161v11.49c0,0.063-0.02,0.121-0.061,0.178c-0.043,0.056-0.109,0.105-0.205,0.149
	s-0.223,0.086-0.381,0.126c-0.158,0.041-0.361,0.078-0.607,0.111c-0.24,0.031-0.441,0.049-0.604,0.053
	c-0.162,0.002-0.289-0.006-0.385-0.023c-0.096-0.02-0.164-0.051-0.205-0.096c-0.041-0.044-0.061-0.098-0.061-0.16V31.756z
	 M62.01,50.121c0.051,0.002,0.102,0.002,0.154,0c0.043,0.002,0.086,0.001,0.131,0c0.027,0.004,0.057,0.007,0.086,0.01
	c0.029,0.002,0.057,0.006,0.086,0.008s0.057,0.005,0.088,0.007c0.064,0.013,0.129,0.024,0.193,0.034
	c0.238,0.037,0.461,0.12,0.678,0.209c0.127,0.05,0.24,0.125,0.359,0.188c0.098,0.05,0.172,0.133,0.268,0.187
	c0.094,0.056,0.154,0.149,0.238,0.218c0.08,0.066,0.143,0.152,0.211,0.23c0.152,0.177,0.256,0.391,0.389,0.582
	c0.477,0.75,0.957,1.496,1.43,2.246c0.279-0.197,0.547-0.411,0.832-0.599c0.029-0.013,0.061-0.025,0.092-0.039
	c0.025-0.005,0.053-0.009,0.082-0.013c0.031,0.004,0.063,0.006,0.094,0.01c0.127,0.023,0.203,0.128,0.242,0.246
	c0,0.051,0,0.102,0,0.152c-0.012,0.029-0.02,0.061-0.027,0.092c-0.008,0.029-0.016,0.06-0.021,0.089
	c-0.016,0.052-0.031,0.104-0.043,0.156c-0.008,0.029-0.016,0.06-0.021,0.089c-0.008,0.03-0.014,0.061-0.02,0.09
	c-0.01,0.022-0.018,0.045-0.023,0.068c-0.008,0.029-0.016,0.059-0.021,0.088c-0.008,0.029-0.016,0.059-0.021,0.088
	c-0.008,0.03-0.016,0.061-0.021,0.09c-0.016,0.052-0.031,0.104-0.043,0.156c-0.008,0.029-0.016,0.06-0.021,0.089
	c-0.008,0.03-0.016,0.06-0.021,0.089c-0.016,0.053-0.031,0.104-0.045,0.156c-0.008,0.03-0.014,0.061-0.02,0.09
	c-0.008,0.029-0.014,0.061-0.02,0.09c-0.01,0.022-0.018,0.045-0.025,0.066c-0.008,0.029-0.014,0.06-0.02,0.089
	c-0.008,0.029-0.016,0.06-0.021,0.089c-0.008,0.029-0.016,0.06-0.021,0.09c-0.008,0.029-0.016,0.059-0.021,0.089
	c-0.016,0.052-0.031,0.104-0.045,0.155c-0.008,0.031-0.014,0.061-0.02,0.09c-0.008,0.029-0.016,0.059-0.021,0.09
	c-0.016,0.051-0.031,0.104-0.045,0.156c-0.008,0.029-0.014,0.059-0.02,0.088c-0.008,0.031-0.016,0.06-0.021,0.09
	c-0.018,0.052-0.031,0.104-0.045,0.156c-0.008,0.029-0.014,0.06-0.02,0.09c-0.008,0.029-0.016,0.059-0.021,0.088
	c-0.018,0.053-0.031,0.105-0.045,0.156c-0.008,0.03-0.014,0.061-0.02,0.09c-0.008,0.029-0.016,0.06-0.021,0.09
	c-0.008,0.023-0.014,0.048-0.018,0.072c-0.051,0.085-0.119,0.162-0.195,0.225c-0.025,0.011-0.051,0.022-0.074,0.034
	c-0.064,0.01-0.129,0.021-0.193,0.03c-0.029-0.006-0.059-0.01-0.088-0.014c-0.051-0.008-0.1-0.015-0.15-0.02
	c-0.029-0.002-0.059-0.004-0.086-0.006c-0.029-0.004-0.059-0.006-0.086-0.008c-0.051-0.009-0.1-0.016-0.15-0.021
	c-0.029-0.002-0.059-0.004-0.086-0.006c-0.029-0.004-0.059-0.006-0.088-0.009c-0.049-0.009-0.1-0.015-0.148-0.021
	c-0.029-0.002-0.059-0.005-0.086-0.007c-0.029-0.003-0.059-0.005-0.088-0.007c-0.049-0.01-0.1-0.016-0.15-0.021
	c-0.029-0.002-0.059-0.004-0.086-0.006c-0.029-0.004-0.059-0.006-0.086-0.009c-0.051-0.009-0.1-0.015-0.15-0.021
	c-0.029-0.003-0.059-0.004-0.086-0.006c-0.029-0.004-0.059-0.007-0.086-0.009c-0.029-0.003-0.059-0.005-0.086-0.008
	c-0.051-0.009-0.1-0.016-0.15-0.021c-0.029-0.003-0.059-0.005-0.086-0.007c-0.029-0.003-0.059-0.005-0.088-0.009
	c-0.049-0.008-0.1-0.014-0.148-0.02c-0.031-0.003-0.059-0.006-0.088-0.008s-0.059-0.004-0.086-0.006
	c-0.021-0.004-0.043-0.01-0.064-0.014c-0.029-0.003-0.059-0.005-0.086-0.007c-0.029-0.003-0.059-0.005-0.086-0.009
	c-0.029-0.002-0.059-0.005-0.086-0.008c-0.051-0.008-0.1-0.015-0.15-0.02c-0.029-0.004-0.059-0.006-0.086-0.008
	c-0.029-0.002-0.059-0.004-0.086-0.006c-0.023-0.005-0.045-0.01-0.066-0.014c-0.023-0.002-0.045-0.004-0.068-0.006
	c-0.086-0.029-0.154-0.086-0.195-0.166c-0.008-0.023-0.016-0.045-0.023-0.066c0-0.059,0-0.115,0-0.173
	c0.008-0.024,0.016-0.048,0.025-0.073c0.02-0.039,0.043-0.078,0.064-0.117c0.16-0.145,0.342-0.257,0.512-0.387
	c0.121-0.09,0.242-0.184,0.369-0.264c-0.547-0.854-1.08-1.719-1.629-2.572c-0.096-0.15-0.252-0.254-0.43-0.295
	c-0.088-0.016-0.178-0.008-0.268-0.002c-0.061,0.017-0.121,0.033-0.182,0.049c-0.045,0.021-0.086,0.045-0.129,0.068
	c-0.01,0.004-0.029,0.012-0.039,0.016c-0.129,0.097-0.252,0.213-0.328,0.355c-0.086,0.2-0.203,0.388-0.301,0.584
	c-0.885,1.664-1.77,3.33-2.652,4.998c-0.053,0.113-0.145,0.205-0.248,0.273c-0.074,0.011-0.146,0.021-0.221,0.033
	c-0.023-0.006-0.045-0.011-0.066-0.016c-0.602-0.252-1.203-0.502-1.801-0.758c-0.084-0.033-0.146-0.098-0.188-0.178
	c0-0.082,0-0.162,0-0.244c0.152-0.314,0.328-0.62,0.486-0.932c0.865-1.627,1.729-3.255,2.594-4.88
	c0.328-0.569,0.785-1.076,1.322-1.46c0.176-0.126,0.365-0.23,0.555-0.331c0.021-0.01,0.043-0.02,0.064-0.03
	c0.021-0.01,0.043-0.021,0.064-0.031c0.021-0.01,0.043-0.021,0.066-0.032c0.027-0.011,0.057-0.021,0.086-0.032
	c0.027-0.012,0.057-0.023,0.086-0.037c0.035-0.012,0.072-0.023,0.109-0.037c0.086-0.029,0.174-0.056,0.26-0.086
	c0.066-0.012,0.133-0.023,0.195-0.052c0.17-0.03,0.34-0.056,0.51-0.079C61.865,50.143,61.938,50.129,62.01,50.121z M51.689,33.348
	c0-0.063,0.02-0.123,0.061-0.179s0.109-0.104,0.205-0.149c0.096-0.043,0.223-0.086,0.385-0.125c0.162-0.041,0.363-0.076,0.604-0.107
	c0.246-0.031,0.449-0.049,0.607-0.05s0.285,0.007,0.381,0.026s0.162,0.052,0.199,0.097c0.039,0.046,0.057,0.101,0.057,0.163v4.49
	l4.6-0.605v-4.48c0-0.064,0.021-0.123,0.063-0.179s0.107-0.104,0.199-0.148c0.092-0.043,0.219-0.085,0.381-0.124
	c0.16-0.041,0.365-0.076,0.611-0.108c0.242-0.031,0.441-0.048,0.6-0.049s0.285,0.007,0.379,0.026
	c0.096,0.02,0.164,0.051,0.205,0.096s0.063,0.099,0.063,0.162v11.514c0,0.063-0.021,0.123-0.063,0.179s-0.109,0.106-0.205,0.15
	c-0.094,0.044-0.221,0.086-0.379,0.126c-0.158,0.041-0.357,0.077-0.6,0.109c-0.246,0.033-0.451,0.051-0.611,0.055
	c-0.162,0.002-0.289-0.006-0.381-0.024s-0.158-0.051-0.199-0.096s-0.063-0.099-0.063-0.162v-4.933l-4.6,0.609v4.943
	c0,0.063-0.018,0.121-0.057,0.178c-0.037,0.055-0.104,0.105-0.199,0.149s-0.223,0.087-0.381,0.126
	c-0.158,0.041-0.361,0.078-0.607,0.111c-0.24,0.032-0.441,0.05-0.604,0.053c-0.162,0.002-0.289-0.005-0.385-0.023
	c-0.096-0.02-0.164-0.051-0.205-0.096s-0.061-0.1-0.061-0.162V33.348z M51.504,66.209c0.018-0.065,0.02-0.132,0.023-0.197
	c0.014-0.061,0.018-0.119,0.021-0.178c0.008-0.038,0.016-0.076,0.025-0.113c0.006-0.037,0.012-0.074,0.018-0.111
	c0.008-0.03,0.014-0.061,0.021-0.09c0.008-0.023,0.016-0.047,0.025-0.069c0.006-0.03,0.012-0.06,0.018-0.089
	c0.008-0.023,0.016-0.046,0.023-0.068c0.006-0.023,0.014-0.046,0.021-0.068c0.006-0.023,0.014-0.045,0.02-0.068
	c0.041-0.108,0.094-0.214,0.131-0.323c0.377-0.72,0.76-1.438,1.141-2.159c0.207-0.382,0.402-0.771,0.613-1.151
	c0.002-0.009,0.004-0.026,0.006-0.034c-0.174-0.057-0.334-0.143-0.506-0.205c-0.146-0.07-0.328-0.102-0.418-0.247
	c-0.008-0.022-0.016-0.046-0.023-0.069c0-0.073,0-0.146,0-0.219c0.049-0.113,0.133-0.217,0.242-0.279
	c0.051-0.018,0.104-0.039,0.154-0.063c0.027-0.013,0.057-0.024,0.086-0.036c0.027-0.011,0.057-0.021,0.086-0.033
	c0.051-0.021,0.102-0.045,0.15-0.068c0.029-0.012,0.059-0.022,0.088-0.033c0.049-0.021,0.1-0.044,0.148-0.068
	c0.027-0.012,0.057-0.022,0.086-0.035c0.029-0.011,0.059-0.021,0.088-0.033c0.051-0.021,0.1-0.045,0.15-0.068
	c0.08-0.03,0.158-0.063,0.236-0.102c0.027-0.012,0.057-0.022,0.086-0.033c0.051-0.021,0.1-0.044,0.15-0.068
	c0.027-0.012,0.057-0.023,0.086-0.035c0.027-0.011,0.057-0.021,0.086-0.033c0.051-0.021,0.102-0.045,0.15-0.068
	c0.029-0.012,0.059-0.021,0.088-0.033c0.049-0.021,0.1-0.045,0.15-0.068c0.027-0.012,0.057-0.023,0.086-0.035
	c0.027-0.011,0.057-0.021,0.086-0.033c0.051-0.021,0.1-0.045,0.15-0.068c0.027-0.011,0.057-0.021,0.086-0.033
	c0.051-0.021,0.1-0.045,0.15-0.068c0.027-0.011,0.057-0.021,0.086-0.033c0.051-0.021,0.1-0.044,0.15-0.067
	c0.027-0.012,0.057-0.024,0.086-0.036c0.029-0.01,0.059-0.021,0.088-0.032c0.051-0.022,0.102-0.047,0.152-0.073
	c0.064-0.011,0.129-0.021,0.193-0.031c0.023,0.004,0.047,0.008,0.072,0.012c0.107,0.045,0.182,0.137,0.217,0.251
	c0.004,0.028,0.01,0.058,0.016,0.086c0.014,0.048,0.029,0.095,0.045,0.142c0.006,0.028,0.014,0.057,0.021,0.084
	c0.006,0.027,0.014,0.055,0.02,0.082c0.014,0.049,0.029,0.097,0.045,0.144c0.006,0.028,0.014,0.056,0.02,0.083
	c0.014,0.049,0.029,0.096,0.045,0.143c0.006,0.027,0.014,0.056,0.021,0.084c0.006,0.027,0.014,0.055,0.021,0.082
	c0.006,0.027,0.012,0.055,0.02,0.082c0.008,0.02,0.016,0.041,0.025,0.061c0.012,0.055,0.025,0.11,0.041,0.165
	c0.006,0.021,0.016,0.041,0.023,0.062c0.006,0.027,0.012,0.056,0.018,0.084c0.014,0.047,0.029,0.096,0.045,0.143
	c0.008,0.027,0.014,0.055,0.021,0.083c0.006,0.027,0.014,0.055,0.021,0.083c0.006,0.027,0.014,0.054,0.021,0.081
	c0.006,0.021,0.016,0.04,0.023,0.06c0.006,0.029,0.012,0.057,0.02,0.086c0.012,0.047,0.027,0.096,0.043,0.143
	c0.008,0.027,0.014,0.055,0.023,0.082c0.004,0.027,0.012,0.057,0.02,0.084c0.012,0.048,0.027,0.096,0.045,0.143
	c0.006,0.027,0.012,0.055,0.02,0.084c0.014,0.047,0.027,0.095,0.045,0.143c0.006,0.027,0.014,0.055,0.02,0.082
	s0.014,0.055,0.021,0.082c0.012,0.049,0.027,0.096,0.043,0.144c0.008,0.028,0.018,0.056,0.027,0.085c0,0.072,0,0.146,0.002,0.219
	c-0.047,0.108-0.131,0.198-0.221,0.273c-0.033,0.012-0.064,0.025-0.094,0.039c-0.037,0.006-0.072,0.012-0.105,0.018
	c-0.031-0.004-0.063-0.008-0.094-0.01c-0.279-0.109-0.553-0.23-0.832-0.343c-0.195,0.333-0.361,0.679-0.549,1.017
	c-0.342,0.643-0.688,1.283-1.029,1.927c-0.041,0.081-0.088,0.159-0.119,0.243c-0.018,0.045-0.031,0.091-0.045,0.137
	c-0.018,0.114-0.018,0.229,0,0.34c0.014,0.041,0.027,0.08,0.045,0.121c0.096,0.233,0.324,0.377,0.58,0.404
	c0.158-0.006,0.32-0.043,0.482-0.066c1.918-0.305,3.838-0.609,5.758-0.915c0.051,0.021,0.107,0.034,0.154,0.063
	c0.061,0.041,0.082,0.117,0.111,0.182c0,0.738,0,1.477,0,2.214c-0.037,0.13-0.115,0.257-0.24,0.323
	c-0.041,0.013-0.08,0.025-0.117,0.042c-2.064,0.331-4.127,0.661-6.191,0.989c-0.07-0.011-0.143,0.003-0.215,0.012
	c-0.051-0.004-0.102-0.002-0.152,0c-0.045-0.002-0.088,0-0.131,0c-0.064-0.008-0.131-0.012-0.195-0.012
	c-0.051-0.008-0.1-0.016-0.15-0.02c-0.023-0.004-0.045-0.008-0.066-0.011s-0.043-0.006-0.064-0.009
	c-0.094-0.021-0.188-0.045-0.281-0.064c-0.32-0.1-0.625-0.239-0.895-0.428c-0.045-0.033-0.094-0.064-0.141-0.096
	c-0.084-0.053-0.137-0.142-0.217-0.201c-0.082-0.063-0.143-0.148-0.211-0.227c-0.174-0.211-0.324-0.445-0.432-0.707
	c-0.014-0.033-0.029-0.066-0.043-0.101c-0.008-0.021-0.016-0.041-0.021-0.062c-0.016-0.041-0.029-0.082-0.043-0.123
	c-0.012-0.049-0.027-0.096-0.043-0.145c-0.008-0.027-0.016-0.055-0.021-0.083c-0.008-0.034-0.016-0.07-0.023-0.104
	c-0.006-0.042-0.01-0.085-0.018-0.127c-0.01-0.034-0.02-0.069-0.027-0.104c-0.002-0.088,0.006-0.178-0.021-0.258
	C51.502,66.521,51.502,66.365,51.504,66.209z M41.768,44.336c0.014-0.135,0.035-0.246,0.063-0.332
	c0.029-0.086,0.066-0.149,0.115-0.191c0.047-0.04,0.102-0.064,0.166-0.074c0.088-0.012,0.213,0.024,0.375,0.107
	c0.162,0.082,0.369,0.17,0.623,0.264c0.252,0.092,0.555,0.168,0.906,0.225c0.352,0.058,0.76,0.055,1.221-0.007
	c0.305-0.041,0.576-0.114,0.818-0.219c0.24-0.104,0.445-0.235,0.613-0.39c0.166-0.156,0.295-0.338,0.385-0.545
	c0.088-0.207,0.133-0.432,0.133-0.672c0-0.278-0.076-0.507-0.229-0.686c-0.152-0.18-0.35-0.33-0.594-0.452s-0.521-0.231-0.832-0.326
	s-0.631-0.196-0.959-0.304c-0.33-0.109-0.65-0.239-0.961-0.391c-0.311-0.152-0.588-0.348-0.83-0.584
	c-0.244-0.236-0.443-0.529-0.594-0.877c-0.152-0.348-0.229-0.777-0.229-1.29c0-0.589,0.109-1.122,0.328-1.597
	s0.512-0.883,0.883-1.227c0.371-0.342,0.809-0.618,1.313-0.83c0.502-0.21,1.037-0.352,1.6-0.424
	c0.291-0.039,0.584-0.055,0.875-0.047c0.291,0.006,0.564,0.03,0.816,0.074c0.254,0.042,0.479,0.098,0.676,0.168
	c0.195,0.069,0.326,0.131,0.389,0.186c0.064,0.055,0.107,0.104,0.129,0.145s0.041,0.098,0.057,0.168s0.027,0.161,0.033,0.271
	c0.006,0.11,0.01,0.247,0.01,0.411c0,0.184-0.004,0.338-0.014,0.466s-0.025,0.233-0.049,0.319c-0.021,0.084-0.053,0.148-0.094,0.191
	c-0.041,0.044-0.098,0.07-0.166,0.079c-0.07,0.009-0.182-0.021-0.334-0.089s-0.338-0.141-0.561-0.217
	c-0.221-0.074-0.479-0.137-0.77-0.184s-0.611-0.049-0.959-0.003c-0.273,0.036-0.51,0.1-0.713,0.192
	c-0.203,0.094-0.373,0.207-0.508,0.342c-0.137,0.135-0.238,0.289-0.305,0.462s-0.1,0.352-0.1,0.534c0,0.273,0.074,0.498,0.223,0.678
	c0.148,0.181,0.35,0.332,0.6,0.453c0.25,0.123,0.533,0.23,0.85,0.325s0.641,0.195,0.969,0.304c0.33,0.108,0.652,0.238,0.971,0.389
	c0.316,0.15,0.598,0.345,0.846,0.58c0.246,0.236,0.445,0.525,0.598,0.868s0.229,0.761,0.229,1.253c0,0.644-0.121,1.225-0.361,1.744
	c-0.24,0.518-0.566,0.967-0.979,1.348s-0.893,0.69-1.445,0.93c-0.551,0.238-1.139,0.4-1.768,0.484
	c-0.424,0.057-0.818,0.076-1.182,0.055c-0.365-0.02-0.686-0.061-0.965-0.121s-0.512-0.133-0.699-0.215
	c-0.186-0.082-0.32-0.16-0.402-0.23c-0.084-0.071-0.143-0.182-0.176-0.332c-0.035-0.151-0.053-0.372-0.053-0.664
	C41.75,44.637,41.756,44.471,41.768,44.336z"/>
<path fill="#97BBD5" d="M73.777,36.004c0.27-0.143,0.49-0.319,0.66-0.533c0.172-0.213,0.301-0.457,0.391-0.734
	c0.088-0.277,0.133-0.572,0.133-0.885c0-0.424-0.076-0.764-0.229-1.019s-0.338-0.435-0.561-0.536
	c-0.221-0.102-0.455-0.154-0.697-0.157c-0.244-0.003-0.496,0.013-0.756,0.047l-1.064,0.14v4.117l1.121-0.148
	C73.174,36.242,73.508,36.146,73.777,36.004z"/>
<polygon fill="#97BBD5" points="54.486,20.863 26.813,3.93 4.723,7.033 33.113,23.895 "/>
<path fill="#97BBD5" d="M1.059,62.373c9.83,5.347,19.658,10.694,29.488,16.041V27.311L0.266,9.326
	C0.215,9.528,0.178,9.735,0.178,9.949L0.084,60.597C0.084,61.401,0.473,62.054,1.059,62.373z M20.809,41.175l2.463,1.494v14.777
	l-2.463-1.494V41.175z M17.557,39.201l1.643,0.996v14.777l-1.643-0.996V39.201z M15.914,38.205l0.822,0.498V53.48l-0.822-0.498
	V38.205z M13.256,36.591l0.82,0.499v14.777l-0.82-0.498V36.591z M10.793,35.097l1.641,0.997v14.777l-1.641-0.996V35.097z
	 M7.361,33.015l1.643,0.997v14.776l-1.643-0.997V33.015z"/>
<rect id="_x3C_Slice_x3E__141_" x="0.084" y="0.766" fill="none" width="83.484" height="79.299"/>
<rect id="_x3C_Slice_x3E__82_" fill="none" width="84" height="81"/>
</svg>
