<?xml version="1.0" encoding="UTF-8" standalone="no"?>
<!-- Generator: Adobe Illustrator 16.0.3, SVG Export Plug-In . SVG Version: 6.00 Build 0)  -->

<svg
   xmlns:dc="http://purl.org/dc/elements/1.1/"
   xmlns:cc="http://creativecommons.org/ns#"
   xmlns:rdf="http://www.w3.org/1999/02/22-rdf-syntax-ns#"
   xmlns:svg="http://www.w3.org/2000/svg"
   xmlns="http://www.w3.org/2000/svg"
   xmlns:sodipodi="http://sodipodi.sourceforge.net/DTD/sodipodi-0.dtd"
   xmlns:inkscape="http://www.inkscape.org/namespaces/inkscape"
   version="1.1"
   id="Layer_1"
   x="0px"
   y="0px"
   width="68px"
   height="86px"
   viewBox="0 0 68 86"
   enable-background="new 0 0 68 86"
   xml:space="preserve"
   inkscape:version="0.48.3.1 r9886"
   sodipodi:docname="subscription_order.svg"><metadata
   id="metadata14"><rdf:RDF><cc:Work
       rdf:about=""><dc:format>image/svg+xml</dc:format><dc:type
         rdf:resource="http://purl.org/dc/dcmitype/StillImage" /><dc:title></dc:title></cc:Work></rdf:RDF></metadata><defs
   id="defs12">
	
	
</defs><sodipodi:namedview
   pagecolor="#ffffff"
   bordercolor="#666666"
   borderopacity="1"
   objecttolerance="10"
   gridtolerance="10"
   guidetolerance="10"
   inkscape:pageopacity="0"
   inkscape:pageshadow="2"
   inkscape:window-width="640"
   inkscape:window-height="480"
   id="namedview10"
   showgrid="false"
   inkscape:zoom="2.744186"
   inkscape:cx="34"
   inkscape:cy="43"
   inkscape:window-x="664"
   inkscape:window-y="103"
   inkscape:window-maximized="0"
   inkscape:current-layer="Layer_1" />
<path
   style="fill:#97bbd5"
   d="M 34.28125 0 C 26.75025 0 20.2925 7.14925 17.5625 17.28125 L 6.1875 17.28125 C 4.8255 17.28125 3.71875 18.28425 3.71875 19.53125 L 0.71875 82.78125 C 0.71875 84.02825 1.8245 85.03125 3.1875 85.03125 L 64.875 85.03125 C 66.237 85.03125 67.34375 84.02825 67.34375 82.78125 L 64.34375 19.53125 C 64.34375 18.28425 63.237 17.28125 61.875 17.28125 L 51.03125 17.28125 C 48.30125 7.14925 41.81225 -2.3684758e-15 34.28125 0 z M 34.28125 3 C 40.29425 3 45.5055 8.84825 47.9375 17.28125 L 20.65625 17.28125 C 23.08925 8.84825 28.26925 3 34.28125 3 z M 16.71875 21.3125 C 16.37675 23.4585 16.1875 25.72425 16.1875 28.03125 C 16.1875 28.32525 16.1815 28.61425 16.1875 28.90625 C 14.7145 28.31625 13.6875 26.8715 13.6875 25.1875 C 13.6875 23.3165 14.98275 21.7495 16.71875 21.3125 z M 51.875 21.3125 C 53.61 21.7505 54.90625 23.3165 54.90625 25.1875 C 54.90625 26.8705 53.87925 28.31625 52.40625 28.90625 C 52.41225 28.61525 52.40625 28.32525 52.40625 28.03125 C 52.40625 25.72325 52.216 23.4585 51.875 21.3125 z M 19.65625 21.71875 C 20.85525 22.40875 21.6875 23.7045 21.6875 25.1875 C 21.6875 26.8605 20.6445 28.278 19.1875 28.875 C 19.1815 28.586 19.1875 28.32325 19.1875 28.03125 C 19.1865 25.86325 19.34025 23.72775 19.65625 21.71875 z M 48.9375 21.71875 C 49.2525 23.72775 49.40625 25.86225 49.40625 28.03125 C 49.40625 28.32325 49.41325 28.586 49.40625 28.875 C 47.94925 28.277 46.90625 26.8605 46.90625 25.1875 C 46.90725 23.7045 47.7385 22.40975 48.9375 21.71875 z M 36 31.21875 C 36.069 31.21875 36.10798 31.23087 36.09375 31.21875 L 47.625 39.84375 C 47.888364 40.128703 47.96765 40.27879 47.96875 40.3125 C 47.967696 40.346736 47.887304 40.528601 47.625 40.8125 L 36.09375 49.40625 C 36.074262 49.421 36.05636 49.4375 36 49.4375 C 35.887803 49.4375 35.8125 49.37588 35.8125 49.34375 L 35.8125 43.34375 L 33.78125 43.34375 C 26.53521 43.382726 20.625 49.299958 20.625 56.53125 C 20.625 63.800464 26.563473 69.71875 33.84375 69.71875 C 40.157501 69.71875 45.568222 65.269503 46.78125 59.09375 C 46.877112 58.940475 47.277877 58.561972 47.90625 58.5625 L 53.03125 58.53125 C 53.03025 58.56338 53.03545 58.61832 53.03125 58.65625 L 53 58.8125 C 51.858079 68.480382 43.629618 75.78125 33.84375 75.78125 C 23.205128 75.78125 14.53125 67.141955 14.53125 56.53125 C 14.53125 45.946354 23.167384 37.30864 33.78125 37.28125 L 35.8125 37.28125 L 35.8125 31.3125 C 35.8125 31.28669 35.879381 31.21875 36 31.21875 z "
   id="path7" />

<rect
   style="fill:none"
   y="0.72881353"
   x="-12.949153"
   id="_x3C_Slice_x3E__160_"
   width="74"
   height="86" /></svg>