<?xml version="1.0" encoding="utf-8"?>
<!-- Generator: Adobe Illustrator 16.0.3, SVG Export Plug-In . SVG Version: 6.00 Build 0)  -->
<!DOCTYPE svg PUBLIC "-//W3C//DTD SVG 1.1//EN" "http://www.w3.org/Graphics/SVG/1.1/DTD/svg11.dtd" [
	<!ENTITY ns_flows "http://ns.adobe.com/Flows/1.0/">
	<!ENTITY ns_extend "http://ns.adobe.com/Extensibility/1.0/">
	<!ENTITY ns_ai "http://ns.adobe.com/AdobeIllustrator/10.0/">
	<!ENTITY ns_graphs "http://ns.adobe.com/Graphs/1.0/">
]>
<svg version="1.1" id="Layer_1" xmlns:x="&ns_extend;" xmlns:i="&ns_ai;" xmlns:graph="&ns_graphs;"
	 xmlns="http://www.w3.org/2000/svg" xmlns:xlink="http://www.w3.org/1999/xlink" xmlns:a="http://ns.adobe.com/AdobeSVGViewerExtensions/3.0/"
	 x="0px" y="0px" width="83.613px" height="85.018px" viewBox="0 0 83.613 85.018" enable-background="new 0 0 83.613 85.018"
	 xml:space="preserve">
<g id="Download_-_Orange">
</g>
<g id="Icon_2_-_Comments1">
</g>
<g id="Comments_-_Grey">
</g>
<g id="Go_to_Web">
</g>
<g id="Notepad">
</g>
<g id="Checklist">
</g>
<g id="Loading_3">
</g>
<g id="Print">
</g>
<g id="Tools">
</g>
<g id="Plus">
	<path fill="#85D633" d="M51.477,84.214c0.793,0.463,1.699,0.652,2.598,0.785h0.318c0.822-0.145,1.662-0.305,2.404-0.713
		c1.074-0.559,1.834-1.537,2.691-2.365c7.303-7.424,14.605-14.848,21.91-22.27c0.506-0.506,1.016-1.025,1.373-1.656
		c0.504-0.842,0.715-1.82,0.842-2.787V54.96c-0.127-0.811-0.275-1.631-0.641-2.365c-0.314-0.662-0.777-1.236-1.293-1.746
		C65.008,33.907,48.34,16.958,31.664,0.019H15.84C10.555,5.38,5.275,10.747,0,16.118V32.2c16.645,16.932,33.303,33.85,49.955,50.777
		C50.408,83.45,50.9,83.897,51.477,84.214z M47.184,44.077l6.01-6.002c0.15-0.15,0.373-0.238,0.611-0.238
		c0.24,0,0.465,0.088,0.621,0.244l5.75,5.75c1.953,1.953,1.953,1.953,3.902,0.002l1.719-1.715c0.301-0.303,0.936-0.299,1.232-0.004
		c0.137,0.139,0.223,0.305,0.246,0.465l2.076,16.277c-0.02,0.367-0.17,0.709-0.432,0.971c-0.262,0.264-0.605,0.416-0.977,0.436
		l-16.248-2.088c-0.18-0.027-0.35-0.113-0.484-0.25c-0.168-0.168-0.258-0.381-0.258-0.615c0-0.236,0.09-0.449,0.264-0.621
		l1.709-1.713c1.928-1.928,1.949-1.955,0.002-3.904l-5.746-5.758c-0.168-0.166-0.256-0.381-0.256-0.617S47.016,44.245,47.184,44.077
		z M21.35,27.976c-1.76-0.283-3.334-1.488-4.104-3.115c-0.729-1.496-0.754-3.32-0.072-4.836c0.732-1.666,2.297-2.922,4.064-3.246
		c1.475-0.287,3.059,0.064,4.277,0.955c1.383,0.986,2.277,2.641,2.346,4.357c0.094,1.711-0.631,3.439-1.908,4.559
		C24.717,27.765,22.977,28.263,21.35,27.976z M48.383,53.46l-6.01,6.002c-0.152,0.152-0.375,0.238-0.613,0.238
		c-0.24,0-0.465-0.088-0.619-0.242l-5.752-5.75c-1.951-1.953-1.951-1.953-3.902-0.002l-1.719,1.715
		c-0.301,0.301-0.936,0.299-1.232,0.002c-0.137-0.137-0.223-0.305-0.246-0.465l-2.074-16.275c0.018-0.367,0.17-0.711,0.43-0.973
		c0.262-0.262,0.607-0.416,0.977-0.436l16.248,2.088c0.18,0.027,0.35,0.113,0.484,0.25c0.17,0.17,0.258,0.383,0.258,0.617
		s-0.09,0.447-0.262,0.619l-1.709,1.713c-1.93,1.93-1.951,1.957-0.004,3.904l5.746,5.758c0.168,0.168,0.256,0.381,0.256,0.619
		C48.639,53.079,48.549,53.292,48.383,53.46z"/>
	<rect id="_x3C_Slice_x3E__39_" fill="none" width="83.613" height="85.018"/>
</g>
<g id="Credit_Card">
</g>
</svg>
