<?xml version="1.0" encoding="utf-8"?>
<!-- Generator: Adobe Illustrator 16.0.3, SVG Export Plug-In . SVG Version: 6.00 Build 0)  -->
<!DOCTYPE svg PUBLIC "-//W3C//DTD SVG 1.1//EN" "http://www.w3.org/Graphics/SVG/1.1/DTD/svg11.dtd">
<svg version="1.1" id="Layer_1" xmlns="http://www.w3.org/2000/svg" xmlns:xlink="http://www.w3.org/1999/xlink" x="0px" y="0px"
	 width="85px" height="86px" viewBox="0 0 85 86" enable-background="new 0 0 85 86" xml:space="preserve">
<path fill="#97BBD5" d="M52.232,84.943c0.793,0.463,1.699,0.652,2.598,0.785h0.318c0.822-0.145,1.662-0.305,2.404-0.713
	c1.074-0.559,1.834-1.537,2.691-2.365c7.303-7.424,14.605-14.848,21.91-22.27c0.506-0.506,1.016-1.025,1.373-1.656
	c0.504-0.842,0.715-1.82,0.842-2.787v-0.248c-0.127-0.811-0.275-1.631-0.641-2.365c-0.314-0.662-0.777-1.236-1.293-1.746
	C65.764,34.637,49.096,17.688,32.42,0.748H16.596c-5.285,5.361-10.564,10.729-15.84,16.1V32.93
	C17.4,49.861,34.059,66.779,50.711,83.707C51.164,84.18,51.656,84.627,52.232,84.943z M47.939,44.807l6.01-6.002
	c0.15-0.15,0.373-0.238,0.611-0.238c0.24,0,0.465,0.088,0.621,0.244l5.75,5.75c1.953,1.953,1.953,1.953,3.902,0.002l1.719-1.715
	c0.301-0.303,0.936-0.299,1.232-0.004c0.137,0.139,0.223,0.305,0.246,0.465l2.076,16.277c-0.02,0.367-0.17,0.709-0.432,0.971
	c-0.262,0.264-0.605,0.416-0.977,0.436l-16.248-2.088c-0.18-0.027-0.35-0.113-0.484-0.25c-0.168-0.168-0.258-0.381-0.258-0.615
	c0-0.236,0.09-0.449,0.264-0.621l1.709-1.713c1.928-1.928,1.949-1.955,0.002-3.904l-5.746-5.758
	c-0.168-0.166-0.256-0.381-0.256-0.617S47.771,44.975,47.939,44.807z M22.105,28.705c-1.76-0.283-3.334-1.488-4.104-3.115
	c-0.729-1.496-0.754-3.32-0.072-4.836c0.732-1.666,2.297-2.922,4.064-3.246c1.475-0.287,3.059,0.064,4.277,0.955
	c1.383,0.986,2.277,2.641,2.346,4.357c0.094,1.711-0.631,3.439-1.908,4.559C25.473,28.494,23.732,28.992,22.105,28.705z
	 M49.139,54.189l-6.01,6.002c-0.152,0.152-0.375,0.238-0.613,0.238c-0.24,0-0.465-0.088-0.619-0.242l-5.752-5.75
	c-1.951-1.953-1.951-1.953-3.902-0.002l-1.719,1.715c-0.301,0.301-0.936,0.299-1.232,0.002c-0.137-0.137-0.223-0.305-0.246-0.465
	l-2.074-16.275c0.018-0.367,0.17-0.711,0.43-0.973c0.262-0.262,0.607-0.416,0.977-0.436l16.248,2.088
	c0.18,0.027,0.35,0.113,0.484,0.25c0.17,0.17,0.258,0.383,0.258,0.617s-0.09,0.447-0.262,0.619l-1.709,1.713
	c-1.93,1.93-1.951,1.957-0.004,3.904l5.746,5.758c0.168,0.168,0.256,0.381,0.256,0.619C49.395,53.809,49.305,54.021,49.139,54.189z"
	/>
<rect id="_x3C_Slice_x3E__135_" x="0.756" y="0.748" fill="none" width="83.613" height="84.98"/>
<rect id="_x3C_Slice_x3E__102_" fill="none" width="85" height="86"/>
</svg>
