<?xml version="1.0" encoding="UTF-8" standalone="no"?>
<!-- Generator: Adobe Illustrator 16.0.3, SVG Export Plug-In . SVG Version: 6.00 Build 0)  -->

<svg
   xmlns:dc="http://purl.org/dc/elements/1.1/"
   xmlns:cc="http://creativecommons.org/ns#"
   xmlns:rdf="http://www.w3.org/1999/02/22-rdf-syntax-ns#"
   xmlns:svg="http://www.w3.org/2000/svg"
   xmlns="http://www.w3.org/2000/svg"
   xmlns:sodipodi="http://sodipodi.sourceforge.net/DTD/sodipodi-0.dtd"
   xmlns:inkscape="http://www.inkscape.org/namespaces/inkscape"
   version="1.1"
   id="Layer_1"
   x="0px"
   y="0px"
   width="68px"
   height="86px"
   viewBox="0 0 68 86"
   enable-background="new 0 0 68 86"
   xml:space="preserve"
   inkscape:version="0.48.3.1 r9886"
   sodipodi:docname="unpaid_order.svg"><metadata
   id="metadata11"><rdf:RDF><cc:Work
       rdf:about=""><dc:format>image/svg+xml</dc:format><dc:type
         rdf:resource="http://purl.org/dc/dcmitype/StillImage" /><dc:title></dc:title></cc:Work></rdf:RDF></metadata><defs
   id="defs9" /><sodipodi:namedview
   pagecolor="#ffffff"
   bordercolor="#666666"
   borderopacity="1"
   objecttolerance="10"
   gridtolerance="10"
   guidetolerance="10"
   inkscape:pageopacity="0"
   inkscape:pageshadow="2"
   inkscape:window-width="1242"
   inkscape:window-height="761"
   id="namedview7"
   showgrid="false"
   inkscape:zoom="5.4883721"
   inkscape:cx="39.603204"
   inkscape:cy="43.845195"
   inkscape:window-x="0"
   inkscape:window-y="27"
   inkscape:window-maximized="0"
   inkscape:current-layer="Layer_1" />
<path
   style="fill:#97bbd5"
   d="M 34.53125 0.25 C 27.00225 0.25 20.5435 7.40025 17.8125 17.53125 L 6.4375 17.53125 C 5.0745 17.53125 3.96875 18.53325 3.96875 19.78125 L 0.96875 83.03125 C 0.96875 84.27725 2.0745 85.28125 3.4375 85.28125 L 65.125 85.28125 C 66.486 85.28125 67.59375 84.27725 67.59375 83.03125 L 64.59375 19.78125 C 64.59375 18.53325 63.486 17.53125 62.125 17.53125 L 51.28125 17.53125 C 48.55325 7.40025 42.06225 0.25 34.53125 0.25 z M 34.53125 3.25 C 40.54525 3.25 45.7565 9.09925 48.1875 17.53125 L 20.90625 17.53125 C 23.33825 9.09925 28.51925 3.25 34.53125 3.25 z M 16.96875 21.5625 C 16.62675 23.7085 16.4375 25.944 16.4375 28.25 C 16.4385 28.545 16.4315 28.86425 16.4375 29.15625 C 14.9645 28.56625 13.9375 27.1205 13.9375 25.4375 C 13.9375 23.5655 15.23275 21.9985 16.96875 21.5625 z M 52.125 21.5625 C 53.859 21.9995 55.15625 23.5655 55.15625 25.4375 C 55.15625 27.1195 54.12925 28.56625 52.65625 29.15625 C 52.66225 28.86425 52.65625 28.545 52.65625 28.25 C 52.65625 25.943 52.466 23.7085 52.125 21.5625 z M 19.90625 21.96875 C 21.10525 22.65975 21.9375 23.9535 21.9375 25.4375 C 21.9375 27.1095 20.8945 28.528 19.4375 29.125 C 19.4315 28.835 19.4375 28.542 19.4375 28.25 C 19.4375 26.081 19.59225 23.97675 19.90625 21.96875 z M 49.1875 21.96875 C 49.5015 23.97775 49.65625 26.081 49.65625 28.25 C 49.65625 28.542 49.66425 28.835 49.65625 29.125 C 48.19925 28.527 47.15625 27.1095 47.15625 25.4375 C 47.15625 23.9535 47.9875 22.65975 49.1875 21.96875 z M 20.1875 37.53125 L 25.625 37.53125 L 20.90625 61.78125 C 20.710203 62.868384 20.557849 63.755899 20.46875 64.46875 C 20.39746 65.163805 20.374992 65.777863 20.375 66.3125 C 20.374992 68.771892 21.065226 70.65435 22.4375 71.9375 C 23.809753 73.202839 25.813315 73.843754 28.46875 73.84375 C 31.908302 73.843754 34.593064 72.889096 36.5 71 C 38.424708 69.110917 39.805178 66.040629 40.625 61.78125 L 45.3125 37.53125 L 50.75 37.53125 L 45.9375 62.4375 C 44.885992 67.819639 42.878035 71.808693 39.9375 74.375 C 36.996907 76.941314 32.989783 78.218749 27.875 78.21875 C 23.882945 78.218749 20.709623 77.214771 18.375 75.21875 C 16.058185 73.204911 14.906247 70.470829 14.90625 67.03125 C 14.906247 66.407504 14.942137 65.735092 15.03125 64.96875 C 15.12035 64.184612 15.25928 63.328595 15.4375 62.4375 L 20.1875 37.53125 z "
   id="path3" />
<rect
   id="_x3C_Slice_x3E__138_"
   x="0.983"
   y="0.258"
   fill="none"
   width="66.613"
   height="85.018" />
<rect
   id="_x3C_Slice_x3E__83_"
   fill="none"
   width="68"
   height="86" />
<g
   style="font-size:54.74801254px;font-style:normal;font-weight:normal;line-height:125%;letter-spacing:0px;word-spacing:0px;fill:#000000;fill-opacity:1;stroke:none;font-family:Sans"
   id="text3007" /></svg>