<?xml version="1.0" encoding="utf-8"?>
<!-- Generator: Adobe Illustrator 16.0.3, SVG Export Plug-In . SVG Version: 6.00 Build 0)  -->
<!DOCTYPE svg PUBLIC "-//W3C//DTD SVG 1.1//EN" "http://www.w3.org/Graphics/SVG/1.1/DTD/svg11.dtd" [
	<!ENTITY ns_flows "http://ns.adobe.com/Flows/1.0/">
	<!ENTITY ns_extend "http://ns.adobe.com/Extensibility/1.0/">
	<!ENTITY ns_ai "http://ns.adobe.com/AdobeIllustrator/10.0/">
	<!ENTITY ns_graphs "http://ns.adobe.com/Graphs/1.0/">
]>
<svg version="1.1" id="Layer_1" xmlns:x="&ns_extend;" xmlns:i="&ns_ai;" xmlns:graph="&ns_graphs;"
	 xmlns="http://www.w3.org/2000/svg" xmlns:xlink="http://www.w3.org/1999/xlink" xmlns:a="http://ns.adobe.com/AdobeSVGViewerExtensions/3.0/"
	 x="0px" y="0px" width="68.834px" height="84.955px" viewBox="0 0 68.834 84.955" enable-background="new 0 0 68.834 84.955"
	 xml:space="preserve">
<g id="Download_-_Orange">
</g>
<g id="Icon_2_-_Comments1">
</g>
<g id="Comments_-_Grey">
</g>
<g id="Go_to_Web">
</g>
<g id="Notepad">
</g>
<g id="Checklist">
</g>
<g id="Loading_3">
</g>
<g id="Print">
</g>
<g id="Tools">
</g>
<g id="Plus">
	<path fill="#FFAD33" d="M65.143,34.188h-5.658c0.563,1.266,0.881,2.662,0.881,4.133v43.383c0,1.138-0.195,2.229-0.539,3.252h5.316
		c2.039,0,3.691-1.652,3.691-3.692V37.881C68.834,35.84,67.182,34.188,65.143,34.188z"/>
	<path fill="#FFAD33" d="M50.158,34.188H8.361c-2.039,0-3.693,1.652-3.693,3.693v43.382c0,2.04,1.654,3.692,3.693,3.692h41.797
		c2.041,0,3.693-1.652,3.693-3.692V37.881C53.852,35.84,52.199,34.188,50.158,34.188z"/>
	<path fill="#FFAD33" d="M39.689,27.299h8.449h0.705h14.982c1.82,0,3.527,0.484,5.008,1.323l-1.383-6.896L39.689,27.299z"/>
	<path fill="#FFAD33" d="M35.879,27.643l12.287-7.197c0.979-0.573,1.578-1.529,1.756-2.566l16.107-3.232l-0.775-3.858
		c-0.4-1.999-2.348-3.296-4.348-2.894l-14.148,2.84l-5.219-8.907c-1.029-1.76-3.291-2.351-5.053-1.319L1.826,20.81
		c-1.76,1.031-2.35,3.294-1.32,5.054l1.75,2.984c1.432-0.768,3.066-1.205,4.803-1.205H35.879z M21.111,17.1
		c0.102-0.372,0.283-0.731,0.545-1.078c0.262-0.346,0.598-0.674,1.008-0.982l-0.74-1.611c-0.02-0.043-0.027-0.084-0.027-0.121
		c0.002-0.039,0.02-0.084,0.055-0.135s0.09-0.105,0.164-0.162c0.076-0.057,0.18-0.125,0.311-0.201
		c0.156-0.092,0.291-0.16,0.402-0.205c0.113-0.047,0.205-0.072,0.277-0.077s0.129,0.011,0.17,0.048
		c0.043,0.037,0.078,0.082,0.111,0.139l0.688,1.521c0.154-0.064,0.318-0.123,0.496-0.18s0.35-0.1,0.514-0.131
		c0.164-0.032,0.316-0.055,0.459-0.067s0.248-0.009,0.316,0.009s0.125,0.042,0.174,0.072c0.047,0.029,0.096,0.071,0.146,0.127
		c0.049,0.056,0.102,0.127,0.16,0.213c0.057,0.084,0.119,0.186,0.188,0.302c0.092,0.156,0.162,0.288,0.215,0.394
		c0.051,0.105,0.082,0.189,0.094,0.254c0.01,0.066,0.008,0.115-0.006,0.146c-0.016,0.033-0.041,0.061-0.076,0.082
		c-0.066,0.037-0.182,0.061-0.346,0.069c-0.164,0.007-0.361,0.028-0.59,0.06c-0.23,0.033-0.482,0.086-0.762,0.162
		c-0.277,0.074-0.563,0.195-0.85,0.365c-0.264,0.153-0.473,0.311-0.631,0.47c-0.156,0.161-0.268,0.321-0.33,0.479
		s-0.084,0.317-0.066,0.477c0.02,0.159,0.072,0.314,0.16,0.465c0.141,0.238,0.32,0.4,0.541,0.489
		c0.221,0.087,0.471,0.128,0.748,0.122c0.277-0.008,0.578-0.041,0.898-0.101c0.322-0.06,0.65-0.116,0.988-0.171
		c0.338-0.057,0.682-0.092,1.027-0.107c0.346-0.018,0.684,0.016,1.01,0.1c0.328,0.084,0.639,0.233,0.936,0.449
		c0.297,0.217,0.564,0.531,0.805,0.939c0.254,0.434,0.406,0.871,0.457,1.311c0.049,0.438,0.008,0.867-0.127,1.285
		c-0.135,0.419-0.357,0.82-0.668,1.207c-0.311,0.385-0.697,0.738-1.158,1.064l0.791,1.715c0.02,0.043,0.027,0.085,0.027,0.125
		c0,0.043-0.018,0.086-0.053,0.135c-0.037,0.049-0.094,0.103-0.17,0.164s-0.176,0.13-0.303,0.203
		c-0.162,0.096-0.297,0.164-0.404,0.207c-0.107,0.042-0.197,0.065-0.268,0.07c-0.072,0.004-0.131-0.01-0.174-0.045
		c-0.045-0.036-0.078-0.084-0.102-0.146L27.4,25.387c-0.234,0.097-0.463,0.178-0.682,0.242c-0.221,0.064-0.426,0.113-0.617,0.146
		c-0.189,0.035-0.359,0.053-0.51,0.059c-0.148,0.007-0.27-0.002-0.361-0.025c-0.092-0.024-0.184-0.086-0.275-0.186
		c-0.094-0.098-0.203-0.259-0.334-0.481c-0.102-0.172-0.18-0.316-0.234-0.434c-0.055-0.116-0.086-0.212-0.098-0.288
		c-0.01-0.075-0.002-0.136,0.021-0.182c0.025-0.045,0.063-0.081,0.113-0.111c0.066-0.037,0.184-0.057,0.355-0.055
		c0.17,0.002,0.381-0.01,0.631-0.034s0.537-0.081,0.863-0.169c0.324-0.088,0.676-0.244,1.055-0.465
		c0.592-0.348,0.967-0.715,1.127-1.104c0.158-0.389,0.131-0.765-0.082-1.128c-0.143-0.243-0.32-0.405-0.537-0.491
		c-0.215-0.082-0.461-0.124-0.738-0.121c-0.275,0.002-0.572,0.033-0.887,0.092c-0.314,0.06-0.641,0.115-0.975,0.17
		c-0.336,0.053-0.674,0.085-1.018,0.096c-0.342,0.012-0.68-0.025-1.008-0.111s-0.641-0.24-0.938-0.463
		c-0.297-0.225-0.568-0.545-0.814-0.965c-0.221-0.379-0.361-0.76-0.416-1.146C20.988,17.85,21.01,17.471,21.111,17.1z"/>
	<rect id="_x3C_Slice_x3E__41_" fill="none" width="68.834" height="84.955"/>
</g>
<g id="Credit_Card">
</g>
</svg>
