<?xml version="1.0" encoding="utf-8"?>
<!-- Generator: Adobe Illustrator 16.0.3, SVG Export Plug-In . SVG Version: 6.00 Build 0)  -->
<!DOCTYPE svg PUBLIC "-//W3C//DTD SVG 1.1//EN" "http://www.w3.org/Graphics/SVG/1.1/DTD/svg11.dtd">
<svg version="1.1" id="Layer_1" xmlns="http://www.w3.org/2000/svg" xmlns:xlink="http://www.w3.org/1999/xlink" x="0px" y="0px"
	 width="84px" height="87px" viewBox="0 0 84 87" enable-background="new 0 0 84 87" xml:space="preserve">
<path fill="#97BBD5" d="M70.719,59.277c-0.16,0-0.315,0.014-0.47,0.023l-0.726,0.043l-27.09-27.545
	c-1.51-1.535-3.84-2.064-5.882-1.354l-1.979,0.688l4.842-14.43c0.567-1.693-0.027-4.293-1.273-5.563l-8.747-8.896
	c-0.886-0.902-2.502-1.508-4.021-1.508c-0.524,0-0.997,0.072-1.404,0.213l-5.244,1.822c-0.494,0.172-0.823,0.422-0.88,0.672
	c-0.06,0.252,0.133,0.635,0.502,1.008l5.637,5.713c2.375,2.428,2.369,6.367-0.01,8.785l-6.039,6.141
	c-1.157,1.176-2.698,1.822-4.338,1.822c-1.651,0-3.201-0.65-4.363-1.832l-5.612-5.711c-0.32-0.322-0.647-0.516-0.873-0.516
	c-0.258,0.053-0.523,0.314-0.729,0.912l-1.792,5.332c-0.567,1.699,0.025,4.301,1.271,5.563l8.756,8.896
	c0.883,0.9,2.495,1.504,4.014,1.504c0.521,0,0.989-0.072,1.396-0.211L29.9,35.91l-0.666,1.98c-0.712,2.117-0.188,4.482,1.334,6.029
	l27.083,27.543l-0.041,0.658c-0.012,0.176-0.025,0.354-0.025,0.531c0,7.375,5.89,13.373,13.129,13.373
	c7.242,0,13.134-5.998,13.134-13.373C83.848,65.279,77.958,59.277,70.719,59.277z M70.719,81.225c-4.658,0-8.449-3.846-8.449-8.572
	c0-2.297,0.878-4.447,2.472-6.055c1.588-1.621,3.712-2.518,5.978-2.518c4.657,0,8.444,3.846,8.444,8.572
	S75.376,81.225,70.719,81.225z"/>
<rect id="_x3C_Slice_x3E__153_" fill="none" width="84" height="87"/>
</svg>
