<?xml version="1.0" encoding="UTF-8" standalone="no"?>
<!-- Generator: Adobe Illustrator 15.0.2, SVG Export Plug-In . SVG Version: 6.00 Build 0)  -->

<svg
   xmlns:a="http://ns.adobe.com/AdobeSVGViewerExtensions/3.0/"
   xmlns:dc="http://purl.org/dc/elements/1.1/"
   xmlns:cc="http://creativecommons.org/ns#"
   xmlns:rdf="http://www.w3.org/1999/02/22-rdf-syntax-ns#"
   xmlns:svg="http://www.w3.org/2000/svg"
   xmlns="http://www.w3.org/2000/svg"
   xmlns:xlink="http://www.w3.org/1999/xlink"
   xmlns:sodipodi="http://sodipodi.sourceforge.net/DTD/sodipodi-0.dtd"
   xmlns:inkscape="http://www.inkscape.org/namespaces/inkscape"
   version="1.1"
   id="Layer_1"
   x="0px"
   y="0px"
   width="35.433071"
   height="35.433071"
   viewBox="0 0 35.433071 35.433071"
   enable-background="new 0 0 590.9702148 766.4414063"
   xml:space="preserve"
   inkscape:version="0.48.2 r9819"
   sodipodi:docname="red-e-vpn.svg"><metadata
   id="metadata50"><rdf:RDF><cc:Work
       rdf:about=""><dc:format>image/svg+xml</dc:format><dc:type
         rdf:resource="http://purl.org/dc/dcmitype/StillImage" /><dc:title /></cc:Work></rdf:RDF></metadata><defs
   id="defs48">
	
	
	
	<radialGradient
   gradientUnits="userSpaceOnUse"
   r="181.69044"
   cy="161.08984"
   cx="297.29346"
   id="SVGID_1_">
		<stop
   id="stop12"
   style="stop-color:#C62128"
   offset="0" />
		<stop
   id="stop14"
   style="stop-color:#750506"
   offset="1" />
		<a:midPointStop
   style="stop-color:#C62128"
   offset="0" />
		<a:midPointStop
   style="stop-color:#C62128"
   offset="0.5" />
		<a:midPointStop
   style="stop-color:#750506"
   offset="1" />
	</radialGradient>
	
	
	<radialGradient
   gradientUnits="userSpaceOnUse"
   r="175.25668"
   cy="412.4248"
   cx="140.34277"
   id="SVGID_2_">
		<stop
   id="stop21"
   style="stop-color:#C62128"
   offset="0" />
		<stop
   id="stop23"
   style="stop-color:#750506"
   offset="1" />
		<a:midPointStop
   style="stop-color:#C62128"
   offset="0" />
		<a:midPointStop
   style="stop-color:#C62128"
   offset="0.5" />
		<a:midPointStop
   style="stop-color:#750506"
   offset="1" />
	</radialGradient>
	
	
	
<radialGradient
   inkscape:collect="always"
   xlink:href="#SVGID_1_"
   id="radialGradient3074"
   gradientUnits="userSpaceOnUse"
   cx="297.29346"
   cy="161.08984"
   r="181.69044" /><radialGradient
   inkscape:collect="always"
   xlink:href="#SVGID_2_"
   id="radialGradient3076"
   gradientUnits="userSpaceOnUse"
   cx="140.34277"
   cy="412.4248"
   r="175.25668" /><radialGradient
   inkscape:collect="always"
   xlink:href="#SVGID_3_"
   id="radialGradient3078"
   gradientUnits="userSpaceOnUse"
   gradientTransform="matrix(1,0,0,1.0417,0,-2.3903389)"
   cx="399.50342"
   cy="391.82617"
   r="193.58957" /></defs><sodipodi:namedview
   pagecolor="#ffffff"
   bordercolor="#666666"
   borderopacity="1"
   objecttolerance="10"
   gridtolerance="10"
   guidetolerance="10"
   inkscape:pageopacity="0"
   inkscape:pageshadow="2"
   inkscape:window-width="1920"
   inkscape:window-height="1056"
   id="namedview46"
   showgrid="false"
   inkscape:document-units="mm"
   units="mm"
   inkscape:zoom="19.70666"
   inkscape:cx="19.178521"
   inkscape:cy="15.522969"
   inkscape:window-x="0"
   inkscape:window-y="24"
   inkscape:window-maximized="1"
   inkscape:current-layer="Layer_1" />
<g
   id="g3057"
   transform="matrix(1.3504235,0,0,1.3504235,-6.2962029,-5.2776012)"><path
     d="M 2.1956086,2.0278811"
     id="path7"
     inkscape:connector-curvature="0"
     style="fill:#a81218" /><path
     d="M 6.8287494,26.88578"
     id="path9"
     inkscape:connector-curvature="0"
     style="fill:#a81218" /><polygon
     transform="matrix(0.04717306,0,0,0.04717306,3.7424151,-0.84069238)"
     points="235.6084,210.17676 45.077148,168.24316 358.97314,112.00244 549.51025,153.93799 "
     id="polygon16"
     style="fill:url(#radialGradient3074)" /><polygon
     transform="matrix(0.04717306,0,0,0.04717306,3.7424151,-0.84069238)"
     points="235.6084,233.18604 233.21045,234.6416 233.21045,625.67285 230.31494,628.81738 235.6084,631.87402 549.8208,557.76465 549.51025,179.18799 "
     id="polygon18"
     style="fill:none" /><polygon
     transform="matrix(0.04717306,0,0,0.04717306,3.7424151,-0.84069238)"
     points="235.6084,641.23535 45.077148,598.0127 45.077148,183.61328 235.6084,226.14209 "
     id="polygon25"
     style="fill:url(#radialGradient3076)" /><g
     transform="matrix(0.04717306,0,0,0.04717306,3.7424151,-0.84069238)"
     id="g27">
		<g
   id="g29">
			<path
   stroke-miterlimit="10"
   d="m 110.88379,581.8584 c 5.7417,1.2998 8.61133,1.94922 14.34717,3.24512 -4.9e-4,-0.42676 0,-0.64063 -4.9e-4,-1.06739 -5.08838,-3.70508 -8.89893,-8.43359 -11.56738,-14.34765 -4.65967,-10.32618 -4.125,-22.93555 -4.19288,-34.00098 -0.0644,-10.50391 -0.51367,-24.83496 8.08594,-32.0459 7.88819,-6.61426 20.49512,-5.73242 30.24903,-3.36719 4.42773,0.96485 6.64111,1.44629 11.06543,2.40723 0.004,6.38184 0.006,9.57422 0.0107,15.96484 -3.03955,-0.66211 -4.55957,-0.99316 -7.60059,-1.65722 -20.50635,-5.10742 -27.1831,3.77734 -27.00586,23.69043 0.29444,33.10644 11.35889,47.08105 44.11328,54.16699 16.38575,3.70898 32.76953,7.42578 49.14698,11.1709 4.8e-4,6.35742 4.8e-4,9.54297 4.8e-4,15.93066 -35.52685,-8.2539 -71.08642,-16.36133 -106.64355,-24.4834 -0.003,-6.24609 -0.005,-9.36816 -0.008,-15.60644 z"
   id="path31"
   inkscape:connector-curvature="0"
   style="fill:#ffffff;stroke:#ffffff;stroke-miterlimit:10" />
			<path
   stroke-miterlimit="10"
   d="m 184.6001,372.21387 c 29.93652,6.88086 34.52441,34.80371 34.29297,61.63281 -0.14209,16.50781 2.70703,43.17969 -9.87159,55.60449 -11.08496,10.9502 -30.54882,7.09766 -44.38183,4.48145 -18.33106,-3.4668 -39.54785,-11.34766 -48.73389,-29.12305 -6.86865,-13.29102 -6.63672,-29.86133 -6.49902,-44.53711 0.1499,-15.98926 -2.45899,-42.26367 14.06348,-51.68164 13.35546,-7.6123 30.31396,-2.83691 44.53662,-0.1875 0.0254,36.49316 0.0483,72.98633 0.0723,109.47949 9.06348,1.90528 20.0376,3.35254 27.38819,-1.31933 11.25097,-7.15137 8.77636,-31.96289 8.72021,-44.15918 -0.0552,-11.94532 0.75684,-28.12696 -8.06055,-37.74317 -2.76806,-3.01855 -4.60351,-3.97265 -11.51806,-6.09082 -0.003,-6.54101 -0.005,-9.81152 -0.009,-16.35644 z m -31.11426,10.20312 c -28.49072,-6.69922 -29.27295,19.8877 -29.28711,41.54004 -0.0156,23.94824 3.76025,43.54395 29.35254,50.36133 -0.0229,-30.63379 -0.0449,-61.26758 -0.0654,-91.90137 z"
   id="path33"
   inkscape:connector-curvature="0"
   style="fill:#ffffff;stroke:#ffffff;stroke-miterlimit:10" />
			<path
   stroke-miterlimit="10"
   d="m 217.521,238.85791 c 0,6.24512 0,9.36035 0,15.58154 -5.44483,-1.16845 -8.16797,-1.75195 -13.61426,-2.92382 0,0.34472 0,0.5166 0,0.86132 15.7749,12.06348 15.00439,33.23096 14.98437,51.10645 -0.0161,14.33056 1.60108,34.1958 -7.81738,46.02978 -10.86768,13.65479 -31.77686,9.14795 -46.52783,6.24317 -18.35938,-3.61572 -39.29395,-11.28223 -48.72168,-28.81787 -8.09375,-15.0542 -6.52686,-34.74854 -6.71924,-51.34375 -0.15283,-13.19483 -1.375,-34.78223 14.27832,-40.21875 -4.9e-4,-0.43262 -4.9e-4,-0.64942 -9.8e-4,-1.08203 -19.93017,-4.34375 -39.858394,-8.69874 -59.784175,-13.06299 0,-6.20996 0,-9.31494 0,-15.52491 51.295405,11.10743 102.598145,22.17969 153.922855,33.15186 z m -87.15772,83.01465 c 7.06934,10.83154 22.18799,14.71289 34.1709,17.31933 31.29248,6.80616 39.98926,-5.69043 39.61621,-36.33593 -0.17041,-14.00782 1.23291,-31.13721 -6.46728,-43.20313 -6.70411,-10.50488 -20.88868,-14.45703 -32.53174,-16.93994 -32.89698,-7.01465 -41.32032,5.20508 -41.28321,37.44531 0.0151,13.33106 -1.02295,30.19532 6.49512,41.71436 z"
   id="path35"
   inkscape:connector-curvature="0"
   style="fill:#ffffff;stroke:#ffffff;stroke-miterlimit:10" />
		</g>
	</g><g
     transform="matrix(0.04717306,0,0,0.04717306,3.7424151,-0.84069238)"
     id="g37">
		
			<radialGradient
   id="SVGID_3_"
   cx="399.50342"
   cy="391.82617"
   r="193.58957"
   gradientTransform="matrix(1,0,0,1.0417,0,-2.3903389)"
   gradientUnits="userSpaceOnUse">
			<stop
   offset="0"
   style="stop-color:#C62128"
   id="stop40" />
			<stop
   offset="1"
   style="stop-color:#750506"
   id="stop42" />
			<a:midPointStop
   offset="0"
   style="stop-color:#C62128" />
			<a:midPointStop
   offset="0.5"
   style="stop-color:#C62128" />
			<a:midPointStop
   offset="1"
   style="stop-color:#750506" />
		</radialGradient>
		<path
   d="m 249.0708,224.20703 c 100.21191,-19.31055 200.6416,-37.46435 300.86426,-56.71533 0,27.18359 0,54.3667 0,81.55029 -80.04199,16.12061 -160.21973,31.55322 -240.31641,47.40039 -0.0117,27.70948 -0.0239,55.41944 -0.0332,83.12891 80.10547,-16.55664 160.2998,-32.68018 240.34961,-49.5083 0,27.31006 0,54.6206 0,81.93115 -80.0625,17.55664 -160.26953,34.44434 -240.38477,51.75586 -0.0117,27.35938 -0.023,54.71777 -0.0332,82.07715 80.125,-17.97168 160.34473,-35.51172 240.41797,-53.71387 0,27.00977 0.002,54.01856 0,81.02832 -100.22266,23.91895 -200.68604,46.8125 -300.86426,70.91602 0.005,-139.9502 0,-279.90039 0,-419.85059 z"
   id="path44"
   inkscape:connector-curvature="0"
   style="fill:url(#radialGradient3078)" />
	</g></g>
<g
   style="font-size:9.26757145px;font-style:normal;font-variant:normal;font-weight:normal;font-stretch:normal;line-height:125%;letter-spacing:0px;word-spacing:0px;fill:#cccccc;fill-opacity:1;stroke:#000000;stroke-width:0.18243249;stroke-miterlimit:4;stroke-opacity:1;font-family:Ubuntu;-inkscape-font-specification:Ubuntu"
   id="text3080"><path
     d="m 17.371414,34.315964 c -0.253316,-0.537519 -0.503541,-1.096662 -0.750674,-1.677431 -0.247137,-0.580765 -0.481915,-1.155354 -0.704335,-1.723768 -0.222423,-0.568407 -0.429398,-1.112104 -0.620927,-1.631093 -0.185352,-0.518978 -0.34599,-0.982356 -0.481914,-1.390135 l 1.594022,0 c 0.123566,0.370709 0.256401,0.772303 0.398506,1.204784 0.148279,0.426313 0.29656,0.852621 0.444843,1.278925 0.154457,0.426312 0.302738,0.834084 0.444844,1.223319 0.142099,0.389241 0.274934,0.725962 0.398505,1.010166 0.117386,-0.284204 0.247132,-0.620925 0.389238,-1.010166 0.148277,-0.389235 0.296558,-0.797007 0.444844,-1.223319 0.154455,-0.426304 0.302736,-0.852612 0.444843,-1.278925 0.148276,-0.432481 0.284201,-0.834075 0.407773,-1.204784 l 1.538417,0 c -0.142109,0.407779 -0.305836,0.871157 -0.491181,1.390135 -0.185358,0.518989 -0.389244,1.062686 -0.61166,1.631093 -0.222427,0.568414 -0.457205,1.143003 -0.704335,1.723768 -0.24714,0.580769 -0.497364,1.139912 -0.750674,1.677431 l -1.390135,0"
     style="font-weight:bold;-inkscape-font-specification:Ubuntu Bold"
     id="path3009" /><path
     d="m 24.087217,27.819396 c 0.957646,7e-6 1.692872,0.169912 2.205682,0.509717 0.5128,0.333638 0.769203,0.883513 0.769209,1.649627 -6e-6,0.772301 -0.259498,1.331444 -0.778476,1.677431 -0.518989,0.339813 -1.260394,0.509718 -2.224218,0.509716 l -0.454111,0 0,2.150077 -1.445741,0 0,-6.329752 c 0.315097,-0.06178 0.648729,-0.105026 1.000898,-0.129746 0.352166,-0.02471 0.661084,-0.03706 0.926757,-0.03707 m 0.09268,1.232587 c -0.105035,5e-6 -0.210068,0.0031 -0.315098,0.0093 -0.09886,0.0062 -0.185353,0.01236 -0.259492,0.01853 l 0,1.853514 0.454111,0 c 0.500446,4e-6 0.877327,-0.06796 1.130644,-0.203886 0.25331,-0.135921 0.379966,-0.389234 0.379971,-0.759941 -5e-6,-0.179169 -0.03399,-0.32745 -0.101944,-0.444844 -0.06179,-0.117384 -0.154463,-0.21006 -0.278027,-0.278027 -0.117393,-0.07413 -0.262584,-0.123562 -0.435576,-0.148281 -0.172997,-0.03089 -0.364527,-0.04633 -0.574589,-0.04634"
     style="font-weight:bold;-inkscape-font-specification:Ubuntu Bold"
     id="path3011" /><path
     d="m 32.442222,34.315964 c -0.413956,-0.735227 -0.861888,-1.461186 -1.343798,-2.17788 -0.481917,-0.716689 -0.994722,-1.393221 -1.538417,-2.029598 l 0,4.207478 -1.427206,0 0,-6.422427 1.176982,0 c 0.203884,0.203893 0.429395,0.454117 0.676533,0.750673 0.247132,0.296568 0.497356,0.614754 0.750673,0.95456 0.259488,0.333637 0.515891,0.682715 0.769208,1.047235 0.25331,0.35835 0.491177,0.704339 0.713603,1.037968 l 0,-3.790436 1.436474,0 0,6.422427 -1.214052,0"
     style="font-weight:bold;-inkscape-font-specification:Ubuntu Bold"
     id="path3013" /></g>
</svg>