<?xml version="1.0" encoding="UTF-8" standalone="no"?>
<!-- Generator: Adobe Illustrator 15.1.0, SVG Export Plug-In . SVG Version: 6.00 Build 0)  -->

<svg
   xmlns:dc="http://purl.org/dc/elements/1.1/"
   xmlns:cc="http://creativecommons.org/ns#"
   xmlns:rdf="http://www.w3.org/1999/02/22-rdf-syntax-ns#"
   xmlns:svg="http://www.w3.org/2000/svg"
   xmlns="http://www.w3.org/2000/svg"
   xmlns:sodipodi="http://sodipodi.sourceforge.net/DTD/sodipodi-0.dtd"
   xmlns:inkscape="http://www.inkscape.org/namespaces/inkscape"
   version="1.0"
   x="0px"
   y="0px"
   width="150"
   height="150"
   viewBox="0 0 150 150"
   enable-background="new 0 0 540 122.523"
   xml:space="preserve"
   id="svg2"
   inkscape:version="0.48.3.1 r9886"
   sodipodi:docname="icon.svg"><metadata
   id="metadata38"><rdf:RDF><cc:Work
       rdf:about=""><dc:format>image/svg+xml</dc:format><dc:type
         rdf:resource="http://purl.org/dc/dcmitype/StillImage" /><dc:title></dc:title></cc:Work></rdf:RDF></metadata><defs
   id="defs36">
	
</defs><sodipodi:namedview
   pagecolor="#ffffff"
   bordercolor="#666666"
   borderopacity="1"
   objecttolerance="10"
   gridtolerance="10"
   guidetolerance="10"
   inkscape:pageopacity="0"
   inkscape:pageshadow="2"
   inkscape:window-width="1920"
   inkscape:window-height="899"
   id="namedview34"
   showgrid="false"
   inkscape:zoom="2.4592593"
   inkscape:cx="154.52984"
   inkscape:cy="48.687647"
   inkscape:window-x="0"
   inkscape:window-y="27"
   inkscape:window-maximized="1"
   inkscape:current-layer="g3797" />
<g
   id="Layer_1"
   transform="translate(0,27.476997)">
</g>
<g
   id="g6"
   transform="translate(0,27.476997)">
		
		
		
		
		
		
		
		<g
   id="g3797"
   transform="matrix(1.1227924,0,0,1.1227924,7.7257043,-21.957832)"><g
     id="g22">
			<path
   d="m 8.708,61.26 c 0,20.802 12.089,38.779 29.619,47.298 L 13.258,39.872 c -2.916,6.536 -4.55,13.769 -4.55,21.388 z"
   id="path24"
   inkscape:connector-curvature="0"
   style="fill:#ffffff;fill-opacity:1" />
			<path
   d="m 96.74,58.608 c 0,-6.495 -2.333,-10.993 -4.334,-14.494 -2.664,-4.329 -5.161,-7.995 -5.161,-12.324 0,-4.831 3.664,-9.328 8.825,-9.328 0.233,0 0.454,0.029 0.681,0.042 C 87.401,13.938 74.944,8.708 61.262,8.708 c -18.36,0 -34.513,9.42 -43.91,23.688 1.233,0.037 2.395,0.063 3.382,0.063 5.497,0 14.006,-0.667 14.006,-0.667 2.833,-0.167 3.167,3.994 0.337,4.329 0,0 -2.847,0.335 -6.015,0.501 L 48.2,93.547 59.701,59.054 51.513,36.62 c -2.83,-0.166 -5.511,-0.501 -5.511,-0.501 -2.832,-0.166 -2.5,-4.496 0.332,-4.329 0,0 8.679,0.667 13.843,0.667 5.496,0 14.006,-0.667 14.006,-0.667 2.835,-0.167 3.168,3.994 0.337,4.329 0,0 -2.853,0.335 -6.015,0.501 l 18.992,56.494 5.242,-17.517 c 2.272,-7.269 4.001,-12.49 4.001,-16.989 z"
   id="path26"
   inkscape:connector-curvature="0"
   style="fill:#ffffff;fill-opacity:1" />
			<path
   d="m 62.184,65.857 -15.768,45.819 c 4.708,1.384 9.687,2.141 14.846,2.141 6.12,0 11.989,-1.058 17.452,-2.979 -0.141,-0.225 -0.269,-0.464 -0.374,-0.724 L 62.184,65.857 z"
   id="path28"
   inkscape:connector-curvature="0"
   style="fill:#ffffff;fill-opacity:1" />
			<path
   d="m 107.376,36.046 c 0.226,1.674 0.354,3.471 0.354,5.404 0,5.333 -0.996,11.328 -3.996,18.824 l -16.053,46.413 c 15.624,-9.111 26.133,-26.038 26.133,-45.426 0.001,-9.137 -2.333,-17.729 -6.438,-25.215 z"
   id="path30"
   inkscape:connector-curvature="0"
   style="fill:#ffffff;fill-opacity:1" />
			<path
   d="M 61.262,0 C 27.483,0 0,27.481 0,61.26 c 0,33.783 27.483,61.263 61.262,61.263 33.778,0 61.265,-27.48 61.265,-61.263 C 122.526,27.481 95.04,0 61.262,0 z m 0,119.715 c -32.23,0 -58.453,-26.223 -58.453,-58.455 0,-32.23 26.222,-58.451 58.453,-58.451 32.229,0 58.45,26.221 58.45,58.451 0,32.232 -26.221,58.455 -58.45,58.455 z"
   id="path32"
   inkscape:connector-curvature="0"
   style="fill:#ffffff;fill-opacity:1" />
		</g></g>
	</g>
</svg>