<?xml version="1.0" encoding="utf-8"?>
<!-- Generator: Adobe Illustrator 16.0.3, SVG Export Plug-In . SVG Version: 6.00 Build 0)  -->
<!DOCTYPE svg PUBLIC "-//W3C//DTD SVG 1.1//EN" "http://www.w3.org/Graphics/SVG/1.1/DTD/svg11.dtd">
<svg version="1.1" id="Layer_1" xmlns="http://www.w3.org/2000/svg" xmlns:xlink="http://www.w3.org/1999/xlink" x="0px" y="0px"
	 width="84px" height="86px" viewBox="0 0 84 86" enable-background="new 0 0 84 86" xml:space="preserve">
<path fill="#97BBD5" d="M42.135,85.765c22.827,0,41.333-19.066,41.333-42.583c0-23.519-18.506-42.583-41.333-42.583
	S0.802,19.663,0.802,43.182C0.802,66.698,19.308,85.765,42.135,85.765z M42.135,7.252c19.229,0,34.875,16.116,34.875,35.93
	c0,19.81-15.646,35.93-34.875,35.93S7.26,62.991,7.26,43.182C7.26,23.368,22.905,7.252,42.135,7.252z"/>
<polygon fill="#97BBD5" points="35.518,65.905 48.752,65.905 48.752,49.999 64.192,49.999 64.192,36.364 48.752,36.364 
	48.752,20.456 35.518,20.456 35.518,36.364 20.077,36.364 20.077,49.999 35.518,49.999 "/>
<rect id="_x3C_Slice_x3E__74_" fill="none" width="84" height="86"/>
</svg>
