<?xml version="1.0" encoding="utf-8"?>
<!-- Generator: Adobe Illustrator 16.0.3, SVG Export Plug-In . SVG Version: 6.00 Build 0)  -->
<!DOCTYPE svg PUBLIC "-//W3C//DTD SVG 1.1//EN" "http://www.w3.org/Graphics/SVG/1.1/DTD/svg11.dtd">
<svg version="1.1" id="Layer_1" xmlns="http://www.w3.org/2000/svg" xmlns:xlink="http://www.w3.org/1999/xlink" x="0px" y="0px"
	 width="85px" height="86px" viewBox="0 0 85 86" enable-background="new 0 0 85 86" xml:space="preserve">
<path fill="#97BBD5" d="M30.314,85.408h25.231V55.713h29.438V30.258H55.545V0.559H30.314v29.699H0.875v25.455h29.438V85.408z
	 M54.121,36.141c0-0.576,0.167-1.035,0.497-1.365c0.328-0.328,0.762-0.496,1.286-0.496h2.229c0.434,0,0.815,0.037,1.135,0.111
	c0.35,0.078,0.66,0.215,0.922,0.406c0.266,0.193,0.488,0.449,0.66,0.756c0.156,0.279,0.293,0.621,0.408,1.021l3.182,8.76l3.31-8.773
	c0.11-0.359,0.246-0.699,0.396-0.979c0.162-0.303,0.356-0.557,0.578-0.75c0.232-0.205,0.512-0.354,0.828-0.438
	c0.283-0.076,0.609-0.115,0.973-0.115h2.295c0.289,0,0.549,0.041,0.771,0.121c0.242,0.088,0.449,0.221,0.611,0.396
	c0.157,0.168,0.276,0.373,0.354,0.609c0.073,0.219,0.11,0.467,0.11,0.734v14.945c0,0.186-0.055,0.365-0.159,0.516
	c-0.11,0.16-0.281,0.279-0.509,0.357c-0.159,0.057-0.355,0.098-0.6,0.129c-0.225,0.027-0.508,0.041-0.853,0.041
	c-0.336,0-0.616-0.014-0.84-0.041c-0.246-0.031-0.442-0.074-0.6-0.131c-0.212-0.074-0.378-0.189-0.489-0.338
	c-0.117-0.154-0.179-0.34-0.179-0.533v-10.83L66.524,51.24c-0.054,0.176-0.156,0.342-0.297,0.475
	c-0.133,0.125-0.303,0.221-0.508,0.287c-0.176,0.057-0.384,0.092-0.634,0.107c-0.437,0.027-1.148,0.031-1.586-0.014
	c-0.249-0.027-0.454-0.068-0.628-0.131c-0.198-0.07-0.355-0.16-0.482-0.273c-0.15-0.131-0.254-0.297-0.306-0.488l-3.735-10.852
	v10.734c0,0.186-0.055,0.365-0.159,0.516c-0.111,0.162-0.286,0.283-0.521,0.359c-0.152,0.053-0.352,0.096-0.594,0.127
	c-0.433,0.055-1.232,0.055-1.687,0c-0.245-0.031-0.441-0.072-0.601-0.129c-0.228-0.078-0.399-0.199-0.509-0.357
	c-0.103-0.148-0.158-0.328-0.158-0.516V36.141z M38.518,35.855c0-0.529,0.156-0.934,0.463-1.201c0.287-0.248,0.64-0.375,1.047-0.375
	h8.373c0.182,0,0.354,0.055,0.498,0.158c0.142,0.102,0.249,0.248,0.33,0.447c0.059,0.148,0.102,0.324,0.129,0.537
	c0.023,0.188,0.036,0.422,0.036,0.705c0,0.268-0.013,0.494-0.036,0.68c-0.028,0.217-0.071,0.393-0.131,0.537
	c-0.078,0.184-0.182,0.328-0.311,0.43c-0.148,0.115-0.326,0.176-0.516,0.176h-5.487v3.096h4.567c0.184,0,0.359,0.059,0.509,0.168
	c0.139,0.104,0.247,0.244,0.325,0.424c0.063,0.146,0.107,0.32,0.135,0.537c0.024,0.188,0.037,0.414,0.037,0.682
	c0,0.277-0.013,0.506-0.037,0.686c-0.027,0.215-0.072,0.389-0.133,0.529c-0.084,0.189-0.199,0.334-0.344,0.432
	c-0.146,0.098-0.316,0.148-0.492,0.148h-4.567v3.732h5.54c0.183,0,0.358,0.057,0.508,0.166c0.141,0.104,0.252,0.252,0.33,0.439
	c0.06,0.145,0.104,0.32,0.131,0.535c0.023,0.189,0.037,0.418,0.037,0.693s-0.014,0.506-0.037,0.691
	c-0.027,0.219-0.071,0.395-0.133,0.539c-0.076,0.186-0.187,0.334-0.326,0.436c-0.151,0.111-0.327,0.17-0.51,0.17h-8.426
	c-0.406,0-0.76-0.127-1.047-0.375c-0.307-0.268-0.463-0.672-0.463-1.201V35.855z M17.411,51.086c0,0.201-0.068,0.391-0.197,0.549
	c-0.115,0.143-0.287,0.254-0.509,0.326c-0.161,0.055-0.363,0.096-0.616,0.127c-0.231,0.027-0.527,0.041-0.889,0.041
	c-0.352,0-0.646-0.014-0.882-0.041c-0.257-0.031-0.461-0.072-0.625-0.127c-0.22-0.072-0.392-0.184-0.509-0.328
	c-0.127-0.156-0.195-0.346-0.195-0.547v-15.84c0-0.201,0.068-0.391,0.197-0.549c0.117-0.146,0.287-0.254,0.518-0.328
	c0.16-0.051,0.365-0.094,0.619-0.125c0.471-0.057,1.307-0.055,1.766,0c0.258,0.031,0.463,0.074,0.617,0.125
	c0.225,0.076,0.391,0.184,0.51,0.33c0.127,0.156,0.195,0.346,0.195,0.547V51.086z M30.174,38.066v13.02
	c0,0.201-0.067,0.391-0.196,0.549c-0.117,0.145-0.288,0.254-0.509,0.326c-0.162,0.055-0.366,0.096-0.623,0.127
	c-0.236,0.027-0.53,0.041-0.883,0.041c-0.352,0-0.645-0.014-0.881-0.041c-0.257-0.031-0.461-0.072-0.625-0.127
	c-0.22-0.072-0.392-0.184-0.509-0.328c-0.128-0.156-0.196-0.346-0.196-0.547v-13.02h-3.699c-0.206,0-0.395-0.068-0.546-0.199
	c-0.123-0.105-0.222-0.252-0.294-0.434c-0.06-0.148-0.102-0.328-0.129-0.551c-0.023-0.195-0.036-0.43-0.036-0.703
	c0-0.281,0.013-0.523,0.036-0.721c0.026-0.227,0.068-0.41,0.129-0.561c0.075-0.189,0.18-0.338,0.313-0.441
	c0.146-0.115,0.33-0.178,0.527-0.178h11.821c0.183,0,0.358,0.059,0.509,0.168c0.141,0.104,0.252,0.256,0.331,0.451
	c0.06,0.15,0.103,0.334,0.13,0.561c0.023,0.197,0.035,0.439,0.035,0.721c0,0.273-0.012,0.508-0.035,0.701
	c-0.027,0.225-0.07,0.404-0.129,0.553c-0.076,0.189-0.182,0.34-0.313,0.445c-0.155,0.123-0.337,0.188-0.527,0.188H30.174z"/>
<rect id="_x3C_Slice_x3E__113_" fill="none" width="85" height="86"/>
</svg>
