<?xml version="1.0" encoding="utf-8"?>
<!-- Generator: Adobe Illustrator 16.0.3, SVG Export Plug-In . SVG Version: 6.00 Build 0)  -->
<!DOCTYPE svg PUBLIC "-//W3C//DTD SVG 1.1//EN" "http://www.w3.org/Graphics/SVG/1.1/DTD/svg11.dtd" [
	<!ENTITY ns_flows "http://ns.adobe.com/Flows/1.0/">
	<!ENTITY ns_extend "http://ns.adobe.com/Extensibility/1.0/">
	<!ENTITY ns_ai "http://ns.adobe.com/AdobeIllustrator/10.0/">
	<!ENTITY ns_graphs "http://ns.adobe.com/Graphs/1.0/">
]>
<svg version="1.1" id="Layer_1" xmlns:x="&ns_extend;" xmlns:i="&ns_ai;" xmlns:graph="&ns_graphs;"
	 xmlns="http://www.w3.org/2000/svg" xmlns:xlink="http://www.w3.org/1999/xlink" xmlns:a="http://ns.adobe.com/AdobeSVGViewerExtensions/3.0/"
	 x="0px" y="0px" width="66.645px" height="85.018px" viewBox="0 0 66.645 85.018" enable-background="new 0 0 66.645 85.018"
	 xml:space="preserve">
<g id="Download_-_Orange">
</g>
<g id="Icon_2_-_Comments1">
</g>
<g id="Comments_-_Grey">
</g>
<g id="Go_to_Web">
</g>
<g id="Notepad">
</g>
<g id="Checklist">
</g>
<g id="Loading_3">
</g>
<g id="Print">
</g>
<g id="Tools">
</g>
<g id="Plus">
	<g>
		<path fill="#3385AD" d="M63.645,19.523c0-1.248-1.104-2.26-2.467-2.26H50.322C47.592,7.132,41.123-0.011,33.594-0.011
			c-7.531,0-14,7.143-16.73,17.274H5.496c-1.361,0-2.465,1.012-2.465,2.26L0.029,82.769c0,1.247,1.104,2.259,2.467,2.259h61.682
			c1.363,0,2.467-1.012,2.467-2.259L63.645,19.523z M53.953,26.396c0,1.597-0.943,2.964-2.295,3.605
			c0.029-0.66,0.051-1.326,0.051-1.998c0-1.824-0.117-3.607-0.334-5.335C52.879,23.244,53.953,24.69,53.953,26.396z M48.709,28.004
			c0,0.727-0.023,1.445-0.061,2.156c-1.564-0.543-2.695-2.014-2.695-3.764c0-1.645,0.994-3.056,2.414-3.67
			C48.588,24.429,48.709,26.193,48.709,28.004z M33.594,2.989c6.012,0,11.215,5.842,13.648,14.274H19.943
			C22.377,8.831,27.58,2.989,33.594,2.989z M18.783,22.984c1.156,0.701,1.938,1.961,1.938,3.412c0,1.556-0.896,2.889-2.193,3.551
			c-0.029-0.643-0.051-1.289-0.051-1.943C18.477,26.285,18.582,24.607,18.783,22.984z M12.721,26.396
			c0-1.901,1.33-3.486,3.109-3.893c-0.23,1.779-0.354,3.617-0.354,5.5c0,0.739,0.025,1.469,0.061,2.194
			C13.91,29.691,12.721,28.19,12.721,26.396z M20.926,71.702c0,0.163-0.053,0.31-0.158,0.439s-0.281,0.235-0.525,0.316
			c-0.242,0.082-0.568,0.146-0.975,0.195s-0.926,0.072-1.559,0.072c-0.617,0-1.133-0.023-1.549-0.072
			c-0.414-0.049-0.742-0.113-0.986-0.195c-0.244-0.081-0.418-0.187-0.523-0.316s-0.158-0.276-0.158-0.439V41.921
			c0-0.162,0.053-0.309,0.158-0.438s0.283-0.235,0.535-0.317c0.252-0.08,0.582-0.146,0.988-0.194
			c0.404-0.049,0.918-0.073,1.535-0.073c0.633,0,1.152,0.024,1.559,0.073s0.732,0.114,0.975,0.194
			c0.244,0.082,0.42,0.188,0.525,0.317s0.158,0.276,0.158,0.438V71.702z M52.863,63.771c-0.756,2.055-1.84,3.732-3.254,5.032
			c-1.412,1.3-3.131,2.254-5.154,2.863c-2.021,0.609-4.432,0.914-7.225,0.914h-7.531c-0.537,0-0.986-0.158-1.354-0.476
			c-0.365-0.316-0.547-0.832-0.547-1.547V43.066c0-0.714,0.182-1.23,0.547-1.548c0.367-0.316,0.816-0.475,1.354-0.475h8.092
			c2.811,0,5.193,0.329,7.152,0.986c1.957,0.658,3.607,1.633,4.947,2.926c1.34,1.291,2.359,2.887,3.059,4.788
			s1.049,4.103,1.049,6.604C53.998,59.241,53.619,61.715,52.863,63.771z"/>
		<path fill="#3385AD" d="M45.162,49.062c-0.771-0.941-1.762-1.678-2.973-2.205s-2.799-0.792-4.766-0.792h-3.24v21.446h3.338
			c1.756,0,3.234-0.227,4.436-0.682c1.203-0.455,2.207-1.143,3.01-2.061c0.805-0.917,1.406-2.059,1.805-3.424
			s0.598-2.957,0.598-4.776c0-1.495-0.176-2.884-0.525-4.167S45.934,50.005,45.162,49.062z"/>
	</g>
	<rect id="_x3C_Slice_x3E__43_" fill="none" width="66.645" height="85.018"/>
</g>
<g id="Credit_Card">
</g>
</svg>
