<?xml version="1.0" encoding="utf-8"?>
<!-- Generator: Adobe Illustrator 16.0.3, SVG Export Plug-In . SVG Version: 6.00 Build 0)  -->
<!DOCTYPE svg PUBLIC "-//W3C//DTD SVG 1.1//EN" "http://www.w3.org/Graphics/SVG/1.1/DTD/svg11.dtd">
<svg version="1.1" id="Layer_1" xmlns="http://www.w3.org/2000/svg" xmlns:xlink="http://www.w3.org/1999/xlink" x="0px" y="0px"
	 width="83px" height="51px" viewBox="0 0 83 51" enable-background="new 0 0 83 51" xml:space="preserve">
<g>
	<g>
		<path fill="#97BBD5" d="M41.156,12.084c-7.446,0-13.482,6.037-13.482,13.482s6.036,13.482,13.482,13.482
			c7.445,0,13.482-6.037,13.482-13.482S48.602,12.084,41.156,12.084z M45.857,30.969c-0.238,0.541-0.578,1.006-1.017,1.396
			c-0.438,0.393-0.968,0.707-1.585,0.939c-0.619,0.236-1.304,0.385-2.056,0.447l-0.246,2.514c-0.008,0.061-0.025,0.115-0.054,0.164
			c-0.026,0.045-0.077,0.084-0.151,0.117c-0.075,0.031-0.177,0.057-0.306,0.076s-0.292,0.029-0.486,0.029
			c-0.252,0-0.453-0.012-0.605-0.035s-0.272-0.057-0.358-0.1c-0.087-0.043-0.143-0.1-0.17-0.17c-0.027-0.072-0.034-0.15-0.018-0.234
			l0.246-2.385c-0.337-0.047-0.653-0.107-0.951-0.182c-0.297-0.074-0.567-0.156-0.81-0.246s-0.452-0.184-0.629-0.275
			c-0.176-0.096-0.309-0.188-0.398-0.277s-0.155-0.223-0.194-0.398c-0.039-0.178-0.058-0.438-0.058-0.783
			c0-0.266,0.007-0.484,0.022-0.656c0.017-0.172,0.043-0.305,0.082-0.398c0.04-0.094,0.089-0.16,0.147-0.195
			c0.059-0.033,0.127-0.053,0.205-0.053c0.102,0,0.251,0.061,0.446,0.178s0.446,0.246,0.751,0.387
			c0.306,0.141,0.676,0.271,1.11,0.387c0.434,0.119,0.945,0.178,1.532,0.178c0.916,0,1.597-0.172,2.042-0.512
			c0.446-0.34,0.67-0.793,0.67-1.355c0-0.377-0.096-0.686-0.288-0.928c-0.191-0.244-0.447-0.455-0.769-0.641
			c-0.321-0.184-0.684-0.348-1.085-0.492c-0.404-0.145-0.816-0.301-1.24-0.465c-0.423-0.164-0.836-0.355-1.238-0.574
			c-0.402-0.221-0.765-0.49-1.086-0.811s-0.577-0.711-0.77-1.168c-0.191-0.459-0.287-1.012-0.287-1.662
			c0-0.588,0.098-1.121,0.294-1.604c0.195-0.48,0.477-0.9,0.845-1.262c0.367-0.359,0.82-0.652,1.356-0.875
			c0.535-0.223,1.144-0.373,1.825-0.451l0.235-2.361c0.008-0.063,0.026-0.115,0.052-0.158c0.028-0.043,0.079-0.082,0.154-0.117
			c0.074-0.035,0.174-0.061,0.299-0.076s0.289-0.023,0.492-0.023c0.243,0,0.445,0.012,0.605,0.035s0.284,0.057,0.37,0.1
			c0.085,0.043,0.141,0.1,0.165,0.17c0.022,0.07,0.034,0.15,0.034,0.236l-0.235,2.219c0.22,0.031,0.451,0.074,0.693,0.129
			c0.243,0.055,0.471,0.119,0.682,0.193s0.403,0.154,0.575,0.234c0.171,0.082,0.291,0.158,0.358,0.225
			c0.066,0.066,0.117,0.133,0.152,0.199s0.063,0.148,0.082,0.246s0.033,0.215,0.041,0.352c0.008,0.139,0.012,0.297,0.012,0.477
			c0,0.242-0.006,0.441-0.018,0.6c-0.012,0.156-0.033,0.275-0.064,0.357s-0.066,0.137-0.105,0.164s-0.086,0.041-0.141,0.041
			c-0.103,0-0.252-0.051-0.447-0.152s-0.436-0.211-0.722-0.328c-0.286-0.119-0.615-0.229-0.986-0.33
			c-0.372-0.102-0.78-0.152-1.228-0.152c-0.407,0-0.755,0.039-1.044,0.117c-0.29,0.078-0.525,0.189-0.705,0.328
			c-0.181,0.143-0.313,0.311-0.399,0.506s-0.129,0.412-0.129,0.646c0,0.367,0.098,0.676,0.294,0.928
			c0.195,0.25,0.455,0.465,0.78,0.645c0.324,0.182,0.692,0.346,1.104,0.494s0.829,0.305,1.257,0.469
			c0.427,0.164,0.846,0.355,1.256,0.57c0.411,0.215,0.777,0.48,1.099,0.799c0.32,0.316,0.58,0.699,0.775,1.15
			c0.195,0.449,0.293,0.992,0.293,1.625C46.215,29.822,46.096,30.43,45.857,30.969z"/>
		<path fill="#97BBD5" d="M69.477,5.887L69.477,5.887H13.751l0,0c0,4.068-3.299,7.365-7.366,7.365l0,0v25.021l0,0
			c4.067,0,7.365,3.299,7.366,7.367h55.726c0-4.068,3.299-7.367,7.367-7.367V13.252C72.775,13.252,69.477,9.955,69.477,5.887z
			 M41.156,40.797c-8.412,0-15.23-6.818-15.23-15.23s6.818-15.23,15.23-15.23s15.23,6.818,15.23,15.23S49.568,40.797,41.156,40.797z
			"/>
	</g>
	<g>
		<path fill="#97BBD5" d="M82.498,0.74H0.96c-0.271,0-0.501,0.324-0.501,0.707v48.336c0,0.381,0.23,0.707,0.501,0.707h81.538
			c0.271,0,0.502-0.326,0.502-0.707V1.447C83,1.064,82.77,0.74,82.498,0.74z M79.941,46.842c0,0.715-0.514,1.297-1.145,1.297H4.505
			c-0.632,0-1.146-0.582-1.146-1.297V4.389c0-0.715,0.514-1.299,1.146-1.299h74.292c0.631,0,1.145,0.584,1.145,1.299V46.842z"/>
	</g>
</g>
<rect id="_x3C_Slice_x3E__159_" fill="none" width="83" height="51"/>
</svg>
