<?xml version="1.0" encoding="utf-8"?>
<!-- Generator: Adobe Illustrator 16.0.3, SVG Export Plug-In . SVG Version: 6.00 Build 0)  -->
<!DOCTYPE svg PUBLIC "-//W3C//DTD SVG 1.1//EN" "http://www.w3.org/Graphics/SVG/1.1/DTD/svg11.dtd">
<svg version="1.1" id="Layer_1" xmlns="http://www.w3.org/2000/svg" xmlns:xlink="http://www.w3.org/1999/xlink" x="0px" y="0px"
	 width="81.998px" height="79.852px" viewBox="0 0 81.998 79.852" enable-background="new 0 0 81.998 79.852" xml:space="preserve">
<path fill="#97BBD5" d="M57.924,24.369H24.076c-1.566,0-2.834,1.133-2.834,2.529v0.592c0,1.398,1.268,2.529,2.834,2.529h33.848
	c1.564,0,2.834-1.131,2.834-2.529v-0.592C60.758,25.502,59.488,24.369,57.924,24.369z"/>
<path fill="#97BBD5" d="M57.924,34.85H24.076c-1.566,0-2.834,1.131-2.834,2.529v0.592c0,1.398,1.268,2.529,2.834,2.529h33.848
	c1.564,0,2.834-1.131,2.834-2.529v-0.592C60.758,35.98,59.488,34.85,57.924,34.85z"/>
<path fill="#97BBD5" d="M57.924,44.967H24.076c-1.566,0-2.834,1.133-2.834,2.529v0.594c0,1.396,1.268,2.529,2.834,2.529h33.848
	c1.564,0,2.834-1.133,2.834-2.529v-0.594C60.758,46.1,59.488,44.967,57.924,44.967z"/>
<path fill="#97BBD5" d="M81.998,37.035C81.998,16.613,63.607,0,41,0S0,16.613,0,37.035c0,21.039,15.967,36.904,37.139,36.904
	c0.418,0,0.848-0.006,1.275-0.021c1.955-0.057,3.932-0.332,5.844-0.598c1.873-0.262,3.641-0.508,5.367-0.561l0.127-0.004
	l0.123,0.027l31.299,7.068l-7.379-20.598l0.354-0.438C79.283,52.455,81.998,44.922,81.998,37.035z M69.404,68.727l-19.057-4.303
	l-0.912,0.033c-2.092,0.059-4.1,0.338-6.041,0.609c-1.736,0.244-3.535,0.5-5.162,0.545C20.639,66.158,7.188,53.682,7.188,37.035
	C7.188,21.195,22.355,8.311,41,8.311c18.643,0,33.811,12.885,33.811,28.725c0,7.262-3.217,12.771-5.914,16.117l-3.508,4.344
	L69.404,68.727z"/>
<rect id="_x3C_Slice_x3E__130_" fill="none" width="81.998" height="79.852"/>
</svg>
