<?xml version="1.0" encoding="utf-8"?>
<!-- Generator: Adobe Illustrator 16.0.3, SVG Export Plug-In . SVG Version: 6.00 Build 0)  -->
<!DOCTYPE svg PUBLIC "-//W3C//DTD SVG 1.1//EN" "http://www.w3.org/Graphics/SVG/1.1/DTD/svg11.dtd">
<svg version="1.1" id="Layer_1" xmlns="http://www.w3.org/2000/svg" xmlns:xlink="http://www.w3.org/1999/xlink" x="0px" y="0px"
	 width="84px" height="86px" viewBox="0 0 84 86" enable-background="new 0 0 84 86" xml:space="preserve">
<path fill="#97BBD5" d="M0.212,44.483c0.006,4.095-0.002,8.189,0.004,12.285c-0.004,1.041,0.368,2.086,1.074,2.816
	c0.666,0.713,1.604,1.113,2.545,1.117c2.859,0.006,5.719,0,8.578,0.002c-0.006,0.862,0.031,1.781,0.216,2.626
	c0.093,0.364,0.219,0.717,0.341,1.072c0.966,2.456,3.389,4.168,5.893,4.13c3.026,0.038,6.053,0.003,9.079,0.02
	c0.163-0.008,0.362,0.029,0.475-0.13c1.079-1.168,2.191-2.303,3.247-3.492c-4.234-0.007-8.467,0.002-12.7-0.003
	c-1.042,0.021-2.075-0.556-2.644-1.49c-0.371-0.579-0.537-1.284-0.529-1.979c0.002-1.454-0.007-2.909,0.005-4.363
	c-0.134-0.001-0.27-0.001-0.403-0.001L3.825,57.078c-0.158-0.003-0.249-0.152-0.227-0.31c-0.02-4.27,0.027-8.539-0.022-12.807
	l-0.003-0.775c0.05-1.621,0.012-3.242,0.023-4.861c0.018-1.108-0.069-2.23,0.142-3.324c0.368-2.028,1.475-3.883,3.021-5.119
	c1.289-1.039,2.884-1.648,4.502-1.686c4.085-0.006,8.174-0.006,12.263-0.011v0.001l0.085-0.001c0.001,0,0.003,0,0.005,0l4.301-0.008
	c1.273,0.036,2.547,0.007,3.82,0.017c5.627,0,11.254,0,16.883,0c1.988,0.011,3.949,0.894,5.369,2.376
	c1.039,1.151,1.904,2.635,2.219,4.206c0.277,1.229,0.162,2.5,0.191,3.752c1.104-1.157,2.195-2.33,3.283-3.503
	c-0.326-2.618-1.539-5.171-3.29-7.037c-1.646-1.682-3.747-2.866-6.001-3.253c-1.195-0.232-2.414-0.154-3.623-0.168
	c-7.367-0.008-14.668,0.016-22.035-0.011h-0.068l-1.318,0.011c-4.029,0.002-8.062-0.004-12.092,0.004
	c-3.202,0.043-6.336,1.656-8.385,4.277c-1.654,2.078-2.604,4.771-2.655,7.498c-0.012,2.096,0.017,4.193-0.009,6.289L0.212,44.483z"
	/>
<path fill="#97BBD5" d="M48.528,50.048c-4.093,4.383-8.327,8.869-12.425,13.247c-1.466,1.665-2.116,4.097-1.665,6.337
	c0.26,1.367,0.914,2.639,1.84,3.622c2.375,2.538,4.752,5.073,7.128,7.613c1.043,1.095,2.054,2.229,3.12,3.301
	c0.539,0.407,1.223,0.901,1.824,1.22c0.005,0.002,0.01,0.004,0.014,0.006c0.011,0.006,0.021,0.014,0.033,0.019v-0.001
	c0.925,0.487,1.973,0.561,2.986,0.564c1.002-0.072,1.993-0.372,2.87-0.9c1.027-0.584,1.776-1.553,2.602-2.404
	c3.658-3.92,7.472-7.937,11.116-11.871c1.872-2.002,3.752-3.994,5.615-6.004l0.648-0.703c1.424-1.422,2.145-3.567,1.99-5.632
	c-0.111-1.667-0.799-3.276-1.902-4.462c-3.3-3.525-6.604-7.049-9.903-10.574c-1.216-1.374-2.956-2.203-4.729-2.22
	c-1.82-0.051-3.641,0.747-4.906,2.145C52.703,45.587,50.595,47.796,48.528,50.048z M60.555,44.808
	c0.585,0.18,1.111,0.538,1.533,1.004c3.299,3.523,6.6,7.045,9.897,10.568c0.82,0.851,1.196,2.154,0.962,3.35
	c-0.132,0.767-0.519,1.465-1.049,1.995c-0.63,0.652-1.187,1.418-1.846,2.039l-4.571,4.831l-0.002,0.001
	c-3.825,4.091-7.748,8.265-11.572,12.351c-0.434,0.471-0.873,0.963-1.449,1.234c-0.369,0.189-0.673,0.287-1.081,0.323l-0.102,0.015
	c-0.701,0.062-1.421-0.1-2.03-0.48c-0.392-0.229-0.707-0.568-1.017-0.907c-3.219-3.44-6.442-6.876-9.661-10.318
	c-0.703-0.739-1.094-1.804-1.021-2.854c0.033-0.99,0.497-1.919,1.173-2.582c1.354-1.505,2.773-2.941,4.147-4.43
	c2.602-2.796,5.42-5.735,8.001-8.553c-0.001,0-0.001,0-0.001,0c2.111-2.227,4.195-4.483,6.303-6.713
	C58.042,44.769,59.388,44.425,60.555,44.808z"/>
<path fill="#97BBD5" d="M17.104,16.486c0.016,0.012,0.029,0.025,0.045,0.037c-0.008-3.671-0.001-7.343-0.004-11.014
	c-0.01-0.622,0.226-1.219,0.576-1.707c0.601-0.042,1.174-0.294,1.637-0.704c0.757,0.688,1.862,0.898,2.786,0.494
	c0.29-0.1,0.505-0.354,0.784-0.463c0.416,0.318,0.879,0.59,1.398,0.643c0.764,0.123,1.537-0.164,2.136-0.669
	c0.976,0.921,2.557,0.916,3.534-0.003c0.944,0.879,2.45,0.93,3.43,0.093c0.036-0.028,0.072-0.057,0.107-0.086
	c0.189,0.151,0.393,0.286,0.605,0.396c0.01,0.005,0.018,0.009,0.027,0.013c0.396,0.199,0.83,0.311,1.275,0.277
	c0.057,0,0.109-0.008,0.158-0.021c0.135-0.017,0.268-0.045,0.398-0.082c0.329-0.089,0.643-0.24,0.919-0.458
	c0.06-0.044,0.118-0.089,0.176-0.137c0.466,0.442,1.071,0.672,1.683,0.692c0.004,0,0.008,0,0.012,0
	c0.664,0.02,1.335-0.207,1.842-0.685c0.055,0.044,0.109,0.087,0.166,0.127c0.18,0.144,0.376,0.257,0.582,0.345
	c0.01,0.004,0.019,0.008,0.027,0.012c0.008,0.004,0.016,0.007,0.024,0.01c0.263,0.114,0.54,0.186,0.828,0.199
	c0.359,0.446,0.581,1.021,0.591,1.612c0.021,4.937-0.001,9.876,0.022,14.813h-0.013l0.023,3.083l1.781-0.012v-3.071
	c-0.002-4.902,0.003-9.805-0.003-14.707c0.005-1.413-0.347-3.255-1.722-3.65c0,0-0.084-0.049-0.33-0.021l-0.003-0.009
	c-0.022,0.007-0.044,0.013-0.065,0.017c-0.017,0.004-0.033,0.006-0.051,0.01c-0.008,0-0.016,0.002-0.021,0.002l-0.076,0.004
	c-0.324-0.002-0.617-0.233-0.783-0.529c-0.307-0.516-0.952-0.487-1.446-0.397c-0.233,0.046-0.385,0.22-0.526,0.406
	c0.001-0.005,0.002-0.009,0.003-0.015L39.28,1.739c-0.047,0.029-0.097,0.055-0.148,0.072l-0.419,0.037
	c-0.024-0.006-0.048-0.01-0.072-0.017c-0.001,0-0.001-0.001-0.003-0.001c-0.005-0.002-0.01-0.004-0.016-0.006
	c-0.157-0.054-0.3-0.16-0.414-0.293l-0.018-0.02c-0.044-0.055-0.084-0.113-0.118-0.176c-0.308-0.516-0.954-0.487-1.446-0.397
	c-0.072,0.015-0.135,0.04-0.193,0.075c-0.007,0.004-0.014,0.008-0.02,0.013c-0.018,0.01-0.032,0.021-0.048,0.032
	c-0.005,0.004-0.011,0.008-0.016,0.013c-0.001,0-0.002,0.001-0.003,0.002c-0.016,0.007-0.033,0.013-0.051,0.021
	c-0.012,0.021-0.025,0.041-0.037,0.062c-0.094,0.096-0.176,0.211-0.258,0.321c-0.086,0.109-0.177,0.211-0.289,0.28
	c-0.047,0.026-0.097,0.048-0.147,0.064c-0.005,0.001-0.009,0.003-0.014,0.004c-0.046,0.011-0.093,0.021-0.14,0.028
	c-0.127,0.015-0.256-0.001-0.377-0.045c-0.117-0.049-0.225-0.125-0.317-0.219c-0.015-0.016-0.028-0.033-0.042-0.052l0.001,0.008
	c-0.057-0.064-0.106-0.135-0.148-0.21c-0.308-0.516-0.954-0.487-1.446-0.397c-0.346,0.069-0.514,0.415-0.729,0.668
	c-0.321,0.366-0.938,0.329-1.223-0.068l0.001,0.009c-0.179-0.221-0.315-0.494-0.595-0.575c-0.337-0.093-0.701-0.09-1.041-0.012
	c-0.474,0.124-0.577,0.784-1.063,0.884c-0.402,0.13-0.794-0.136-0.996-0.496C27.13,0.833,26.483,0.86,25.99,0.95
	c-0.345,0.069-0.513,0.416-0.728,0.668c-0.321,0.367-0.938,0.329-1.223-0.067c-0.18-0.249-0.363-0.542-0.676-0.603
	c-0.477-0.072-1.1-0.125-1.41,0.357c-0.199,0.349-0.552,0.648-0.958,0.555c-0.41-0.041-0.588-0.475-0.853-0.743
	c-0.376-0.31-0.885-0.199-1.311-0.104c-0.462,0.108-0.575,0.75-1.049,0.834c-0.33,0.031-0.777,0.107-1.021,0.328
	c-1.023,0.672-1.422,2.038-1.424,3.342c0,1.666,0,3.332,0,4.998V23.34h1.766V16.486z"/>
<path fill="#97BBD5" d="M50.103,56.344c-0.323,1.175,0.01,2.427,0.549,3.466c0.922,1.791,2.373,3.16,3.702,4.596
	c0.466,0.479,0.862,1.13,0.792,1.85c-0.073,0.781-0.602,1.391-1.107,1.909c-0.465,0.481-0.895,1.032-1.493,1.331
	c-0.53,0.279-1.192,0.236-1.691-0.103c-0.595-0.389-1.142-1.013-1.173-1.795c-0.024-0.835,0.406-1.576,0.844-2.23
	c0.243-0.438,0.637-0.741,0.926-1.138c-1.583-1.656-3.139-3.344-4.705-5.017c-0.662,0.708-1.27,1.485-1.715,2.367
	c-0.582,1.122-0.795,2.477-0.48,3.724l-0.011,0.045c0.307,1.066,0.935,1.979,1.644,2.782c-0.496,0.64-1.093,1.188-1.636,1.787
	c1.57,1.683,3.141,3.368,4.724,5.037c0.48-0.526,0.971-1.04,1.454-1.563c0.076-0.056,0.192-0.259,0.286-0.123
	c0.984,1.019,2.251,1.864,3.664,1.866c1.518,0.02,2.891-0.86,3.997-1.896c0.708-0.652,1.394-1.412,1.667-2.395
	c0.32-1.082,0.086-2.258-0.381-3.25c-0.787-1.705-2.099-3.031-3.342-4.357c-0.553-0.594-1.241-1.198-1.302-2.096
	c-0.057-0.923,0.624-1.756,1.224-2.332c-0.001-0.002-0.002-0.003-0.004-0.004c0.437-0.439,0.838-0.942,1.401-1.194
	c0.507-0.256,1.123-0.206,1.601,0.104c0.66,0.411,1.264,1.132,1.207,2.001c-0.039,0.881-0.542,1.596-1.003,2.291
	c-0.212,0.246-0.556,0.661-0.728,0.859c1.582,1.666,3.142,3.352,4.715,5.023c0.322-0.371,0.63-0.756,0.813-0.966
	c-0.002-0.004-0.005-0.007-0.007-0.011c0.878-1.15,1.573-2.554,1.501-4.072c-0.041-1.499-0.856-2.825-1.821-3.855
	c0.542-0.598,1.113-1.164,1.645-1.773c-0.242-0.33-0.551-0.596-0.818-0.901c-1.295-1.368-2.563-2.766-3.873-4.115
	c-0.581,0.558-1.109,1.175-1.668,1.757c-1.004-1.08-2.322-1.963-3.791-1.96c-1.473,0-2.791,0.849-3.888,1.829
	c0.001,0,0.002,0.002,0.003,0.004C51.104,54.485,50.353,55.362,50.103,56.344z"/>
<path fill="#97BBD5" d="M38.214,51.921c-0.99,0.323-1.65,1.479-1.453,2.566c0.143,0.995,0.971,1.816,1.91,1.895
	c0.551,0.043,1.16-0.11,1.546-0.559c0.208-0.236,0.458-0.445,0.587-0.746c0.373-0.834,0.222-1.907-0.393-2.566
	C39.861,51.89,38.972,51.651,38.214,51.921z"/>
<path fill="#97BBD5" d="M27.935,46.243c-0.441-0.223-0.952-0.248-1.422-0.137c-0.994,0.254-1.718,1.342-1.606,2.428
	c0.06,0.778,0.524,1.498,1.185,1.835c0.693,0.366,1.571,0.297,2.201-0.187c0.586-0.432,0.937-1.198,0.891-1.959
	C29.163,47.382,28.653,46.584,27.935,46.243z"/>
<path fill="#97BBD5" d="M27.057,56.391c1.042,0.019,2.009-0.896,2.113-2.003c0.102-0.777-0.212-1.587-0.786-2.072
	c-0.521-0.454-1.25-0.617-1.896-0.424c-1.043,0.27-1.766,1.471-1.557,2.596C25.079,55.563,26.038,56.42,27.057,56.391z"/>
<path fill="#97BBD5" d="M25.996,61.872c0.116,0.07,0.24,0.125,0.367,0.17c0.021,0.006,0.04,0.014,0.06,0.021
	c0.011,0.003,0.021,0.007,0.033,0.01c0.356,0.108,0.736,0.125,1.101,0.027c0.875-0.218,1.573-1.078,1.622-2.04
	c0.001-0.017,0.002-0.033,0.003-0.049c0.001-0.004,0.001-0.006,0.001-0.01c0.049-0.717-0.259-1.425-0.764-1.89
	c-0.004,0.003-0.006,0.007-0.01,0.01c-0.007-0.007-0.015-0.013-0.021-0.02c0.003-0.004,0.007-0.009,0.01-0.012
	c-0.147-0.118-0.309-0.22-0.478-0.3c-0.014-0.006-0.028-0.012-0.042-0.019c-0.039-0.017-0.077-0.032-0.115-0.048
	c-0.021-0.008-0.043-0.016-0.064-0.022c-0.302-0.104-0.623-0.142-0.941-0.089c-0.063,0.008-0.127,0.021-0.188,0.034
	c-0.007,0.001-0.015,0.003-0.021,0.003c-0.029,0.008-0.059,0.018-0.086,0.025c-0.016,0.005-0.031,0.009-0.046,0.014
	c-0.041,0.013-0.082,0.027-0.122,0.045c-0.011,0.004-0.021,0.008-0.033,0.012c-0.041,0.018-0.083,0.037-0.125,0.059
	c-0.009,0.004-0.018,0.008-0.027,0.013c-0.039,0.021-0.076,0.043-0.115,0.065c-0.01,0.007-0.021,0.013-0.031,0.02
	c-0.031,0.02-0.061,0.041-0.092,0.062c-0.017,0.013-0.034,0.023-0.052,0.037c-0.013,0.009-0.024,0.02-0.036,0.028
	c-0.329,0.258-0.59,0.613-0.737,1.02c-0.005,0.012-0.009,0.024-0.013,0.036c-0.011,0.03-0.021,0.06-0.029,0.09
	c-0.011,0.034-0.02,0.067-0.029,0.102c-0.002,0.01-0.004,0.02-0.006,0.03c-0.018,0.068-0.03,0.138-0.039,0.208
	c-0.041,0.226-0.042,0.454-0.01,0.677c0.031,0.246,0.103,0.486,0.206,0.709c0.061,0.137,0.13,0.27,0.209,0.394
	c0.005-0.004,0.009-0.008,0.014-0.012c0.024,0.034,0.05,0.068,0.077,0.102c-0.002,0.003-0.004,0.007-0.006,0.009
	C25.585,61.585,25.781,61.747,25.996,61.872z"/>
<path fill="#97BBD5" d="M35.101,59.786c-0.02-0.754-0.424-1.479-1.029-1.864c-0.501-0.331-1.131-0.413-1.697-0.247
	c-0.846,0.242-1.494,1.089-1.549,2.021c-0.082,0.906,0.402,1.823,1.166,2.223c0.781,0.431,1.807,0.278,2.438-0.378
	C34.88,61.099,35.13,60.438,35.101,59.786z"/>
<path fill="#97BBD5" d="M37.096,42.11l11.142,0.029c0.43,0.015,0.859,0.01,1.256-0.186c0.703-0.334,1.162-1.145,1.127-1.963
	c-0.018-1.879-0.01-3.746-0.07-5.625c-0.068-0.957-0.962-1.689-1.836-1.688l-37.461,0.002c-0.994,0-1.873,0.943-1.866,2.007
	c-0.013,1.629,0,3.259-0.006,4.888c-0.001,0.322-0.008,0.646,0.053,0.965c0.14,0.713,0.673,1.316,1.327,1.515
	c0.605,0.161,1.24,0.048,1.857,0.079l20.494-0.01C34.439,42.126,35.776,42.14,37.096,42.11z"/>
<path fill="#97BBD5" d="M20.56,57.671c-0.848,0.236-1.511,1.078-1.568,2.014c-0.086,0.912,0.405,1.845,1.18,2.238
	c0.833,0.456,1.932,0.242,2.549-0.514c0.693-0.785,0.736-2.104,0.098-2.939C22.305,57.746,21.373,57.426,20.56,57.671z"/>
<path fill="#97BBD5" d="M31.069,55.217c0.004-0.004,0.008-0.009,0.012-0.013c0.031,0.059,0.063,0.115,0.098,0.172
	c0.008,0.012,0.018,0.025,0.025,0.038c0.02,0.03,0.039,0.06,0.061,0.089c0.016,0.023,0.033,0.045,0.051,0.067
	c0.018,0.021,0.034,0.042,0.051,0.063c0.019,0.021,0.037,0.043,0.055,0.063c0.021,0.021,0.041,0.042,0.061,0.063
	c0.019,0.02,0.037,0.037,0.056,0.055c0.019,0.019,0.04,0.036,0.06,0.054c0.024,0.021,0.049,0.042,0.073,0.062
	c0.005,0.004,0.01,0.008,0.015,0.012c0.488,0.383,1.129,0.547,1.727,0.398c0.293-0.063,0.566-0.199,0.807-0.388
	c0.01-0.007,0.019-0.015,0.027-0.022c0.016-0.012,0.033-0.025,0.049-0.039c0.242-0.203,0.439-0.465,0.579-0.756
	c0.003-0.007,0.005-0.012,0.008-0.019c0.021-0.044,0.04-0.088,0.058-0.133c0.002-0.007,0.006-0.013,0.008-0.02
	c0.08-0.208,0.131-0.43,0.148-0.654c0.001-0.005,0.001-0.011,0.002-0.015c0.002-0.035,0.004-0.068,0.005-0.103
	c0.003-0.088,0.003-0.174-0.003-0.261c-0.004-0.051-0.01-0.102-0.016-0.152c-0.008-0.057-0.018-0.113-0.029-0.168
	c-0.002-0.004-0.003-0.009-0.004-0.014c-0.011-0.048-0.022-0.096-0.035-0.143c-0.004-0.014-0.008-0.028-0.014-0.043
	c-0.01-0.032-0.02-0.064-0.031-0.098c-0.01-0.027-0.019-0.053-0.029-0.08c-0.005-0.013-0.011-0.026-0.016-0.039
	c-0.128-0.316-0.322-0.603-0.568-0.824c-0.004-0.005-0.01-0.009-0.014-0.014c-0.024-0.021-0.049-0.043-0.074-0.064
	c-0.084-0.068-0.171-0.131-0.263-0.186c-0.007-0.004-0.013-0.007-0.019-0.01c0.004-0.005,0.008-0.009,0.012-0.014
	c-0.102-0.051-0.205-0.094-0.311-0.132c-0.096-0.036-0.191-0.064-0.29-0.085c-0.288-0.066-0.587-0.076-0.878-0.006
	c-0.018,0.004-0.035,0.009-0.054,0.014c-0.001,0-0.001,0-0.001,0c-0.002,0-0.002,0-0.003,0.001
	c-0.526,0.127-0.988,0.485-1.286,0.962c-0.002,0.002-0.004,0.004-0.004,0.007c-0.028,0.044-0.055,0.089-0.078,0.136
	c-0.004,0.006-0.008,0.014-0.012,0.02c-0.021,0.043-0.042,0.085-0.062,0.127c-0.006,0.014-0.011,0.027-0.017,0.041
	c-0.016,0.036-0.031,0.074-0.045,0.111c-0.008,0.021-0.014,0.043-0.021,0.064c-0.01,0.029-0.02,0.06-0.027,0.09
	c-0.01,0.031-0.018,0.064-0.025,0.096c-0.005,0.021-0.01,0.042-0.014,0.063c-0.01,0.044-0.018,0.089-0.023,0.135
	c-0.001,0.006-0.003,0.012-0.004,0.018c0,0.005,0,0.01-0.001,0.015c-0.002,0.013-0.005,0.026-0.007,0.04
	c-0.002,0.02-0.004,0.041-0.006,0.061c-0.003,0.031-0.008,0.063-0.01,0.095c-0.021,0.333,0.029,0.669,0.143,0.979
	C30.995,55.028,31.03,55.124,31.069,55.217z"/>
<path fill="#97BBD5" d="M22.581,50.004c0.637-0.604,0.864-1.635,0.553-2.479c-0.348-1.048-1.466-1.695-2.48-1.432
	c-0.952,0.212-1.69,1.193-1.669,2.234c-0.012,0.797,0.409,1.576,1.059,1.967C20.831,50.792,21.913,50.678,22.581,50.004z"/>
<path fill="#97BBD5" d="M40.956,47.82c-0.029-0.149-0.071-0.294-0.133-0.433c-0.332-0.808-1.132-1.376-1.963-1.345
	c-0.029-0.001-0.06,0.001-0.09,0.002c-0.002,0-0.004,0-0.007,0c-0.122,0.003-0.243,0.019-0.362,0.046
	c-0.01,0.002-0.02,0.004-0.029,0.006c-0.846,0.203-1.525,1.004-1.629,1.924c-0.037,0.274-0.023,0.554,0.035,0.822
	c0.012,0.074,0.025,0.148,0.041,0.221c0.005-0.006,0.01-0.01,0.016-0.016c0.152,0.49,0.457,0.925,0.871,1.197
	c0.219,0.152,0.464,0.255,0.718,0.311c0.142,0.031,0.285,0.047,0.431,0.046c0.014,0,0.028-0.001,0.042-0.001
	c0.022,0,0.043,0,0.063-0.001c0.018-0.001,0.035-0.003,0.052-0.003c0.004-0.001,0.009-0.001,0.013-0.002
	c0.912-0.047,1.744-0.797,1.933-1.752c0.002-0.012,0.003-0.023,0.005-0.035c0.032-0.158,0.049-0.319,0.047-0.482
	C41.011,48.155,40.992,47.985,40.956,47.82z"/>
<path fill="#97BBD5" d="M68.919,45.548c0.771,0.172,1.458,0.666,1.951,1.317c3.014,3.798,6.029,7.595,9.041,11.394
	c0.93,1.141,1.079,2.896,0.371,4.204c-0.354,0.712-0.981,1.181-1.524,1.712l-0.697,0.633c-2.897,2.536-5.716,5.179-8.603,7.73
	c0.001,0.001,0.002,0.002,0.002,0.004c-2.269,2.063-4.83,4.371-7.078,6.418c-1.357,1.436-2.703,2.884-4.057,4.324
	c-0.799,0.834-1.555,1.717-2.408,2.488c1.969,0.43,4.108-0.143,5.631-1.549c3.387-3.065,7.086-6.383,10.463-9.461
	c2.818-2.544,5.634-5.095,8.453-7.64c0.619-0.587,1.3-1.11,1.85-1.776c0.257-0.295,0.422-0.665,0.671-0.966
	c1.212-2.12,1.306-4.916,0.187-7.101c-0.393-0.82-0.992-1.488-1.54-2.189c-2.896-3.646-5.786-7.303-8.69-10.944
	c-0.123-0.097-0.242-0.196-0.363-0.29c-0.21-0.162-0.682-0.586-0.682-0.586l-0.145-0.113c-0.063-0.035-0.191-0.106-0.254-0.144
	l-0.169-0.114c-0.128-0.064-0.183-0.121-0.282-0.179c-0.043-0.032-0.139-0.086-0.186-0.116c-0.291-0.137-0.592-0.241-0.896-0.336
	l-0.586-0.148c-1.233-0.242-2.527-0.112-3.695,0.375c0.873,0.947,1.76,1.88,2.637,2.824C68.462,45.519,68.714,45.485,68.919,45.548z
	"/>
<path fill="#97BBD5" d="M32.466,46.097c-0.845,0.203-1.525,1.004-1.629,1.924c-0.119,0.859,0.271,1.769,0.963,2.225
	c0.688,0.479,1.634,0.475,2.32-0.002c0.605-0.406,0.992-1.154,0.983-1.918c0.009-0.814-0.434-1.603-1.098-1.996
	C33.545,46.04,32.981,45.984,32.466,46.097z"/>
<path fill="#97BBD5" d="M23.144,53.323c-0.356-1.135-1.623-1.799-2.682-1.398c-0.848,0.285-1.472,1.178-1.478,2.128
	c-0.035,0.966,0.579,1.904,1.437,2.208c0.717,0.282,1.564,0.097,2.131-0.448C23.198,55.213,23.448,54.181,23.144,53.323z"/>
<rect id="_x3C_Slice_x3E__88_" fill="none" width="84" height="86"/>
</svg>
