<?xml version="1.0" encoding="utf-8"?>
<!-- Generator: Adobe Illustrator 16.0.3, SVG Export Plug-In . SVG Version: 6.00 Build 0)  -->
<!DOCTYPE svg PUBLIC "-//W3C//DTD SVG 1.1//EN" "http://www.w3.org/Graphics/SVG/1.1/DTD/svg11.dtd">
<svg version="1.1" id="Layer_1" xmlns="http://www.w3.org/2000/svg" xmlns:xlink="http://www.w3.org/1999/xlink" x="0px" y="0px"
	 width="85px" height="74px" viewBox="0 0 85 74" enable-background="new 0 0 85 74" xml:space="preserve">
<g>
	<path fill="#93B4CB" d="M30.238,10.825l3.006,1.321l-0.692,1.504c-0.199,0.433,0.003,0.938,0.453,1.131
		c0.451,0.191,0.975-0.004,1.177-0.438l0.684-1.483l3.117,1.368c1.16,0.508,2.532,0.016,3.064-1.102
		c0.529-1.116,0.018-2.437-1.144-2.947l-7.745-3.402c-1.159-0.509-2.532-0.016-3.063,1.101
		C28.564,8.996,29.076,10.314,30.238,10.825z"/>
	<path fill="#93B4CB" d="M58.011,64.251H4.009c-1.938,0-3.513,1.667-3.513,3.729v2.079c0,2.06,1.574,3.728,3.513,3.728h54.002
		c1.94,0,3.516-1.668,3.516-3.728v-2.079C61.526,65.918,59.951,64.251,58.011,64.251z"/>
	<path fill="#93B4CB" d="M47.388,20.245l-1.12,1.414c-0.299,0.377-0.222,0.915,0.168,1.202c0.393,0.285,0.952,0.215,1.249-0.163
		l1.035-1.306l2.54,2.189c0.948,0.816,2.413,0.741,3.265-0.173c0.854-0.915,0.771-2.322-0.18-3.144l-6.339-5.465
		c-0.95-0.818-2.413-0.742-3.266,0.172c-0.853,0.917-0.771,2.322,0.18,3.144L47.388,20.245z"/>
	<path fill="#93B4CB" d="M65.324,33.926l-4.989-6.634c-0.746-0.995-2.192-1.22-3.228-0.498c-1.036,0.718-1.269,2.11-0.52,3.107
		l1.807,2.401l-1.414,1.038c-0.393,0.286-0.469,0.824-0.17,1.201c0.299,0.376,0.856,0.448,1.248,0.162l1.381-1.011l2.136,2.842
		c0.749,0.994,2.195,1.218,3.231,0.499C65.841,36.313,66.074,34.923,65.324,33.926z"/>
	<path fill="#93B4CB" d="M84.412,44.877c0.009-1.57-1.245-2.801-2.801-2.746c-1.548,0.056-2.808,1.37-2.814,2.934l-0.002,1.297
		H61.396c-1.038-6.941-8.656-17.232-18.212-24.364c-4.009-3.439-8.217-5.418-11.89-6.55c-3.474-1.22-6.956-1.787-10.274-1.465
		c-0.118,0.006-0.188,0.011-0.188,0.011V3.398c0-1.809-1.571-3.275-3.513-3.275H4.009c-1.938,0-3.513,1.467-3.513,3.275V47.9v9.052
		v0.192c0,1.704,1.574,3.085,3.513,3.085h13.31h40.692c0.902,0,1.832,0,2.512,0c0.597,0,1.004,0,1.004,0h19.371
		c1.94,0,3.515-1.668,3.515-3.728V50.09c0-0.044-0.011-0.087-0.013-0.132L84.412,44.877z M9.419,11.476V6.084
		c0-1.866,1.572-3.379,3.513-3.379h1.339c1.94,0,3.513,1.513,3.513,3.379v5.392c0,1.867-1.572,3.38-3.513,3.38h-1.339
		C10.991,14.855,9.419,13.343,9.419,11.476z M43.718,42.242L29.036,53.58c-0.167,0.122-0.372,0.188-0.589,0.188
		c-0.271,0-0.513-0.1-0.7-0.287c-0.188-0.189-0.287-0.432-0.286-0.707l-0.003-2.74c0-3.089-0.005-3.128-3.124-3.129l-9.211-0.008
		c-0.268,0-0.509-0.102-0.698-0.291c-0.19-0.189-0.29-0.433-0.29-0.7l0.005-9.618c0-0.242,0.108-0.491,0.3-0.682
		c0.192-0.192,0.443-0.302,0.692-0.301l9.208-0.001c3.126,0,3.126,0,3.126-3.123l0.002-2.75c0-0.481,0.511-0.989,0.986-0.989
		c0.22,0,0.422,0.065,0.568,0.177l14.692,11.369c0.279,0.309,0.435,0.705,0.436,1.124C44.15,41.533,43.997,41.931,43.718,42.242z"/>
</g>
<rect id="_x3C_Slice_x3E__12_" fill="none" width="85" height="74"/>
</svg>
