<?xml version="1.0" encoding="utf-8"?>
<!-- Generator: Adobe Illustrator 16.0.3, SVG Export Plug-In . SVG Version: 6.00 Build 0)  -->
<!DOCTYPE svg PUBLIC "-//W3C//DTD SVG 1.1//EN" "http://www.w3.org/Graphics/SVG/1.1/DTD/svg11.dtd">
<svg version="1.1" id="Layer_1" xmlns="http://www.w3.org/2000/svg" xmlns:xlink="http://www.w3.org/1999/xlink" x="0px" y="0px"
	 width="85px" height="88px" viewBox="0 0 85 88" enable-background="new 0 0 85 88" xml:space="preserve">
<path fill="#97BBD5" d="M77.918,2.656C77.83,1.5,77.121,0.611,76.332,0.672L55.43,2.256c-0.789,0.059-1.357,1.043-1.27,2.199
	l6.113,80.693c0.088,1.156,0.797,2.043,1.586,1.984l20.902-1.584c0.789-0.061,1.357-1.045,1.27-2.201L77.918,2.656z M73.467,20.973
	L61.32,21.895c-0.457,0.033-0.842-0.092-0.855-0.281L59.459,8.342c-0.014-0.191,0.346-0.373,0.803-0.408l12.148-0.92
	c0.457-0.035,0.84,0.092,0.855,0.281l1.004,13.271C74.285,20.758,73.924,20.939,73.467,20.973z"/>
<path fill="#97BBD5" d="M50.055,2.02H29.092c-0.79,0-1.431,0.939-1.431,2.098v80.926c0,1.158,0.641,2.098,1.431,2.098h20.963
	c0.791,0,1.432-0.939,1.432-2.098V4.117C51.486,2.959,50.846,2.02,50.055,2.02z M46.496,21.703c0,0.189-0.373,0.344-0.83,0.344
	H33.482c-0.458,0-0.831-0.154-0.831-0.344V8.393c0-0.191,0.373-0.346,0.831-0.346h12.184c0.457,0,0.83,0.154,0.83,0.346V21.703z"/>
<path fill="#97BBD5" d="M23.212,2.02H2.249c-0.79,0-1.431,0.939-1.431,2.098v80.926c0,1.158,0.641,2.098,1.431,2.098h20.963
	c0.791,0,1.432-0.939,1.432-2.098V4.117C24.644,2.959,24.003,2.02,23.212,2.02z M19.653,21.703c0,0.189-0.373,0.344-0.831,0.344
	H6.64c-0.458,0-0.831-0.154-0.831-0.344V8.393c0-0.191,0.373-0.346,0.831-0.346h12.183c0.458,0,0.831,0.154,0.831,0.346V21.703z"/>
<rect id="_x3C_Slice_x3E__119_" fill="none" width="85" height="88"/>
</svg>
