<?xml version="1.0" encoding="utf-8"?>
<!-- Generator: Adobe Illustrator 16.0.3, SVG Export Plug-In . SVG Version: 6.00 Build 0)  -->
<!DOCTYPE svg PUBLIC "-//W3C//DTD SVG 1.1//EN" "http://www.w3.org/Graphics/SVG/1.1/DTD/svg11.dtd">
<svg version="1.1" id="Layer_1" xmlns="http://www.w3.org/2000/svg" xmlns:xlink="http://www.w3.org/1999/xlink" x="0px" y="0px"
	 width="84.063px" height="85.018px" viewBox="0 0 84.063 85.018" enable-background="new 0 0 84.063 85.018" xml:space="preserve">
<path fill="#97BBD5" d="M64.236,50.02l16.168,9.721c2.344-5.309,3.658-11.186,3.658-17.379c0-1.396-0.07-2.777-0.199-4.141
	L64.236,50.02z"/>
<path fill="#97BBD5" d="M8.119,67.521c7.648,10.572,19.986,17.439,33.912,17.439s26.264-6.867,33.912-17.439L42.031,47.133
	L8.119,67.521z"/>
<path fill="#97BBD5" d="M60.367,47.693l22.871-13.748c-0.838-4.236-2.291-8.246-4.268-11.926l-30.654,18.43L60.367,47.693z"/>
<path fill="#97BBD5" d="M68.992,9.688L46.471,23.227v13.68L76.92,18.6C74.703,15.262,72.029,12.264,68.992,9.688z"/>
<path fill="#97BBD5" d="M46.471,0v18.576L65.592,7.08C60.025,3.254,53.506,0.748,46.471,0z"/>
<path fill="#97BBD5" d="M37.592,0C16.465,2.248,0,20.354,0,42.361c0,6.193,1.314,12.07,3.658,17.379l33.934-20.4V0z"/>
<rect id="_x3C_Slice_x3E__149_" fill="none" width="84.063" height="85.018"/>
</svg>
