<?xml version="1.0" encoding="utf-8"?>
<!-- Generator: Adobe Illustrator 16.0.3, SVG Export Plug-In . SVG Version: 6.00 Build 0)  -->
<!DOCTYPE svg PUBLIC "-//W3C//DTD SVG 1.1//EN" "http://www.w3.org/Graphics/SVG/1.1/DTD/svg11.dtd">
<svg version="1.1" id="Layer_1" xmlns="http://www.w3.org/2000/svg" xmlns:xlink="http://www.w3.org/1999/xlink" x="0px" y="0px"
	 width="85px" height="86px" viewBox="0 0 85 86" enable-background="new 0 0 85 86" xml:space="preserve">
<polygon fill="#97BBD5" points="42.636,43.266 32.278,53.748 32.276,53.748 51.799,73.502 84.79,40.133 77.249,32.371 
	52.011,53.572 "/>
<path fill="#97BBD5" d="M8.817,82.398h3.463v2.859h57.527V62.816l-2.631,2.656v17.123h-52.27V23.461h52.27v10.457l2.631-2.209
	V20.801h-3v-3.848c0-4.391-3.551-7.986-7.893-7.986H42.731c-0.137-4.842-4.048-8.727-8.864-8.727s-8.729,3.885-8.866,8.727H8.817
	c-4.338,0-7.895,3.596-7.895,7.986v57.463C0.923,78.807,4.479,82.398,8.817,82.398z M58.915,15.619c0.713,0,1.314,0.604,1.314,1.334
	v3.848h-10.6c-0.031-2.045-1.1-3.779-2.524-5.182H58.915z M33.867,5.563c1.993,0,3.614,1.643,3.614,3.664
	c0,2.016-1.621,3.662-3.614,3.662c-1.994,0-3.618-1.646-3.618-3.662C30.249,7.205,31.873,5.563,33.867,5.563z M7.501,16.953
	c0-0.73,0.604-1.334,1.316-1.334H20.64c-1.428,1.406-2.502,3.133-2.533,5.182H12.28v54.943H8.817c-0.713,0-1.316-0.607-1.316-1.328
	V16.953z"/>
<rect id="_x3C_Slice_x3E__115_" fill="none" width="85" height="86"/>
</svg>
