<?xml version="1.0" encoding="utf-8"?>
<!-- Generator: Adobe Illustrator 16.0.3, SVG Export Plug-In . SVG Version: 6.00 Build 0)  -->
<!DOCTYPE svg PUBLIC "-//W3C//DTD SVG 1.1//EN" "http://www.w3.org/Graphics/SVG/1.1/DTD/svg11.dtd">
<svg version="1.1" id="Layer_1" xmlns="http://www.w3.org/2000/svg" xmlns:xlink="http://www.w3.org/1999/xlink" x="0px" y="0px"
	 width="69px" height="86px" viewBox="0 0 69 86" enable-background="new 0 0 69 86" xml:space="preserve">
<path fill="#97BBD5" d="M66.576,62.094c-5.113-6.715-11.709-10.187-22.852-11.305c-2.01-0.402-3.525-2.197-3.525-4.321
	c0-1.558,4.973-6.222,4.939-6.253c5.129-5.332,7.879-13.998,7.879-20.658c0-10.348-8.287-18.748-18.51-18.748
	c-10.227,0-18.516,8.4-18.516,18.748c0,6.695,2.68,15.412,7.863,20.748c0,0,4.953,4.605,4.953,6.163
	c0,2.251-1.693,4.128-3.879,4.396c-10.912,1.148-17.438,4.605-22.494,11.23c-1.465,1.913-2.26,5.763-2.311,7.816
	c0.016,0.527,0,8.857,0,8.857c0,3.918,3.156,7.087,7.051,7.087h54.658c3.895,0,7.053-3.169,7.053-7.087c0,0-0.02-8.33,0-8.857
	C68.834,67.856,68.039,64.007,66.576,62.094z M55.887,67.576c-0.137,0.091-5.465,3.982-5.465,3.982s2.047,6.285,2.088,6.384
	c0.031,0.091,0.053,0.192,0.053,0.297c0,0.468-0.381,0.851-0.848,0.851c-0.178,0-0.346-0.057-0.484-0.152
	c-0.121-0.086-5.455-3.971-5.455-3.971l-5.453,3.971c-0.141,0.096-0.307,0.152-0.484,0.152c-0.467,0-0.848-0.378-0.848-0.851
	c0-0.104,0.023-0.206,0.053-0.297c0.039-0.099,2.086-6.384,2.086-6.384s-5.328-3.892-5.463-3.982
	c-0.217-0.154-0.361-0.41-0.361-0.699c0-0.471,0.369-0.878,0.838-0.878h6.762l2.061-6.36c0.102-0.359,0.422-0.62,0.811-0.62
	s0.713,0.261,0.813,0.62l2.068,6.36h6.764c0.467,0,0.83,0.407,0.83,0.873C56.25,67.166,56.105,67.422,55.887,67.576z"/>
<rect id="_x3C_Slice_x3E__136_" x="0.125" y="0.822" fill="none" width="68.762" height="85.018"/>
<rect id="_x3C_Slice_x3E__101_" fill="none" width="69" height="86"/>
</svg>
