<?xml version="1.0" encoding="utf-8"?>
<!-- Generator: Adobe Illustrator 16.0.3, SVG Export Plug-In . SVG Version: 6.00 Build 0)  -->
<!DOCTYPE svg PUBLIC "-//W3C//DTD SVG 1.1//EN" "http://www.w3.org/Graphics/SVG/1.1/DTD/svg11.dtd">
<svg version="1.1" id="Layer_1" xmlns="http://www.w3.org/2000/svg" xmlns:xlink="http://www.w3.org/1999/xlink" x="0px" y="0px"
	 width="84px" height="86px" viewBox="0 0 84 86" enable-background="new 0 0 84 86" xml:space="preserve">
<path fill="#97BBD5" d="M42.319,85.737c22.827,0,41.333-19.066,41.333-42.583c0-23.519-18.506-42.583-41.333-42.583
	S0.986,19.636,0.986,43.154C0.986,66.671,19.492,85.737,42.319,85.737z M42.319,7.225c19.229,0,34.875,16.116,34.875,35.93
	c0,19.81-15.646,35.93-34.875,35.93S7.444,62.964,7.444,43.154C7.444,23.341,23.089,7.225,42.319,7.225z"/>
<path fill="#97BBD5" d="M63.991,56.981l0.001-0.003L50.25,43.183l13.735-14.331l-0.002-0.004c0.382-0.371,0.613-0.897,0.572-1.473
	c-0.043-0.611-0.379-1.128-0.857-1.438l0.003-0.006l-5.076-4.531l-0.004,0.007c-0.359-0.299-0.829-0.468-1.333-0.433
	c-0.446,0.032-0.839,0.224-1.142,0.508l-0.002-0.002L42.33,35.239L28.016,21.486l-0.004,0.002c-0.372-0.382-0.897-0.612-1.473-0.571
	c-0.611,0.043-1.128,0.379-1.437,0.857l-0.006-0.004l-4.533,5.076l0.008,0.006c-0.299,0.359-0.468,0.827-0.433,1.331
	c0.032,0.446,0.224,0.84,0.508,1.143l-0.003,0.002l13.75,13.825L20.652,57.456l0.001,0.004c-0.382,0.372-0.612,0.897-0.572,1.474
	c0.043,0.61,0.38,1.128,0.858,1.437l-0.003,0.006l5.076,4.533l0.005-0.009c0.359,0.3,0.828,0.469,1.331,0.434
	c0.446-0.032,0.839-0.225,1.142-0.509l0.003,0.003l13.807-13.732l14.32,13.725l0.003-0.002c0.371,0.383,0.898,0.612,1.473,0.572
	c0.611-0.044,1.128-0.38,1.438-0.858l0.006,0.004l4.532-5.076l-0.007-0.005c0.298-0.359,0.467-0.828,0.432-1.332
	C64.466,57.677,64.275,57.284,63.991,56.981z"/>
<rect id="_x3C_Slice_x3E__75_" fill="none" width="84" height="86"/>
</svg>
