<?xml version="1.0" encoding="utf-8"?>
<!-- Generator: Adobe Illustrator 16.0.3, SVG Export Plug-In . SVG Version: 6.00 Build 0)  -->
<!DOCTYPE svg PUBLIC "-//W3C//DTD SVG 1.1//EN" "http://www.w3.org/Graphics/SVG/1.1/DTD/svg11.dtd">
<svg version="1.1" id="Layer_1" xmlns="http://www.w3.org/2000/svg" xmlns:xlink="http://www.w3.org/1999/xlink" x="0px" y="0px"
	 width="68px" height="86px" viewBox="0 0 68 86" enable-background="new 0 0 68 86" xml:space="preserve">
<path fill="#97BBD5" d="M21.316,53.495c0.214,0.379,0.473,0.64,0.771,0.777c0.316,0.146,0.693,0.221,1.118,0.221
	c0.486,0,0.892-0.099,1.201-0.291c0.307-0.191,0.557-0.494,0.748-0.903c0.199-0.431,0.346-0.995,0.436-1.681
	c0.091-0.701,0.137-1.552,0.137-2.528c0-1.031-0.056-1.919-0.164-2.638c-0.106-0.704-0.267-1.279-0.477-1.711
	c-0.196-0.406-0.461-0.705-0.783-0.887c-0.33-0.188-0.728-0.283-1.181-0.283c-0.418,0-0.787,0.09-1.099,0.268
	c-0.306,0.174-0.565,0.465-0.771,0.865c-0.217,0.42-0.382,0.98-0.488,1.664c-0.107,0.695-0.162,1.563-0.162,2.578
	c0,1.166,0.063,2.129,0.189,2.861C20.915,52.526,21.093,53.095,21.316,53.495z"/>
<path fill="#97BBD5" d="M46.791,63.275c-0.197-0.406-0.461-0.705-0.783-0.888c-0.33-0.188-0.727-0.281-1.182-0.281
	c-0.416,0-0.785,0.09-1.098,0.268c-0.305,0.174-0.564,0.465-0.771,0.863c-0.217,0.422-0.383,0.981-0.488,1.664
	c-0.107,0.697-0.164,1.564-0.164,2.579c0,1.167,0.066,2.128,0.191,2.86c0.125,0.721,0.301,1.289,0.525,1.688
	c0.213,0.378,0.471,0.64,0.771,0.777c0.316,0.146,0.693,0.22,1.117,0.22c0.486,0,0.891-0.098,1.199-0.291
	c0.309-0.189,0.559-0.494,0.75-0.902c0.199-0.43,0.346-0.996,0.436-1.682c0.092-0.701,0.135-1.552,0.135-2.527
	c0-1.031-0.055-1.918-0.162-2.638C47.16,64.282,47,63.707,46.791,63.275z"/>
<path fill="#97BBD5" d="M3.176,85.259h61.682c1.363,0,2.467-1.012,2.467-2.259l-3-63.245c0-1.248-1.104-2.26-2.467-2.26H51.002
	C48.271,7.363,41.803,0.221,34.272,0.221S20.273,7.363,17.543,17.495H6.176c-1.362,0-2.466,1.012-2.466,2.26L0.71,83
	C0.71,84.247,1.813,85.259,3.176,85.259z M54.889,26.726c0,1.7-1.066,3.144-2.563,3.723c0.037-0.73,0.063-1.467,0.063-2.213
	c0-1.818-0.117-3.594-0.332-5.316C53.691,23.422,54.889,24.927,54.889,26.726z M51.771,60.534c0.631,0.904,1.078,1.97,1.326,3.166
	c0.242,1.181,0.365,2.434,0.365,3.723c0,1.526-0.166,2.924-0.494,4.154c-0.334,1.242-0.861,2.322-1.566,3.207
	c-0.711,0.889-1.629,1.59-2.729,2.08c-1.096,0.491-2.418,0.738-3.93,0.738c-1.605,0-2.971-0.248-4.057-0.738
	c-1.096-0.493-1.982-1.191-2.636-2.073c-0.65-0.877-1.115-1.938-1.384-3.155c-0.262-1.195-0.395-2.536-0.395-3.983
	c0-1.449,0.162-2.798,0.481-4.009c0.323-1.225,0.84-2.303,1.538-3.205c0.699-0.91,1.613-1.625,2.713-2.127
	c1.094-0.5,2.428-0.754,3.961-0.754c1.682,0,3.09,0.27,4.188,0.799C50.256,58.89,51.137,59.624,51.771,60.534z M50.148,39.8
	c-0.047,0.251-0.17,0.521-0.379,0.824L24.112,76.806c-0.183,0.251-0.371,0.455-0.563,0.611c-0.196,0.16-0.441,0.295-0.728,0.4
	c-0.278,0.102-0.618,0.175-1.008,0.215c-0.379,0.039-0.847,0.059-1.39,0.059c-0.626,0-1.136-0.041-1.514-0.119
	c-0.414-0.088-0.71-0.223-0.905-0.412c-0.22-0.213-0.314-0.477-0.274-0.764c0.035-0.25,0.164-0.527,0.396-0.852l25.652-36.18
	c0.189-0.238,0.363-0.426,0.539-0.588c0.191-0.174,0.441-0.318,0.744-0.426c0.287-0.102,0.629-0.174,1.018-0.213
	c0.379-0.039,0.846-0.059,1.391-0.059c0.625,0,1.135,0.04,1.512,0.12c0.414,0.087,0.711,0.222,0.906,0.411
	C50.113,39.226,50.201,39.499,50.148,39.8z M49.078,23.178c0.203,1.634,0.311,3.325,0.311,5.058c0,0.732-0.023,1.457-0.061,2.174
	c-1.434-0.608-2.439-2.028-2.439-3.684C46.889,25.172,47.783,23.841,49.078,23.178z M34.272,3.221
	c6.015,0,11.216,5.842,13.649,14.274H20.623C23.056,9.063,28.259,3.221,34.272,3.221z M19.467,23.178
	c1.294,0.663,2.189,1.994,2.189,3.548c0,1.655-1.006,3.075-2.439,3.684c-0.037-0.717-0.061-1.441-0.061-2.174
	C19.156,26.503,19.264,24.812,19.467,23.178z M19.302,39.776c1.096-0.5,2.429-0.752,3.96-0.752c1.682,0,3.092,0.268,4.188,0.798
	c1.103,0.534,1.983,1.267,2.619,2.178c0.63,0.904,1.076,1.97,1.324,3.166c0.244,1.181,0.367,2.433,0.367,3.724
	c0,1.525-0.168,2.924-0.496,4.152c-0.334,1.244-0.86,2.323-1.566,3.209c-0.71,0.889-1.628,1.588-2.728,2.08
	c-1.096,0.49-2.419,0.738-3.931,0.738c-1.605,0-2.971-0.248-4.057-0.738c-1.094-0.494-1.979-1.191-2.635-2.074
	c-0.65-0.876-1.115-1.938-1.382-3.154c-0.264-1.197-0.396-2.537-0.396-3.984c0-1.449,0.163-2.799,0.482-4.01
	c0.322-1.223,0.839-2.301,1.536-3.204C17.288,40.995,18.201,40.279,19.302,39.776z M16.487,22.919
	c-0.215,1.723-0.331,3.498-0.331,5.316c0,0.746,0.024,1.481,0.062,2.213c-1.496-0.579-2.562-2.022-2.562-3.723
	C13.656,24.927,14.853,23.422,16.487,22.919z"/>
<rect id="_x3C_Slice_x3E__106_" fill="none" width="68" height="86"/>
</svg>
