<?xml version="1.0" encoding="utf-8"?>
<!-- Generator: Adobe Illustrator 16.0.3, SVG Export Plug-In . SVG Version: 6.00 Build 0)  -->
<!DOCTYPE svg PUBLIC "-//W3C//DTD SVG 1.1//EN" "http://www.w3.org/Graphics/SVG/1.1/DTD/svg11.dtd" [
	<!ENTITY ns_flows "http://ns.adobe.com/Flows/1.0/">
	<!ENTITY ns_extend "http://ns.adobe.com/Extensibility/1.0/">
	<!ENTITY ns_ai "http://ns.adobe.com/AdobeIllustrator/10.0/">
	<!ENTITY ns_graphs "http://ns.adobe.com/Graphs/1.0/">
]>
<svg version="1.1" id="Layer_1" xmlns:x="&ns_extend;" xmlns:i="&ns_ai;" xmlns:graph="&ns_graphs;"
	 xmlns="http://www.w3.org/2000/svg" xmlns:xlink="http://www.w3.org/1999/xlink" xmlns:a="http://ns.adobe.com/AdobeSVGViewerExtensions/3.0/"
	 x="0px" y="0px" width="83.765px" height="82.384px" viewBox="0 0 83.765 82.384" enable-background="new 0 0 83.765 82.384"
	 xml:space="preserve">
<g id="Download_-_Orange">
</g>
<g id="Icon_2_-_Comments1">
</g>
<g id="Comments_-_Grey">
</g>
<g id="Go_to_Web">
</g>
<g id="Notepad">
</g>
<g id="Checklist">
</g>
<g id="Loading_3">
</g>
<g id="Print">
</g>
<g id="Tools">
</g>
<g id="Plus">
	<path fill="#3385AD" d="M82.118,54.615l-4.574-0.003c-5.199,0-5.199,0-5.199-5.204l-0.004-15.327c0.004-0.415-0.18-0.831-0.5-1.152
		c-0.318-0.317-0.73-0.499-1.133-0.499l-16.01-0.008c-0.447,0-0.852,0.166-1.166,0.482c-0.316,0.315-0.484,0.717-0.484,1.162
		l-0.014,15.332c-0.002,5.192-0.068,5.199-5.209,5.199l-4.561,0.008c-0.459-0.002-0.863,0.163-1.178,0.475
		c-0.313,0.313-0.477,0.715-0.477,1.166c-0.002,0.361,0.109,0.701,0.313,0.979l18.873,24.439c0.52,0.466,1.18,0.72,1.881,0.72
		c0.697-0.003,1.355-0.258,1.871-0.724l18.924-24.455c0.186-0.246,0.293-0.582,0.293-0.947
		C83.765,55.467,82.921,54.615,82.118,54.615z"/>
	<path fill="#3385AD" d="M7.667,61.742V7.58h9.596v26.777h34.361V7.58h3.053l7.154,6.967v11.211h7.582V13.717l-0.006-0.004
		c0.057-1.462-0.537-2.876-1.605-3.881l0.023-0.031l-8.471-8.246h-0.016c-0.996-1.02-2.383-1.569-3.818-1.512L55.464,0H5.175l0,0
		C2.364,0,0.087,2.278,0.087,5.086V64.24c0,2.809,2.277,5.087,5.088,5.087l0,0h37.84l-6.963-7.585H7.667z M36.454,7.58h7.584v19.191
		h-7.584V7.58z"/>
	<rect id="_x3C_Slice_x3E__47_" fill="none" width="83.765" height="82.384"/>
</g>
<g id="Credit_Card">
</g>
</svg>
