<?xml version="1.0" encoding="utf-8"?>
<!-- Generator: Adobe Illustrator 16.0.3, SVG Export Plug-In . SVG Version: 6.00 Build 0)  -->
<!DOCTYPE svg PUBLIC "-//W3C//DTD SVG 1.1//EN" "http://www.w3.org/Graphics/SVG/1.1/DTD/svg11.dtd">
<svg version="1.1" id="Layer_1" xmlns="http://www.w3.org/2000/svg" xmlns:xlink="http://www.w3.org/1999/xlink" x="0px" y="0px"
	 width="84px" height="86px" viewBox="0 0 84 86" enable-background="new 0 0 84 86" xml:space="preserve">
<path fill="#97BBD5" d="M57.418,20.703c-1.743-1.729-4.563-1.76-6.269-0.072c-0.001,0.001-0.003,0.003-0.005,0.007l-0.001-0.004
	L24.994,46.549l-0.527,0.516l-4.527,17.91l18.054-4.489l1.686-1.7l24.98-24.76h-0.001c0.001-0.003,0.002-0.003,0.004-0.005
	c1.703-1.687,1.669-4.483-0.073-6.209L57.418,20.703z M26.922,60.949l-2.893-3.018l2.29-9.061l9.87,9.778L26.922,60.949z
	 M38.003,52.599l-5.598-5.547l18.738-18.568l5.596,5.546L38.003,52.599z"/>
<path fill="#97BBD5" d="M41.679,85.736c22.827,0,41.333-19.066,41.333-42.583c0-23.519-18.506-42.583-41.333-42.583
	S0.346,19.635,0.346,43.153C0.346,66.67,18.852,85.736,41.679,85.736z M41.679,7.224c19.229,0,34.875,16.116,34.875,35.93
	c0,19.81-15.646,35.93-34.875,35.93S6.804,62.963,6.804,43.153C6.804,23.34,22.45,7.224,41.679,7.224z"/>
<rect id="_x3C_Slice_x3E__73_" fill="none" width="84" height="86"/>
</svg>
