<?xml version="1.0" encoding="utf-8"?>
<!-- Generator: Adobe Illustrator 16.0.3, SVG Export Plug-In . SVG Version: 6.00 Build 0)  -->
<!DOCTYPE svg PUBLIC "-//W3C//DTD SVG 1.1//EN" "http://www.w3.org/Graphics/SVG/1.1/DTD/svg11.dtd">
<svg version="1.1" id="Layer_1" xmlns="http://www.w3.org/2000/svg" xmlns:xlink="http://www.w3.org/1999/xlink" x="0px" y="0px"
	 width="85px" height="85px" viewBox="0 0 85 85" enable-background="new 0 0 85 85" xml:space="preserve">
<path fill="#97BBD5" d="M74.572,32.149c-2.055-2.039-5.381-2.075-7.392-0.086c-0.002,0.002-0.004,0.004-0.006,0.008l-0.001-0.004
	L36.343,62.622l-0.621,0.608l-5.338,21.116l21.286-5.293l1.987-2.004L83.11,47.856h-0.001c0.001-0.003,0.003-0.003,0.005-0.006
	c2.008-1.988,1.969-5.286-0.086-7.32L74.572,32.149z M38.616,79.602l-3.41-3.559l2.699-10.683L49.542,76.89L38.616,79.602z
	 M51.681,69.755l-6.6-6.54l22.093-21.893l6.598,6.539L51.681,69.755z"/>
<path fill="#97BBD5" d="M32.313,13.954v-2.715h7.721v2.715c0,1.436,1.188,2.617,2.641,2.617h0.661c1.452,0,2.642-1.182,2.642-2.617
	v-2.715h7.721v2.715c0,1.436,1.188,2.617,2.641,2.617h0.66c1.453,0,2.643-1.182,2.643-2.617v-2.715h1.574l5.028,4.893v7.828h5.282
	v-8.578l-0.004-0.002c0.033-0.793-0.254-1.568-0.791-2.154l0.002-0.005L64.28,6.925h-0.004c-0.524-0.539-1.248-0.877-2.053-0.902
	l-0.01-0.01l-2.572-0.01V3.35c0-1.437-1.189-2.618-2.643-2.618h-0.66c-1.453,0-2.641,1.182-2.641,2.618v2.653h-7.721V3.35
	c0-1.437-1.189-2.618-2.642-2.618h-0.661c-1.453,0-2.641,1.182-2.641,2.618v2.653h-7.721V3.35c0-1.437-1.188-2.618-2.641-2.618
	h-0.66c-1.454,0-2.643,1.182-2.643,2.618v2.653h-7.72V3.35c0-1.437-1.189-2.618-2.642-2.618h-0.66c-1.453,0-2.643,1.182-2.643,2.618
	v2.653L3.204,5.997c-1.539,0-2.793,1.164-2.965,2.658L0.204,8.663v72.802v0.001c0,1.656,1.344,3,3,3l20.334,0.033l1.322-5.234H5.487
	V11.239h7.219v2.715c0,1.436,1.189,2.617,2.643,2.617h0.66c1.452,0,2.642-1.182,2.642-2.617v-2.715h7.72v2.715
	c0,1.436,1.188,2.617,2.643,2.617h0.66C31.125,16.571,32.313,15.39,32.313,13.954z"/>
<rect id="_x3C_Slice_x3E__110_" fill="none" width="85" height="85"/>
</svg>
