<?xml version="1.0" encoding="utf-8"?>
<!-- Generator: Adobe Illustrator 16.0.3, SVG Export Plug-In . SVG Version: 6.00 Build 0)  -->
<!DOCTYPE svg PUBLIC "-//W3C//DTD SVG 1.1//EN" "http://www.w3.org/Graphics/SVG/1.1/DTD/svg11.dtd">
<svg version="1.1" id="Layer_1" xmlns="http://www.w3.org/2000/svg" xmlns:xlink="http://www.w3.org/1999/xlink" x="0px" y="0px"
	 width="85px" height="87px" viewBox="0 0 85 87" enable-background="new 0 0 85 87" xml:space="preserve">
<path fill="#97BBD5" d="M37.112,60.928c0.736,0,1.415-0.239,1.971-0.646l16.682-13.797c1.621-1.625,1.621-4.259,0-5.88l-16.682-13.8
	c-0.556-0.404-1.234-0.646-1.971-0.646c-1.83,0-3.311,1.482-3.311,3.312v3.312v21.523v3.313
	C33.802,59.448,35.282,60.928,37.112,60.928z"/>
<path fill="#97BBD5" d="M42.487,86.126c23.008,0,41.66-19.066,41.66-42.582c0-23.52-18.652-42.584-41.66-42.584
	c-23.009,0-41.66,19.064-41.66,42.584C0.827,67.06,19.479,86.126,42.487,86.126z M42.487,7.614c19.382,0,35.15,16.116,35.15,35.93
	c0,19.81-15.769,35.93-35.15,35.93c-19.383,0-35.151-16.12-35.151-35.93C7.336,23.73,23.104,7.614,42.487,7.614z"/>
<rect id="_x3C_Slice_x3E__91_" fill="none" width="85" height="87"/>
</svg>
