<?xml version="1.0" encoding="utf-8"?>
<!-- Generator: Adobe Illustrator 16.0.3, SVG Export Plug-In . SVG Version: 6.00 Build 0)  -->
<!DOCTYPE svg PUBLIC "-//W3C//DTD SVG 1.1//EN" "http://www.w3.org/Graphics/SVG/1.1/DTD/svg11.dtd">
<svg version="1.1" id="Layer_1" xmlns="http://www.w3.org/2000/svg" xmlns:xlink="http://www.w3.org/1999/xlink" x="0px" y="0px"
	 width="85px" height="86px" viewBox="0 0 85 86" enable-background="new 0 0 85 86" xml:space="preserve">
<path fill="#97BBD5" d="M60.551,56.729c-1.906-1.416-2.613-3.814-5.029-4.906c-5.492-2.48-14.176-0.55-19.547-3.336
	c0.023-1.333-0.336-2.278-0.193-3.729c1.313-1.548,3.324-2.386,6.193-2.356c1.082,1.143,1.533,3.918,2.902,4.122
	c0.201-1.521-0.881-2.303-0.969-3.925c-0.35-6.514,3.34-12.465,6.387-16.094c-2.396-2.943-5.607-6.895-8.709-9.616
	c-1.861-1.634-3.584-3.612-6.193-2.159c-1.549-0.781-3.453-1.207-5.029-1.963c-4.203,1.234-8.516,2.355-12.773,3.533
	c-0.988,1.482-2.383,2.557-3.289,4.121c0.457,0.781,1.1,1.371,1.355,2.355c0.818,0.363,1.166-1.25,2.322-1.178
	c1.125,0.428,2.184,0.926,3.289,1.374c0.326,1.304,0.953,2.306,1.355,3.532c-1.053,2.465-1.557,5.488-2.129,8.439
	c2.461,3.326,2.23,9.382,4.838,12.561c-0.18-1.913-0.91-3.264-1.162-5.104c1.773,2.634,3.277,6.108,6,8.047
	c1.219,0.869,3.574,2.056,5.223,2.355c3.482,0.633,7.633-0.631,11.613,0.196c0.541,3.442-1.508,5.987-1.549,8.832
	c-0.02,1.402,0.887,5.22,1.355,6.477c1.137,3.062,4.691,6,6,8.636c2.143-1.064,5.303-1.16,5.996-3.729
	c0.406-1.497-0.26-3.612,0-5.495C59.303,64.155,61.471,61.38,60.551,56.729z"/>
<path fill="#97BBD5" d="M48.746,10.608c1.174-1.035,2.232-2.186,3.098-3.532c-5.588-1.846-11.967-1.562-17.805,0
	c1.736,0.995,3.428,3.42,5.807,3.925C42.566,11.579,45.463,10.223,48.746,10.608z"/>
<path fill="#97BBD5" d="M65.971,15.319c-2.438,2.348,0.369,7.105-1.162,10.4c0.752,0.286,1.547,0.526,2.127,0.982
	c1.16-0.527,1.951-1.426,3.098-1.963c1.994,0.66,4.01,2.344,5.805,2.552C72.705,23.142,70.748,17.799,65.971,15.319z"/>
<path fill="#97BBD5" d="M42.828,0.319c-23.131,0-41.881,19.017-41.881,42.476c0,23.458,18.75,42.476,41.881,42.476
	s41.883-19.018,41.883-42.476C84.711,19.336,65.959,0.319,42.828,0.319z M71.195,69.093c-5.982,6.573-15.219,11.898-26.125,12.365
	c-12.285,0.525-21.334-4.088-28.254-10.402C9.889,64.734,5.195,56.591,4.432,44.562c-1.146-18.064,8.967-30.767,20.9-36.897
	c4.438-2.278,9.514-3.701,15.48-4.121C52.721,2.706,63.105,8.034,69.26,13.749c6.162,5.721,11.684,15.392,12.191,26.69
	C82.02,53.124,77.318,62.364,71.195,69.093z"/>
<path fill="#97BBD5" d="M63.262,35.729c0,1.111,0,2.225,0,3.337c2.209,2.634,3,5.459,5.805,7.457
	c1.441,1.028,3.52,1.165,4.838,2.356c1.457,1.317,1.701,3.525,3.096,4.905c2.488-5.216,2.988-14.425,1.355-20.999
	c-2.754-1.331-5.803-2.361-9.096-3.141C67.176,31.589,65.184,33.624,63.262,35.729z"/>
<rect id="_x3C_Slice_x3E__132_" x="0.947" y="0.286" fill="none" width="83.764" height="85.018"/>
<rect id="_x3C_Slice_x3E__103_" fill="none" width="85" height="86"/>
</svg>
