<?xml version="1.0" encoding="utf-8"?>
<!-- Generator: Adobe Illustrator 16.0.3, SVG Export Plug-In . SVG Version: 6.00 Build 0)  -->
<!DOCTYPE svg PUBLIC "-//W3C//DTD SVG 1.1//EN" "http://www.w3.org/Graphics/SVG/1.1/DTD/svg11.dtd">
<svg version="1.1" id="Layer_1" xmlns="http://www.w3.org/2000/svg" xmlns:xlink="http://www.w3.org/1999/xlink" x="0px" y="0px"
	 width="85px" height="86px" viewBox="0 0 85 86" enable-background="new 0 0 85 86" xml:space="preserve">
<path fill="#97BBD5" d="M77.563,18.311H63.59V7.705c0-7.068-0.13-7.068-6.986-7.068H28.66c-7.116,0-6.986,0-6.986,7.068v10.605H7.7
	c-6.987,0-6.987,0.029-6.987,7.068v53.02c0,7.256,0,7.07,6.987,7.07h69.862c6.936,0,6.987,0,6.987-7.07v-53.02
	C84.55,18.176,84.498,18.311,77.563,18.311z M30.407,13.363c0-3.889,0.009-3.889,3.843-3.889h16.764c3.734,0,3.842,0,3.842,3.889
	v4.947H30.407V13.363z M63.59,56.84c0,3.885,0.023,3.885-3.842,3.885h-8.384v8.486c0,3.885-0.001,3.885-3.843,3.885h-9.779
	c-3.844,0-3.844-0.096-3.844-3.885v-8.486h-8.383c-3.842,0-3.842-0.1-3.842-3.885v-9.896c0-3.891,0.002-3.889,3.842-3.889h8.383
	V34.57c0-3.914,0-3.887,3.844-3.887h9.779c3.843,0,3.843-0.09,3.843,3.887v8.484h8.384c3.834,0,3.842,0,3.842,3.889V56.84z"/>
<rect id="_x3C_Slice_x3E__156_" fill="none" width="85" height="86"/>
</svg>
