<?xml version="1.0" encoding="utf-8"?>
<!-- Generator: Adobe Illustrator 16.0.3, SVG Export Plug-In . SVG Version: 6.00 Build 0)  -->
<!DOCTYPE svg PUBLIC "-//W3C//DTD SVG 1.1//EN" "http://www.w3.org/Graphics/SVG/1.1/DTD/svg11.dtd">
<svg version="1.1" id="Layer_1" xmlns="http://www.w3.org/2000/svg" xmlns:xlink="http://www.w3.org/1999/xlink" x="0px" y="0px"
	 width="84px" height="79px" viewBox="0 0 84 79" enable-background="new 0 0 84 79" xml:space="preserve">
<path fill="#97BBD5" d="M80.237,48.969l-4.271,4.313l-3.646-3.729l3.961-3.961l-2.5-2.498l-7.627,7.875l-3.625-3.625l7.695-7.813
	c-1.38-1.375-3.586-1.375-4.963,0l-8.046,8.049L42.859,33.242c1.583-3.066,2.481-6.563,2.481-10.254
	c0-12.373-10.032-22.4-22.404-22.4c-12.373,0-22.404,10.027-22.404,22.4c0,12.375,10.031,22.404,22.404,22.404
	c3.689,0,7.184-0.898,10.254-2.48l33.207,33.227c2.669,2.674,7.013,2.674,9.683,0c2.674-2.676,2.674-7.02,0-9.672l-1.911-1.928
	l8.049-8.049c1.379-1.375,1.523-3.85,0.145-5.23L80.237,48.969z M22.937,31.609c-4.755,0-8.619-3.861-8.619-8.621
	c0-4.754,3.864-8.615,8.619-8.615s8.614,3.861,8.614,8.615C31.551,27.748,27.691,31.609,22.937,31.609z"/>
<rect id="_x3C_Slice_x3E__163_" fill="none" width="84" height="79"/>
</svg>
