<?xml version="1.0" encoding="utf-8"?>
<!-- Generator: Adobe Illustrator 16.0.3, SVG Export Plug-In . SVG Version: 6.00 Build 0)  -->
<!DOCTYPE svg PUBLIC "-//W3C//DTD SVG 1.1//EN" "http://www.w3.org/Graphics/SVG/1.1/DTD/svg11.dtd" [
	<!ENTITY ns_flows "http://ns.adobe.com/Flows/1.0/">
	<!ENTITY ns_extend "http://ns.adobe.com/Extensibility/1.0/">
	<!ENTITY ns_ai "http://ns.adobe.com/AdobeIllustrator/10.0/">
	<!ENTITY ns_graphs "http://ns.adobe.com/Graphs/1.0/">
]>
<svg version="1.1" id="Layer_1" xmlns:x="&ns_extend;" xmlns:i="&ns_ai;" xmlns:graph="&ns_graphs;"
	 xmlns="http://www.w3.org/2000/svg" xmlns:xlink="http://www.w3.org/1999/xlink" xmlns:a="http://ns.adobe.com/AdobeSVGViewerExtensions/3.0/"
	 x="0px" y="0px" width="83.816px" height="85px" viewBox="0 0 83.816 85" enable-background="new 0 0 83.816 85"
	 xml:space="preserve">
<g id="Download_-_Orange">
</g>
<g id="Icon_2_-_Comments1">
</g>
<g id="Comments_-_Grey">
</g>
<g id="Go_to_Web">
</g>
<g id="Notepad">
</g>
<g id="Checklist">
</g>
<g id="Loading_3">
</g>
<g id="Print">
</g>
<g id="Tools">
</g>
<g id="Plus">
	<path fill="#AD5CAD" d="M6.719,85h54.277l2.018-0.011L64.01,85h13.088c3.705,0,6.719-3.264,6.719-7.273v-8.14h0.082v-5h-0.082
		V54.402l-0.031-2.413l0.031-1.906V7.273c0-4.01-3.014-7.273-6.719-7.273H6.719C3.014,0,0,3.264,0,7.273v70.453
		C0,81.736,3.014,85,6.719,85z M61.289,80h-5.33V69.587h12.072L61.289,80z M78.816,77.727c0,1.232-0.787,2.273-1.719,2.273h-9.852
		l6.74-10.413h4.83V77.727z M78.816,64.587h-1.594l1.594-2.46V64.587z M55.959,5h21.139c0.932,0,1.719,1.041,1.719,2.273V8H55.959V5
		z M5,13h4.459v22.254H5V13z M5,40.254h4.459V47.5H5V40.254z M5,52.5h4.48c0.119,4.73,2.076,8.999,5.184,12.087H5V52.5z M5,69.587
		h28.48l-3.203-5h-3.594c-6.592,0-11.969-5.384-12.203-12.087h8.055l-3.203-5h-4.873v-7.246h1.621c-0.467-1.631-0.779-3.303-0.939-5
		h-0.682V13h8.777c2.029-2.006,4.369-3.695,6.938-5H5V7.273C5,6.041,5.787,5,6.719,5h44.24v1.287
		C55.191,7.623,58.986,9.952,62.072,13h16.744v22.254h-8.648c-0.16,1.697-0.475,3.37-0.941,5h9.59V47.5H65.973l-3.195,5h16.039
		v0.426l-7.549,11.661H55.959v-1.423l-5,7.82V80h-7.244c-0.344,0.084-0.697,0.137-1.061,0.137c-0.367,0-0.725-0.052-1.07-0.137
		H6.719C5.787,80,5,78.959,5,77.727V69.587z"/>
	<path fill="#AD5CAD" d="M41.027,72.166l0.014-0.01c0.299,0.603,0.898,1.028,1.613,1.028c0.725,0,1.346-0.429,1.637-1.042l0,0
		l17.344-27.124l-0.002-0.001c2.256-3.51,3.568-7.682,3.568-12.163c0-12.452-10.096-22.546-22.547-22.546
		c-12.453,0-22.547,10.094-22.547,22.546c0,4.481,1.313,8.653,3.566,12.163l-0.002,0.001L38.75,68.556L41.027,72.166z
		 M35.285,30.932c0-4.069,3.299-7.369,7.369-7.369c4.068,0,7.369,3.3,7.369,7.369c0,4.07-3.301,7.369-7.369,7.369
		C38.584,38.301,35.285,35.002,35.285,30.932z"/>
	<rect id="_x3C_Slice_x3E__27_" fill="none" width="83.816" height="85"/>
</g>
<g id="Credit_Card">
</g>
</svg>
