<?xml version="1.0" encoding="utf-8"?>
<!-- Generator: Adobe Illustrator 16.0.3, SVG Export Plug-In . SVG Version: 6.00 Build 0)  -->
<!DOCTYPE svg PUBLIC "-//W3C//DTD SVG 1.1//EN" "http://www.w3.org/Graphics/SVG/1.1/DTD/svg11.dtd">
<svg version="1.1" id="Layer_1" xmlns="http://www.w3.org/2000/svg" xmlns:xlink="http://www.w3.org/1999/xlink" x="0px" y="0px"
	 width="83.443px" height="79.299px" viewBox="0 0 83.443 79.299" enable-background="new 0 0 83.443 79.299" xml:space="preserve">
<path fill="#97BBD5" d="M58.953,48.031c2.197-0.438,3.979-2.574,3.979-4.771c0-2.199-1.781-3.625-3.979-3.188
	c-2.199,0.438-3.98,2.574-3.98,4.771C54.973,47.043,56.754,48.469,58.953,48.031z"/>
<path fill="#97BBD5" d="M50.25,0.211c-0.021-0.012-0.041-0.023-0.064-0.033c-0.105-0.053-0.215-0.094-0.332-0.123
	c-0.018-0.006-0.041,0-0.061-0.004c-0.213-0.047-0.436-0.066-0.672-0.033L4.637,6.268l28.391,16.861l47.08-6.676
	C70.154,11.039,60.201,5.625,50.25,0.211z"/>
<path fill="#97BBD5" d="M0.094,9.184L0,59.832c-0.002,0.805,0.387,1.457,0.975,1.775c9.83,5.348,19.658,10.695,29.488,16.041V26.545
	L0.18,8.561C0.129,8.764,0.094,8.971,0.094,9.184z M20.723,40.273l2.463,1.494v14.777l-2.463-1.494V40.273z M17.473,38.301
	l1.641,0.996v14.777l-1.641-0.996V38.301z M15.83,37.305l0.82,0.498V52.58l-0.82-0.498V37.305z M13.17,35.689l0.822,0.498v14.777
	l-0.822-0.498V35.689z M10.707,34.195l1.643,0.996v14.777l-1.643-0.996V34.195z M7.275,32.113l1.643,0.996v14.777l-1.643-0.996
	V32.113z"/>
<path fill="#97BBD5" d="M34.709,79.299l46.57-6.545c1.166-0.164,2.111-1.311,2.111-2.559l0.094-49.932L34.709,27.18V79.299z
	 M58.953,32.914c6.725-1.34,12.176,3.025,12.176,9.75c0,2.42-0.709,4.814-1.928,6.953h0.002l-9.367,16.514
	c-0.156,0.363-0.492,0.662-0.883,0.74c-0.387,0.076-0.711-0.09-0.871-0.383l-0.008,0.008l-1.23-1.705l-8.143-11.09h0.002
	c-1.219-1.654-1.928-3.766-1.928-6.186C46.775,40.791,52.227,34.254,58.953,32.914z"/>
<rect id="_x3C_Slice_x3E__146_" fill="none" width="83.443" height="79.299"/>
</svg>
