<?xml version="1.0" encoding="utf-8"?>
<!-- Generator: Adobe Illustrator 16.0.3, SVG Export Plug-In . SVG Version: 6.00 Build 0)  -->
<!DOCTYPE svg PUBLIC "-//W3C//DTD SVG 1.1//EN" "http://www.w3.org/Graphics/SVG/1.1/DTD/svg11.dtd">
<svg version="1.1" id="Layer_1" xmlns="http://www.w3.org/2000/svg" xmlns:xlink="http://www.w3.org/1999/xlink" x="0px" y="0px"
	 width="84px" height="86px" viewBox="0 0 84 86" enable-background="new 0 0 84 86" xml:space="preserve">
<path fill="#97BBD5" d="M41.679,85.786c22.827,0,41.333-19.066,41.333-42.583c0-23.519-18.506-42.583-41.333-42.583
	S0.346,19.685,0.346,43.203C0.346,66.72,18.852,85.786,41.679,85.786z M41.679,7.273c19.229,0,34.875,16.116,34.875,35.93
	c0,19.81-15.646,35.93-34.875,35.93S6.804,63.013,6.804,43.203C6.804,23.39,22.45,7.273,41.679,7.273z"/>
<polygon fill="#97BBD5" points="48.296,50.021 63.737,50.021 63.737,36.386 48.296,36.386 35.062,36.386 19.622,36.386 
	19.622,50.021 35.062,50.021 "/>
<rect id="_x3C_Slice_x3E__92_" fill="none" width="84" height="86"/>
</svg>
