<?xml version="1.0" encoding="utf-8"?>
<!-- Generator: Adobe Illustrator 16.0.3, SVG Export Plug-In . SVG Version: 6.00 Build 0)  -->
<!DOCTYPE svg PUBLIC "-//W3C//DTD SVG 1.1//EN" "http://www.w3.org/Graphics/SVG/1.1/DTD/svg11.dtd" [
	<!ENTITY ns_flows "http://ns.adobe.com/Flows/1.0/">
	<!ENTITY ns_extend "http://ns.adobe.com/Extensibility/1.0/">
	<!ENTITY ns_ai "http://ns.adobe.com/AdobeIllustrator/10.0/">
	<!ENTITY ns_graphs "http://ns.adobe.com/Graphs/1.0/">
]>
<svg version="1.1" id="Layer_1" xmlns:x="&ns_extend;" xmlns:i="&ns_ai;" xmlns:graph="&ns_graphs;"
	 xmlns="http://www.w3.org/2000/svg" xmlns:xlink="http://www.w3.org/1999/xlink" xmlns:a="http://ns.adobe.com/AdobeSVGViewerExtensions/3.0/"
	 x="0px" y="0px" width="83.465px" height="85.114px" viewBox="0 0 83.465 85.114" enable-background="new 0 0 83.465 85.114"
	 xml:space="preserve">
<g id="Download_-_Orange">
</g>
<g id="Icon_2_-_Comments1">
</g>
<g id="Comments_-_Grey">
</g>
<g id="Go_to_Web">
</g>
<g id="Notepad">
</g>
<g id="Checklist">
</g>
<g id="Loading_3">
</g>
<g id="Print">
</g>
<g id="Tools">
</g>
<g id="Plus">
	<polygon fill="#FFC266" points="81.859,12.515 74.682,0 45.375,0 47.068,12.515 	"/>
	<polygon fill="#FFC266" points="37.846,0 8.541,0 1.363,12.515 36.152,12.515 	"/>
	<path fill="#FFAD33" d="M25.393,28.472c-0.479-0.586-1.096-1.043-1.848-1.371s-1.738-0.492-2.961-0.492H18.57v13.33h2.074
		c1.09,0,2.01-0.143,2.758-0.425c0.746-0.282,1.369-0.71,1.869-1.28s0.873-1.279,1.121-2.128s0.371-1.837,0.371-2.969
		c0-0.929-0.107-1.792-0.326-2.59C26.221,29.749,25.873,29.058,25.393,28.472z"/>
	<path fill="#FFAD33" d="M47.936,37.252L35.51,42.618l-0.115-24.367H-0.244v66.863h83.709V18.251H47.826L47.936,37.252z
		 M7.486,79.443H6.369V59.302h1.117V79.443z M7.367,43.134c-0.256-0.03-0.461-0.07-0.613-0.121c-0.15-0.051-0.26-0.116-0.324-0.197
		c-0.066-0.08-0.1-0.172-0.1-0.272V24.034c0-0.102,0.033-0.192,0.1-0.273c0.064-0.08,0.176-0.146,0.332-0.197
		c0.156-0.05,0.361-0.09,0.613-0.121c0.252-0.029,0.57-0.045,0.955-0.045c0.393,0,0.717,0.016,0.969,0.045
		c0.252,0.031,0.455,0.071,0.605,0.121c0.152,0.051,0.26,0.117,0.326,0.197c0.066,0.081,0.1,0.172,0.1,0.273v18.509
		c0,0.101-0.033,0.192-0.1,0.272c-0.066,0.081-0.174,0.146-0.326,0.197c-0.15,0.051-0.354,0.091-0.605,0.121
		s-0.576,0.045-0.969,0.045C7.945,43.179,7.625,43.164,7.367,43.134z M10.844,79.443H8.605V59.302h2.238V79.443z M15.521,79.443
		h-2.238V59.302h2.238V79.443z M17.76,79.443h-1.119V59.302h1.119V79.443z M21.385,79.443h-1.119V59.302h1.119V79.443z
		 M24.742,79.443h-2.238V59.302h2.238V79.443z M30.291,79.443h-3.357V59.302h3.357V79.443z M30.18,37.612
		c-0.469,1.277-1.145,2.32-2.021,3.129c-0.879,0.808-1.947,1.4-3.205,1.779c-1.256,0.379-2.754,0.568-4.49,0.568h-4.68
		c-0.334,0-0.613-0.1-0.842-0.296c-0.227-0.196-0.34-0.517-0.34-0.962V24.745c0-0.443,0.113-0.765,0.34-0.961
		c0.229-0.197,0.508-0.296,0.842-0.296h5.027c1.748,0,3.229,0.204,4.447,0.613c1.215,0.409,2.24,1.015,3.074,1.817
		c0.832,0.803,1.467,1.795,1.9,2.977s0.652,2.551,0.652,4.105C30.885,34.798,30.648,36.335,30.18,37.612z M33.111,79.443H31.99
		V59.302h1.121V79.443z M36.488,79.443h-2.26V59.302h2.26V79.443z M39.801,79.443h-1.119V59.302h1.119V79.443z M42.039,79.443H40.92
		V59.302h1.119V79.443z M70.08,67.269c0.061,0.078,0.105,0.168,0.156,0.254c0.973,1.688,1.945,3.375,2.92,5.062
		c0.125,0.245,0.238,0.501,0.307,0.769c0.063,0.222,0.086,0.451,0.117,0.678v0.539c-0.035,0.282-0.082,0.564-0.168,0.836
		c-0.064,0.217-0.164,0.419-0.264,0.62c-0.07,0.146-0.166,0.277-0.258,0.409c-0.125,0.161-0.248,0.326-0.398,0.465
		c-0.32,0.298-0.682,0.555-1.086,0.725c-0.412,0.184-0.861,0.279-1.311,0.301c-1.133-0.002-2.268,0-3.4,0
		c0,0.309,0,0.617,0.002,0.926c0.002,0.124-0.086,0.225-0.18,0.295c-0.102,0.066-0.238,0.066-0.348,0.018
		c-0.102-0.044-0.168-0.135-0.246-0.209c-0.357-0.359-0.717-0.718-1.074-1.076c-0.131-0.128-0.254-0.266-0.398-0.377
		c-0.166-0.156-0.322-0.322-0.484-0.482c-0.092-0.096-0.195-0.182-0.273-0.289c-0.1-0.129-0.1-0.324,0-0.452
		c0.063-0.087,0.143-0.158,0.217-0.233c0.639-0.639,1.277-1.277,1.916-1.915c0.1-0.095,0.188-0.206,0.307-0.275
		c0.088-0.056,0.197-0.05,0.295-0.034c0.166,0.055,0.281,0.231,0.27,0.404c-0.004,0.295-0.002,0.588-0.002,0.881
		c1.041,0.001,2.08,0,3.121,0c0.119,0,0.242,0.008,0.359-0.027c0.289-0.08,0.516-0.33,0.576-0.623
		c0.025-0.188,0.012-0.393-0.096-0.555c-0.123-0.176-0.219-0.369-0.332-0.553c-0.865-1.501-1.732-3.002-2.598-4.502
		c-0.051-0.094-0.111-0.191-0.109-0.303c-0.002-0.128,0.063-0.259,0.182-0.318c0.588-0.346,1.182-0.684,1.771-1.025
		C69.727,67.101,69.963,67.116,70.08,67.269z M57.379,66.593c0.15-0.291,0.326-0.57,0.486-0.857c0.865-1.494,1.729-2.99,2.592-4.484
		c0.33-0.52,0.787-0.957,1.322-1.259c0.178-0.1,0.365-0.175,0.555-0.247c0.021-0.006,0.043-0.013,0.064-0.02
		c0.021-0.008,0.043-0.015,0.066-0.021c0.021-0.008,0.043-0.015,0.064-0.022c0.027-0.007,0.057-0.013,0.086-0.02
		c0.029-0.008,0.057-0.015,0.088-0.022c0.035-0.008,0.072-0.014,0.107-0.021c0.088-0.017,0.174-0.029,0.262-0.045
		c0.064-0.004,0.131-0.004,0.195-0.023c0.17-0.003,0.34-0.002,0.51,0c0.068,0.021,0.143,0.02,0.215,0.023
		c0.051,0.01,0.102,0.018,0.152,0.023c0.043,0.009,0.086,0.015,0.131,0.02c0.029,0.01,0.057,0.017,0.088,0.023
		c0.027,0.008,0.057,0.016,0.086,0.021c0.027,0.008,0.057,0.014,0.086,0.021c0.064,0.022,0.129,0.044,0.195,0.065
		c0.238,0.073,0.459,0.191,0.676,0.314c0.129,0.068,0.24,0.162,0.361,0.243c0.098,0.065,0.17,0.159,0.266,0.229
		c0.096,0.071,0.156,0.175,0.24,0.256c0.08,0.079,0.141,0.175,0.209,0.265c0.152,0.2,0.258,0.432,0.391,0.645
		c0.475,0.826,0.955,1.65,1.43,2.479c0.277-0.154,0.547-0.328,0.83-0.472c0.029-0.009,0.061-0.017,0.092-0.024
		c0.027-0.001,0.055-0.001,0.084,0c0.029,0.008,0.061,0.016,0.092,0.023c0.129,0.045,0.205,0.161,0.244,0.285
		c-0.002,0.051-0.002,0.102-0.002,0.153c-0.01,0.028-0.02,0.059-0.027,0.088c-0.006,0.028-0.014,0.058-0.02,0.087
		c-0.016,0.049-0.031,0.1-0.045,0.15c-0.008,0.027-0.014,0.057-0.02,0.086c-0.008,0.029-0.016,0.058-0.021,0.086
		c-0.008,0.021-0.016,0.044-0.023,0.065c-0.008,0.028-0.014,0.057-0.02,0.085c-0.01,0.028-0.016,0.057-0.021,0.086
		c-0.008,0.029-0.016,0.059-0.021,0.087c-0.018,0.05-0.033,0.1-0.045,0.149c-0.008,0.029-0.014,0.059-0.02,0.087
		c-0.008,0.028-0.016,0.058-0.021,0.087c-0.018,0.049-0.031,0.1-0.045,0.149c-0.008,0.028-0.016,0.058-0.021,0.087
		c-0.008,0.028-0.014,0.058-0.02,0.087c-0.008,0.021-0.016,0.042-0.023,0.063c-0.008,0.028-0.016,0.057-0.02,0.086
		c-0.01,0.027-0.016,0.057-0.021,0.086c-0.01,0.028-0.016,0.057-0.021,0.086c-0.01,0.029-0.016,0.058-0.021,0.086
		c-0.018,0.051-0.033,0.1-0.045,0.15c-0.008,0.029-0.016,0.057-0.02,0.086c-0.01,0.029-0.016,0.058-0.023,0.087
		c-0.016,0.05-0.031,0.1-0.043,0.149c-0.008,0.029-0.016,0.059-0.021,0.087c-0.008,0.028-0.014,0.058-0.021,0.086
		c-0.016,0.05-0.031,0.101-0.043,0.15c-0.008,0.028-0.016,0.058-0.021,0.087c-0.008,0.028-0.016,0.057-0.021,0.086
		c-0.016,0.049-0.031,0.1-0.043,0.15c-0.008,0.028-0.016,0.057-0.021,0.086c-0.008,0.029-0.016,0.058-0.021,0.086
		c-0.006,0.023-0.012,0.047-0.016,0.071c-0.053,0.077-0.119,0.144-0.197,0.194c-0.025,0.008-0.049,0.016-0.072,0.023
		c-0.064,0-0.129,0-0.193,0c-0.029-0.01-0.061-0.02-0.09-0.027c-0.049-0.016-0.1-0.031-0.148-0.043
		c-0.029-0.008-0.059-0.015-0.088-0.021c-0.029-0.008-0.057-0.014-0.086-0.021c-0.049-0.016-0.1-0.031-0.15-0.044
		c-0.029-0.007-0.057-0.014-0.086-0.021c-0.029-0.008-0.059-0.014-0.086-0.021c-0.051-0.016-0.1-0.031-0.15-0.045
		c-0.029-0.006-0.059-0.014-0.086-0.02c-0.029-0.008-0.059-0.014-0.086-0.021c-0.051-0.016-0.1-0.031-0.15-0.045
		c-0.029-0.006-0.059-0.014-0.088-0.02c-0.029-0.008-0.057-0.015-0.086-0.021c-0.049-0.017-0.1-0.031-0.148-0.045
		c-0.029-0.007-0.059-0.014-0.086-0.02c-0.029-0.008-0.059-0.016-0.088-0.021c-0.029-0.008-0.059-0.015-0.086-0.021
		c-0.049-0.016-0.1-0.031-0.148-0.045c-0.029-0.007-0.059-0.014-0.088-0.02c-0.029-0.008-0.059-0.015-0.086-0.021
		c-0.051-0.016-0.1-0.031-0.15-0.045c-0.029-0.007-0.059-0.014-0.086-0.021c-0.029-0.007-0.059-0.013-0.086-0.02
		c-0.023-0.009-0.045-0.017-0.066-0.024c-0.029-0.008-0.057-0.014-0.084-0.02c-0.029-0.008-0.059-0.016-0.086-0.021
		c-0.029-0.008-0.059-0.016-0.088-0.021c-0.049-0.017-0.1-0.031-0.148-0.045c-0.029-0.008-0.059-0.014-0.088-0.021
		s-0.059-0.013-0.086-0.02c-0.021-0.009-0.043-0.017-0.064-0.024c-0.023-0.006-0.047-0.012-0.068-0.017
		c-0.086-0.043-0.154-0.11-0.195-0.198c-0.01-0.023-0.018-0.047-0.023-0.07c-0.002-0.057-0.002-0.114,0-0.172
		c0.008-0.023,0.016-0.047,0.023-0.07c0.021-0.035,0.043-0.07,0.066-0.106c0.158-0.12,0.342-0.205,0.512-0.31
		c0.121-0.07,0.24-0.146,0.369-0.205c-0.547-0.943-1.08-1.895-1.629-2.836c-0.096-0.167-0.254-0.295-0.432-0.364
		c-0.086-0.028-0.178-0.034-0.268-0.044c-0.061,0.008-0.121,0.015-0.18,0.021c-0.045,0.016-0.088,0.031-0.129,0.049
		c-0.012,0.002-0.031,0.008-0.041,0.01c-0.129,0.076-0.252,0.174-0.328,0.305c-0.086,0.188-0.201,0.357-0.301,0.539
		c-0.883,1.531-1.77,3.063-2.652,4.596c-0.053,0.105-0.145,0.183-0.246,0.236c-0.074-0.002-0.148-0.002-0.223-0.002
		c-0.021-0.01-0.045-0.018-0.066-0.027c-0.6-0.346-1.201-0.69-1.799-1.041c-0.086-0.045-0.148-0.121-0.189-0.207
		C57.379,66.756,57.379,66.675,57.379,66.593z M53.486,74.044c0.018-0.063,0.02-0.129,0.023-0.194
		c0.014-0.058,0.016-0.116,0.02-0.175c0.01-0.036,0.018-0.072,0.025-0.109c0.008-0.035,0.014-0.072,0.02-0.107
		c0.008-0.029,0.014-0.059,0.021-0.088c0.008-0.021,0.016-0.043,0.025-0.064c0.006-0.029,0.01-0.058,0.018-0.086
		c0.006-0.021,0.014-0.043,0.021-0.065c0.008-0.021,0.016-0.043,0.021-0.063c0.008-0.022,0.014-0.044,0.021-0.066
		c0.041-0.102,0.092-0.199,0.129-0.303c0.379-0.66,0.762-1.318,1.141-1.979c0.209-0.35,0.404-0.708,0.615-1.057
		c0.002-0.008,0.004-0.025,0.006-0.033c-0.176-0.084-0.334-0.194-0.506-0.285c-0.146-0.093-0.33-0.152-0.42-0.313
		c-0.008-0.023-0.014-0.049-0.021-0.072c0-0.073,0-0.146-0.002-0.22c0.051-0.105,0.135-0.194,0.244-0.24
		c0.051-0.011,0.104-0.024,0.154-0.04c0.027-0.008,0.057-0.015,0.086-0.021c0.027-0.008,0.057-0.014,0.086-0.02
		c0.051-0.014,0.1-0.029,0.15-0.046c0.027-0.007,0.057-0.013,0.086-0.02c0.051-0.014,0.1-0.028,0.15-0.044
		c0.027-0.008,0.057-0.015,0.086-0.021c0.029-0.008,0.059-0.014,0.088-0.021c0.049-0.013,0.1-0.028,0.15-0.044
		c0.078-0.019,0.158-0.038,0.234-0.064c0.029-0.007,0.059-0.014,0.088-0.021c0.051-0.014,0.1-0.027,0.15-0.045
		c0.027-0.006,0.057-0.014,0.086-0.021c0.027-0.007,0.057-0.013,0.086-0.021c0.051-0.014,0.1-0.028,0.15-0.045
		c0.027-0.006,0.057-0.013,0.088-0.02c0.049-0.014,0.098-0.028,0.148-0.045c0.027-0.007,0.057-0.014,0.086-0.021
		c0.029-0.006,0.057-0.013,0.088-0.02c0.049-0.014,0.1-0.029,0.148-0.045c0.029-0.006,0.059-0.014,0.088-0.02
		c0.049-0.014,0.1-0.029,0.148-0.045c0.029-0.006,0.059-0.014,0.088-0.02c0.049-0.014,0.1-0.029,0.148-0.045
		c0.029-0.007,0.059-0.014,0.088-0.021c0.027-0.006,0.057-0.013,0.086-0.02c0.051-0.014,0.104-0.03,0.152-0.049
		c0.064-0.001,0.129-0.001,0.193,0c0.023,0.007,0.049,0.015,0.072,0.021c0.109,0.063,0.184,0.166,0.217,0.285
		c0.004,0.029,0.01,0.06,0.018,0.09c0.012,0.049,0.027,0.1,0.045,0.148c0.006,0.029,0.012,0.059,0.021,0.087
		c0.006,0.028,0.012,0.058,0.02,0.087c0.012,0.051,0.027,0.1,0.045,0.15c0.006,0.028,0.012,0.057,0.02,0.086
		c0.014,0.051,0.027,0.1,0.045,0.15c0.006,0.027,0.014,0.057,0.021,0.086c0.006,0.029,0.012,0.058,0.021,0.086
		c0.004,0.029,0.012,0.057,0.02,0.086c0.008,0.021,0.016,0.043,0.023,0.064c0.014,0.057,0.027,0.114,0.041,0.172
		c0.008,0.021,0.016,0.043,0.025,0.064c0.004,0.029,0.012,0.059,0.018,0.088c0.014,0.049,0.029,0.1,0.045,0.148
		c0.006,0.029,0.014,0.059,0.021,0.088c0.006,0.027,0.014,0.057,0.021,0.086c0.006,0.027,0.012,0.057,0.02,0.084
		c0.008,0.021,0.016,0.043,0.025,0.064c0.004,0.029,0.012,0.059,0.018,0.088c0.014,0.051,0.027,0.101,0.045,0.15
		c0.006,0.028,0.014,0.057,0.021,0.086c0.006,0.029,0.014,0.059,0.02,0.087c0.014,0.05,0.029,0.101,0.045,0.149
		c0.006,0.029,0.014,0.059,0.02,0.088c0.014,0.05,0.029,0.1,0.045,0.149c0.006,0.028,0.014,0.058,0.021,0.085
		c0.006,0.029,0.014,0.059,0.021,0.088c0.012,0.05,0.027,0.1,0.043,0.149c0.008,0.029,0.016,0.06,0.027,0.089
		c-0.002,0.073,0,0.146,0,0.221c-0.047,0.101-0.129,0.178-0.221,0.238c-0.031,0.008-0.063,0.016-0.094,0.025
		c-0.035,0-0.07,0-0.105,0c-0.031-0.01-0.061-0.018-0.092-0.025c-0.279-0.152-0.555-0.318-0.832-0.475
		c-0.195,0.303-0.361,0.623-0.549,0.932c-0.342,0.589-0.688,1.176-1.029,1.766c-0.041,0.074-0.088,0.146-0.121,0.225
		c-0.016,0.043-0.029,0.086-0.045,0.129c-0.016,0.113-0.016,0.229,0,0.341c0.016,0.043,0.029,0.085,0.045,0.128
		c0.098,0.25,0.324,0.43,0.58,0.497c0.16,0.021,0.322,0.009,0.482,0.011c1.92,0,3.838,0.001,5.758,0
		c0.053,0.029,0.107,0.051,0.156,0.089c0.061,0.05,0.08,0.13,0.111,0.2c-0.002,0.74-0.002,1.48,0,2.221
		c-0.037,0.125-0.115,0.239-0.242,0.286c-0.039,0.006-0.078,0.013-0.115,0.022c-2.064,0.002-4.129,0.002-6.191,0
		c-0.07-0.021-0.145-0.02-0.217-0.022c-0.049-0.012-0.102-0.019-0.152-0.024c-0.043-0.009-0.088-0.015-0.131-0.021
		c-0.064-0.018-0.129-0.031-0.193-0.043c-0.051-0.016-0.102-0.031-0.152-0.043c-0.021-0.008-0.043-0.015-0.064-0.021
		c-0.023-0.007-0.045-0.014-0.066-0.02c-0.094-0.035-0.186-0.075-0.279-0.109c-0.322-0.15-0.625-0.34-0.895-0.57
		c-0.045-0.041-0.094-0.08-0.141-0.118c-0.084-0.067-0.137-0.164-0.217-0.235c-0.082-0.076-0.143-0.173-0.211-0.261
		c-0.176-0.239-0.326-0.498-0.432-0.776c-0.014-0.036-0.029-0.072-0.045-0.107c-0.006-0.021-0.014-0.043-0.021-0.064
		c-0.014-0.044-0.027-0.087-0.041-0.131c-0.014-0.051-0.027-0.1-0.043-0.15c-0.008-0.029-0.016-0.059-0.021-0.087
		c-0.008-0.036-0.016-0.073-0.023-0.108c-0.006-0.043-0.012-0.086-0.018-0.129c-0.01-0.037-0.02-0.073-0.029-0.109
		c-0.002-0.088,0.006-0.176-0.02-0.26C53.484,74.354,53.482,74.198,53.486,74.044z"/>
	<rect id="_x3C_Slice_x3E__58_" fill="none" width="83.465" height="85.114"/>
</g>
<g id="Credit_Card">
</g>
</svg>
