<?xml version="1.0" encoding="utf-8"?>
<!-- Generator: Adobe Illustrator 16.0.3, SVG Export Plug-In . SVG Version: 6.00 Build 0)  -->
<!DOCTYPE svg PUBLIC "-//W3C//DTD SVG 1.1//EN" "http://www.w3.org/Graphics/SVG/1.1/DTD/svg11.dtd">
<svg version="1.1" id="Layer_1" xmlns="http://www.w3.org/2000/svg" xmlns:xlink="http://www.w3.org/1999/xlink" x="0px" y="0px"
	 width="68px" height="86px" viewBox="0 0 68 86" enable-background="new 0 0 68 86" xml:space="preserve">
<path fill="#97BBD5" d="M62.132,17.522H51.274C48.546,7.391,42.077,0.248,34.546,0.248c-7.529,0-13.998,7.143-16.729,17.274H6.45
	c-1.363,0-2.467,1.011-2.467,2.259l-3,63.246c0,1.246,1.104,2.258,2.467,2.258h61.682c1.361,0,2.465-1.012,2.465-2.258l-3-63.246
	C64.597,18.533,63.493,17.522,62.132,17.522z M16.444,29.141c-1.473-0.59-2.514-2.024-2.514-3.707c0-1.872,1.291-3.431,3.027-3.867
	c-0.342,2.146-0.527,4.389-0.527,6.695C16.431,28.557,16.438,28.849,16.444,29.141z M34.546,3.248
	c6.014,0,11.217,5.842,13.648,14.274H20.897C23.329,9.09,28.534,3.248,34.546,3.248z M19.913,21.979
	c1.199,0.691,2.018,1.971,2.018,3.455c0,1.672-1.029,3.102-2.486,3.699c-0.006-0.29-0.014-0.579-0.014-0.871
	C19.431,26.093,19.599,23.987,19.913,21.979z M47.546,64.078c-0.693,1.108-1.695,2.078-2.973,2.881
	c-1.268,0.798-2.814,1.443-4.594,1.92c-1.625,0.434-3.428,0.724-5.367,0.865l-0.637,4.561c-0.033,0.192-0.109,0.355-0.227,0.496
	c-0.145,0.174-0.385,0.313-0.717,0.41c-0.256,0.076-0.58,0.135-0.992,0.18c-0.393,0.041-0.877,0.063-1.447,0.063
	c-0.732,0-1.314-0.025-1.773-0.074c-0.492-0.055-0.877-0.131-1.176-0.236c-0.379-0.133-0.637-0.322-0.77-0.563
	c-0.119-0.212-0.145-0.445-0.08-0.693l0.617-4.219c-0.744-0.084-1.455-0.186-2.121-0.303c-0.848-0.15-1.627-0.316-2.316-0.498
	c-0.693-0.18-1.307-0.37-1.82-0.563c-0.549-0.206-0.959-0.408-1.254-0.616c-0.334-0.233-0.57-0.567-0.703-0.992
	c-0.119-0.376-0.178-0.907-0.178-1.62c0-0.533,0.023-0.979,0.068-1.326c0.049-0.385,0.139-0.682,0.273-0.908
	c0.158-0.269,0.379-0.465,0.656-0.582c0.58-0.244,1.254-0.26,2.441,0.241c0.521,0.22,1.205,0.468,2.029,0.735
	c0.813,0.265,1.818,0.512,2.986,0.733c1.15,0.22,2.529,0.329,4.098,0.329c2.396,0,4.18-0.307,5.305-0.91
	c1.09-0.585,1.619-1.34,1.619-2.31c0-0.641-0.219-1.146-0.666-1.546c-0.484-0.43-1.143-0.815-1.963-1.146
	c-0.855-0.346-1.84-0.658-2.92-0.932c-1.109-0.281-2.273-0.588-3.455-0.912c-1.195-0.327-2.377-0.713-3.514-1.148
	c-1.166-0.445-2.229-1.004-3.158-1.658c-0.945-0.664-1.709-1.48-2.27-2.424s-0.846-2.094-0.846-3.417c0-1.2,0.289-2.31,0.859-3.298
	c0.572-0.992,1.41-1.872,2.488-2.615c1.074-0.738,2.406-1.345,3.963-1.801c1.404-0.412,2.998-0.704,4.746-0.871l0.604-4.274
	c0.035-0.194,0.113-0.36,0.24-0.499c0.141-0.156,0.363-0.283,0.68-0.389c0.266-0.088,0.6-0.15,1.018-0.187
	c0.377-0.033,0.85-0.05,1.447-0.05c0.699,0,1.295,0.025,1.768,0.074c0.514,0.053,0.91,0.129,1.211,0.234
	c0.488,0.174,0.686,0.414,0.766,0.586c0.086,0.178,0.131,0.379,0.131,0.594l-0.006,0.047l-0.59,3.932
	c0.447,0.054,0.912,0.119,1.389,0.195c0.695,0.109,1.355,0.242,1.961,0.393s1.164,0.311,1.66,0.477
	c0.545,0.184,0.926,0.354,1.162,0.52c0.229,0.161,0.408,0.326,0.533,0.494c0.125,0.167,0.223,0.369,0.287,0.6
	c0.061,0.212,0.102,0.457,0.125,0.749c0.023,0.276,0.035,0.595,0.035,0.956c0,0.482-0.018,0.887-0.051,1.203
	c-0.037,0.352-0.109,0.619-0.217,0.821c-0.135,0.247-0.305,0.419-0.518,0.522c-0.504,0.25-1.154,0.217-2.264-0.189
	c-0.527-0.193-1.188-0.403-1.955-0.627c-0.768-0.222-1.666-0.433-2.672-0.626c-0.975-0.188-2.068-0.283-3.248-0.283
	c-1.07,0-1.994,0.072-2.742,0.215c-0.721,0.138-1.307,0.328-1.74,0.566c-0.424,0.233-0.725,0.502-0.926,0.821
	c-0.203,0.326-0.307,0.693-0.307,1.09c0,0.627,0.225,1.133,0.686,1.549c0.49,0.441,1.158,0.829,1.984,1.151
	c0.869,0.339,1.871,0.655,2.977,0.937c1.146,0.291,2.314,0.599,3.504,0.922c1.199,0.326,2.396,0.707,3.555,1.134
	c1.189,0.438,2.266,0.99,3.197,1.637c0.941,0.657,1.711,1.46,2.283,2.386c0.576,0.933,0.867,2.061,0.867,3.354
	C48.595,61.715,48.243,62.971,47.546,64.078z M49.647,29.133c-1.457-0.598-2.486-2.027-2.486-3.699c0-1.484,0.818-2.764,2.018-3.455
	c0.314,2.009,0.482,4.114,0.482,6.283C49.661,28.554,49.655,28.843,49.647,29.133z M52.647,29.141
	c0.006-0.292,0.014-0.584,0.014-0.879c0-2.307-0.184-4.549-0.525-6.695c1.734,0.437,3.025,1.995,3.025,3.867
	C55.161,27.116,54.12,28.551,52.647,29.141z"/>
<rect id="_x3C_Slice_x3E__138_" x="0.983" y="0.258" fill="none" width="66.613" height="85.018"/>
<rect id="_x3C_Slice_x3E__83_" fill="none" width="68" height="86"/>
</svg>
