<?xml version="1.0" encoding="utf-8"?>
<!-- Generator: Adobe Illustrator 16.0.3, SVG Export Plug-In . SVG Version: 6.00 Build 0)  -->
<!DOCTYPE svg PUBLIC "-//W3C//DTD SVG 1.1//EN" "http://www.w3.org/Graphics/SVG/1.1/DTD/svg11.dtd">
<svg version="1.1" id="Layer_1" xmlns="http://www.w3.org/2000/svg" xmlns:xlink="http://www.w3.org/1999/xlink" x="0px" y="0px"
	 width="85px" height="79px" viewBox="0 0 85 79" enable-background="new 0 0 85 79" xml:space="preserve">
<path fill="#97BBD5" d="M53.416,48.869l5.086-5.076c0,0-19.264-8.209-20.053-8.506c-0.422-0.158-0.861-0.244-1.314-0.244
	c-2.037,0-3.688,1.625-3.688,3.639c0,0.473,0.09,0.912,0.246,1.313c0.297,0.75,8.527,20.039,8.527,20.039l5.092-5.092l5.104,5.092
	c1.684,1.68,4.402,1.68,6.086,0c1.686-1.682,1.686-4.393,0-6.074L53.416,48.869z"/>
<path fill="#97BBD5" d="M77.314,0.041H7.127c-3.877,0-7.018,3.133-7.018,7v64.75c0,3.869,3.141,7.004,7.018,7.004h70.188
	c3.877,0,7.02-3.135,7.02-7.004V7.041C84.334,3.174,81.191,0.041,77.314,0.041z M44.854,8.791c2.422,0,4.387,1.961,4.387,4.377
	c0,2.414-1.965,4.375-4.387,4.375c-2.42,0-4.389-1.961-4.389-4.375C40.465,10.752,42.434,8.791,44.854,8.791z M29.061,8.791
	c2.422,0,4.387,1.961,4.387,4.377c0,2.414-1.965,4.375-4.387,4.375c-2.42,0-4.387-1.961-4.387-4.375
	C24.674,10.752,26.641,8.791,29.061,8.791z M13.27,8.791c2.418,0,4.387,1.961,4.387,4.377c0,2.414-1.969,4.375-4.387,4.375
	c-2.422,0-4.387-1.961-4.387-4.375C8.883,10.752,10.848,8.791,13.27,8.791z M75.559,66.193c0,2.135-1.719,3.85-3.857,3.85H12.742
	c-2.141,0-3.859-1.715-3.859-3.85V28.393c0-2.137,1.719-3.854,3.859-3.854h58.959c2.139,0,3.857,1.717,3.857,3.854V66.193z"/>
<rect id="_x3C_Slice_x3E__128_" x="0.109" y="0.041" fill="none" width="84.225" height="78.754"/>
<rect id="_x3C_Slice_x3E__121_" fill="none" width="85" height="79"/>
</svg>
