<?xml version="1.0" encoding="utf-8"?>
<!-- Generator: Adobe Illustrator 16.0.3, SVG Export Plug-In . SVG Version: 6.00 Build 0)  -->
<!DOCTYPE svg PUBLIC "-//W3C//DTD SVG 1.1//EN" "http://www.w3.org/Graphics/SVG/1.1/DTD/svg11.dtd">
<svg version="1.1" id="Layer_1" xmlns="http://www.w3.org/2000/svg" xmlns:xlink="http://www.w3.org/1999/xlink" x="0px" y="0px"
	 width="85px" height="86px" viewBox="0 0 85 86" enable-background="new 0 0 85 86" xml:space="preserve">
<path fill="#97BBD5" d="M65.844,41.376c-3.301,0-6.168,0.546-8.523,1.623c-2.369,1.079-4.336,2.62-5.844,4.578
	c-1.5,1.943-2.613,4.266-3.307,6.898c-0.689,2.607-1.039,5.512-1.039,8.631c0,3.116,0.287,6.002,0.854,8.576
	c0.574,2.62,1.574,4.904,2.977,6.791c1.408,1.9,3.316,3.402,5.672,4.466c2.338,1.056,5.275,1.59,8.73,1.59
	c3.256,0,6.104-0.534,8.461-1.589c2.367-1.059,4.342-2.566,5.871-4.48c1.521-1.905,2.656-4.229,3.373-6.904
	c0.709-2.648,1.068-5.657,1.068-8.942c0-2.776-0.266-5.472-0.791-8.015c-0.533-2.576-1.494-4.869-2.85-6.814
	c-1.367-1.963-3.264-3.541-5.639-4.688C72.496,41.954,69.463,41.376,65.844,41.376z M70.855,68.487
	c-0.191,1.477-0.508,2.695-0.938,3.619c-0.41,0.88-0.951,1.533-1.611,1.943c-0.666,0.416-1.535,0.626-2.584,0.626
	c-0.914,0-1.725-0.159-2.404-0.474c-0.646-0.296-1.205-0.859-1.66-1.674c-0.484-0.859-0.863-2.082-1.131-3.634
	c-0.271-1.576-0.41-3.647-0.41-6.157c0-2.186,0.119-4.053,0.352-5.551c0.229-1.472,0.582-2.677,1.049-3.582
	c0.445-0.86,1.006-1.487,1.664-1.861c0.67-0.382,1.465-0.575,2.363-0.575c0.975,0,1.832,0.204,2.543,0.606
	c0.693,0.393,1.26,1.036,1.684,1.91c0.451,0.928,0.797,2.167,1.027,3.684c0.232,1.547,0.352,3.457,0.352,5.677
	C71.15,65.147,71.053,66.978,70.855,68.487z"/>
<path fill="#97BBD5" d="M7.213,82.79c-0.085,0.618,0.119,1.187,0.591,1.644c0.42,0.407,1.058,0.698,1.95,0.886
	c0.813,0.172,1.909,0.259,3.258,0.259c1.168,0,2.175-0.043,2.991-0.126c0.84-0.088,1.569-0.243,2.169-0.463
	c0.616-0.227,1.144-0.518,1.566-0.861c0.415-0.336,0.821-0.777,1.216-1.315L76.184,4.922c0.453-0.651,0.719-1.233,0.814-1.774
	c0.115-0.646-0.078-1.233-0.557-1.697c-0.42-0.408-1.059-0.697-1.949-0.887c-0.814-0.171-1.91-0.258-3.258-0.258
	c-1.17,0-2.176,0.043-2.992,0.126c-0.838,0.087-1.576,0.241-2.193,0.46c-0.648,0.23-1.186,0.54-1.598,0.916
	c-0.381,0.35-0.754,0.754-1.16,1.264L8.066,80.956C7.566,81.654,7.287,82.254,7.213,82.79z"/>
<path fill="#97BBD5" d="M4.238,38.575c1.408,1.9,3.316,3.402,5.672,4.465c2.337,1.056,5.274,1.592,8.731,1.592
	c3.257,0,6.104-0.535,8.461-1.59c2.366-1.059,4.342-2.566,5.871-4.48c1.521-1.904,2.655-4.229,3.372-6.905
	c0.709-2.647,1.068-5.655,1.068-8.941c0-2.776-0.266-5.472-0.79-8.015c-0.534-2.576-1.494-4.869-2.85-6.814
	c-1.368-1.963-3.265-3.541-5.639-4.688c-2.361-1.142-5.395-1.72-9.015-1.72c-3.297,0-6.166,0.546-8.524,1.621
	c-2.368,1.082-4.335,2.623-5.843,4.58c-1.499,1.943-2.611,4.265-3.307,6.898c-0.689,2.607-1.039,5.512-1.039,8.631
	c0,3.116,0.287,6.001,0.854,8.576C1.836,34.403,2.837,36.688,4.238,38.575z M13.747,17.288c0.229-1.473,0.581-2.677,1.049-3.582
	c0.445-0.861,1.005-1.488,1.663-1.861c0.669-0.382,1.464-0.576,2.363-0.576c0.976,0,1.832,0.205,2.543,0.607
	c0.693,0.393,1.261,1.035,1.685,1.91c0.451,0.928,0.796,2.168,1.025,3.684c0.234,1.547,0.354,3.457,0.354,5.678
	c0,2.102-0.1,3.934-0.295,5.441c-0.192,1.477-0.508,2.693-0.938,3.619c-0.409,0.879-0.95,1.533-1.61,1.943
	c-0.666,0.416-1.535,0.626-2.584,0.626c-0.915,0-1.725-0.159-2.406-0.474c-0.644-0.297-1.202-0.858-1.659-1.673
	c-0.483-0.861-0.864-2.085-1.131-3.634c-0.271-1.576-0.41-3.648-0.41-6.158C13.395,20.655,13.514,18.787,13.747,17.288z"/>
<rect id="_x3C_Slice_x3E__79_" fill="none" width="85" height="86"/>
</svg>
