<?xml version="1.0" encoding="utf-8"?>
<!-- Generator: Adobe Illustrator 16.0.3, SVG Export Plug-In . SVG Version: 6.00 Build 0)  -->
<!DOCTYPE svg PUBLIC "-//W3C//DTD SVG 1.1//EN" "http://www.w3.org/Graphics/SVG/1.1/DTD/svg11.dtd">
<svg version="1.1" id="Layer_1" xmlns="http://www.w3.org/2000/svg" xmlns:xlink="http://www.w3.org/1999/xlink" x="0px" y="0px"
	 width="84px" height="87px" viewBox="0 0 84 87" enable-background="new 0 0 84 87" xml:space="preserve">
<path fill="#97BBD5" d="M42.078,0.933c-23.008,0-41.66,19.064-41.66,42.583c0,23.517,18.652,42.583,41.66,42.583
	s41.66-19.066,41.66-42.583C83.738,19.997,65.086,0.933,42.078,0.933z M42.078,79.445c-19.383,0-35.15-16.12-35.15-35.93
	c0-19.813,15.768-35.93,35.15-35.93s35.15,16.116,35.15,35.93C77.229,63.325,61.461,79.445,42.078,79.445z"/>
<path fill="#97BBD5" d="M38.674,26.777c-0.555-0.403-1.234-0.646-1.971-0.646c-1.83,0-3.311,1.482-3.311,3.311v3.313v21.523v3.313
	c0,1.829,1.48,3.309,3.311,3.309c0.736,0,1.416-0.238,1.971-0.646l16.682-13.797c1.621-1.624,1.621-4.259,0-5.88L38.674,26.777z"/>
<rect id="_x3C_Slice_x3E__134_" x="0.418" y="1.007" fill="none" width="83.32" height="85.018"/>
<rect id="_x3C_Slice_x3E__105_" fill="none" width="84" height="87"/>
</svg>
