<?xml version="1.0" encoding="utf-8"?>
<!-- Generator: Adobe Illustrator 16.0.3, SVG Export Plug-In . SVG Version: 6.00 Build 0)  -->
<!DOCTYPE svg PUBLIC "-//W3C//DTD SVG 1.1//EN" "http://www.w3.org/Graphics/SVG/1.1/DTD/svg11.dtd">
<svg version="1.1" id="Layer_1" xmlns="http://www.w3.org/2000/svg" xmlns:xlink="http://www.w3.org/1999/xlink" x="0px" y="0px"
	 width="75px" height="86px" viewBox="0 0 75 86" enable-background="new 0 0 75 86" xml:space="preserve">
<path fill="#93B4CB" d="M74.84,44.71c-0.066-3.424-1.257-6.807-3.336-9.416l-0.033,0.008c-0.283-0.363-0.578-0.717-0.89-1.049
	c-2.065-2.113-4.705-3.6-7.537-4.086c-1.501-0.291-3.031-0.195-4.55-0.211c-9.253-0.012-18.422,0.02-27.675-0.014h-0.087
	l-1.654,0.014c-5.062,0.002-10.125-0.006-15.188,0.004c-4.021,0.055-7.957,2.08-10.529,5.373c-2.079,2.609-3.27,5.992-3.336,9.416
	c-0.015,2.633,0.021,5.268-0.01,7.9l0.01,2.32c0.006,5.143-0.004,10.285,0.004,15.428c-0.006,1.309,0.463,2.621,1.349,3.537
	c0.837,0.896,2.014,1.398,3.197,1.404c3.591,0.006,7.182,0,10.772,0.002c-0.008,1.084,0.039,2.236,0.271,3.299
	c0.117,0.457,0.275,0.9,0.428,1.346c1.213,3.086,4.257,5.234,7.4,5.188c3.802,0.047,7.603,0.004,11.404,0.025
	c3.801-0.021,12.765-0.018,16.566-0.064c3.144,0.047,6.188-2.102,7.4-5.188c0.152-0.445,0.311-0.889,0.428-1.346
	c0.232-1.063,0.279-2.215,0.271-3.299C63.109,75.3,66.7,75.306,70.291,75.3c1.184-0.006,2.36-0.508,3.197-1.404
	c0.886-0.916,1.354-2.229,1.349-3.537c0.008-5.143-0.002-10.285,0.004-15.428l0.01-2.322C74.82,49.976,74.855,47.343,74.84,44.71z
	 M70.616,54.276c-0.063,5.357-0.004,10.721-0.028,16.084c0.028,0.195-0.086,0.385-0.284,0.387l-14.525,0.02c-0.17,0-0.339,0-0.508,0
	c0.015,1.826,0.004,3.654,0.006,5.48c0.011,0.873-0.199,1.76-0.664,2.486c-0.715,1.174-2.012,1.898-3.32,1.871
	c-5.316,0.008-10.633-0.004-15.951,0.004c0.012,0.014,0.016,0.025,0.027,0.039c-3.932-0.002-7.861,0.002-11.793-0.002
	c-1.309,0.025-2.605-0.699-3.32-1.873c-0.465-0.727-0.675-1.613-0.664-2.486c0.002-1.826-0.009-3.654,0.006-5.479
	c-0.169-0.002-0.338-0.002-0.508-0.002L4.563,70.788c-0.198-0.004-0.313-0.191-0.284-0.389C4.254,65.036,4.313,59.675,4.25,54.315
	l-0.004-0.977c0.063-2.033,0.014-4.07,0.029-6.104c0.022-1.393-0.087-2.801,0.178-4.176c0.463-2.547,1.852-4.875,3.795-6.428
	c1.619-1.307,3.622-2.072,5.654-2.119c5.13-0.008,10.266-0.006,15.4-0.014v0.002l0.107-0.002c0.002,0,0.004,0,0.007,0l5.401-0.01
	c1.599,0.047,3.198,0.01,4.797,0.021c7.068,0,14.135,0,21.203,0c2.498,0.014,4.962,1.123,6.745,2.984
	c1.306,1.445,2.392,3.309,2.786,5.283c0.348,1.543,0.203,3.141,0.24,4.711c0.009,1.938-0.03,3.875,0.029,5.811L70.616,54.276z"/>
<path fill="#93B4CB" d="M21.241,19.806c0.02,0.016,0.037,0.033,0.057,0.047c-0.01-4.611-0.002-9.221-0.005-13.832
	c-0.013-0.781,0.283-1.531,0.724-2.145c0.754-0.053,1.475-0.369,2.056-0.883c0.95,0.863,2.339,1.127,3.499,0.619
	c0.363-0.125,0.635-0.443,0.985-0.582c0.522,0.4,1.104,0.742,1.755,0.809c0.961,0.154,1.932-0.205,2.684-0.84
	c1.226,1.156,3.211,1.15,4.438-0.004C38.62,4.099,40.51,4.163,41.74,3.11c0.046-0.035,0.092-0.07,0.136-0.107
	c0.237,0.191,0.493,0.361,0.762,0.498c0.01,0.006,0.021,0.012,0.032,0.018c0.499,0.25,1.044,0.389,1.603,0.348
	c0.072,0,0.138-0.012,0.198-0.027c0.169-0.021,0.336-0.057,0.501-0.104c0.413-0.111,0.807-0.303,1.154-0.574
	c0.074-0.055,0.148-0.113,0.221-0.172c0.585,0.555,1.346,0.844,2.112,0.869c0.006,0,0.011,0,0.017,0
	c0.834,0.025,1.676-0.26,2.313-0.859c0.068,0.055,0.137,0.107,0.209,0.158c0.225,0.18,0.471,0.324,0.729,0.434
	c0.013,0.004,0.024,0.01,0.036,0.016c0.01,0.004,0.02,0.008,0.029,0.012c0.33,0.143,0.679,0.232,1.041,0.25
	c0.451,0.561,0.729,1.283,0.742,2.025c0.025,6.199-0.002,12.402,0.027,18.604h-0.016l0.028,3.873l2.237-0.016v-3.857
	c-0.001-6.156,0.004-12.314-0.003-18.471c0.005-1.773-0.435-4.088-2.163-4.584c0,0-0.105-0.063-0.414-0.027l-0.004-0.012
	c-0.027,0.01-0.055,0.018-0.082,0.021c-0.021,0.004-0.042,0.008-0.063,0.012c-0.009,0.002-0.019,0.002-0.028,0.004l-0.096,0.004
	c-0.405-0.002-0.773-0.293-0.982-0.664c-0.385-0.648-1.195-0.613-1.816-0.5c-0.293,0.059-0.483,0.275-0.66,0.51
	c0-0.006,0.002-0.01,0.003-0.018l-0.45,0.512c-0.059,0.037-0.121,0.068-0.187,0.092l-0.526,0.045
	c-0.029-0.006-0.061-0.012-0.09-0.02c-0.002,0-0.002-0.002-0.004-0.002c-0.006,0-0.014-0.004-0.02-0.006
	c-0.198-0.068-0.377-0.201-0.52-0.369l-0.022-0.025c-0.056-0.068-0.106-0.141-0.149-0.219c-0.385-0.648-1.197-0.613-1.816-0.5
	c-0.09,0.018-0.169,0.051-0.242,0.094c-0.009,0.006-0.018,0.012-0.025,0.018c-0.021,0.012-0.04,0.025-0.06,0.041
	c-0.007,0.004-0.013,0.01-0.02,0.016c-0.001,0-0.003,0-0.003,0.002c-0.021,0.008-0.042,0.016-0.064,0.025
	c-0.016,0.025-0.031,0.051-0.047,0.078c-0.118,0.119-0.221,0.264-0.324,0.402c-0.107,0.137-0.222,0.266-0.363,0.352
	c-0.059,0.035-0.121,0.061-0.185,0.082c-0.006,0-0.012,0.004-0.017,0.004c-0.059,0.014-0.117,0.025-0.176,0.037
	c-0.16,0.018-0.322-0.002-0.474-0.057c-0.146-0.063-0.281-0.156-0.398-0.275c-0.019-0.02-0.036-0.043-0.053-0.064l0.001,0.01
	c-0.07-0.082-0.135-0.17-0.186-0.264c-0.387-0.648-1.198-0.613-1.818-0.5c-0.432,0.086-0.643,0.521-0.914,0.84
	c-0.403,0.459-1.176,0.412-1.535-0.086l0.001,0.01c-0.224-0.277-0.396-0.619-0.747-0.723c-0.423-0.115-0.881-0.111-1.307-0.014
	c-0.596,0.154-0.726,0.984-1.334,1.111c-0.506,0.162-0.998-0.172-1.252-0.625c-0.385-0.648-1.196-0.611-1.816-0.5
	c-0.433,0.088-0.645,0.521-0.914,0.84c-0.403,0.459-1.178,0.412-1.536-0.086c-0.226-0.313-0.456-0.68-0.849-0.756
	c-0.599-0.09-1.38-0.156-1.77,0.449c-0.252,0.438-0.693,0.814-1.204,0.697c-0.515-0.053-0.738-0.598-1.071-0.936
	c-0.472-0.389-1.111-0.25-1.646-0.131c-0.579,0.137-0.721,0.943-1.316,1.049c-0.414,0.037-0.977,0.135-1.282,0.412
	c-1.286,0.842-1.786,2.559-1.788,4.195c0,2.094,0,4.186,0,6.279h-0.001v16.105h2.218V19.806z"/>
<rect x="36.219" y="9.369" fill="#97BBD5" width="0.899" height="16.171"/>
<rect x="33.309" y="9.369" fill="#97BBD5" width="0.898" height="16.171"/>
<rect x="38.017" y="9.369" fill="#97BBD5" width="1.796" height="16.171"/>
<rect x="25.062" y="9.369" fill="#97BBD5" width="0.898" height="16.171"/>
<rect x="26.858" y="9.369" fill="#97BBD5" width="1.796" height="16.171"/>
<rect x="30.613" y="9.369" fill="#97BBD5" width="1.797" height="16.171"/>
<rect x="41.573" y="9.369" fill="#97BBD5" width="2.695" height="16.171"/>
<rect x="47.43" y="9.369" fill="#97BBD5" width="1.814" height="16.171"/>
<rect x="45.633" y="9.369" fill="#97BBD5" width="0.899" height="16.171"/>
<g>
	<path fill="#93B4CB" d="M49.646,64.325c0,1.728-0.321,3.241-0.965,4.545c-0.644,1.305-1.516,2.392-2.616,3.265
		c-1.101,0.871-2.388,1.528-3.86,1.967c-1.474,0.442-3.047,0.661-4.725,0.661c-1.135,0-2.188-0.093-3.162-0.278
		c-0.974-0.188-1.833-0.411-2.577-0.673c-0.745-0.264-1.368-0.538-1.867-0.826c-0.5-0.288-0.86-0.543-1.08-0.761
		c-0.22-0.221-0.376-0.538-0.469-0.953c-0.094-0.416-0.14-1.013-0.14-1.79c0-0.526,0.017-0.966,0.051-1.322
		c0.034-0.354,0.089-0.643,0.165-0.863c0.076-0.22,0.178-0.376,0.304-0.47c0.127-0.093,0.275-0.14,0.444-0.14
		c0.237,0,0.572,0.14,1.003,0.42c0.432,0.278,0.986,0.587,1.663,0.926c0.677,0.338,1.487,0.648,2.426,0.928
		c0.94,0.279,2.028,0.42,3.264,0.42c0.813,0,1.542-0.097,2.185-0.292s1.189-0.47,1.639-0.826c0.448-0.355,0.791-0.797,1.028-1.321
		c0.237-0.524,0.354-1.108,0.354-1.752c0-0.745-0.203-1.384-0.608-1.917c-0.407-0.533-0.936-1.009-1.587-1.424
		c-0.653-0.415-1.394-0.803-2.224-1.169c-0.83-0.36-1.684-0.747-2.564-1.154c-0.881-0.407-1.736-0.866-2.565-1.384
		c-0.83-0.516-1.57-1.134-2.223-1.854c-0.651-0.719-1.18-1.571-1.587-2.553c-0.406-0.981-0.61-2.158-0.61-3.529
		c0-1.574,0.292-2.959,0.876-4.152c0.584-1.193,1.371-2.185,2.362-2.972c0.991-0.787,2.16-1.376,3.505-1.766
		c1.346-0.389,2.772-0.584,4.279-0.584c0.779,0,1.558,0.059,2.337,0.178c0.779,0.118,1.507,0.278,2.184,0.483
		c0.677,0.202,1.278,0.431,1.803,0.684c0.524,0.255,0.872,0.467,1.041,0.637c0.169,0.169,0.284,0.313,0.343,0.432
		c0.059,0.118,0.11,0.274,0.153,0.47c0.042,0.193,0.071,0.44,0.088,0.736c0.017,0.298,0.025,0.664,0.025,1.104
		c0,0.491-0.013,0.905-0.038,1.245c-0.026,0.338-0.068,0.617-0.127,0.837c-0.059,0.221-0.144,0.381-0.254,0.483
		c-0.11,0.102-0.258,0.152-0.444,0.152s-0.483-0.118-0.889-0.355c-0.406-0.236-0.906-0.495-1.499-0.773
		c-0.592-0.28-1.278-0.534-2.057-0.764c-0.779-0.228-1.634-0.343-2.565-0.343c-0.728,0-1.363,0.09-1.905,0.268
		s-0.996,0.423-1.359,0.736c-0.364,0.313-0.635,0.688-0.812,1.131c-0.179,0.438-0.268,0.904-0.268,1.395
		c0,0.729,0.199,1.359,0.597,1.895c0.398,0.531,0.932,1.006,1.601,1.422c0.668,0.415,1.427,0.804,2.273,1.167
		c0.847,0.365,1.709,0.75,2.59,1.156c0.881,0.405,1.744,0.868,2.591,1.384c0.847,0.518,1.6,1.136,2.26,1.854
		c0.661,0.72,1.194,1.566,1.601,2.54C49.442,61.857,49.646,63.004,49.646,64.325z"/>
</g>
<g>
	<path fill="#93B4CB" d="M61.871,49.513c-1.182,0.396-2.05,1.641-2.06,2.965c-0.049,1.346,0.807,2.652,2.002,3.076
		c0.999,0.395,2.181,0.135,2.969-0.625c0.899-0.834,1.249-2.273,0.823-3.467C65.109,49.878,63.346,48.954,61.871,49.513z"/>
	<path fill="#93B4CB" d="M64.823,46.837c0.887-0.844,1.205-2.277,0.771-3.457c-0.487-1.457-2.043-2.361-3.455-1.992
		c-1.329,0.293-2.357,1.66-2.328,3.113c-0.017,1.109,0.57,2.193,1.477,2.74C62.386,47.935,63.893,47.774,64.823,46.837z"/>
	<path fill="#93B4CB" d="M62.006,57.519c-1.181,0.33-2.105,1.5-2.186,2.805c-0.12,1.273,0.565,2.57,1.645,3.119
		c1.161,0.635,2.69,0.338,3.551-0.715c0.967-1.094,1.024-2.932,0.137-4.098C64.438,57.624,63.14,57.177,62.006,57.519z"/>
</g>
<rect id="_x3C_Slice_x3E__24_" fill="none" width="75" height="86"/>
</svg>
