<?xml version="1.0" encoding="utf-8"?>
<!-- Generator: Adobe Illustrator 16.0.3, SVG Export Plug-In . SVG Version: 6.00 Build 0)  -->
<!DOCTYPE svg PUBLIC "-//W3C//DTD SVG 1.1//EN" "http://www.w3.org/Graphics/SVG/1.1/DTD/svg11.dtd">
<svg version="1.1" id="Layer_1" xmlns="http://www.w3.org/2000/svg" xmlns:xlink="http://www.w3.org/1999/xlink" x="0px" y="0px"
	 width="76px" height="86px" viewBox="0 0 76 86" enable-background="new 0 0 76 86" xml:space="preserve">
<path fill="#93B4CB" d="M75.334,44.741c-0.066-3.424-1.257-6.807-3.336-9.416l-0.033,0.008c-0.283-0.363-0.578-0.717-0.89-1.049
	c-2.065-2.113-4.705-3.6-7.537-4.086c-1.501-0.291-3.031-0.195-4.55-0.211c-9.253-0.012-18.422,0.02-27.675-0.014h-0.087
	l-1.654,0.014c-5.062,0.002-10.125-0.006-15.188,0.004c-4.021,0.055-7.957,2.08-10.529,5.373c-2.079,2.609-3.27,5.992-3.336,9.416
	c-0.015,2.633,0.021,5.268-0.01,7.9l0.01,2.32c0.006,5.143-0.004,10.285,0.004,15.428c-0.006,1.309,0.463,2.621,1.349,3.537
	c0.837,0.896,2.014,1.398,3.197,1.404c3.591,0.006,7.182,0,10.772,0.002c-0.008,1.084,0.039,2.236,0.271,3.299
	c0.117,0.457,0.275,0.9,0.428,1.346c1.213,3.086,4.257,5.234,7.4,5.188c3.802,0.047,7.603,0.004,11.404,0.025
	c3.801-0.021,12.765-0.018,16.566-0.064c3.144,0.047,6.188-2.102,7.4-5.188c0.152-0.445,0.311-0.889,0.428-1.346
	c0.232-1.063,0.279-2.215,0.271-3.299c3.591-0.002,7.182,0.004,10.772-0.002c1.184-0.006,2.36-0.508,3.197-1.404
	c0.886-0.916,1.354-2.229,1.349-3.537c0.008-5.143-0.002-10.285,0.004-15.428l0.01-2.322C75.314,50.007,75.349,47.374,75.334,44.741
	z M71.11,54.308c-0.063,5.357-0.004,10.721-0.028,16.084c0.028,0.195-0.086,0.385-0.284,0.387l-14.525,0.02c-0.17,0-0.339,0-0.508,0
	c0.015,1.826,0.004,3.654,0.006,5.48c0.011,0.873-0.199,1.76-0.664,2.486c-0.715,1.174-2.012,1.898-3.32,1.871
	c-5.316,0.008-10.633-0.004-15.951,0.004c0.012,0.014,0.016,0.025,0.027,0.039C31.93,80.677,28,80.681,24.069,80.677
	c-1.309,0.025-2.605-0.699-3.32-1.873c-0.465-0.727-0.675-1.613-0.664-2.486c0.002-1.826-0.009-3.654,0.006-5.479
	c-0.169-0.002-0.338-0.002-0.508-0.002L5.057,70.819c-0.198-0.004-0.313-0.191-0.284-0.389c-0.024-5.363,0.034-10.725-0.028-16.084
	L4.741,53.37c0.063-2.033,0.014-4.07,0.029-6.104c0.022-1.393-0.087-2.801,0.178-4.176c0.463-2.547,1.852-4.875,3.795-6.428
	c1.619-1.307,3.622-2.072,5.654-2.119c5.13-0.008,10.266-0.006,15.4-0.014v0.002l0.107-0.002c0.002,0,0.004,0,0.007,0l5.401-0.01
	c1.599,0.047,3.198,0.01,4.797,0.021c7.068,0,14.135,0,21.203,0c2.498,0.014,4.962,1.123,6.745,2.984
	c1.306,1.445,2.392,3.309,2.786,5.283c0.348,1.543,0.203,3.141,0.24,4.711c0.009,1.938-0.03,3.875,0.029,5.811L71.11,54.308z"/>
<path fill="#93B4CB" d="M21.735,19.837c0.02,0.016,0.037,0.033,0.057,0.047c-0.01-4.611-0.002-9.221-0.005-13.832
	c-0.013-0.781,0.283-1.531,0.724-2.145c0.754-0.053,1.475-0.369,2.056-0.883c0.95,0.863,2.339,1.127,3.499,0.619
	C28.428,3.519,28.7,3.2,29.05,3.062c0.522,0.4,1.104,0.742,1.755,0.809c0.961,0.154,1.932-0.205,2.684-0.84
	c1.226,1.156,3.211,1.15,4.438-0.004c1.188,1.104,3.078,1.168,4.308,0.115c0.046-0.035,0.092-0.07,0.136-0.107
	c0.237,0.191,0.493,0.361,0.762,0.498c0.01,0.006,0.021,0.012,0.032,0.018c0.499,0.25,1.044,0.389,1.603,0.348
	c0.072,0,0.138-0.012,0.198-0.027c0.169-0.021,0.336-0.057,0.501-0.104c0.413-0.111,0.807-0.303,1.154-0.574
	c0.074-0.055,0.148-0.113,0.221-0.172c0.585,0.555,1.346,0.844,2.112,0.869c0.006,0,0.011,0,0.017,0
	c0.834,0.025,1.676-0.26,2.313-0.859c0.068,0.055,0.137,0.107,0.209,0.158c0.225,0.18,0.471,0.324,0.729,0.434
	c0.013,0.004,0.024,0.01,0.036,0.016c0.01,0.004,0.02,0.008,0.029,0.012c0.33,0.143,0.679,0.232,1.041,0.25
	c0.451,0.561,0.729,1.283,0.742,2.025c0.025,6.199-0.002,12.402,0.027,18.604h-0.016l0.028,3.873l2.237-0.016v-3.857
	c-0.001-6.156,0.004-12.314-0.003-18.471c0.005-1.773-0.435-4.088-2.163-4.584c0,0-0.105-0.063-0.414-0.027l-0.004-0.012
	c-0.027,0.01-0.055,0.018-0.082,0.021c-0.021,0.004-0.042,0.008-0.063,0.012c-0.009,0.002-0.019,0.002-0.028,0.004l-0.096,0.004
	c-0.405-0.002-0.773-0.293-0.982-0.664c-0.385-0.648-1.195-0.613-1.816-0.5c-0.293,0.059-0.483,0.275-0.66,0.51
	c0-0.006,0.002-0.01,0.003-0.018l-0.45,0.512c-0.059,0.037-0.121,0.068-0.187,0.092l-0.526,0.045
	c-0.029-0.006-0.061-0.012-0.09-0.02c-0.002,0-0.002-0.002-0.004-0.002c-0.006,0-0.014-0.004-0.02-0.006
	c-0.198-0.068-0.377-0.201-0.52-0.369L48.218,1.03c-0.056-0.068-0.106-0.141-0.149-0.219c-0.385-0.648-1.197-0.613-1.816-0.5
	c-0.09,0.018-0.169,0.051-0.242,0.094c-0.009,0.006-0.018,0.012-0.025,0.018c-0.021,0.012-0.04,0.025-0.06,0.041
	c-0.007,0.004-0.013,0.01-0.02,0.016c-0.001,0-0.003,0-0.003,0.002c-0.021,0.008-0.042,0.016-0.064,0.025
	c-0.016,0.025-0.031,0.051-0.047,0.078c-0.118,0.119-0.221,0.264-0.324,0.402c-0.107,0.137-0.222,0.266-0.363,0.352
	c-0.059,0.035-0.121,0.061-0.185,0.082c-0.006,0-0.012,0.004-0.017,0.004c-0.059,0.014-0.117,0.025-0.176,0.037
	c-0.16,0.018-0.322-0.002-0.474-0.057c-0.146-0.063-0.281-0.156-0.398-0.275c-0.019-0.02-0.036-0.043-0.053-0.064l0.001,0.01
	c-0.07-0.082-0.135-0.17-0.186-0.264c-0.387-0.648-1.198-0.613-1.818-0.5c-0.432,0.086-0.643,0.521-0.914,0.84
	c-0.403,0.459-1.176,0.412-1.535-0.086l0.001,0.01c-0.224-0.277-0.396-0.619-0.747-0.723c-0.423-0.115-0.881-0.111-1.307-0.014
	c-0.596,0.154-0.726,0.984-1.334,1.111c-0.506,0.162-0.998-0.172-1.252-0.625c-0.385-0.648-1.196-0.611-1.816-0.5
	c-0.433,0.088-0.645,0.521-0.914,0.84c-0.403,0.459-1.178,0.412-1.536-0.086c-0.226-0.313-0.456-0.68-0.849-0.756
	c-0.599-0.09-1.38-0.156-1.77,0.449c-0.252,0.438-0.693,0.814-1.204,0.697c-0.515-0.053-0.738-0.598-1.071-0.936
	c-0.472-0.389-1.111-0.25-1.646-0.131c-0.579,0.137-0.721,0.943-1.316,1.049c-0.414,0.037-0.977,0.135-1.282,0.412
	C20.02,2.706,19.52,4.423,19.518,6.06c0,2.094,0,4.186,0,6.279h-0.001v16.105h2.218V19.837z"/>
<g>
	<path fill="#93B4CB" d="M50.623,44.453c0,0.494-0.021,0.92-0.065,1.269c-0.042,0.351-0.106,0.633-0.192,0.849
		c-0.086,0.212-0.193,0.372-0.321,0.473c-0.128,0.104-0.27,0.155-0.424,0.155h-8.316v26.772c0,0.171-0.056,0.324-0.166,0.463
		c-0.112,0.137-0.296,0.248-0.552,0.332c-0.258,0.086-0.603,0.155-1.039,0.206c-0.438,0.05-0.98,0.077-1.631,0.077
		c-0.651,0-1.194-0.027-1.629-0.077c-0.437-0.051-0.783-0.12-1.04-0.206c-0.257-0.084-0.441-0.195-0.552-0.332
		c-0.111-0.139-0.167-0.292-0.167-0.463V47.198h-8.317c-0.171,0-0.316-0.051-0.437-0.155c-0.119-0.101-0.222-0.261-0.307-0.473
		c-0.086-0.216-0.15-0.498-0.193-0.849c-0.043-0.349-0.064-0.774-0.064-1.269c0-0.514,0.021-0.95,0.064-1.311
		c0.042-0.359,0.106-0.646,0.193-0.86c0.085-0.213,0.188-0.368,0.307-0.461c0.12-0.094,0.266-0.142,0.437-0.142h23.409
		c0.155,0,0.296,0.048,0.424,0.142c0.128,0.093,0.235,0.248,0.321,0.461c0.086,0.215,0.15,0.501,0.192,0.86
		C50.601,43.503,50.623,43.939,50.623,44.453z"/>
</g>
<rect x="36.713" y="9.4" fill="#97BBD5" width="0.899" height="16.171"/>
<rect x="33.803" y="9.4" fill="#97BBD5" width="0.898" height="16.171"/>
<rect x="38.511" y="9.4" fill="#97BBD5" width="1.796" height="16.171"/>
<rect x="25.556" y="9.4" fill="#97BBD5" width="0.898" height="16.171"/>
<rect x="27.353" y="9.4" fill="#97BBD5" width="1.796" height="16.171"/>
<rect x="31.107" y="9.4" fill="#97BBD5" width="1.797" height="16.171"/>
<rect x="42.067" y="9.4" fill="#97BBD5" width="2.695" height="16.171"/>
<rect x="47.924" y="9.4" fill="#97BBD5" width="1.814" height="16.171"/>
<rect x="46.127" y="9.4" fill="#97BBD5" width="0.899" height="16.171"/>
<g>
	<path fill="#93B4CB" d="M62.538,48.952c-1.182,0.396-2.05,1.641-2.06,2.965c-0.049,1.346,0.807,2.652,2.002,3.076
		c0.999,0.395,2.181,0.135,2.969-0.625c0.899-0.834,1.249-2.273,0.823-3.467C65.776,49.317,64.014,48.394,62.538,48.952z"/>
	<path fill="#93B4CB" d="M65.49,46.276c0.887-0.844,1.205-2.277,0.771-3.457c-0.487-1.457-2.043-2.361-3.455-1.992
		c-1.329,0.293-2.357,1.66-2.328,3.113c-0.017,1.109,0.57,2.193,1.477,2.74C63.054,47.374,64.561,47.214,65.49,46.276z"/>
	<path fill="#93B4CB" d="M62.674,56.958c-1.181,0.33-2.105,1.5-2.186,2.805c-0.12,1.273,0.565,2.57,1.645,3.119
		c1.161,0.635,2.69,0.338,3.551-0.715c0.967-1.094,1.024-2.932,0.137-4.098C65.105,57.063,63.808,56.616,62.674,56.958z"/>
</g>
<rect id="_x3C_Slice_x3E__22_" fill="none" width="76" height="86"/>
</svg>
