<?xml version="1.0" encoding="utf-8"?>
<!-- Generator: Adobe Illustrator 16.0.3, SVG Export Plug-In . SVG Version: 6.00 Build 0)  -->
<!DOCTYPE svg PUBLIC "-//W3C//DTD SVG 1.1//EN" "http://www.w3.org/Graphics/SVG/1.1/DTD/svg11.dtd">
<svg version="1.1" id="Layer_1" xmlns="http://www.w3.org/2000/svg" xmlns:xlink="http://www.w3.org/1999/xlink" x="0px" y="0px"
	 width="68px" height="86px" viewBox="0 0 68 86" enable-background="new 0 0 68 86" xml:space="preserve">
<g>
	<path fill="#97BBD5" d="M38.443,45.046c-0.348-0.121-0.712-0.197-1.113-0.239c-0.443-0.044-0.943-0.066-1.487-0.066h-2.425
		l-1.989,10.679h2.193c0.931,0,1.727-0.113,2.366-0.337c0.644-0.226,1.212-0.524,1.688-0.886c0.471-0.355,0.878-0.784,1.21-1.272
		c0.347-0.509,0.633-1.052,0.85-1.609c0.22-0.565,0.38-1.141,0.477-1.709c0.099-0.58,0.149-1.145,0.149-1.678
		c0-0.735-0.157-1.345-0.48-1.862C39.581,45.584,39.11,45.251,38.443,45.046z"/>
	<path fill="#97BBD5" d="M64.347,19.536c0-1.247-1.104-2.258-2.466-2.258H51.025C48.295,7.146,41.827,0.003,34.296,0.003
		S20.297,7.146,17.567,17.278H6.2c-1.362,0-2.466,1.011-2.466,2.258L0.733,82.782c0,1.247,1.104,2.259,2.467,2.259h61.682
		c1.362,0,2.466-1.012,2.466-2.259L64.347,19.536z M16.195,28.896c-1.473-0.59-2.515-2.023-2.515-3.707
		c0-1.871,1.291-3.43,3.027-3.867c-0.342,2.146-0.527,4.389-0.527,6.696C16.18,28.312,16.189,28.604,16.195,28.896z M48.928,21.734
		c0.315,2.009,0.483,4.114,0.483,6.283c0,0.292-0.007,0.581-0.014,0.87c-1.457-0.598-2.486-2.026-2.486-3.699
		C46.912,23.705,47.729,22.425,48.928,21.734z M34.296,3.003c6.013,0,11.216,5.842,13.648,14.275H20.647
		C23.08,8.845,28.284,3.003,34.296,3.003z M19.664,21.734c1.199,0.69,2.017,1.971,2.017,3.454c0,1.673-1.029,3.102-2.486,3.699
		c-0.006-0.289-0.014-0.578-0.014-0.87C19.18,25.849,19.348,23.743,19.664,21.734z M49.255,50.593
		c-0.24,1.226-0.631,2.442-1.165,3.617c-0.536,1.178-1.237,2.309-2.086,3.361c-0.857,1.065-1.919,2.02-3.154,2.835
		c-1.232,0.814-2.672,1.464-4.282,1.932c-1.603,0.467-3.504,0.703-5.651,0.703h-2.943l-2.109,11.063
		c-0.071,0.373-0.243,0.703-0.51,0.983c-0.25,0.265-0.593,0.461-1.046,0.602c-0.363,0.112-0.797,0.192-1.328,0.246
		c-0.498,0.051-1.11,0.076-1.817,0.076c-0.693,0-1.283-0.026-1.756-0.076c-0.518-0.056-0.926-0.141-1.247-0.263
		c-0.438-0.164-0.748-0.396-0.948-0.711c-0.162-0.254-0.323-0.684-0.17-1.276l6.3-33.15c0.202-1.104,0.664-1.965,1.373-2.552
		c0.698-0.574,1.554-0.865,2.543-0.865h7.668c0.952,0,1.826,0.035,2.594,0.104c0.77,0.068,1.541,0.184,2.292,0.341
		c1.172,0.243,2.248,0.627,3.195,1.14c0.964,0.522,1.8,1.188,2.482,1.98c0.689,0.8,1.222,1.747,1.584,2.816
		c0.357,1.055,0.539,2.258,0.539,3.573C49.611,48.193,49.491,49.378,49.255,50.593z M52.397,28.896
		c0.006-0.291,0.015-0.584,0.015-0.878c0-2.308-0.185-4.55-0.526-6.696c1.735,0.438,3.026,1.996,3.026,3.867
		C54.912,26.872,53.87,28.306,52.397,28.896z"/>
</g>
<rect id="_x3C_Slice_x3E__29_" fill="none" width="68" height="86"/>
</svg>
