<?xml version="1.0" encoding="utf-8"?>
<!-- Generator: Adobe Illustrator 16.0.3, SVG Export Plug-In . SVG Version: 6.00 Build 0)  -->
<!DOCTYPE svg PUBLIC "-//W3C//DTD SVG 1.1//EN" "http://www.w3.org/Graphics/SVG/1.1/DTD/svg11.dtd">
<svg version="1.1" id="Layer_1" xmlns="http://www.w3.org/2000/svg" xmlns:xlink="http://www.w3.org/1999/xlink" x="0px" y="0px"
	 width="67px" height="86px" viewBox="0 0 67 86" enable-background="new 0 0 67 86" xml:space="preserve">
<g>
	<path fill="#97BBD5" d="M63.994,20.249c0-1.247-1.104-2.258-2.465-2.258H50.672C47.943,7.858,41.475,0.716,33.943,0.716
		c-7.529,0-13.998,7.143-16.729,17.275H5.848c-1.363,0-2.467,1.011-2.467,2.258l-3,63.246c0,1.247,1.104,2.259,2.467,2.259h61.682
		c1.361,0,2.465-1.012,2.465-2.259L63.994,20.249z M15.842,29.608c-1.473-0.59-2.514-2.023-2.514-3.707
		c0-1.871,1.291-3.43,3.027-3.867c-0.342,2.146-0.527,4.389-0.527,6.696C15.828,29.024,15.836,29.317,15.842,29.608z M48.576,22.447
		c0.314,2.009,0.482,4.114,0.482,6.283c0,0.292-0.006,0.581-0.014,0.87c-1.457-0.598-2.486-2.026-2.486-3.699
		C46.559,24.418,47.377,23.138,48.576,22.447z M33.943,3.716c6.014,0,11.217,5.842,13.648,14.275H20.295
		C22.727,9.558,27.932,3.716,33.943,3.716z M19.311,22.447c1.199,0.69,2.018,1.971,2.018,3.454c0,1.673-1.029,3.102-2.486,3.699
		c-0.006-0.289-0.014-0.578-0.014-0.87C18.828,26.562,18.996,24.456,19.311,22.447z M50.92,52.029
		c-0.104,1.015-0.271,2.053-0.496,3.081c-0.229,1.046-0.528,2.098-0.888,3.126c-0.37,1.059-0.816,2.102-1.328,3.102
		c-0.431,0.841-0.933,1.665-1.493,2.449l-0.752,1.054l1.178,0.536c0.139,0.063,0.264,0.115,0.385,0.156
		c0.704,0.241,1.223,0.542,1.629,0.947l0.521,0.521l0.354,0.938c0.101,0.355,0.147,0.744,0.147,1.221c0,0.205-0.017,0.5-0.062,0.884
		c-0.037,0.314-0.091,0.653-0.165,1.022c-0.073,0.365-0.164,0.739-0.273,1.115c-0.13,0.441-0.283,0.842-0.468,1.225
		c-0.229,0.47-0.5,0.881-0.806,1.22c-0.648,0.716-1.521,1.11-2.457,1.11c-0.375,0-0.791-0.061-1.342-0.193
		c-0.455-0.115-0.975-0.287-1.543-0.516c-0.541-0.218-1.134-0.498-1.757-0.829c-0.663-0.356-1.343-0.791-2.016-1.29
		c-0.671-0.5-1.332-1.063-1.976-1.685l-0.645-0.626l-0.566,0.133c-0.186,0.044-0.373,0.086-0.566,0.123
		c-1.08,0.213-2.334,0.324-3.627,0.324c-1.952,0-3.879-0.248-5.427-0.7c-1.737-0.503-3.234-1.306-4.45-2.388
		c-1.24-1.103-2.188-2.493-2.814-4.131c-0.59-1.545-0.889-3.342-0.889-5.342c0-1.514,0.133-3.105,0.396-4.732
		c0.268-1.66,0.704-3.313,1.294-4.909c0.605-1.63,1.397-3.193,2.356-4.647c0.998-1.521,2.229-2.884,3.657-4.047
		c1.457-1.186,3.154-2.128,5.043-2.801c3.354-1.204,8.405-1.331,11.861-0.31c1.74,0.515,3.235,1.326,4.445,2.416
		c1.236,1.105,2.182,2.507,2.811,4.165c0.586,1.559,0.884,3.366,0.884,5.375C51.077,50.053,51.025,51.03,50.92,52.029z
		 M52.045,29.608c0.006-0.291,0.014-0.584,0.014-0.878c0-2.308-0.184-4.55-0.525-6.696c1.734,0.438,3.025,1.996,3.025,3.867
		C54.559,27.585,53.518,29.019,52.045,29.608z"/>
	<path fill="#97BBD5" d="M39.37,47.723l-0.728-0.851l-0.253-0.097c-0.279-0.107-0.793-0.235-1.647-0.235
		c-0.844,0-1.572,0.151-2.159,0.448c-0.673,0.337-1.241,0.766-1.736,1.315c-0.534,0.597-0.991,1.291-1.36,2.067
		c-0.414,0.871-0.752,1.768-1.003,2.665c-0.255,0.915-0.438,1.813-0.546,2.668c-0.111,0.889-0.165,1.633-0.165,2.276
		c0,0.661,0.066,1.24,0.198,1.722l0.069,0.251l0.744,0.804l0.241,0.089c0.344,0.125,1.09,0.19,1.65,0.19
		c0.881,0,1.602-0.137,2.143-0.405c0.678-0.335,1.244-0.762,1.73-1.302c0.534-0.592,0.996-1.283,1.373-2.057
		c0.418-0.864,0.755-1.747,1.002-2.625c0.254-0.895,0.438-1.787,0.545-2.652c0.111-0.885,0.166-1.645,0.166-2.321
		c0-0.652-0.068-1.231-0.201-1.721L39.37,47.723z"/>
</g>
<rect id="_x3C_Slice_x3E__31_" fill="none" width="67" height="86"/>
</svg>
