<?xml version="1.0" encoding="utf-8"?>
<!-- Generator: Adobe Illustrator 16.0.3, SVG Export Plug-In . SVG Version: 6.00 Build 0)  -->
<!DOCTYPE svg PUBLIC "-//W3C//DTD SVG 1.1//EN" "http://www.w3.org/Graphics/SVG/1.1/DTD/svg11.dtd">
<svg version="1.1" id="Layer_1" xmlns="http://www.w3.org/2000/svg" xmlns:xlink="http://www.w3.org/1999/xlink" x="0px" y="0px"
	 width="85px" height="86px" viewBox="0 0 85 86" enable-background="new 0 0 85 86" xml:space="preserve">
<path fill="#97BBD5" d="M17.506,31.568c1.905,1.159,3.788,2.287,5.672,3.416l1.998,1.192c0.153,0,0.307,0.001,0.46,0.003
	c0.158-0.112,0.32-0.267,0.416-0.466c2.361-4.266,4.702-8.482,7.043-12.697l4.301-7.751c0.15-0.288,0.323-0.591,0.496-0.894
	c0.275-0.483,0.536-0.939,0.746-1.414c0.412-0.744,0.984-1.308,1.797-1.811l0.379-0.146c0.18-0.074,0.359-0.145,0.551-0.21
	l0.195-0.046l0.891-0.109l0.235,0.023c0.377,0.036,0.806,0.078,1.249,0.23c1.051,0.422,1.886,1.156,2.4,2.087
	c1.245,2.224,2.475,4.463,3.703,6.702c1.077,1.963,2.154,3.926,3.245,5.881l0.528,0.948l-0.973,0.476
	c-0.408,0.199-0.807,0.445-1.227,0.705l-0.264,0.163c-0.252,0.159-0.523,0.319-0.799,0.478c-0.408,0.236-0.796,0.461-1.145,0.718
	c-0.039,0.065-0.078,0.13-0.115,0.196l-0.021,0.063c-0.001,0.145,0,0.288,0.001,0.434c0.013,0.04,0.026,0.081,0.042,0.122
	c0.037,0.078,0.131,0.182,0.258,0.265l1.193,0.334c0.221,0.058,0.455,0.132,0.689,0.211l2.035,0.543
	c0.256,0.07,0.482,0.143,0.711,0.217l0.316,0.082c0.098,0.021,0.232,0.053,0.367,0.088c0.244,0.066,0.477,0.139,0.709,0.218
	l0.311,0.079c0.099,0.021,0.244,0.059,0.389,0.102c0.058,0.01,0.195,0.041,0.334,0.077c0.253,0.072,0.484,0.142,0.717,0.222
	l0.674,0.164c0.237,0.066,0.47,0.138,0.704,0.219l0.64,0.153c0.271,0.077,0.498,0.146,0.725,0.223l0.321,0.083
	c0.086,0.018,0.215,0.049,0.349,0.083c0.246,0.067,0.48,0.14,0.713,0.22l0.311,0.076c0.088,0.021,0.223,0.053,0.356,0.088
	c0.202,0.051,0.409,0.117,0.618,0.182l0.156,0.051l0.146,0.047h0.499c0.006-0.002,0.011-0.004,0.016-0.005
	c0.127-0.103,0.243-0.22,0.343-0.349c0.015-0.061,0.03-0.121,0.047-0.182c0.009-0.064,0.047-0.215,0.087-0.365
	c0.014-0.084,0.048-0.232,0.088-0.383c0.049-0.209,0.113-0.438,0.185-0.663c0.024-0.115,0.054-0.231,0.083-0.346
	c0.025-0.122,0.059-0.271,0.096-0.418c0.058-0.233,0.127-0.481,0.205-0.726c0.008-0.051,0.04-0.186,0.076-0.326
	c0.014-0.083,0.049-0.232,0.086-0.381c0.053-0.214,0.119-0.439,0.188-0.666c0.023-0.105,0.053-0.23,0.089-0.356
	c0.024-0.142,0.057-0.28,0.095-0.421c0.049-0.203,0.115-0.429,0.187-0.654c0.028-0.139,0.062-0.277,0.102-0.415
	c0.01-0.069,0.046-0.226,0.092-0.384c0.009-0.061,0.038-0.188,0.075-0.322c0.025-0.138,0.057-0.277,0.093-0.413l0.042-0.13
	c0.021-0.059,0.043-0.116,0.064-0.175c0.023-0.12,0.049-0.239,0.079-0.356c0.017-0.092,0.05-0.241,0.089-0.39
	c0.058-0.222,0.12-0.442,0.189-0.664c0.027-0.13,0.061-0.258,0.096-0.388c0.013-0.081,0.047-0.234,0.086-0.384
	c0.045-0.2,0.113-0.433,0.187-0.664c0.026-0.128,0.06-0.256,0.092-0.382c0.018-0.099,0.055-0.258,0.101-0.415
	c0.007-0.056,0.041-0.202,0.08-0.35c0.035-0.116,0.067-0.216,0.103-0.31c0.024-0.118,0.052-0.236,0.083-0.354
	c0.017-0.094,0.051-0.244,0.09-0.392c0.049-0.206,0.115-0.431,0.184-0.653c0.018-0.087,0.038-0.175,0.059-0.263l0.023-0.101
	c0.03-0.116,0.06-0.224,0.091-0.326c0-0.117,0.001-0.233,0.002-0.35c-0.095-0.245-0.225-0.414-0.36-0.463L66.9,18.556l-0.155,0.043
	c-0.668,0.357-1.312,0.752-1.992,1.17c-0.474,0.29-0.947,0.58-1.428,0.857l-0.9,0.516l-0.5-0.91
	c-1.143-2.076-2.293-4.146-3.445-6.217c-0.886-1.594-1.771-3.188-2.654-4.784c-0.202-0.335-0.405-0.714-0.608-1.094
	c-0.319-0.596-0.62-1.157-0.985-1.658l-0.236-0.333c-0.191-0.271-0.371-0.529-0.566-0.729C53.265,5.25,53.11,5.06,52.96,4.869
	c-0.163-0.205-0.303-0.382-0.447-0.493c-0.215-0.162-0.422-0.362-0.625-0.564c-0.164-0.162-0.32-0.315-0.467-0.417
	c-0.186-0.132-0.363-0.265-0.541-0.397c-0.314-0.238-0.613-0.463-0.917-0.635c-1-0.59-1.832-1.033-2.698-1.313
	c-0.273-0.089-0.539-0.18-0.805-0.278c-0.115-0.026-0.225-0.054-0.335-0.081l-0.381-0.1c-0.104-0.026-0.212-0.055-0.321-0.088
	c-0.188-0.024-0.37-0.053-0.553-0.091c-0.145-0.015-0.353-0.045-0.568-0.089l-0.066-0.002c-0.25-0.008-0.552-0.018-0.873-0.097
	c-0.629-0.009-1.259-0.011-1.885-0.001c-0.312,0.075-0.605,0.088-0.847,0.098c-0.13,0.025-0.326,0.06-0.523,0.094
	c-0.175,0.029-0.349,0.06-0.524,0.094c-0.08,0.019-0.193,0.041-0.305,0.063l-1.627,0.476c-0.623,0.249-1.43,0.579-2.149,1.001
	c-2.132,1.247-3.96,3.057-5.286,5.234l-4.285,7.714c-2.251,4.053-4.502,8.107-6.758,12.158c-0.266,0.5-0.554,1.01-0.84,1.521
	c-0.378,0.671-0.755,1.343-1.105,2.03c0,0.193,0,0.389-0.002,0.584C17.295,31.396,17.387,31.501,17.506,31.568z"/>
<path fill="#97BBD5" d="M0.704,66.494l0.001,0.13l0.11,0.458c0.021,0.146,0.041,0.292,0.059,0.44l0.106,0.559
	c0.024,0.121,0.052,0.23,0.081,0.34c0.061,0.203,0.129,0.441,0.188,0.686c0.041,0.133,0.097,0.315,0.157,0.5l0.12,0.354
	c0.051,0.126,0.103,0.254,0.149,0.385c0.388,1.051,0.966,2.13,1.715,3.199c0.068,0.09,0.152,0.208,0.235,0.326
	c0.183,0.258,0.354,0.502,0.539,0.681c0.184,0.171,0.354,0.383,0.52,0.597c0.124,0.159,0.241,0.309,0.349,0.398l0.097,0.082
	c0.188,0.158,0.378,0.319,0.557,0.49c1.006,0.896,2.213,1.697,3.559,2.354c0.158,0.053,0.404,0.156,0.651,0.258l0.983,0.357
	c0.146,0.035,0.354,0.096,0.57,0.167c0.264,0.05,0.531,0.11,0.794,0.184l0.063,0.011c0.158,0.023,0.317,0.048,0.477,0.079
	c0.158,0.019,0.369,0.048,0.581,0.095l0.043,0.001c0.254,0.007,0.562,0.015,0.889,0.095c4.354,0.005,8.708,0.006,13.062,0.006
	l13.09-0.004c0.104-0.024,0.211-0.046,0.319-0.065c0.124-0.077,0.233-0.233,0.312-0.441c-0.004-3.167-0.004-6.335,0-9.503
	l-0.012-0.029c-0.038-0.1-0.095-0.25-0.127-0.292c-0.046-0.034-0.14-0.077-0.233-0.126l-7.936,0.002l-16.612-0.004l-0.828,0.008
	c-0.307,0-0.713-0.009-1.131-0.064l-0.131-0.027c-1.467-0.398-2.65-1.457-3.164-2.832c-0.061-0.162-0.113-0.323-0.164-0.484
	l-0.083-0.303c-0.083-0.599-0.083-1.204,0.001-1.799l0.088-0.322c0.051-0.156,0.102-0.314,0.159-0.469
	c0.121-0.307,0.271-0.584,0.424-0.857l0.143-0.259c0.751-1.347,1.495-2.673,2.239-3.998c0.723-1.286,1.444-2.573,2.162-3.861
	c0.344-0.585,0.659-1.162,0.975-1.737c0.439-0.804,0.895-1.635,1.393-2.434l0.523-0.844l0.855,0.499
	c0.512,0.299,1.02,0.604,1.527,0.911c0.63,0.379,1.259,0.758,1.894,1.122c0.052,0.013,0.104,0.027,0.155,0.042h0.156
	c0.035-0.01,0.071-0.02,0.107-0.029c0.155-0.123,0.275-0.246,0.361-0.371c-0.002-0.188-0.004-0.375-0.003-0.563
	c-0.03-0.099-0.058-0.198-0.083-0.295c-0.063-0.204-0.135-0.448-0.19-0.695c-0.03-0.117-0.067-0.267-0.097-0.411l-0.021-0.083
	c-0.019-0.079-0.038-0.158-0.055-0.237c-0.071-0.221-0.132-0.443-0.19-0.667c-0.037-0.16-0.063-0.276-0.086-0.386
	c-0.071-0.227-0.139-0.452-0.193-0.681l-0.026-0.112c-0.022-0.096-0.044-0.192-0.063-0.287c-0.034-0.127-0.063-0.251-0.092-0.376
	c-0.056-0.163-0.126-0.411-0.187-0.655c-0.028-0.127-0.054-0.244-0.074-0.356c-0.036-0.093-0.066-0.18-0.094-0.266
	c-0.049-0.184-0.084-0.331-0.112-0.479c-0.024-0.086-0.063-0.233-0.091-0.379c-0.02-0.066-0.049-0.191-0.077-0.316
	c-0.062-0.201-0.131-0.438-0.192-0.669l-0.043-0.204c-0.012-0.057-0.022-0.113-0.033-0.17c-0.033-0.089-0.066-0.179-0.093-0.266
	c-0.072-0.29-0.13-0.535-0.183-0.777l-0.107-0.309c-0.035-0.135-0.066-0.271-0.092-0.408c-0.039-0.139-0.07-0.279-0.098-0.418
	c-0.021-0.072-0.052-0.194-0.078-0.319c-0.07-0.223-0.133-0.444-0.191-0.669c-0.033-0.142-0.061-0.264-0.086-0.383
	c-0.07-0.227-0.138-0.454-0.193-0.685c-0.039-0.177-0.068-0.302-0.093-0.429c-0.021-0.055-0.052-0.183-0.079-0.32
	c-0.071-0.226-0.139-0.45-0.193-0.676c-0.034-0.156-0.061-0.293-0.08-0.424c-0.074-0.23-0.203-0.422-0.37-0.551l-0.022-0.007
	l-0.254-0.001l-0.222,0.001c-0.185,0.067-0.374,0.128-0.558,0.182l-0.766,0.188c-0.166,0.057-0.391,0.127-0.615,0.191l-0.402,0.098
	c-0.159,0.054-0.383,0.125-0.606,0.188c-0.176,0.041-0.29,0.069-0.4,0.097c-0.188,0.063-0.403,0.133-0.62,0.192l-0.736,0.185
	c-0.182,0.061-0.408,0.132-0.629,0.195l-0.407,0.098c-0.153,0.053-0.38,0.125-0.612,0.19l-0.751,0.188
	c-0.165,0.059-0.393,0.13-0.628,0.194l-0.393,0.096c-0.277,0.101-0.648,0.201-1.018,0.289c-0.217,0.072-0.412,0.135-0.609,0.188
	l-0.737,0.185c-0.175,0.061-0.403,0.131-0.632,0.196l-0.401,0.095c-0.153,0.055-0.382,0.13-0.617,0.195l-0.718,0.182
	c-0.188,0.061-0.401,0.12-0.612,0.168c-0.132,0.074-0.253,0.193-0.349,0.342c0,0.191,0.001,0.383,0.001,0.574l0.017,0.055
	c0.161,0.228,0.475,0.404,0.832,0.605c0.197,0.109,0.393,0.221,0.576,0.343c0.26,0.138,0.583,0.338,0.906,0.538
	c0.375,0.232,0.748,0.466,1.144,0.662l0.732,0.365l-0.33,1.223c-0.491,0.844-0.964,1.702-1.436,2.561
	c-0.39,0.708-0.78,1.417-1.181,2.118L4.771,53.1c-0.922,1.661-1.845,3.321-2.761,4.984c-0.094,0.261-0.203,0.513-0.314,0.765
	c-0.076,0.175-0.153,0.35-0.223,0.528l-0.248,0.787c0,0.013-0.014,0.085-0.027,0.157l-0.092,0.346
	c-0.029,0.065-0.051,0.133-0.074,0.202l-0.057,0.253c-0.023,0.155-0.049,0.313-0.078,0.468l-0.099,0.446
	c-0.017,0.268-0.036,0.512-0.087,0.766c-0.016,0.303-0.035,0.574-0.096,0.854c-0.009,0.6-0.006,1.202,0.001,1.802
	C0.706,65.837,0.706,66.197,0.704,66.494z"/>
<path fill="#97BBD5" d="M61.198,38.574c-0.189,0.103-0.285,0.314-0.284,0.529c-0.003,0.201,0.142,0.476,0.28,0.741l0.07,0.132
	l2.779,5.007c2.766,4.984,5.532,9.968,8.292,14.954c0.179,0.3,0.362,0.634,0.546,0.97c0.273,0.498,0.531,0.971,0.826,1.41
	c0.549,0.854,0.739,1.912,0.577,3.166c-0.354,1.762-1.6,3.152-3.185,3.617c-0.46,0.143-0.924,0.164-1.354,0.164l-0.373-0.002
	l-8.972,0.002l-5.459-0.002l-0.001-1.986c-0.002-0.986-0.003-1.974,0.01-2.963c0.019-0.334-0.163-0.664-0.4-0.788
	c-0.077-0.01-0.155-0.017-0.233-0.017c-0.115,0-0.174,0.018-0.189,0.029c-0.291,0.177-0.535,0.439-0.795,0.719
	c-0.118,0.127-0.236,0.254-0.358,0.376l-8.382,8.713c-0.227,0.233-0.442,0.454-0.601,0.681c-0.175,0.236-0.175,0.601-0.02,0.809
	c0.2,0.286,0.448,0.536,0.71,0.801c0.129,0.13,0.256,0.259,0.379,0.392c0.244,0.249,0.501,0.521,0.758,0.79
	c0.423,0.445,0.844,0.891,1.281,1.318c0.422,0.335,0.846,0.781,1.256,1.214c0.15,0.158,0.3,0.316,0.452,0.471l4.597,4.785
	c0.078,0.078,0.165,0.173,0.252,0.269c0.177,0.193,0.344,0.375,0.479,0.435c0.197,0.095,0.386,0.084,0.49,0.013
	c0.212-0.163,0.323-0.345,0.321-0.438c-0.005-1.392-0.009-2.764-0.005-4.136l0.003-1.022l15.528,0.002
	c1.828-0.094,3.583-0.511,5.161-1.239c1.495-0.653,2.952-1.668,4.351-3.021c0.522-0.506,0.971-1.107,1.443-1.743l0.195-0.271
	c0.359-0.529,0.698-1.029,0.945-1.563c0.436-0.918,0.824-1.736,1.068-2.598c0.362-1.18,0.548-2.424,0.682-3.496v-2.26l-0.053-0.404
	c-0.107-0.844-0.209-1.641-0.412-2.406c-0.243-0.973-0.637-1.992-1.242-3.223c-4.131-7.441-8.285-14.93-12.436-22.422l-0.16-0.292
	c-0.134-0.247-0.266-0.498-0.432-0.724c-0.113-0.15-0.332-0.168-0.42-0.168c-0.14,0-0.279,0.039-0.383,0.105
	c-1.008,0.61-1.988,1.198-2.97,1.786C64.271,36.713,62.73,37.636,61.198,38.574z"/>
<rect id="_x3C_Slice_x3E__111_" fill="none" width="85" height="86"/>
</svg>
