<?xml version="1.0" encoding="utf-8"?>
<!-- Generator: Adobe Illustrator 16.0.3, SVG Export Plug-In . SVG Version: 6.00 Build 0)  -->
<!DOCTYPE svg PUBLIC "-//W3C//DTD SVG 1.1//EN" "http://www.w3.org/Graphics/SVG/1.1/DTD/svg11.dtd">
<svg version="1.1" id="Layer_1" xmlns="http://www.w3.org/2000/svg" xmlns:xlink="http://www.w3.org/1999/xlink" x="0px" y="0px"
	 width="76px" height="86px" viewBox="0 0 76 86" enable-background="new 0 0 76 86" xml:space="preserve">
<path fill="#93B4CB" d="M75.501,45.347c-0.066-3.424-1.257-6.807-3.336-9.416l-0.033,0.008c-0.283-0.363-0.578-0.717-0.89-1.049
	c-2.065-2.113-4.705-3.6-7.537-4.086c-1.501-0.291-3.031-0.195-4.55-0.211c-9.253-0.012-18.422,0.02-27.675-0.014h-0.087
	l-1.654,0.014c-5.062,0.002-10.125-0.006-15.188,0.004c-4.021,0.055-7.957,2.08-10.529,5.373c-2.079,2.609-3.27,5.992-3.336,9.416
	c-0.015,2.633,0.021,5.268-0.01,7.9l0.01,2.32c0.006,5.143-0.004,10.285,0.004,15.428c-0.006,1.309,0.463,2.621,1.349,3.537
	c0.837,0.896,2.014,1.398,3.197,1.404c3.591,0.006,7.182,0,10.772,0.002c-0.008,1.084,0.039,2.236,0.271,3.299
	c0.117,0.457,0.275,0.9,0.428,1.346c1.213,3.086,4.257,5.234,7.4,5.188c3.802,0.047,7.603,0.004,11.404,0.025
	c3.801-0.021,12.765-0.018,16.566-0.064c3.144,0.047,6.188-2.102,7.4-5.188c0.152-0.445,0.311-0.889,0.428-1.346
	c0.232-1.063,0.279-2.215,0.271-3.299c3.591-0.002,7.182,0.004,10.772-0.002c1.184-0.006,2.36-0.508,3.197-1.404
	c0.886-0.916,1.354-2.229,1.349-3.537c0.008-5.143-0.002-10.285,0.004-15.428l0.01-2.322C75.481,50.612,75.516,47.979,75.501,45.347
	z M71.277,54.913c-0.063,5.357-0.004,10.721-0.028,16.084c0.028,0.195-0.086,0.385-0.284,0.387l-14.525,0.02
	c-0.17,0-0.339,0-0.508,0c0.015,1.826,0.004,3.654,0.006,5.48c0.011,0.873-0.199,1.76-0.664,2.486
	c-0.715,1.174-2.012,1.898-3.32,1.871c-5.316,0.008-10.633-0.004-15.951,0.004c0.012,0.014,0.016,0.025,0.027,0.039
	c-3.932-0.002-7.861,0.002-11.793-0.002c-1.309,0.025-2.605-0.699-3.32-1.873c-0.465-0.727-0.675-1.613-0.664-2.486
	c0.002-1.826-0.009-3.654,0.006-5.479c-0.169-0.002-0.338-0.002-0.508-0.002L5.224,71.425c-0.198-0.004-0.313-0.191-0.284-0.389
	c-0.024-5.363,0.034-10.725-0.028-16.084l-0.004-0.977c0.063-2.033,0.014-4.07,0.029-6.104c0.022-1.393-0.087-2.801,0.178-4.176
	c0.463-2.547,1.852-4.875,3.795-6.428c1.619-1.307,3.622-2.072,5.654-2.119c5.13-0.008,10.266-0.006,15.4-0.014v0.002l0.107-0.002
	c0.002,0,0.004,0,0.007,0l5.401-0.01c1.599,0.047,3.198,0.01,4.797,0.021c7.068,0,14.135,0,21.203,0
	c2.498,0.014,4.962,1.123,6.745,2.984c1.306,1.445,2.392,3.309,2.786,5.283c0.348,1.543,0.203,3.141,0.24,4.711
	c0.009,1.938-0.03,3.875,0.029,5.811L71.277,54.913z"/>
<path fill="#93B4CB" d="M21.902,20.442c0.02,0.016,0.037,0.033,0.057,0.047c-0.01-4.611-0.002-9.221-0.005-13.832
	c-0.013-0.781,0.283-1.531,0.724-2.145c0.754-0.053,1.475-0.369,2.056-0.883c0.95,0.863,2.339,1.127,3.499,0.619
	c0.363-0.125,0.635-0.443,0.985-0.582c0.522,0.4,1.104,0.742,1.755,0.809c0.961,0.154,1.932-0.205,2.684-0.84
	c1.226,1.156,3.211,1.15,4.438-0.004c1.188,1.104,3.078,1.168,4.308,0.115c0.046-0.035,0.092-0.07,0.136-0.107
	c0.237,0.191,0.493,0.361,0.762,0.498c0.01,0.006,0.021,0.012,0.032,0.018c0.499,0.25,1.044,0.389,1.603,0.348
	c0.072,0,0.138-0.012,0.198-0.027c0.169-0.021,0.336-0.057,0.501-0.104c0.413-0.111,0.807-0.303,1.154-0.574
	c0.074-0.055,0.148-0.113,0.221-0.172c0.585,0.555,1.346,0.844,2.112,0.869c0.006,0,0.011,0,0.017,0
	c0.834,0.025,1.676-0.26,2.313-0.859c0.068,0.055,0.137,0.107,0.209,0.158c0.225,0.18,0.471,0.324,0.729,0.434
	c0.013,0.004,0.024,0.01,0.036,0.016c0.01,0.004,0.02,0.008,0.029,0.012c0.33,0.143,0.679,0.232,1.041,0.25
	c0.451,0.561,0.729,1.283,0.742,2.025c0.025,6.199-0.002,12.402,0.027,18.604h-0.016l0.028,3.873l2.237-0.016v-3.857
	c-0.001-6.156,0.004-12.314-0.003-18.471c0.005-1.773-0.435-4.088-2.163-4.584c0,0-0.105-0.063-0.414-0.027L53.929,2.04
	c-0.027,0.01-0.055,0.018-0.082,0.021c-0.021,0.004-0.042,0.008-0.063,0.012c-0.009,0.002-0.019,0.002-0.028,0.004L53.66,2.081
	c-0.405-0.002-0.773-0.293-0.982-0.664c-0.385-0.648-1.195-0.613-1.816-0.5c-0.293,0.059-0.483,0.275-0.66,0.51
	c0-0.006,0.002-0.01,0.003-0.018l-0.45,0.512c-0.059,0.037-0.121,0.068-0.187,0.092l-0.526,0.045
	c-0.029-0.006-0.061-0.012-0.09-0.02c-0.002,0-0.002-0.002-0.004-0.002c-0.006,0-0.014-0.004-0.02-0.006
	c-0.198-0.068-0.377-0.201-0.52-0.369l-0.022-0.025c-0.056-0.068-0.106-0.141-0.149-0.219c-0.385-0.648-1.197-0.613-1.816-0.5
	c-0.09,0.018-0.169,0.051-0.242,0.094c-0.009,0.006-0.018,0.012-0.025,0.018c-0.021,0.012-0.04,0.025-0.06,0.041
	c-0.007,0.004-0.013,0.01-0.02,0.016c0,0-0.003,0-0.003,0.002c-0.021,0.008-0.042,0.016-0.064,0.025
	c-0.016,0.025-0.031,0.051-0.047,0.078c-0.118,0.119-0.221,0.264-0.324,0.402c-0.107,0.137-0.222,0.266-0.363,0.352
	c-0.059,0.035-0.121,0.061-0.185,0.082c-0.006,0-0.012,0.004-0.017,0.004c-0.059,0.014-0.117,0.025-0.176,0.037
	c-0.16,0.018-0.322-0.002-0.474-0.057c-0.146-0.063-0.281-0.156-0.398-0.275c-0.019-0.02-0.036-0.043-0.053-0.064l0.001,0.01
	c-0.07-0.082-0.135-0.17-0.186-0.264c-0.387-0.648-1.198-0.613-1.818-0.5c-0.432,0.086-0.643,0.521-0.914,0.84
	c-0.403,0.459-1.176,0.412-1.535-0.086l0.001,0.01c-0.224-0.277-0.396-0.619-0.747-0.723c-0.423-0.115-0.881-0.111-1.307-0.014
	c-0.596,0.154-0.726,0.984-1.334,1.111c-0.506,0.162-0.998-0.172-1.252-0.625c-0.385-0.648-1.196-0.611-1.816-0.5
	c-0.433,0.088-0.645,0.521-0.914,0.84c-0.403,0.459-1.178,0.412-1.536-0.086c-0.226-0.313-0.456-0.68-0.849-0.756
	c-0.599-0.09-1.38-0.156-1.77,0.449C27.742,1.815,27.3,2.192,26.79,2.075c-0.515-0.053-0.738-0.598-1.071-0.936
	c-0.472-0.389-1.111-0.25-1.646-0.131c-0.579,0.137-0.721,0.943-1.316,1.049c-0.414,0.037-0.977,0.135-1.282,0.412
	c-1.286,0.842-1.786,2.559-1.788,4.195c0,2.094,0,4.186,0,6.279h-0.001V29.05h2.218V20.442z"/>
<g>
	<path fill="#93B4CB" d="M19.963,43.938c-0.218-0.095-0.447-0.154-0.688-0.18c-0.24-0.024-0.488-0.037-0.743-0.037h-1.047v2.969
		h1.104c0.393,0,0.721-0.038,0.986-0.114c0.265-0.077,0.482-0.184,0.65-0.321c0.168-0.138,0.296-0.302,0.384-0.494
		c0.087-0.191,0.131-0.399,0.131-0.625c0-0.307-0.075-0.56-0.225-0.758C20.365,44.179,20.181,44.032,19.963,43.938z"/>
	<path fill="#93B4CB" d="M29.866,43.781c-0.125-0.022-0.266-0.04-0.425-0.054s-0.379-0.021-0.659-0.021h-1.104v2.482h1.253
		c0.349,0,0.655-0.03,0.917-0.092c0.262-0.061,0.48-0.146,0.655-0.257c0.174-0.11,0.305-0.242,0.393-0.396s0.131-0.324,0.131-0.514
		c0-0.289-0.09-0.532-0.271-0.73C30.574,44.003,30.278,43.863,29.866,43.781z"/>
	<path fill="#93B4CB" d="M63.908,42.899c-0.087-1.203-1.209-2.123-2.307-2.121l-47.048,0.004c-1.249,0-2.354,1.186-2.345,2.52
		c-0.016,2.047,0,4.094-0.007,6.139c-0.001,0.404-0.01,0.813,0.065,1.213c0.176,0.895,0.846,1.652,1.668,1.902
		c0.761,0.201,1.557,0.061,2.332,0.1l25.74-0.012c1.666,0.002,3.346,0.018,5.002-0.02l13.993,0.039
		c0.54,0.018,1.079,0.012,1.578-0.232c0.884-0.42,1.458-1.439,1.415-2.467C63.974,47.603,63.984,45.259,63.908,42.899z
		 M22.993,46.312c-0.212,0.378-0.521,0.697-0.926,0.957c-0.405,0.259-0.902,0.456-1.491,0.592c-0.589,0.135-1.283,0.202-2.081,0.202
		h-1.01v2.794c0,0.045-0.021,0.085-0.061,0.121s-0.107,0.065-0.201,0.088c-0.093,0.023-0.218,0.041-0.374,0.055
		s-0.355,0.021-0.598,0.021c-0.237,0-0.435-0.007-0.594-0.021c-0.159-0.014-0.285-0.031-0.378-0.055
		c-0.094-0.022-0.159-0.052-0.197-0.088c-0.037-0.036-0.056-0.076-0.056-0.121v-7.873c0-0.212,0.076-0.37,0.229-0.477
		c0.152-0.105,0.354-0.159,0.603-0.159h2.853c0.287,0,0.56,0.008,0.818,0.023c0.258,0.017,0.569,0.05,0.93,0.102
		c0.362,0.052,0.728,0.148,1.099,0.288c0.371,0.14,0.687,0.316,0.949,0.53c0.262,0.215,0.461,0.465,0.598,0.751
		s0.206,0.607,0.206,0.964C23.311,45.497,23.205,45.933,22.993,46.312z M34.159,50.995c-0.025,0.033-0.084,0.062-0.177,0.084
		c-0.094,0.022-0.231,0.038-0.412,0.048c-0.181,0.009-0.427,0.014-0.739,0.014c-0.262,0-0.471-0.005-0.626-0.014
		c-0.156-0.01-0.279-0.026-0.37-0.051c-0.09-0.025-0.154-0.057-0.192-0.095c-0.037-0.038-0.068-0.085-0.093-0.139l-1.085-1.955
		c-0.131-0.221-0.259-0.417-0.383-0.588c-0.125-0.172-0.264-0.314-0.416-0.43c-0.153-0.115-0.329-0.202-0.529-0.261
		c-0.199-0.059-0.43-0.088-0.692-0.088h-0.767v3.335c0,0.045-0.021,0.085-0.061,0.121s-0.107,0.065-0.201,0.088
		c-0.093,0.023-0.218,0.041-0.374,0.055s-0.355,0.021-0.598,0.021c-0.237,0-0.435-0.007-0.594-0.021
		c-0.159-0.014-0.285-0.031-0.378-0.055c-0.094-0.022-0.159-0.052-0.197-0.088c-0.037-0.036-0.056-0.076-0.056-0.121v-7.947
		c0-0.198,0.07-0.342,0.21-0.43c0.141-0.088,0.313-0.132,0.519-0.132h3.133c0.318,0,0.58,0.005,0.785,0.014
		c0.206,0.009,0.393,0.021,0.562,0.034c0.486,0.05,0.924,0.135,1.313,0.257s0.72,0.28,0.992,0.477
		c0.271,0.196,0.478,0.429,0.622,0.696c0.144,0.269,0.215,0.576,0.215,0.924c0,0.293-0.052,0.561-0.154,0.802
		c-0.103,0.241-0.254,0.456-0.454,0.646c-0.2,0.189-0.446,0.354-0.739,0.493c-0.293,0.141-0.626,0.253-1,0.339
		c0.181,0.063,0.351,0.14,0.509,0.229c0.159,0.091,0.309,0.2,0.449,0.328c0.14,0.129,0.272,0.275,0.397,0.439
		c0.125,0.165,0.246,0.351,0.365,0.559l1.019,1.725c0.094,0.171,0.156,0.296,0.187,0.375s0.047,0.141,0.047,0.187
		C34.196,50.919,34.184,50.961,34.159,50.995z M38.47,50.856c0,0.045-0.021,0.085-0.061,0.121s-0.107,0.065-0.201,0.088
		c-0.094,0.023-0.219,0.041-0.375,0.055s-0.355,0.021-0.598,0.021c-0.237,0-0.435-0.007-0.594-0.021
		c-0.159-0.014-0.285-0.031-0.378-0.055c-0.094-0.022-0.161-0.052-0.201-0.088s-0.061-0.076-0.061-0.121v-8.265
		c0-0.046,0.02-0.086,0.061-0.122s0.109-0.065,0.206-0.088s0.223-0.041,0.379-0.055c0.156-0.013,0.352-0.02,0.589-0.02
		c0.243,0,0.442,0.007,0.598,0.02c0.156,0.014,0.281,0.032,0.375,0.055c0.093,0.022,0.16,0.052,0.201,0.088s0.061,0.076,0.061,0.122
		V50.856z M51.086,50.478c0,0.104-0.025,0.196-0.075,0.277s-0.117,0.148-0.201,0.203c-0.084,0.054-0.184,0.093-0.299,0.118
		c-0.116,0.024-0.232,0.037-0.351,0.037h-1.047c-0.218,0-0.407-0.016-0.566-0.048c-0.159-0.031-0.305-0.089-0.439-0.172
		c-0.134-0.084-0.263-0.196-0.388-0.339c-0.125-0.142-0.265-0.325-0.42-0.551l-3.012-4.092c-0.174-0.243-0.352-0.506-0.533-0.788
		c-0.181-0.281-0.343-0.556-0.486-0.821h-0.019c0.025,0.324,0.044,0.648,0.056,0.971c0.013,0.322,0.019,0.654,0.019,0.997v4.579
		c0,0.045-0.018,0.086-0.052,0.121c-0.034,0.036-0.093,0.067-0.178,0.092c-0.084,0.024-0.198,0.044-0.341,0.058
		c-0.143,0.014-0.327,0.021-0.552,0.021c-0.218,0-0.399-0.007-0.542-0.021c-0.144-0.014-0.256-0.033-0.337-0.058
		s-0.137-0.056-0.168-0.092c-0.031-0.035-0.046-0.076-0.046-0.121v-7.866c0-0.212,0.085-0.37,0.257-0.477
		c0.171-0.105,0.382-0.159,0.631-0.159h1.319c0.237,0,0.436,0.015,0.598,0.044s0.307,0.078,0.435,0.146
		c0.127,0.067,0.248,0.161,0.36,0.281c0.112,0.119,0.228,0.267,0.346,0.442l2.356,3.199c0.137,0.194,0.273,0.385,0.407,0.571
		c0.134,0.188,0.263,0.375,0.388,0.562c0.125,0.188,0.247,0.371,0.365,0.552c0.119,0.18,0.234,0.36,0.346,0.541h0.009
		c-0.019-0.316-0.033-0.646-0.042-0.988c-0.009-0.342-0.014-0.669-0.014-0.98v-4.105c0-0.045,0.019-0.085,0.056-0.121
		c0.038-0.036,0.1-0.068,0.187-0.095c0.087-0.027,0.203-0.047,0.346-0.058c0.143-0.012,0.327-0.017,0.552-0.017
		c0.212,0,0.39,0.005,0.533,0.017c0.143,0.011,0.254,0.03,0.332,0.058c0.078,0.026,0.133,0.059,0.164,0.095
		c0.031,0.036,0.046,0.076,0.046,0.121V50.478z M61.752,43.413c-0.016,0.093-0.039,0.167-0.07,0.224
		c-0.031,0.056-0.07,0.098-0.117,0.125c-0.047,0.026-0.098,0.04-0.154,0.04h-3.03v7.055c0,0.045-0.021,0.085-0.061,0.121
		s-0.107,0.065-0.201,0.088c-0.093,0.023-0.22,0.041-0.378,0.055c-0.159,0.014-0.357,0.021-0.594,0.021s-0.435-0.007-0.594-0.021
		c-0.159-0.014-0.285-0.031-0.378-0.055c-0.094-0.022-0.161-0.052-0.201-0.088s-0.061-0.076-0.061-0.121v-7.055h-3.03
		c-0.063,0-0.116-0.014-0.159-0.04c-0.043-0.027-0.081-0.069-0.112-0.125c-0.031-0.057-0.055-0.131-0.07-0.224
		c-0.016-0.093-0.023-0.204-0.023-0.335c0-0.135,0.008-0.25,0.023-0.345c0.015-0.095,0.039-0.17,0.07-0.227s0.069-0.097,0.112-0.122
		c0.043-0.024,0.097-0.037,0.159-0.037h8.529c0.056,0,0.107,0.013,0.154,0.037c0.047,0.025,0.085,0.065,0.117,0.122
		s0.055,0.132,0.07,0.227s0.023,0.21,0.023,0.345C61.775,43.209,61.768,43.32,61.752,43.413z"/>
</g>
<path fill="#93B4CB" d="M40.857,70.657c-0.252-0.331-0.581-0.626-0.985-0.884c-0.405-0.258-0.865-0.499-1.38-0.726
	c-0.515-0.225-1.046-0.464-1.592-0.717c-0.547-0.253-1.078-0.538-1.593-0.859c-0.515-0.32-0.975-0.704-1.38-1.151
	c-0.404-0.446-0.733-0.976-0.985-1.585s-0.379-1.34-0.379-2.191c0-0.978,0.182-1.837,0.544-2.578s0.851-1.356,1.466-1.845
	c0.615-0.489,1.341-0.854,2.176-1.097c0.835-0.241,1.721-0.362,2.657-0.362c0.483,0,0.967,0.036,1.451,0.11
	c0.483,0.073,0.936,0.173,1.356,0.3c0.42,0.126,0.793,0.268,1.12,0.425c0.326,0.158,0.542,0.29,0.646,0.396
	c0.105,0.104,0.176,0.194,0.213,0.268s0.068,0.171,0.095,0.292c0.026,0.12,0.044,0.273,0.055,0.457
	c0.01,0.185,0.016,0.412,0.016,0.686c0,0.305-0.008,0.563-0.023,0.773c-0.016,0.21-0.042,0.383-0.079,0.52s-0.089,0.236-0.158,0.3
	s-0.16,0.095-0.276,0.095s-0.3-0.073-0.552-0.221c-0.252-0.146-0.563-0.308-0.931-0.48c-0.368-0.174-0.793-0.331-1.277-0.474
	c-0.483-0.142-1.014-0.213-1.592-0.213c-0.452,0-0.846,0.056-1.183,0.166c-0.337,0.11-0.618,0.263-0.844,0.457
	c-0.226,0.194-0.395,0.428-0.504,0.702c-0.111,0.272-0.166,0.562-0.166,0.866c0,0.453,0.124,0.844,0.371,1.176
	c0.247,0.33,0.579,0.625,0.994,0.883s0.886,0.499,1.411,0.725c0.526,0.227,1.062,0.466,1.608,0.718s1.083,0.539,1.608,0.859
	c0.526,0.321,0.994,0.705,1.403,1.151c0.41,0.447,0.741,0.973,0.994,1.577c0.252,0.604,0.378,1.316,0.378,2.137
	c0,1.072-0.2,2.013-0.599,2.822S44,75.618,43.317,76.16c-0.684,0.541-1.482,0.949-2.397,1.222c-0.915,0.274-1.892,0.41-2.933,0.41
	c-0.705,0-1.359-0.058-1.963-0.173c-0.604-0.116-1.138-0.255-1.6-0.418c-0.463-0.163-0.849-0.334-1.159-0.513
	c-0.311-0.179-0.534-0.337-0.67-0.473c-0.137-0.137-0.234-0.334-0.292-0.592c-0.058-0.258-0.087-0.628-0.087-1.111
	c0-0.326,0.011-0.6,0.032-0.82s0.055-0.399,0.103-0.536s0.11-0.233,0.189-0.292c0.079-0.058,0.171-0.087,0.276-0.087
	c0.147,0,0.355,0.087,0.623,0.261c0.268,0.173,0.612,0.365,1.033,0.575s0.923,0.402,1.506,0.576
	c0.583,0.173,1.259,0.261,2.026,0.261c0.505,0,0.957-0.061,1.356-0.182c0.399-0.121,0.738-0.292,1.017-0.513
	c0.278-0.221,0.491-0.495,0.639-0.82c0.147-0.326,0.22-0.688,0.22-1.088C41.235,71.385,41.109,70.988,40.857,70.657z"/>
<path fill="#93B4CB" d="M64.982,62.519c-1.181,0.33-2.105,1.5-2.186,2.805c-0.12,1.273,0.565,2.57,1.645,3.119
	c1.161,0.635,2.69,0.338,3.551-0.715c0.967-1.094,1.024-2.932,0.137-4.098C67.414,62.624,66.116,62.177,64.982,62.519z"/>
<rect id="_x3C_Slice_x3E__23_" fill="none" width="76" height="86"/>
</svg>
