<?xml version="1.0" encoding="utf-8"?>
<!-- Generator: Adobe Illustrator 16.0.3, SVG Export Plug-In . SVG Version: 6.00 Build 0)  -->
<!DOCTYPE svg PUBLIC "-//W3C//DTD SVG 1.1//EN" "http://www.w3.org/Graphics/SVG/1.1/DTD/svg11.dtd">
<svg version="1.1" id="Layer_1" xmlns="http://www.w3.org/2000/svg" xmlns:xlink="http://www.w3.org/1999/xlink" x="0px" y="0px"
	 width="85px" height="86px" viewBox="0 0 85 86" enable-background="new 0 0 85 86" xml:space="preserve">
<g>
	<path fill="#93B4CB" d="M41.896,12.638l3.469,1.525l-0.799,1.734c-0.23,0.5,0.004,1.084,0.523,1.305
		c0.52,0.223,1.125-0.004,1.357-0.504l0.789-1.713l3.598,1.58c1.34,0.586,2.924,0.018,3.537-1.271
		c0.611-1.289,0.021-2.813-1.32-3.402l-8.938-3.926c-1.34-0.588-2.924-0.02-3.537,1.27C39.965,10.526,40.555,12.048,41.896,12.638z"
		/>
	<path fill="#93B4CB" d="M73.951,74.3L4.601,74.259c-2.238,0-4.055,1.926-4.055,4.303v2.4c0,2.377,1.816,4.303,4.055,4.303
		l69.351,0.041c2.24,0,4.057-1.926,4.057-4.303v-2.4C78.008,76.226,76.191,74.3,73.951,74.3z"/>
	<path fill="#93B4CB" d="M61.691,23.509l-1.295,1.633c-0.344,0.436-0.256,1.057,0.195,1.387c0.453,0.33,1.098,0.248,1.441-0.188
		l1.193-1.508l2.932,2.527c1.096,0.943,2.787,0.855,3.77-0.199c0.984-1.057,0.891-2.68-0.207-3.629l-7.316-6.307
		c-1.098-0.945-2.785-0.857-3.77,0.199s-0.891,2.68,0.207,3.627L61.691,23.509z"/>
	<path fill="#93B4CB" d="M82.393,39.3l-5.758-7.656c-0.861-1.148-2.531-1.408-3.727-0.576c-1.195,0.83-1.463,2.436-0.6,3.586
		l2.086,2.773l-1.633,1.197c-0.453,0.33-0.541,0.951-0.195,1.387c0.344,0.434,0.988,0.518,1.439,0.188L75.6,39.03l2.467,3.281
		c0.863,1.146,2.533,1.406,3.729,0.576C82.988,42.056,83.258,40.45,82.393,39.3z"/>
	<g>
		<path fill="#93B4CB" d="M46.557,45.203c-0.521-0.396-1.112-0.729-1.778-0.998c-0.664-0.27-1.344-0.506-2.033-0.711
			c-0.691-0.206-1.369-0.402-2.035-0.588c-0.665-0.186-1.262-0.391-1.786-0.616c-0.526-0.225-0.947-0.493-1.265-0.807
			c-0.318-0.313-0.476-0.699-0.476-1.16c0-0.293,0.068-0.562,0.209-0.806c0.14-0.244,0.354-0.455,0.646-0.631
			c0.292-0.177,0.671-0.313,1.141-0.41c0.469-0.098,1.033-0.148,1.692-0.148c0.723,0,1.385,0.064,1.987,0.192
			c0.601,0.127,1.134,0.264,1.597,0.411c0.462,0.146,0.853,0.283,1.17,0.41c0.315,0.127,0.558,0.19,0.722,0.19
			c0.088,0,0.164-0.017,0.228-0.051s0.121-0.104,0.172-0.206c0.052-0.104,0.085-0.252,0.105-0.447
			c0.019-0.196,0.027-0.446,0.027-0.748c0-0.226-0.006-0.424-0.018-0.595c-0.015-0.172-0.036-0.317-0.067-0.441
			c-0.032-0.121-0.076-0.224-0.134-0.308c-0.057-0.081-0.141-0.165-0.247-0.248c-0.107-0.084-0.301-0.178-0.579-0.279
			c-0.28-0.103-0.59-0.2-0.933-0.293c-0.342-0.094-0.71-0.174-1.103-0.242c-0.394-0.069-0.767-0.123-1.122-0.161l0.38-2.774
			c0-0.106-0.019-0.205-0.056-0.293c-0.039-0.087-0.127-0.159-0.266-0.212c-0.14-0.055-0.34-0.096-0.601-0.126
			c-0.26-0.028-0.587-0.043-0.979-0.043c-0.33,0-0.596,0.01-0.799,0.029s-0.364,0.052-0.485,0.095
			c-0.12,0.045-0.203,0.094-0.246,0.146c-0.045,0.055-0.073,0.12-0.086,0.198l-0.38,2.949c-1.103,0.099-2.089,0.286-2.956,0.564
			c-0.869,0.279-1.602,0.645-2.196,1.094c-0.597,0.45-1.053,0.976-1.37,1.576c-0.316,0.603-0.475,1.27-0.475,2.003
			c0,0.813,0.155,1.504,0.466,2.077c0.312,0.571,0.727,1.059,1.245,1.459c0.521,0.402,1.106,0.739,1.759,1.013
			c0.653,0.274,1.321,0.515,2.006,0.719c0.686,0.206,1.353,0.398,2.006,0.579c0.652,0.181,1.239,0.387,1.76,0.617
			c0.52,0.23,0.934,0.496,1.245,0.799c0.31,0.305,0.465,0.69,0.465,1.159c0,0.704-0.361,1.269-1.083,1.694
			c-0.723,0.426-1.825,0.64-3.308,0.64c-0.951,0-1.779-0.075-2.481-0.221c-0.703-0.147-1.304-0.309-1.798-0.484
			c-0.495-0.176-0.899-0.337-1.217-0.484c-0.316-0.146-0.558-0.22-0.721-0.22c-0.128,0-0.239,0.022-0.334,0.065
			c-0.095,0.045-0.175,0.124-0.238,0.242s-0.107,0.284-0.133,0.499c-0.025,0.217-0.038,0.489-0.038,0.822
			c0,0.43,0.031,0.756,0.095,0.976s0.168,0.387,0.314,0.499c0.146,0.112,0.36,0.227,0.646,0.344
			c0.285,0.118,0.625,0.232,1.019,0.346c0.393,0.112,0.83,0.214,1.312,0.308c0.482,0.093,0.995,0.169,1.54,0.228l-0.399,2.979
			c-0.025,0.107-0.016,0.205,0.029,0.293c0.044,0.088,0.135,0.159,0.275,0.213c0.139,0.053,0.332,0.095,0.579,0.125
			c0.247,0.029,0.573,0.044,0.979,0.044c0.318,0,0.581-0.013,0.79-0.036c0.209-0.025,0.374-0.057,0.494-0.096
			c0.121-0.039,0.203-0.089,0.248-0.146c0.044-0.06,0.072-0.127,0.086-0.205l0.398-3.141c1.217-0.079,2.326-0.264,3.327-0.558
			s1.857-0.685,2.566-1.174s1.258-1.071,1.645-1.746c0.386-0.675,0.58-1.433,0.58-2.273c0-0.793-0.158-1.47-0.476-2.032
			C47.495,46.078,47.076,45.599,46.557,45.203z"/>
		<path fill="#93B4CB" d="M84.254,53.331c0.01-1.812-1.438-3.231-3.233-3.169c-1.713,0.061-3.107,1.463-3.225,3.17
			c-1.377-8.006-10.074-19.677-20.958-27.802c-4.627-3.969-9.484-6.252-13.723-7.559c-4.01-1.408-8.029-2.063-11.859-1.691
			c-0.137,0.008-0.217,0.014-0.217,0.014V4.065c0-2.088-1.814-3.781-4.055-3.781L4.601,0.243c-2.238,0-4.055,1.693-4.055,3.781
			v51.363v10.447v0.223c0,1.967,1.816,3.561,4.055,3.561l22.384,0.041h46.967c0.89,0,3.071,0,3.807,0c0,0,2.265,0.034,3.247,0
			c1.786-0.063,3.228-1.879,3.233-3.684l0.016-6.384h-0.016L84.254,53.331z M14.867,13.388V7.165c0-2.154,1.814-3.9,4.055-3.9h4.545
			c2.24,0,4.055,1.746,4.055,3.9v6.223c0,2.154-1.814,3.9-4.055,3.9h-4.545C16.682,17.288,14.867,15.542,14.867,13.388z
			 M39.706,62.986c-9.97,0-18.052-8.082-18.052-18.052s8.082-18.052,18.052-18.052c9.971,0,18.052,8.082,18.052,18.052
			S49.677,62.986,39.706,62.986z"/>
	</g>
</g>
<rect id="_x3C_Slice_x3E__9_" fill="none" width="85" height="86"/>
</svg>
