<?xml version="1.0" encoding="utf-8"?>
<!-- Generator: Adobe Illustrator 16.0.3, SVG Export Plug-In . SVG Version: 6.00 Build 0)  -->
<!DOCTYPE svg PUBLIC "-//W3C//DTD SVG 1.1//EN" "http://www.w3.org/Graphics/SVG/1.1/DTD/svg11.dtd">
<svg version="1.1" id="Layer_1" xmlns="http://www.w3.org/2000/svg" xmlns:xlink="http://www.w3.org/1999/xlink" x="0px" y="0px"
	 width="84px" height="91px" viewBox="0 0 84 91" enable-background="new 0 0 84 91" xml:space="preserve">
<path fill="#93B4CB" d="M56.395,47.253c-0.699-0.461-1.576-0.576-2.365-0.344c-1.178,0.336-2.082,1.518-2.16,2.814
	c-0.111,1.264,0.564,2.541,1.625,3.098c1.09,0.6,2.518,0.389,3.4-0.527c0.625-0.615,0.975-1.533,0.934-2.443
	C57.801,48.8,57.238,47.792,56.395,47.253z"/>
<path fill="#93B4CB" d="M48.074,31.101c-0.643-0.402-1.426-0.48-2.146-0.322c-1.176,0.281-2.125,1.396-2.268,2.68
	c-0.168,1.197,0.377,2.463,1.342,3.098c0.959,0.668,2.273,0.662,3.232-0.002c0.846-0.566,1.381-1.607,1.369-2.67
	C49.615,32.749,49,31.649,48.074,31.101z"/>
<path fill="#93B4CB" d="M49.574,41.479c-0.01-0.078-0.025-0.156-0.041-0.234c-0.002-0.006-0.004-0.012-0.004-0.02
	c-0.014-0.066-0.031-0.133-0.049-0.197c-0.008-0.02-0.012-0.041-0.018-0.061c-0.016-0.045-0.029-0.09-0.045-0.137
	c-0.014-0.037-0.027-0.074-0.039-0.111c-0.01-0.018-0.02-0.035-0.025-0.055c-0.178-0.439-0.447-0.84-0.789-1.146
	c-0.008-0.008-0.014-0.012-0.021-0.02c-0.033-0.029-0.066-0.061-0.104-0.09c-0.113-0.096-0.238-0.184-0.365-0.26
	c-0.008-0.004-0.018-0.008-0.023-0.014c0.004-0.006,0.01-0.012,0.016-0.018c-0.143-0.07-0.287-0.133-0.436-0.186
	c-0.131-0.049-0.266-0.088-0.402-0.117c-0.402-0.092-0.816-0.107-1.223-0.008c-0.025,0.004-0.049,0.012-0.074,0.018h-0.004
	l-0.004,0.002c-0.732,0.178-1.375,0.678-1.791,1.342c-0.002,0.002-0.004,0.006-0.008,0.008c-0.039,0.061-0.072,0.125-0.107,0.189
	c-0.004,0.01-0.012,0.02-0.016,0.027c-0.029,0.061-0.057,0.119-0.086,0.178c-0.006,0.018-0.016,0.037-0.023,0.057
	c-0.02,0.049-0.041,0.102-0.061,0.154c-0.012,0.029-0.02,0.061-0.031,0.09c-0.014,0.043-0.027,0.084-0.039,0.127
	c-0.014,0.043-0.023,0.088-0.033,0.133c-0.008,0.029-0.014,0.057-0.021,0.086c-0.012,0.063-0.023,0.125-0.031,0.188
	c0,0.008-0.006,0.016-0.006,0.027c-0.002,0.006-0.002,0.012-0.002,0.012c-0.002,0.025-0.006,0.043-0.008,0.063
	c-0.004,0.027-0.006,0.057-0.008,0.084c-0.004,0.045-0.012,0.088-0.014,0.133c-0.033,0.463,0.039,0.932,0.197,1.363
	c0.043,0.135,0.092,0.266,0.146,0.396c0.008-0.004,0.012-0.012,0.018-0.018c0.041,0.082,0.086,0.162,0.137,0.238
	c0.012,0.018,0.023,0.037,0.035,0.055c0.027,0.041,0.053,0.084,0.084,0.125c0.021,0.031,0.045,0.061,0.07,0.092
	c0.023,0.031,0.047,0.059,0.07,0.088c0.025,0.029,0.053,0.059,0.078,0.088c0.027,0.031,0.055,0.059,0.082,0.088
	c0.027,0.027,0.053,0.053,0.078,0.076c0.027,0.025,0.055,0.049,0.082,0.074c0.035,0.029,0.068,0.059,0.102,0.086
	c0.01,0.006,0.018,0.012,0.023,0.016c0.68,0.533,1.572,0.762,2.404,0.557c0.406-0.09,0.791-0.279,1.123-0.541
	c0.014-0.01,0.027-0.02,0.041-0.031c0.021-0.018,0.043-0.033,0.066-0.053c0.336-0.285,0.611-0.648,0.807-1.055
	c0.004-0.01,0.008-0.018,0.012-0.025c0.029-0.061,0.055-0.123,0.08-0.186c0.004-0.01,0.008-0.016,0.01-0.027
	c0.113-0.291,0.182-0.598,0.209-0.912c0-0.006,0-0.014,0.002-0.021c0.002-0.047,0.004-0.094,0.006-0.141
	c0.004-0.123,0.004-0.242-0.004-0.363C49.592,41.62,49.584,41.55,49.574,41.479z"/>
<path fill="#93B4CB" d="M57.574,32.577c-0.463-1.127-1.578-1.918-2.736-1.875c-0.041,0-0.082,0.002-0.123,0.002c0,0-0.008,0-0.012,0
	c-0.17,0.006-0.338,0.025-0.504,0.064c-0.014,0.004-0.029,0.006-0.041,0.01c-1.178,0.281-2.127,1.396-2.27,2.68
	c-0.053,0.381-0.033,0.771,0.051,1.145c0.014,0.104,0.035,0.207,0.057,0.309c0.006-0.008,0.012-0.014,0.02-0.021
	c0.215,0.682,0.639,1.287,1.215,1.666c0.307,0.213,0.646,0.357,0.998,0.434c0.197,0.045,0.398,0.064,0.602,0.064
	c0.02,0,0.041,0,0.059,0c0.029-0.002,0.061,0,0.088-0.002c0.023,0,0.049-0.004,0.072-0.006c0.006,0,0.012,0,0.02-0.002
	c1.27-0.064,2.428-1.109,2.689-2.441c0.006-0.016,0.006-0.033,0.01-0.049c0.043-0.221,0.068-0.445,0.064-0.67
	c0.004-0.238-0.023-0.475-0.074-0.705C57.717,32.972,57.66,32.769,57.574,32.577z"/>
<path fill="#93B4CB" d="M54.574,45.106c0.768,0.061,1.615-0.154,2.154-0.777c0.289-0.33,0.639-0.621,0.816-1.039
	c0.521-1.164,0.309-2.658-0.545-3.576c-0.768-0.867-2.006-1.197-3.063-0.822c-1.381,0.451-2.299,2.061-2.025,3.576
	C52.111,43.854,53.266,44.999,54.574,45.106z"/>
<path fill="#93B4CB" d="M48.166,47.253c-0.699-0.463-1.576-0.576-2.365-0.344c-1.176,0.336-2.08,1.518-2.158,2.814
	c-0.115,1.262,0.563,2.541,1.625,3.096c1.088,0.602,2.518,0.389,3.398-0.525c0.629-0.615,0.977-1.533,0.936-2.443
	C49.572,48.798,49.01,47.792,48.166,47.253z"/>
<path fill="#93B4CB" d="M39.615,30.981c-0.613-0.311-1.326-0.346-1.98-0.189c-1.385,0.354-2.395,1.867-2.238,3.381
	c0.084,1.084,0.732,2.088,1.648,2.557c0.967,0.512,2.191,0.414,3.068-0.26c0.816-0.6,1.305-1.67,1.242-2.729
	C41.326,32.567,40.619,31.456,39.615,30.981z"/>
<path fill="#93B4CB" d="M29.205,38.897c-1.182,0.396-2.051,1.641-2.061,2.965c-0.049,1.346,0.807,2.652,2.002,3.076
	c1,0.395,2.182,0.135,2.969-0.625c0.9-0.834,1.25-2.273,0.824-3.467C32.443,39.263,30.68,38.339,29.205,38.897z"/>
<path fill="#93B4CB" d="M32.156,36.222c0.887-0.844,1.205-2.277,0.771-3.457c-0.486-1.457-2.043-2.361-3.455-1.992
	c-1.328,0.293-2.357,1.66-2.328,3.113c-0.016,1.109,0.57,2.193,1.477,2.74C29.721,37.319,31.227,37.159,32.156,36.222z"/>
<path fill="#93B4CB" d="M29.34,46.903c-1.18,0.33-2.105,1.5-2.186,2.805c-0.119,1.273,0.566,2.57,1.645,3.119
	c1.162,0.635,2.691,0.338,3.551-0.715c0.967-1.094,1.025-2.932,0.137-4.098C31.771,47.009,30.475,46.562,29.34,46.903z"/>
<path fill="#93B4CB" d="M40.277,47.53c-0.01-0.01-0.021-0.02-0.031-0.027c0.006-0.006,0.01-0.01,0.014-0.016
	c-0.205-0.166-0.428-0.307-0.664-0.418c-0.02-0.01-0.039-0.018-0.059-0.025c-0.055-0.023-0.107-0.047-0.16-0.066
	c-0.031-0.012-0.059-0.023-0.09-0.033c-0.422-0.146-0.867-0.195-1.313-0.121c-0.09,0.01-0.176,0.025-0.262,0.047
	c-0.01,0-0.02,0.002-0.031,0.004c-0.041,0.01-0.08,0.023-0.119,0.035c-0.021,0.006-0.041,0.01-0.063,0.018
	c-0.059,0.018-0.115,0.039-0.172,0.063c-0.014,0.006-0.029,0.01-0.045,0.018c-0.059,0.023-0.115,0.053-0.172,0.082
	c-0.014,0.004-0.027,0.012-0.039,0.018c-0.055,0.027-0.107,0.059-0.162,0.092c-0.012,0.008-0.029,0.016-0.043,0.025
	c-0.043,0.027-0.084,0.059-0.127,0.086c-0.023,0.018-0.049,0.033-0.072,0.053c-0.018,0.014-0.033,0.025-0.053,0.039
	c-0.455,0.359-0.82,0.854-1.025,1.42c-0.008,0.016-0.014,0.033-0.018,0.051c-0.016,0.041-0.029,0.082-0.041,0.125
	c-0.016,0.047-0.029,0.094-0.039,0.143c-0.004,0.012-0.006,0.027-0.012,0.041c-0.021,0.096-0.041,0.191-0.055,0.289
	c-0.055,0.316-0.057,0.633-0.012,0.943c0.043,0.344,0.143,0.678,0.289,0.988c0.084,0.189,0.182,0.375,0.289,0.549
	c0.008-0.006,0.014-0.012,0.02-0.016c0.035,0.047,0.07,0.096,0.105,0.141c-0.002,0.004-0.004,0.008-0.008,0.012
	c0.232,0.27,0.506,0.494,0.805,0.668c0.164,0.1,0.334,0.176,0.512,0.238c0.029,0.01,0.055,0.02,0.082,0.029
	c0.016,0.004,0.031,0.008,0.049,0.012c0.496,0.152,1.025,0.176,1.531,0.039c1.221-0.303,2.193-1.5,2.262-2.844
	c0.002-0.021,0.004-0.045,0.004-0.066c0.002-0.006,0.002-0.01,0.002-0.01c0.068-1.004-0.363-1.99-1.064-2.639
	C40.287,47.521,40.283,47.526,40.277,47.53z"/>
<path fill="#93B4CB" d="M15.688,25.146c0.846,0.225,1.727,0.066,2.588,0.109l28.555-0.012c1.848,0.002,3.711,0.02,5.549-0.02
	l15.525,0.041c0.598,0.02,1.195,0.014,1.75-0.258c0.979-0.467,1.615-1.598,1.568-2.736c-0.023-2.619-0.012-5.221-0.098-7.836
	c-0.096-1.336-1.342-2.355-2.559-2.354l-52.191,0.002c-1.387,0.004-2.611,1.316-2.602,2.799c-0.018,2.268,0,4.539-0.008,6.809
	c-0.002,0.449-0.01,0.9,0.072,1.344C14.033,24.028,14.775,24.868,15.688,25.146z"/>
<path fill="#93B4CB" d="M38.393,45.12c1.451,0.023,2.799-1.248,2.945-2.791c0.141-1.084-0.297-2.211-1.094-2.889
	c-0.729-0.633-1.742-0.857-2.646-0.59c-1.451,0.377-2.459,2.049-2.17,3.617C35.637,43.968,36.975,45.161,38.393,45.12z"/>
<path fill="#93B4CB" d="M83.986,17.149c-0.072-3.797-1.393-7.551-3.701-10.447l-0.037,0.012c-0.314-0.406-0.641-0.799-0.984-1.168
	c-2.293-2.342-5.221-3.992-8.361-4.531C69.236,0.692,67.539,0.8,65.854,0.78C55.59,0.771,45.418,0.802,35.154,0.767h-0.098
	L33.221,0.78c-5.613,0.004-11.23-0.006-16.848,0.006c-4.461,0.059-8.827,2.309-11.68,5.959c-2.306,2.896-3.628,6.65-3.701,10.447
	c-0.015,2.922,0.023,5.842-0.011,8.764l0.011,2.572c0.007,5.707-0.005,11.41,0.004,17.117c-0.006,1.449,0.514,2.906,1.498,3.924
	c0.927,0.994,2.233,1.551,3.546,1.557c2.572,0.006,5.144,0.004,7.714,0.002v33.104l0.008,0.002
	c-0.008,1.773,0.678,4.088,3.373,4.584c0,0,0.165,0.063,0.646,0.027l0.006,0.012c0.043-0.01,0.086-0.018,0.129-0.021
	c0.031-0.004,0.064-0.008,0.099-0.012c0.014-0.002,0.028-0.002,0.044-0.004l0.149-0.004c0.632,0.002,1.206,0.293,1.532,0.664
	c0.6,0.648,1.864,0.613,2.832,0.5c0.457-0.059,0.755-0.275,1.03-0.51c0,0.006-0.003,0.01-0.005,0.018l0.703-0.512
	c0.092-0.037,0.188-0.068,0.291-0.092l0.82-0.045c0.047,0.006,0.095,0.012,0.141,0.02c0.003,0,0.003,0.002,0.006,0.002
	c0.01,0,0.021,0.004,0.03,0.006c0.31,0.068,0.588,0.201,0.811,0.369l0.035,0.025c0.087,0.068,0.167,0.141,0.233,0.219
	c0.6,0.648,1.867,0.613,2.832,0.5c0.141-0.018,0.264-0.051,0.379-0.094c0.013-0.006,0.027-0.012,0.039-0.018
	c0.033-0.012,0.063-0.025,0.093-0.041c0.011-0.004,0.02-0.01,0.03-0.016c0.002,0,0.005,0,0.005-0.002
	c0.033-0.008,0.065-0.016,0.101-0.025c0.024-0.025,0.049-0.051,0.073-0.078c0.185-0.119,0.344-0.264,0.505-0.402
	c0.168-0.137,0.346-0.266,0.566-0.352c0.092-0.035,0.189-0.061,0.289-0.082c0.009,0,0.018-0.004,0.025-0.004
	c0.092-0.014,0.183-0.025,0.273-0.037c0.25-0.018,0.504,0.002,0.74,0.057c0.229,0.063,0.438,0.156,0.621,0.275
	c0.028,0.02,0.057,0.043,0.082,0.064l-0.002-0.01c0.109,0.082,0.211,0.17,0.29,0.264c0.603,0.648,1.868,0.613,2.836,0.5
	c0.673-0.086,1.003-0.521,1.426-0.84c0.629-0.459,1.833-0.412,2.395,0.086l-0.001-0.01c0.348,0.277,0.616,0.619,1.164,0.723
	c0.66,0.115,1.375,0.111,2.039,0.014c0.928-0.154,1.131-0.984,2.08-1.111c0.789-0.162,1.557,0.172,1.953,0.625
	c0.6,0.648,1.865,0.611,2.832,0.5c0.676-0.088,1.006-0.521,1.426-0.84c0.629-0.459,1.838-0.412,2.396,0.086
	c0.352,0.313,0.711,0.68,1.323,0.756c0.935,0.09,2.152,0.156,2.761-0.449c0.393-0.438,1.08-0.814,1.877-0.697
	c0.803,0.053,1.152,0.598,1.672,0.936c0.735,0.389,1.732,0.25,2.567,0.131c0.903-0.137,1.124-0.943,2.054-1.049
	c0.646-0.037,1.523-0.135,2-0.412c1.883-0.79,2.698-2.351,2.795-3.893l0.01-0.303V51.085c2.574,0,5.15,0.002,7.727-0.004
	c1.313-0.004,2.615-0.561,3.545-1.557c0.982-1.016,1.502-2.473,1.496-3.922c0.01-5.707-0.002-11.412,0.004-17.117l0.012-2.572
	C83.965,22.991,84.004,20.069,83.986,17.149z M68.117,81.065l-0.029,3.144c0.02,0.781-0.869,1.562-1.557,2.175
	c-1.176,0.053-2.3,0.369-3.205,0.883c-1.482-0.863-3.648-1.127-5.459-0.619c-0.566,0.125-0.99,0.443-1.536,0.582
	c-0.815-0.4-1.723-0.742-2.737-0.809c-1.498-0.154-3.012,0.205-4.186,0.84c-1.911-1.156-5.008-1.15-6.922,0.004
	c-1.852-1.104-4.801-1.168-6.718-0.115c-0.071,0.035-0.144,0.07-0.212,0.107c-0.37-0.191-0.77-0.361-1.188-0.498
	c-0.016-0.006-0.034-0.012-0.051-0.018c-0.779-0.25-1.628-0.389-2.5-0.348c-0.112,0-0.215,0.012-0.309,0.027
	c-0.264,0.021-0.523,0.057-0.781,0.104c-0.645,0.111-1.259,0.303-1.801,0.574c-0.115,0.055-0.231,0.113-0.344,0.172
	c-0.913-0.555-2.1-0.844-3.295-0.869c-0.01,0-0.018,0-0.025,0c-1.301-0.025-2.614,0.26-3.607,0.859
	c-0.106-0.055-0.213-0.107-0.326-0.158c-0.35-0.18-0.734-0.324-1.138-0.434c-0.021-0.004-0.038-0.01-0.057-0.016
	c-0.015-0.004-0.03-0.008-0.045-0.012c-0.515-0.143-1.06-0.232-1.624-0.25c-0.703-0.561-1.137-1.283-1.158-2.025l-0.107-3.301
	V52.198c0-0.645,0.521-1.168,1.166-1.168s1.168,0.523,1.168,1.168v27.699h0.018v3.753l0.021,0.646
	c0.379,0.056,0.759,0.136,1.135,0.239l0.09,0.024c0.294,0.08,0.578,0.173,0.853,0.279c1.045-0.408,2.239-0.627,3.47-0.627
	l0.203,0.002c1.178,0.025,2.308,0.245,3.297,0.632c0.449-0.175,0.939-0.317,1.453-0.422l0.216-0.055l0.195-0.021
	c0.249-0.042,0.511-0.077,0.774-0.101c0.161-0.023,0.332-0.039,0.517-0.042c1.079-0.048,2.171,0.109,3.247,0.455l0.152,0.053
	c0.115,0.037,0.236,0.08,0.362,0.128c0.531-0.214,1.112-0.376,1.726-0.483l0.214-0.031l0.153-0.025
	c1.617-0.216,3.411-0.03,4.869,0.533c2.101-0.819,4.863-0.817,6.955,0.006c1.387-0.53,2.903-0.75,4.387-0.596
	c0.962,0.063,1.838,0.321,2.553,0.605c0.258-0.113,0.571-0.235,0.938-0.322c1.916-0.523,4.185-0.395,6.013,0.315
	c0.703-0.274,1.455-0.467,2.232-0.568c0.087-0.088,0.164-0.172,0.223-0.246V60.261h-0.018v-8.063c0-0.645,0.523-1.168,1.168-1.168
	s1.166,0.523,1.166,1.168V81.065z M44.475,74.251c-0.253-0.331-0.582-0.626-0.986-0.884s-0.865-0.499-1.38-0.726
	c-0.515-0.225-1.046-0.464-1.593-0.717s-1.077-0.538-1.592-0.859c-0.516-0.32-0.976-0.704-1.381-1.151
	c-0.404-0.446-0.732-0.976-0.984-1.585c-0.253-0.609-0.379-1.34-0.379-2.191c0-0.978,0.182-1.837,0.544-2.578
	s0.851-1.356,1.466-1.845c0.615-0.489,1.342-0.854,2.177-1.097c0.835-0.241,1.722-0.362,2.657-0.362c0.483,0,0.967,0.036,1.451,0.11
	c0.482,0.073,0.936,0.173,1.355,0.3c0.42,0.126,0.793,0.268,1.119,0.425c0.326,0.158,0.542,0.29,0.646,0.396
	c0.105,0.104,0.177,0.194,0.213,0.268c0.037,0.073,0.068,0.171,0.096,0.292c0.025,0.12,0.044,0.273,0.055,0.457
	c0.01,0.185,0.016,0.412,0.016,0.686c0,0.305-0.008,0.563-0.023,0.773c-0.016,0.21-0.043,0.383-0.079,0.52s-0.089,0.236-0.157,0.3
	s-0.16,0.095-0.276,0.095s-0.3-0.073-0.552-0.221c-0.252-0.146-0.563-0.308-0.931-0.48c-0.368-0.174-0.794-0.331-1.277-0.474
	c-0.483-0.142-1.015-0.213-1.593-0.213c-0.451,0-0.846,0.056-1.182,0.166c-0.338,0.11-0.619,0.263-0.844,0.457
	c-0.227,0.194-0.395,0.428-0.505,0.702c-0.11,0.272-0.166,0.562-0.166,0.866c0,0.453,0.124,0.844,0.37,1.176
	c0.248,0.33,0.579,0.625,0.994,0.883s0.886,0.499,1.411,0.725c0.526,0.227,1.062,0.466,1.608,0.718s1.083,0.539,1.608,0.859
	c0.526,0.321,0.993,0.705,1.403,1.151c0.41,0.447,0.741,0.973,0.994,1.577c0.252,0.604,0.378,1.316,0.378,2.137
	c0,1.072-0.2,2.013-0.599,2.822c-0.4,0.81-0.941,1.484-1.625,2.026c-0.684,0.541-1.482,0.949-2.396,1.222
	c-0.915,0.274-1.893,0.41-2.934,0.41c-0.704,0-1.358-0.058-1.963-0.173c-0.604-0.116-1.138-0.255-1.6-0.418
	c-0.463-0.163-0.85-0.334-1.16-0.513s-0.533-0.337-0.67-0.473c-0.137-0.137-0.234-0.334-0.291-0.592
	c-0.059-0.258-0.088-0.628-0.088-1.111c0-0.326,0.012-0.6,0.032-0.82s0.056-0.399,0.103-0.536s0.11-0.233,0.189-0.292
	c0.078-0.058,0.17-0.087,0.275-0.087c0.146,0,0.355,0.087,0.623,0.261c0.268,0.173,0.612,0.365,1.033,0.575
	c0.42,0.21,0.922,0.402,1.506,0.576c0.583,0.173,1.259,0.261,2.025,0.261c0.506,0,0.957-0.061,1.357-0.182
	c0.398-0.121,0.738-0.292,1.017-0.513s0.491-0.495,0.639-0.82c0.147-0.326,0.22-0.688,0.22-1.088
	C44.852,74.979,44.727,74.582,44.475,74.251z M79.299,27.759c-0.068,5.947-0.004,11.896-0.029,17.844
	c0.029,0.219-0.096,0.426-0.316,0.432l-16.113,0.02c-0.189,0-0.375,0-0.564,0.002c0.02,2.025,0.006,4.051,0.008,6.078
	c0.014,0.971-0.223,1.951-0.738,2.758c-0.791,1.303-2.23,2.107-3.682,2.078c-5.898,0.006-11.795-0.006-17.695,0.004
	c0.012,0.012,0.016,0.027,0.029,0.041c-4.361,0-8.721,0.002-13.082-0.002c-1.451,0.031-2.891-0.775-3.684-2.078
	c-0.516-0.807-0.748-1.787-0.736-2.756c0.002-2.027-0.01-4.053,0.008-6.08c-0.188-0.002-0.375-0.002-0.564-0.002l-16.114-0.02
	c-0.219-0.004-0.347-0.213-0.314-0.432c-0.027-5.947,0.037-11.896-0.032-17.842l-0.005-1.08c0.069-2.26,0.016-4.518,0.033-6.775
	c0.026-1.543-0.095-3.105,0.196-4.629c0.514-2.828,2.055-5.41,4.21-7.133c1.797-1.447,4.02-2.297,6.273-2.35
	c5.691-0.008,11.387-0.008,17.084-0.014h0.119c0,0,0.004,0,0.008,0l5.99-0.012c1.775,0.051,3.551,0.01,5.322,0.023
	c7.842,0,15.682,0,23.521,0c2.771,0.016,5.506,1.244,7.484,3.309c1.447,1.605,2.652,3.672,3.088,5.861
	c0.387,1.711,0.227,3.484,0.268,5.229c0.012,2.146-0.031,4.295,0.033,6.445L79.299,27.759z"/>
<rect id="_x3C_Slice_x3E__20_" fill="none" width="84" height="91"/>
</svg>
