<?xml version="1.0" encoding="utf-8"?>
<!-- Generator: Adobe Illustrator 16.0.3, SVG Export Plug-In . SVG Version: 6.00 Build 0)  -->
<!DOCTYPE svg PUBLIC "-//W3C//DTD SVG 1.1//EN" "http://www.w3.org/Graphics/SVG/1.1/DTD/svg11.dtd">
<svg version="1.1" id="Layer_1" xmlns="http://www.w3.org/2000/svg" xmlns:xlink="http://www.w3.org/1999/xlink" x="0px" y="0px"
	 width="84px" height="90px" viewBox="0 0 84 90" enable-background="new 0 0 84 90" xml:space="preserve">
<g>
	<path fill="#93B4CB" d="M56.202,47.068c-0.698-0.461-1.576-0.576-2.364-0.344c-1.179,0.336-2.082,1.518-2.16,2.814
		c-0.112,1.264,0.563,2.541,1.625,3.098c1.09,0.6,2.518,0.389,3.399-0.527c0.626-0.615,0.976-1.533,0.934-2.443
		C57.608,48.615,57.047,47.607,56.202,47.068z"/>
	<path fill="#93B4CB" d="M47.882,30.916c-0.642-0.402-1.426-0.48-2.146-0.322c-1.177,0.281-2.125,1.396-2.268,2.68
		c-0.168,1.197,0.376,2.463,1.341,3.098c0.96,0.668,2.274,0.662,3.232-0.002c0.846-0.566,1.382-1.607,1.369-2.67
		C49.424,32.564,48.808,31.465,47.882,30.916z"/>
	<path fill="#93B4CB" d="M49.383,41.295c-0.01-0.078-0.025-0.156-0.041-0.234c-0.002-0.006-0.004-0.012-0.004-0.02
		c-0.015-0.066-0.032-0.133-0.05-0.197c-0.007-0.02-0.012-0.041-0.018-0.061c-0.015-0.045-0.028-0.09-0.045-0.137
		c-0.013-0.037-0.026-0.074-0.039-0.111c-0.009-0.018-0.019-0.035-0.024-0.055c-0.178-0.439-0.448-0.84-0.79-1.146
		c-0.007-0.008-0.014-0.012-0.021-0.02c-0.033-0.029-0.066-0.061-0.104-0.09c-0.114-0.096-0.238-0.184-0.366-0.26
		c-0.008-0.004-0.018-0.008-0.023-0.014c0.004-0.006,0.011-0.012,0.016-0.018c-0.142-0.07-0.286-0.133-0.435-0.186
		c-0.132-0.049-0.266-0.088-0.402-0.117c-0.403-0.092-0.817-0.107-1.223-0.008c-0.025,0.004-0.049,0.012-0.075,0.018h-0.003
		l-0.004,0.002C45,38.82,44.356,39.32,43.941,39.984c-0.003,0.002-0.005,0.006-0.008,0.008c-0.039,0.061-0.072,0.125-0.107,0.189
		c-0.004,0.01-0.012,0.02-0.016,0.027c-0.03,0.061-0.058,0.119-0.086,0.178c-0.007,0.018-0.016,0.037-0.024,0.057
		c-0.02,0.049-0.041,0.102-0.061,0.154c-0.012,0.029-0.02,0.061-0.03,0.09c-0.014,0.043-0.028,0.084-0.039,0.127
		c-0.014,0.043-0.024,0.088-0.034,0.133c-0.007,0.029-0.013,0.057-0.021,0.086c-0.013,0.063-0.023,0.125-0.032,0.188
		c0,0.008-0.005,0.016-0.005,0.027c-0.002,0.006-0.002,0.012-0.002,0.012c-0.002,0.025-0.006,0.043-0.008,0.063
		c-0.005,0.027-0.007,0.057-0.009,0.084c-0.004,0.045-0.011,0.088-0.014,0.133c-0.032,0.463,0.04,0.932,0.198,1.363
		c0.043,0.135,0.092,0.266,0.146,0.396c0.007-0.004,0.011-0.012,0.018-0.018c0.041,0.082,0.086,0.162,0.137,0.238
		c0.011,0.018,0.023,0.037,0.034,0.055c0.028,0.041,0.054,0.084,0.085,0.125c0.021,0.031,0.045,0.061,0.069,0.092
		s0.047,0.059,0.071,0.088c0.025,0.029,0.052,0.059,0.078,0.088c0.026,0.031,0.054,0.059,0.082,0.088
		c0.026,0.027,0.053,0.053,0.078,0.076c0.026,0.025,0.055,0.049,0.082,0.074c0.034,0.029,0.067,0.059,0.102,0.086
		c0.009,0.006,0.017,0.012,0.022,0.016c0.68,0.533,1.572,0.762,2.405,0.557c0.406-0.09,0.79-0.279,1.122-0.541
		c0.015-0.01,0.028-0.02,0.041-0.031c0.021-0.018,0.043-0.033,0.067-0.053c0.336-0.285,0.61-0.648,0.806-1.055
		c0.005-0.01,0.009-0.018,0.012-0.025c0.03-0.061,0.056-0.123,0.08-0.186c0.004-0.01,0.008-0.016,0.01-0.027
		c0.113-0.291,0.183-0.598,0.209-0.912c0-0.006,0-0.014,0.002-0.021c0.002-0.047,0.004-0.094,0.006-0.141
		c0.005-0.123,0.005-0.242-0.004-0.363C49.399,41.436,49.393,41.365,49.383,41.295z"/>
	<path fill="#93B4CB" d="M57.383,32.393c-0.464-1.127-1.579-1.918-2.736-1.875c-0.041,0-0.082,0.002-0.123,0.002
		c0,0-0.008,0-0.012,0c-0.171,0.006-0.338,0.025-0.504,0.064c-0.014,0.004-0.029,0.006-0.041,0.01
		c-1.178,0.281-2.127,1.396-2.27,2.68c-0.054,0.381-0.034,0.771,0.05,1.145c0.015,0.104,0.035,0.207,0.057,0.309
		c0.007-0.008,0.013-0.014,0.02-0.021c0.215,0.682,0.639,1.287,1.216,1.666c0.306,0.213,0.646,0.357,0.998,0.434
		c0.197,0.045,0.398,0.064,0.601,0.064c0.02,0,0.041,0,0.059,0c0.03-0.002,0.061,0,0.089-0.002c0.023,0,0.048-0.004,0.072-0.006
		c0.006,0,0.012,0,0.019-0.002c1.27-0.064,2.429-1.109,2.69-2.441c0.005-0.016,0.005-0.033,0.01-0.049
		c0.043-0.221,0.067-0.445,0.064-0.67c0.003-0.238-0.023-0.475-0.074-0.705C57.525,32.787,57.468,32.584,57.383,32.393z"/>
	<path fill="#93B4CB" d="M54.382,44.922c0.769,0.061,1.616-0.154,2.154-0.777c0.29-0.33,0.639-0.621,0.816-1.039
		c0.522-1.164,0.31-2.658-0.544-3.576c-0.768-0.867-2.007-1.197-3.063-0.822c-1.38,0.451-2.299,2.061-2.024,3.576
		C51.92,43.67,53.074,44.814,54.382,44.922z"/>
	<path fill="#93B4CB" d="M47.975,47.068c-0.699-0.463-1.577-0.576-2.365-0.344c-1.177,0.336-2.08,1.518-2.158,2.814
		c-0.115,1.262,0.562,2.541,1.625,3.096c1.088,0.602,2.518,0.389,3.397-0.525c0.629-0.615,0.977-1.533,0.936-2.443
		C49.381,48.613,48.817,47.607,47.975,47.068z"/>
	<path fill="#93B4CB" d="M39.423,30.797c-0.612-0.311-1.326-0.346-1.979-0.189c-1.385,0.354-2.395,1.867-2.238,3.381
		c0.084,1.084,0.731,2.088,1.648,2.557c0.967,0.512,2.19,0.414,3.068-0.26c0.816-0.6,1.305-1.67,1.241-2.729
		C41.135,32.383,40.427,31.271,39.423,30.797z"/>
	<path fill="#93B4CB" d="M29.013,38.713c-1.182,0.396-2.05,1.641-2.06,2.965c-0.049,1.346,0.807,2.652,2.002,3.076
		c0.999,0.395,2.181,0.135,2.969-0.625c0.899-0.834,1.249-2.273,0.823-3.467C32.251,39.078,30.488,38.154,29.013,38.713z"/>
	<path fill="#93B4CB" d="M31.965,36.037c0.887-0.844,1.205-2.277,0.771-3.457c-0.487-1.457-2.043-2.361-3.455-1.992
		c-1.329,0.293-2.357,1.66-2.328,3.113c-0.017,1.109,0.57,2.193,1.477,2.74C29.528,37.135,31.035,36.975,31.965,36.037z"/>
	<path fill="#93B4CB" d="M29.148,46.719c-1.181,0.33-2.105,1.5-2.186,2.805c-0.12,1.273,0.565,2.57,1.645,3.119
		c1.161,0.635,2.69,0.338,3.551-0.715c0.967-1.094,1.024-2.932,0.137-4.098C31.58,46.824,30.282,46.377,29.148,46.719z"/>
	<path fill="#93B4CB" d="M40.086,47.346c-0.01-0.01-0.021-0.02-0.032-0.027c0.006-0.006,0.011-0.01,0.015-0.016
		c-0.205-0.166-0.429-0.307-0.664-0.418c-0.021-0.01-0.039-0.018-0.059-0.025c-0.055-0.023-0.108-0.047-0.16-0.066
		c-0.031-0.012-0.06-0.023-0.09-0.033c-0.422-0.146-0.868-0.195-1.313-0.121c-0.09,0.01-0.176,0.025-0.263,0.047
		c-0.01,0-0.02,0.002-0.03,0.004c-0.041,0.01-0.08,0.023-0.119,0.035c-0.021,0.006-0.041,0.01-0.063,0.018
		c-0.059,0.018-0.115,0.039-0.172,0.063c-0.015,0.006-0.029,0.01-0.045,0.018c-0.059,0.023-0.115,0.053-0.173,0.082
		c-0.014,0.004-0.026,0.012-0.039,0.018c-0.055,0.027-0.106,0.059-0.161,0.092c-0.013,0.008-0.029,0.016-0.043,0.025
		c-0.043,0.027-0.084,0.059-0.128,0.086c-0.023,0.018-0.048,0.033-0.071,0.053c-0.018,0.014-0.034,0.025-0.053,0.039
		c-0.456,0.359-0.821,0.854-1.026,1.42c-0.007,0.016-0.014,0.033-0.018,0.051c-0.015,0.041-0.028,0.082-0.041,0.125
		c-0.015,0.047-0.028,0.094-0.039,0.143c-0.004,0.012-0.006,0.027-0.011,0.041c-0.021,0.096-0.041,0.191-0.055,0.289
		c-0.056,0.316-0.058,0.633-0.013,0.943c0.044,0.344,0.144,0.678,0.289,0.988c0.084,0.189,0.182,0.375,0.29,0.549
		c0.007-0.006,0.013-0.012,0.019-0.016c0.035,0.047,0.07,0.096,0.106,0.141c-0.002,0.004-0.004,0.008-0.008,0.012
		c0.231,0.27,0.506,0.494,0.805,0.668c0.164,0.1,0.334,0.176,0.512,0.238c0.028,0.01,0.055,0.02,0.082,0.029
		c0.016,0.004,0.031,0.008,0.049,0.012c0.496,0.152,1.024,0.176,1.531,0.039c1.22-0.303,2.192-1.5,2.261-2.844
		c0.002-0.021,0.004-0.045,0.004-0.066c0.002-0.006,0.002-0.01,0.002-0.01c0.069-1.004-0.362-1.99-1.064-2.639
		C40.095,47.336,40.091,47.342,40.086,47.346z"/>
	<path fill="#93B4CB" d="M38.201,44.936c1.451,0.023,2.799-1.248,2.945-2.791c0.14-1.084-0.297-2.211-1.095-2.889
		c-0.729-0.633-1.742-0.857-2.646-0.59c-1.452,0.377-2.459,2.049-2.17,3.617C35.445,43.783,36.782,44.977,38.201,44.936z"/>
	<path fill="#93B4CB" d="M83.795,16.965c-0.073-3.797-1.394-7.551-3.701-10.447l-0.037,0.012c-0.314-0.406-0.641-0.799-0.984-1.168
		C76.779,3.02,73.852,1.369,70.71,0.83c-1.665-0.322-3.362-0.215-5.048-0.234c-10.264-0.01-20.437,0.021-30.7-0.014h-0.098
		l-1.835,0.014C27.415,0.6,21.798,0.59,16.181,0.602C11.72,0.66,7.354,2.91,4.501,6.561C2.195,9.457,0.873,13.211,0.8,17.008
		c-0.015,2.922,0.023,5.842-0.011,8.764L0.8,28.344c0.007,5.707-0.005,11.41,0.004,17.117c-0.006,1.449,0.514,2.906,1.498,3.924
		c0.927,0.994,2.233,1.551,3.546,1.557c2.571,0.006,5.144,0.004,7.715,0.002v33.104l0.008,0.002
		c-0.008,1.773,0.678,4.088,3.373,4.584c0,0,0.164,0.063,0.646,0.027l0.006,0.012c0.043-0.01,0.085-0.018,0.128-0.021
		c0.032-0.004,0.065-0.008,0.099-0.012c0.014-0.002,0.029-0.002,0.045-0.004l0.148-0.004c0.632,0.002,1.207,0.293,1.533,0.664
		c0.6,0.648,1.863,0.613,2.832,0.5c0.457-0.059,0.754-0.275,1.029-0.51c0,0.006-0.002,0.01-0.004,0.018l0.703-0.512
		c0.091-0.037,0.188-0.068,0.29-0.092l0.821-0.045c0.046,0.006,0.094,0.012,0.14,0.02c0.003,0,0.003,0.002,0.007,0.002
		c0.009,0,0.021,0.004,0.029,0.006c0.311,0.068,0.588,0.201,0.811,0.369l0.035,0.025c0.088,0.068,0.167,0.141,0.233,0.219
		c0.601,0.648,1.868,0.613,2.833,0.5c0.141-0.018,0.264-0.051,0.378-0.094c0.013-0.006,0.027-0.012,0.039-0.018
		c0.034-0.012,0.063-0.025,0.093-0.041c0.012-0.004,0.02-0.01,0.031-0.016c0.001,0,0.004,0,0.004-0.002
		c0.033-0.008,0.066-0.016,0.101-0.025c0.024-0.025,0.05-0.051,0.073-0.078c0.185-0.119,0.344-0.264,0.506-0.402
		c0.168-0.137,0.346-0.266,0.566-0.352c0.092-0.035,0.189-0.061,0.288-0.082c0.009,0,0.019-0.004,0.026-0.004
		c0.092-0.014,0.182-0.025,0.273-0.037c0.25-0.018,0.504,0.002,0.739,0.057c0.229,0.063,0.438,0.156,0.621,0.275
		c0.028,0.02,0.057,0.043,0.083,0.064l-0.002-0.01c0.109,0.082,0.21,0.17,0.289,0.264c0.604,0.648,1.869,0.613,2.836,0.5
		c0.674-0.086,1.003-0.521,1.426-0.84c0.629-0.459,1.834-0.412,2.395,0.086l-0.001-0.01c0.349,0.277,0.616,0.619,1.165,0.723
		c0.659,0.115,1.374,0.111,2.038,0.014c0.929-0.154,1.132-0.984,2.081-1.111c0.789-0.162,1.557,0.172,1.952,0.625
		c0.6,0.648,1.866,0.611,2.833,0.5c0.675-0.088,1.006-0.521,1.426-0.84c0.629-0.459,1.837-0.412,2.396,0.086
		c0.353,0.313,0.712,0.68,1.323,0.756c0.935,0.09,2.152,0.156,2.761-0.449c0.393-0.438,1.081-0.814,1.878-0.697
		c0.803,0.053,1.151,0.598,1.671,0.936c0.735,0.389,1.733,0.25,2.567,0.131c0.904-0.137,1.125-0.943,2.054-1.049
		c0.646-0.037,1.523-0.135,2-0.412c1.883-0.79,2.698-2.351,2.796-3.893l0.009-0.303V50.9c2.575,0,5.15,0.002,7.727-0.004
		c1.313-0.004,2.616-0.561,3.546-1.557c0.982-1.016,1.502-2.473,1.496-3.922c0.009-5.707-0.002-11.412,0.004-17.117l0.011-2.572
		C83.773,22.807,83.812,19.885,83.795,16.965z M67.926,80.881l-0.03,3.144c0.021,0.781-0.868,1.562-1.556,2.175
		c-1.176,0.053-2.301,0.369-3.206,0.883c-1.482-0.863-3.647-1.127-5.458-0.619c-0.566,0.125-0.99,0.443-1.537,0.582
		c-0.814-0.4-1.723-0.742-2.736-0.809c-1.499-0.154-3.013,0.205-4.186,0.84c-1.912-1.156-5.009-1.15-6.922,0.004
		c-1.852-1.104-4.801-1.168-6.719-0.115c-0.07,0.035-0.143,0.07-0.211,0.107c-0.371-0.191-0.77-0.361-1.188-0.498
		c-0.016-0.006-0.035-0.012-0.051-0.018c-0.779-0.25-1.629-0.389-2.5-0.348c-0.113,0-0.215,0.012-0.309,0.027
		c-0.264,0.021-0.524,0.057-0.782,0.104c-0.644,0.111-1.259,0.303-1.801,0.574c-0.115,0.055-0.231,0.113-0.344,0.172
		c-0.913-0.555-2.099-0.844-3.294-0.869c-0.01,0-0.018,0-0.026,0c-1.301-0.025-2.614,0.26-3.606,0.859
		c-0.107-0.055-0.213-0.107-0.326-0.158c-0.351-0.18-0.734-0.324-1.139-0.434c-0.02-0.004-0.037-0.01-0.057-0.016
		c-0.014-0.004-0.029-0.008-0.045-0.012c-0.515-0.143-1.059-0.232-1.623-0.25c-0.704-0.561-1.137-1.283-1.158-2.025l-0.108-3.301
		V52.014c0-0.645,0.522-1.168,1.167-1.168s1.167,0.523,1.167,1.168v27.699h0.018v3.753l0.021,0.646
		c0.38,0.056,0.759,0.136,1.135,0.239l0.091,0.024c0.293,0.08,0.578,0.173,0.852,0.279c1.045-0.408,2.24-0.627,3.471-0.627
		l0.203,0.002c1.178,0.025,2.307,0.245,3.296,0.632c0.45-0.175,0.939-0.317,1.453-0.422l0.216-0.055l0.195-0.021
		c0.25-0.042,0.511-0.077,0.775-0.101c0.16-0.023,0.332-0.039,0.516-0.042c1.079-0.048,2.171,0.109,3.248,0.455l0.152,0.053
		c0.115,0.037,0.236,0.08,0.361,0.128c0.531-0.214,1.113-0.376,1.727-0.483l0.213-0.031l0.154-0.025
		c1.617-0.216,3.41-0.03,4.869,0.533c2.1-0.819,4.862-0.817,6.955,0.006c1.387-0.53,2.902-0.75,4.387-0.596
		c0.961,0.063,1.837,0.321,2.553,0.605c0.258-0.113,0.57-0.235,0.938-0.322c1.916-0.523,4.186-0.395,6.014,0.315
		c0.703-0.274,1.454-0.467,2.231-0.568c0.087-0.088,0.164-0.172,0.224-0.246V60.076h-0.018v-8.063c0-0.645,0.522-1.168,1.167-1.168
		s1.167,0.523,1.167,1.168V80.881z M35.104,63.729c-0.105,0-0.194-0.031-0.269-0.096c-0.073-0.062-0.136-0.16-0.188-0.291
		c-0.054-0.133-0.094-0.307-0.119-0.522c-0.027-0.215-0.039-0.477-0.039-0.781c0-0.316,0.012-0.585,0.039-0.807
		c0.025-0.221,0.065-0.397,0.119-0.529c0.053-0.132,0.115-0.227,0.188-0.284c0.074-0.058,0.163-0.087,0.269-0.087h14.412
		c0.096,0,0.183,0.029,0.262,0.087c0.078,0.058,0.145,0.152,0.197,0.284s0.093,0.309,0.118,0.529c0.026,0.222,0.04,0.49,0.04,0.807
		c0,0.305-0.014,0.566-0.04,0.781c-0.025,0.216-0.065,0.39-0.118,0.522c-0.053,0.131-0.119,0.229-0.197,0.291
		c-0.079,0.064-0.166,0.096-0.262,0.096h-5.119v16.482c0,0.105-0.035,0.2-0.104,0.285c-0.068,0.084-0.182,0.153-0.339,0.204
		c-0.159,0.054-0.372,0.096-0.64,0.127c-0.27,0.031-0.604,0.048-1.004,0.048s-0.735-0.017-1.004-0.048s-0.482-0.073-0.641-0.127
		c-0.158-0.051-0.271-0.12-0.339-0.204c-0.069-0.085-0.103-0.18-0.103-0.285V63.729H35.104z M79.107,27.574
		c-0.068,5.947-0.004,11.896-0.029,17.844c0.029,0.219-0.096,0.426-0.316,0.432l-16.114,0.02c-0.188,0-0.375,0-0.563,0.002
		c0.019,2.025,0.005,4.051,0.007,6.078c0.014,0.971-0.222,1.951-0.737,2.758c-0.792,1.303-2.231,2.107-3.683,2.078
		c-5.897,0.006-11.795-0.006-17.695,0.004c0.013,0.012,0.017,0.027,0.03,0.041c-4.361,0-8.721,0.002-13.082-0.002
		c-1.451,0.031-2.891-0.775-3.684-2.078c-0.516-0.807-0.748-1.787-0.736-2.756c0.002-2.027-0.01-4.053,0.007-6.08
		c-0.187-0.002-0.375-0.002-0.563-0.002l-16.114-0.02c-0.219-0.004-0.347-0.213-0.314-0.432c-0.027-5.947,0.037-11.896-0.032-17.842
		l-0.005-1.08c0.069-2.26,0.016-4.518,0.033-6.775c0.026-1.543-0.095-3.105,0.196-4.629c0.514-2.828,2.055-5.41,4.211-7.133
		c1.796-1.447,4.019-2.297,6.272-2.35c5.691-0.008,11.388-0.008,17.084-0.014h0.119c0,0,0.005,0,0.009,0l5.99-0.012
		c1.775,0.051,3.55,0.01,5.322,0.023c7.842,0,15.681,0,23.521,0c2.771,0.016,5.505,1.244,7.483,3.309
		c1.447,1.605,2.652,3.672,3.089,5.861c0.387,1.711,0.227,3.484,0.268,5.229c0.011,2.146-0.032,4.295,0.033,6.445L79.107,27.574z"/>
	<g>
		<path fill="#93B4CB" d="M22.217,15.445c-0.242-0.105-0.498-0.172-0.766-0.2c-0.267-0.027-0.543-0.042-0.827-0.042h-1.167v3.307
			h1.229c0.437,0,0.804-0.042,1.099-0.127c0.295-0.086,0.537-0.205,0.724-0.358c0.188-0.153,0.33-0.336,0.427-0.55
			c0.098-0.214,0.146-0.445,0.146-0.696c0-0.342-0.084-0.623-0.25-0.844C22.665,15.714,22.461,15.551,22.217,15.445z"/>
		<path fill="#93B4CB" d="M33.246,15.271c-0.139-0.024-0.297-0.044-0.474-0.06c-0.177-0.015-0.422-0.022-0.733-0.022H30.81v2.765
			h1.396c0.389,0,0.729-0.034,1.021-0.103c0.292-0.067,0.534-0.162,0.729-0.286c0.193-0.123,0.34-0.27,0.438-0.44
			c0.097-0.171,0.145-0.361,0.145-0.572c0-0.321-0.1-0.593-0.301-0.813C34.034,15.518,33.705,15.362,33.246,15.271z"/>
		<path fill="#93B4CB" d="M71.156,14.289c-0.096-1.34-1.346-2.364-2.568-2.362l-52.395,0.004c-1.392,0-2.621,1.32-2.611,2.807
			c-0.018,2.279,0,4.559-0.008,6.836c-0.002,0.45-0.012,0.905,0.072,1.351c0.195,0.996,0.941,1.841,1.857,2.119
			c0.848,0.224,1.734,0.067,2.598,0.11l28.666-0.013c1.855,0.002,3.726,0.02,5.57-0.021l15.584,0.043
			c0.602,0.02,1.201,0.014,1.757-0.259c0.984-0.468,1.624-1.603,1.576-2.747C71.23,19.526,71.242,16.916,71.156,14.289z
			 M25.592,18.089c-0.236,0.421-0.58,0.776-1.031,1.065c-0.451,0.288-1.005,0.508-1.661,0.659c-0.656,0.15-1.429,0.226-2.317,0.226
			h-1.125v3.111c0,0.05-0.022,0.095-0.067,0.135c-0.046,0.04-0.12,0.073-0.224,0.098c-0.104,0.026-0.244,0.046-0.417,0.062
			c-0.173,0.015-0.396,0.022-0.666,0.022c-0.265,0-0.485-0.008-0.662-0.022c-0.177-0.016-0.317-0.035-0.421-0.062
			c-0.105-0.024-0.178-0.058-0.22-0.098c-0.041-0.04-0.062-0.085-0.062-0.135v-8.768c0-0.236,0.084-0.412,0.255-0.531
			c0.169-0.117,0.394-0.177,0.671-0.177h3.178c0.318,0,0.623,0.009,0.911,0.025c0.288,0.019,0.634,0.056,1.036,0.113
			s0.811,0.165,1.224,0.321c0.413,0.155,0.765,0.353,1.058,0.59c0.291,0.239,0.513,0.519,0.666,0.837
			c0.152,0.318,0.229,0.676,0.229,1.073C25.945,17.182,25.828,17.667,25.592,18.089z M38.026,23.305
			c-0.028,0.037-0.093,0.068-0.197,0.094c-0.104,0.024-0.257,0.042-0.458,0.053c-0.202,0.01-0.477,0.016-0.823,0.016
			c-0.292,0-0.524-0.006-0.698-0.016c-0.174-0.011-0.311-0.029-0.411-0.056c-0.101-0.028-0.172-0.063-0.214-0.105
			c-0.041-0.043-0.076-0.095-0.104-0.155l-1.209-2.177c-0.145-0.246-0.287-0.465-0.426-0.655c-0.14-0.191-0.294-0.35-0.464-0.479
			c-0.17-0.128-0.366-0.225-0.589-0.29c-0.222-0.065-0.479-0.098-0.771-0.098H30.81v3.714c0,0.05-0.022,0.095-0.067,0.135
			c-0.046,0.04-0.12,0.073-0.225,0.098c-0.104,0.026-0.243,0.046-0.416,0.062c-0.174,0.015-0.396,0.022-0.667,0.022
			c-0.265,0-0.484-0.008-0.661-0.022c-0.178-0.016-0.318-0.035-0.422-0.062c-0.104-0.024-0.178-0.058-0.219-0.098
			S28.07,23.2,28.07,23.15V14.3c0-0.221,0.078-0.381,0.234-0.479s0.349-0.146,0.578-0.146h3.488c0.354,0,0.646,0.005,0.875,0.015
			c0.229,0.01,0.438,0.023,0.625,0.038c0.541,0.056,1.029,0.15,1.463,0.286s0.803,0.313,1.104,0.531
			c0.302,0.218,0.532,0.477,0.692,0.775s0.24,0.642,0.24,1.028c0,0.326-0.059,0.624-0.172,0.893c-0.115,0.27-0.283,0.508-0.506,0.72
			c-0.223,0.211-0.496,0.394-0.822,0.549c-0.326,0.156-0.697,0.281-1.114,0.377c0.201,0.07,0.39,0.156,0.567,0.256
			c0.177,0.102,0.344,0.223,0.5,0.365c0.156,0.144,0.303,0.307,0.442,0.489c0.139,0.185,0.274,0.391,0.406,0.622l1.136,1.921
			c0.104,0.19,0.173,0.33,0.207,0.418c0.035,0.088,0.053,0.156,0.053,0.208C38.068,23.22,38.055,23.267,38.026,23.305z
			 M42.828,23.15c0,0.05-0.023,0.095-0.068,0.135s-0.119,0.073-0.223,0.098c-0.105,0.026-0.244,0.046-0.418,0.062
			c-0.173,0.015-0.395,0.022-0.666,0.022c-0.264,0-0.484-0.008-0.662-0.022c-0.176-0.016-0.316-0.035-0.421-0.062
			c-0.104-0.024-0.179-0.058-0.224-0.098s-0.068-0.085-0.068-0.135v-9.204c0-0.051,0.023-0.096,0.068-0.136s0.121-0.073,0.229-0.098
			c0.107-0.025,0.248-0.046,0.422-0.062c0.174-0.014,0.393-0.021,0.656-0.021c0.271,0,0.493,0.008,0.666,0.021
			c0.174,0.016,0.313,0.036,0.418,0.062c0.104,0.024,0.178,0.058,0.223,0.098s0.068,0.085,0.068,0.136V23.15z M56.878,22.729
			c0,0.115-0.028,0.219-0.083,0.309c-0.056,0.091-0.131,0.165-0.225,0.227c-0.094,0.06-0.204,0.104-0.332,0.132
			c-0.129,0.026-0.26,0.041-0.392,0.041H54.68c-0.242,0-0.452-0.018-0.63-0.054c-0.177-0.034-0.34-0.099-0.489-0.191
			c-0.148-0.093-0.293-0.219-0.432-0.377s-0.295-0.362-0.469-0.613l-3.354-4.558c-0.195-0.271-0.393-0.563-0.594-0.877
			c-0.201-0.313-0.383-0.619-0.541-0.915H48.15c0.027,0.361,0.049,0.723,0.063,1.081c0.014,0.359,0.021,0.729,0.021,1.11v5.1
			c0,0.05-0.02,0.096-0.059,0.135c-0.037,0.04-0.104,0.075-0.197,0.103s-0.221,0.049-0.381,0.064
			c-0.158,0.015-0.363,0.022-0.614,0.022c-0.243,0-0.444-0.008-0.604-0.022c-0.159-0.016-0.284-0.037-0.375-0.064
			s-0.153-0.063-0.188-0.103c-0.035-0.039-0.052-0.085-0.052-0.135v-8.76c0-0.236,0.096-0.412,0.286-0.531
			c0.19-0.117,0.425-0.177,0.703-0.177h1.469c0.264,0,0.485,0.016,0.666,0.049c0.181,0.032,0.342,0.087,0.484,0.162
			c0.142,0.074,0.276,0.179,0.401,0.313c0.125,0.133,0.253,0.297,0.385,0.493l2.625,3.563c0.152,0.217,0.304,0.429,0.453,0.637
			c0.148,0.209,0.293,0.417,0.432,0.625c0.139,0.209,0.274,0.413,0.406,0.614c0.133,0.2,0.26,0.401,0.386,0.603h0.011
			c-0.021-0.353-0.037-0.719-0.047-1.101c-0.011-0.381-0.016-0.745-0.016-1.092v-4.572c0-0.05,0.021-0.095,0.063-0.135
			c0.041-0.04,0.11-0.076,0.207-0.105c0.098-0.03,0.227-0.052,0.387-0.064c0.158-0.013,0.363-0.018,0.613-0.018
			c0.236,0,0.435,0.005,0.594,0.018c0.16,0.013,0.283,0.034,0.37,0.064c0.087,0.029,0.147,0.065,0.183,0.105
			c0.034,0.04,0.052,0.085,0.052,0.135V22.729z M68.756,14.861c-0.018,0.103-0.043,0.186-0.078,0.249
			c-0.035,0.062-0.078,0.108-0.13,0.139c-0.052,0.029-0.109,0.045-0.172,0.045h-3.374v7.856c0,0.05-0.023,0.095-0.068,0.135
			s-0.119,0.073-0.224,0.098c-0.104,0.026-0.245,0.046-0.422,0.062c-0.177,0.015-0.397,0.022-0.661,0.022s-0.484-0.008-0.662-0.022
			c-0.176-0.016-0.316-0.035-0.421-0.062c-0.104-0.024-0.179-0.058-0.224-0.098s-0.068-0.085-0.068-0.135v-7.856h-3.374
			c-0.069,0-0.129-0.016-0.178-0.045c-0.048-0.03-0.09-0.077-0.125-0.139c-0.034-0.063-0.061-0.146-0.077-0.249
			c-0.018-0.104-0.026-0.228-0.026-0.373c0-0.15,0.009-0.278,0.026-0.384c0.017-0.105,0.043-0.189,0.077-0.253
			c0.035-0.063,0.077-0.107,0.125-0.136c0.049-0.027,0.108-0.041,0.178-0.041h9.498c0.063,0,0.12,0.014,0.172,0.041
			c0.052,0.028,0.095,0.073,0.13,0.136c0.035,0.063,0.061,0.147,0.078,0.253s0.026,0.233,0.026,0.384
			C68.782,14.634,68.773,14.758,68.756,14.861z"/>
	</g>
</g>
<rect id="_x3C_Slice_x3E__19_" fill="none" width="84" height="90"/>
</svg>
