<?xml version="1.0" encoding="utf-8"?>
<!-- Generator: Adobe Illustrator 16.0.3, SVG Export Plug-In . SVG Version: 6.00 Build 0)  -->
<!DOCTYPE svg PUBLIC "-//W3C//DTD SVG 1.1//EN" "http://www.w3.org/Graphics/SVG/1.1/DTD/svg11.dtd">
<svg version="1.1" id="Layer_1" xmlns="http://www.w3.org/2000/svg" xmlns:xlink="http://www.w3.org/1999/xlink" x="0px" y="0px"
	 width="82px" height="102px" viewBox="0 0 82 102" enable-background="new 0 0 82 102" xml:space="preserve">
<g>
	<polygon fill="#93B4CB" points="36.321,40.668 36.139,40.668 36.218,40.755 	"/>
	<path fill="#93B4CB" d="M81.126,7.968c-0.134-2.15-1.272-4.327-3.899-5.431c-0.665-0.388-1.889-0.523-2.791-0.575
		c-1.296-0.147-1.604-1.272-2.863-1.464c-1.165-0.166-2.557-0.359-3.584,0.183c-0.725,0.472-1.213,1.231-2.331,1.306
		c-1.112,0.163-2.072-0.362-2.62-0.973c-0.848-0.845-2.548-0.752-3.851-0.627c-0.855,0.106-1.357,0.618-1.848,1.055
		c-0.779,0.694-2.467,0.76-3.343,0.12c-0.587-0.444-1.048-1.05-1.99-1.172c-1.349-0.155-3.115-0.207-3.951,0.697
		c-0.554,0.632-1.624,1.099-2.726,0.872c-1.324-0.177-1.606-1.335-2.902-1.551c-0.926-0.136-1.924-0.142-2.845,0.02
		c-0.763,0.145-1.138,0.621-1.624,1.008l0.003-0.014c-0.784,0.695-2.464,0.761-3.341,0.12c-0.592-0.444-1.051-1.052-1.99-1.172
		c-1.35-0.158-3.115-0.207-3.956,0.698c-0.112,0.13-0.253,0.253-0.406,0.367l0.003-0.014c-0.036,0.03-0.074,0.063-0.115,0.09
		c-0.254,0.167-0.547,0.297-0.866,0.385C26.959,1.973,26.606,2,26.258,1.976c-0.127-0.017-0.255-0.033-0.383-0.052
		c-0.011,0-0.022-0.006-0.036-0.006c-0.139-0.03-0.273-0.065-0.401-0.114c-0.308-0.12-0.558-0.3-0.79-0.49
		c-0.226-0.194-0.448-0.396-0.705-0.562c-0.035-0.038-0.067-0.074-0.104-0.109C23.79,0.629,23.746,0.618,23.7,0.607
		c0-0.003-0.006-0.003-0.008-0.003c-0.014-0.008-0.027-0.017-0.041-0.021c-0.044-0.022-0.083-0.041-0.131-0.058
		c-0.017-0.008-0.035-0.017-0.055-0.024c-0.159-0.06-0.331-0.106-0.527-0.131c-1.348-0.158-3.116-0.207-3.953,0.698
		c-0.092,0.108-0.204,0.209-0.324,0.305l-0.049,0.035c-0.311,0.234-0.7,0.42-1.131,0.516c-0.014,0.002-0.03,0.008-0.044,0.008
		c-0.002,0-0.002,0.003-0.008,0.003c-0.063,0.011-0.131,0.019-0.196,0.027l-1.145-0.063c-0.142-0.033-0.277-0.077-0.406-0.129
		l-0.979-0.714c0.002,0.012,0.007,0.017,0.007,0.024c-0.384-0.326-0.8-0.629-1.438-0.711c-1.351-0.158-3.114-0.207-3.953,0.698
		C8.864,1.586,8.063,1.991,7.184,1.994l-0.21-0.005C6.953,1.986,6.933,1.986,6.913,1.983C6.866,1.979,6.818,1.973,6.774,1.967
		c-0.06-0.005-0.118-0.016-0.179-0.029L6.587,1.953C5.916,1.904,5.686,1.991,5.686,1.991C1.924,2.684,0.969,5.913,0.979,8.388
		L0.969,8.391v37.815v0.94v0.404v45.783l0.011,0.003c-0.011,2.475,0.944,5.703,4.706,6.396c0,0,0.23,0.087,0.901,0.038l0.009,0.017
		c0.061-0.014,0.119-0.024,0.179-0.03c0.044-0.005,0.092-0.011,0.139-0.016c0.02-0.003,0.04-0.003,0.061-0.006l0.21-0.006
		c0.88,0.003,1.681,0.409,2.136,0.927c0.839,0.905,2.603,0.855,3.953,0.697c0.638-0.081,1.054-0.384,1.438-0.711
		c0,0.009-0.005,0.014-0.007,0.024l0.979-0.714c0.129-0.052,0.265-0.096,0.406-0.128l1.145-0.063
		c0.065,0.008,0.134,0.017,0.196,0.027c0.006,0,0.006,0.003,0.008,0.003c0.014,0,0.03,0.005,0.044,0.008
		c0.431,0.096,0.82,0.28,1.131,0.515l0.049,0.036c0.12,0.095,0.232,0.195,0.324,0.305c0.837,0.905,2.605,0.855,3.953,0.697
		c0.196-0.024,0.368-0.07,0.527-0.13c0.02-0.009,0.038-0.017,0.055-0.025c0.048-0.016,0.087-0.035,0.131-0.057
		c0.014-0.006,0.027-0.014,0.041-0.022c0.002,0,0.008,0,0.008-0.002c0.046-0.011,0.09-0.022,0.139-0.036
		c0.036-0.035,0.068-0.07,0.104-0.108c0.257-0.166,0.479-0.368,0.705-0.562c0.232-0.19,0.482-0.371,0.79-0.49
		c0.128-0.05,0.263-0.085,0.401-0.115c0.014,0,0.025-0.005,0.036-0.005c0.128-0.02,0.256-0.035,0.383-0.052
		c0.349-0.024,0.701,0.003,1.031,0.079c0.319,0.087,0.612,0.218,0.866,0.384c0.041,0.027,0.079,0.061,0.115,0.09l-0.003-0.014
		c0.153,0.115,0.294,0.237,0.406,0.368c0.841,0.905,2.606,0.855,3.956,0.697c0.939-0.119,1.398-0.728,1.99-1.171
		c0.877-0.641,2.557-0.575,3.341,0.119l-0.003-0.014c0.486,0.388,0.861,0.864,1.624,1.009c0.921,0.161,1.919,0.155,2.845,0.019
		c1.296-0.215,1.578-1.373,2.902-1.55c1.102-0.227,2.172,0.239,2.726,0.872c0.836,0.904,2.603,0.853,3.951,0.697
		c0.942-0.123,1.403-0.728,1.99-1.172c0.876-0.641,2.563-0.575,3.343,0.12c0.49,0.436,0.992,0.948,1.848,1.055
		c1.303,0.125,3.003,0.218,3.851-0.627c0.548-0.61,1.508-1.137,2.62-0.973c1.118,0.073,1.606,0.834,2.331,1.305
		c1.027,0.543,2.419,0.35,3.584,0.183c1.259-0.19,1.567-1.315,2.863-1.463c0.902-0.052,2.126-0.188,2.791-0.575
		c2.627-1.103,3.766-3.279,3.899-5.431l0.014-0.423V47.551v-0.464V8.391L81.126,7.968z M69.071,80.034
		c0,1.951-1.771,3.529-3.954,3.529H17.892c-2.186,0-3.954-1.578-3.954-3.529v-0.825c0-1.951,1.769-3.529,3.954-3.529h47.226
		c2.183,0,3.954,1.578,3.954,3.529V80.034z M61.111,46.899h4.006c2.183,0,3.954,1.581,3.954,3.529v0.828
		c0,1.949-1.771,3.529-3.954,3.529H53.313l-6.199,6.271h18.003c2.183,0,3.954,1.581,3.954,3.529v0.825
		c0,1.951-1.771,3.529-3.954,3.529H39.319l-3.795,3.837l-3.791-3.837H17.892c-2.186,0-3.954-1.578-3.954-3.529v-0.825
		c0-1.948,1.769-3.529,3.954-3.529h6.049l-6.211-6.285c-2.109-0.078-3.792-1.615-3.792-3.515v-0.321l-2.283-2.311l7.863-7.957
		h-1.626c-2.186,0-3.954-1.578-3.954-3.529v-0.826c0-1.951,1.769-3.528,3.954-3.528h9.415l0.865-0.875l0.796,0.875h16.74
		l8.022-6.739H17.892c-2.186,0-3.954-1.578-3.954-3.529V21.69c0-1.949,1.769-3.529,3.954-3.529h47.226
		c2.183,0,3.954,1.58,3.954,3.529v0.825c0,1.951-1.771,3.529-3.954,3.529h-5.807l6.623,6.815c1.7,0.318,2.982,1.616,3.109,3.202
		l1.38,1.419L61.111,46.899z"/>
</g>
<polygon fill="#93B4CB" points="28.003,39.553 19.502,48.159 19.501,48.159 35.525,64.373 62.609,36.981 56.418,30.61 
	35.698,48.013 "/>
<rect id="_x3C_Slice_x3E__28_" fill="none" width="82" height="102"/>
</svg>
