<?xml version="1.0" encoding="utf-8"?>
<!-- Generator: Adobe Illustrator 16.0.3, SVG Export Plug-In . SVG Version: 6.00 Build 0)  -->
<!DOCTYPE svg PUBLIC "-//W3C//DTD SVG 1.1//EN" "http://www.w3.org/Graphics/SVG/1.1/DTD/svg11.dtd">
<svg version="1.1" id="Layer_1" xmlns="http://www.w3.org/2000/svg" xmlns:xlink="http://www.w3.org/1999/xlink" x="0px" y="0px"
	 width="81px" height="102px" viewBox="0 0 81 102" enable-background="new 0 0 81 102" xml:space="preserve">
<g>
	<polygon fill="#93B4CB" points="28.721,75.68 52.426,75.68 45.391,68.94 35.495,68.94 	"/>
	<path fill="#93B4CB" d="M80.386,7.968c-0.137-2.15-1.274-4.327-3.901-5.431c-0.665-0.388-1.89-0.523-2.79-0.575
		c-1.296-0.147-1.604-1.272-2.866-1.464c-1.163-0.166-2.556-0.359-3.582,0.183c-0.725,0.472-1.211,1.231-2.331,1.306
		c-1.112,0.163-2.072-0.362-2.62-0.973c-0.849-0.845-2.548-0.752-3.852-0.627c-0.854,0.106-1.354,0.618-1.847,1.055
		c-0.779,0.694-2.465,0.76-3.343,0.12c-0.586-0.444-1.047-1.05-1.989-1.172c-1.349-0.155-3.116-0.207-3.952,0.697
		c-0.552,0.632-1.623,1.099-2.724,0.872c-1.325-0.177-1.608-1.335-2.904-1.551c-0.926-0.136-1.924-0.142-2.843,0.02
		c-0.767,0.145-1.14,0.621-1.626,1.008l0.001-0.014c-0.781,0.695-2.463,0.761-3.341,0.12c-0.59-0.444-1.049-1.052-1.989-1.172
		c-1.349-0.158-3.114-0.207-3.957,0.698c-0.11,0.13-0.25,0.253-0.403,0.367l0.003-0.014c-0.036,0.03-0.076,0.063-0.115,0.09
		c-0.255,0.167-0.548,0.297-0.867,0.385C26.219,1.973,25.864,2,25.516,1.976c-0.128-0.017-0.254-0.033-0.382-0.052
		c-0.011,0-0.024-0.006-0.036-0.006c-0.138-0.03-0.274-0.065-0.402-0.114c-0.308-0.12-0.556-0.3-0.79-0.49
		c-0.227-0.194-0.448-0.396-0.706-0.562c-0.032-0.038-0.068-0.074-0.103-0.109c-0.047-0.014-0.094-0.024-0.14-0.035
		c0-0.003-0.004-0.003-0.006-0.003c-0.017-0.008-0.027-0.017-0.043-0.021c-0.041-0.022-0.082-0.041-0.13-0.058
		c-0.017-0.008-0.037-0.017-0.055-0.024c-0.159-0.06-0.331-0.106-0.527-0.131c-1.346-0.158-3.114-0.207-3.952,0.698
		c-0.093,0.108-0.203,0.209-0.326,0.305l-0.049,0.035c-0.311,0.234-0.697,0.42-1.131,0.516c-0.013,0.002-0.028,0.008-0.041,0.008
		c-0.006,0-0.006,0.003-0.01,0.003c-0.063,0.011-0.131,0.019-0.194,0.027l-1.146-0.063c-0.143-0.033-0.277-0.077-0.404-0.129
		l-0.981-0.714c0.003,0.012,0.006,0.017,0.006,0.024c-0.385-0.326-0.799-0.629-1.437-0.711c-1.352-0.158-3.114-0.207-3.951,0.698
		C8.124,1.586,7.322,1.991,6.44,1.994L6.233,1.989C6.211,1.986,6.189,1.986,6.17,1.983C6.124,1.979,6.078,1.973,6.033,1.967
		c-0.06-0.005-0.119-0.016-0.179-0.029L5.846,1.953C5.173,1.904,4.944,1.991,4.944,1.991C1.183,2.684,0.227,5.913,0.238,8.388
		L0.227,8.391v37.815v0.94v0.404v45.783l0.011,0.003c-0.011,2.475,0.945,5.703,4.706,6.396c0,0,0.229,0.087,0.902,0.038l0.008,0.017
		c0.06-0.014,0.119-0.024,0.179-0.03c0.045-0.005,0.091-0.011,0.138-0.016c0.019-0.003,0.041-0.003,0.063-0.006l0.207-0.006
		c0.882,0.003,1.684,0.409,2.139,0.927c0.837,0.905,2.6,0.855,3.951,0.697c0.638-0.081,1.052-0.384,1.437-0.711
		c0,0.009-0.003,0.014-0.006,0.024l0.981-0.714c0.127-0.052,0.262-0.096,0.404-0.128l1.146-0.063
		c0.063,0.008,0.131,0.017,0.194,0.027c0.004,0,0.004,0.003,0.01,0.003c0.013,0,0.028,0.005,0.041,0.008
		c0.434,0.096,0.82,0.28,1.131,0.515l0.049,0.036c0.123,0.095,0.233,0.195,0.326,0.305c0.838,0.905,2.606,0.855,3.952,0.697
		c0.196-0.024,0.368-0.07,0.527-0.13c0.018-0.009,0.038-0.017,0.055-0.025c0.048-0.016,0.089-0.035,0.13-0.057
		c0.016-0.006,0.026-0.014,0.043-0.022c0.002,0,0.006,0,0.006-0.002c0.046-0.011,0.093-0.022,0.14-0.036
		c0.034-0.035,0.07-0.07,0.103-0.108c0.258-0.166,0.479-0.368,0.706-0.562c0.234-0.19,0.482-0.371,0.79-0.49
		c0.128-0.05,0.265-0.085,0.402-0.115c0.012,0,0.025-0.005,0.036-0.005c0.128-0.02,0.254-0.035,0.382-0.052
		c0.349-0.024,0.703,0.003,1.031,0.079c0.319,0.087,0.612,0.218,0.867,0.384c0.039,0.027,0.079,0.061,0.115,0.09l-0.003-0.014
		c0.153,0.115,0.293,0.237,0.403,0.368c0.843,0.905,2.608,0.855,3.957,0.697c0.94-0.119,1.399-0.728,1.989-1.171
		c0.878-0.641,2.56-0.575,3.341,0.119l-0.001-0.014c0.486,0.388,0.859,0.864,1.626,1.009c0.919,0.161,1.917,0.155,2.843,0.019
		c1.296-0.215,1.579-1.373,2.904-1.55c1.101-0.227,2.172,0.239,2.724,0.872c0.836,0.904,2.604,0.853,3.952,0.697
		c0.942-0.123,1.403-0.728,1.989-1.172c0.878-0.641,2.563-0.575,3.343,0.12c0.492,0.436,0.993,0.948,1.847,1.055
		c1.304,0.125,3.003,0.218,3.852-0.627c0.548-0.61,1.508-1.137,2.62-0.973c1.12,0.073,1.606,0.834,2.331,1.305
		c1.026,0.543,2.419,0.35,3.582,0.183c1.262-0.19,1.57-1.315,2.866-1.463c0.9-0.052,2.125-0.188,2.79-0.575
		c2.627-1.103,3.765-3.279,3.901-5.431l0.012-0.423V47.551v-0.464V8.391L80.386,7.968z M68.33,22.516
		c0,1.951-1.771,3.529-3.955,3.529H56.69l6.229,5.554c0.213,0.166,0.414,0.346,0.603,0.538l0.725,0.647h0.128
		c2.184,0,3.955,1.577,3.955,3.528v0.826c0,1.951-1.771,3.529-3.955,3.529h-1.081l-5.971,6.231h7.052
		c2.184,0,3.955,1.581,3.955,3.529v0.828c0,1.949-1.771,3.529-3.955,3.529h-6.883l6.079,6.107c0.048,0.052,0.085,0.11,0.131,0.163
		h0.673c2.184,0,3.955,1.581,3.955,3.529v0.825c0,1.951-1.771,3.529-3.955,3.529h-0.764l-4.032,4.522
		c-0.169,0.218-0.352,0.422-0.548,0.613L57.6,75.68h6.775c2.184,0,3.955,1.578,3.955,3.529v0.825c0,1.951-1.771,3.529-3.955,3.529
		H17.149c-2.186,0-3.954-1.578-3.954-3.529v-0.825c0-1.951,1.769-3.529,3.954-3.529h6.787l-6.226-5.551
		c-0.218-0.169-0.425-0.354-0.616-0.55l-0.818-0.731c-1.764-0.355-3.081-1.754-3.081-3.437v-0.825c0-1.948,1.769-3.529,3.954-3.529
		h0.182l6.023-6.271h-6.205c-2.186,0-3.954-1.58-3.954-3.529v-0.828c0-1.948,1.769-3.529,3.954-3.529h5.936l-6.225-6.258
		c-2.048-0.135-3.665-1.641-3.665-3.503v-0.826c0-1.904,1.689-3.444,3.805-3.515l4.044-4.536c0.172-0.221,0.356-0.43,0.555-0.621
		l1.424-1.596h-5.873c-2.186,0-3.954-1.578-3.954-3.529V21.69c0-1.949,1.769-3.529,3.954-3.529h47.226
		c2.184,0,3.955,1.58,3.955,3.529V22.516z"/>
	<path fill="#93B4CB" d="M35.223,32.784h9.916l5.212-5.188c0.83-0.769,1.899-1.347,2.998-1.551l0,0H28.205L35.223,32.784z"/>
</g>
<path fill="#93B4CB" d="M60.506,63.746L60.506,63.746L47.702,50.89L60.5,37.538l-0.002-0.005c0.356-0.346,0.572-0.836,0.534-1.372
	c-0.041-0.569-0.354-1.052-0.8-1.34l0.004-0.006l-4.731-4.223L55.503,30.6c-0.336-0.278-0.774-0.436-1.243-0.403
	c-0.415,0.031-0.782,0.209-1.064,0.473l-0.001-0.001l-12.872,12.82L26.984,30.675l-0.003,0.001c-0.346-0.355-0.836-0.57-1.373-0.532
	c-0.568,0.04-1.051,0.353-1.338,0.798l-0.006-0.002l-4.224,4.729l0.008,0.006c-0.279,0.335-0.436,0.771-0.403,1.241
	c0.03,0.414,0.209,0.782,0.475,1.064l-0.003,0.003l12.811,12.88L20.124,64.189l0.001,0.002c-0.356,0.35-0.57,0.839-0.532,1.375
	c0.039,0.568,0.353,1.05,0.8,1.338L20.39,66.91l4.729,4.224l0.005-0.008c0.335,0.278,0.771,0.438,1.24,0.404
	c0.417-0.031,0.782-0.21,1.065-0.476l0.003,0.005l12.863-12.796l13.344,12.787l0.003-0.001c0.346,0.356,0.836,0.569,1.373,0.532
	c0.568-0.041,1.05-0.354,1.338-0.8l0.006,0.003l4.224-4.729l-0.007-0.004c0.278-0.334,0.435-0.771,0.402-1.24
	C60.947,64.395,60.771,64.028,60.506,63.746z"/>
<rect id="_x3C_Slice_x3E__27_" fill="none" width="81" height="102"/>
</svg>
