<?xml version="1.0" encoding="utf-8"?>
<!-- Generator: Adobe Illustrator 16.0.3, SVG Export Plug-In . SVG Version: 6.00 Build 0)  -->
<!DOCTYPE svg PUBLIC "-//W3C//DTD SVG 1.1//EN" "http://www.w3.org/Graphics/SVG/1.1/DTD/svg11.dtd">
<svg version="1.1" id="Layer_1" xmlns="http://www.w3.org/2000/svg" xmlns:xlink="http://www.w3.org/1999/xlink" x="0px" y="0px"
	 width="83.221px" height="85.018px" viewBox="0 0 83.221 85.018" enable-background="new 0 0 83.221 85.018" xml:space="preserve">
<path fill="#97BBD5" d="M23.186,0.064H1.48C0.662,0.064,0,1,0,2.156v80.705c0,1.156,0.662,2.092,1.48,2.092h21.705
	c0.818,0,1.48-0.936,1.48-2.092V2.156C24.666,1,24.004,0.064,23.186,0.064z M19.5,18.77c0,0.191-0.387,0.346-0.861,0.346H6.027
	c-0.475,0-0.861-0.154-0.861-0.346V5.461c0-0.191,0.387-0.346,0.861-0.346h12.611c0.475,0,0.861,0.154,0.861,0.346V18.77z"/>
<path fill="#97BBD5" d="M52.682,0H30.977c-0.818,0-1.48,0.938-1.48,2.096v80.826c0,1.158,0.662,2.096,1.48,2.096h21.705
	c0.818,0,1.48-0.938,1.48-2.096V2.096C54.162,0.938,53.5,0,52.682,0z M48.996,18.77c0,0.191-0.387,0.346-0.861,0.346H35.523
	c-0.475,0-0.861-0.154-0.861-0.346V5.461c0-0.191,0.387-0.346,0.861-0.346h12.611c0.475,0,0.861,0.154,0.861,0.346V18.77z"/>
<path fill="#97BBD5" d="M81.738,0H60.035c-0.818,0-1.482,0.938-1.482,2.094v80.766c0,1.156,0.664,2.094,1.482,2.094h21.703
	c0.818,0,1.482-0.938,1.482-2.094V2.094C83.221,0.938,82.557,0,81.738,0z M78.053,18.445c0,0.191-0.385,0.348-0.859,0.348H64.58
	c-0.475,0-0.859-0.156-0.859-0.348V5.07c0-0.191,0.385-0.346,0.859-0.346h12.613c0.475,0,0.859,0.154,0.859,0.346V18.445z"/>
<rect id="_x3C_Slice_x3E__148_" fill="none" width="83.221" height="85.018"/>
</svg>
