<?xml version="1.0" encoding="utf-8"?>
<!-- Generator: Adobe Illustrator 16.0.3, SVG Export Plug-In . SVG Version: 6.00 Build 0)  -->
<!DOCTYPE svg PUBLIC "-//W3C//DTD SVG 1.1//EN" "http://www.w3.org/Graphics/SVG/1.1/DTD/svg11.dtd">
<svg version="1.1" id="Layer_1" xmlns="http://www.w3.org/2000/svg" xmlns:xlink="http://www.w3.org/1999/xlink" x="0px" y="0px"
	 width="83px" height="64px" viewBox="0 0 83 64" enable-background="new 0 0 83 64" xml:space="preserve">
<path fill="#97BBD5" d="M81.654,8.902l0.006-0.008l-7.788-8.014l-0.01,0.014c-0.553-0.533-1.302-0.865-2.131-0.865
	c-0.734,0-1.4,0.27-1.93,0.699l-0.004-0.004L31.38,32.996L18.797,19.164c-0.552-0.83-1.493-1.377-2.563-1.377
	c-0.891,0-1.688,0.385-2.25,0.99L1.812,31.098l0.016,0.012c-0.566,0.559-0.92,1.334-0.92,2.191c0,0.893,0.385,1.688,0.99,2.25H1.896
	l26.771,27.088c0.564,0.668,1.396,1.1,2.338,1.1c0.91,0,1.719-0.402,2.282-1.029l0.026,0.031l48.474-49.031l-0.003-0.006
	c0.672-0.564,1.108-1.4,1.108-2.346C82.893,10.35,82.401,9.465,81.654,8.902z"/>
<rect id="_x3C_Slice_x3E__152_" fill="none" width="83" height="64"/>
</svg>
