<?xml version="1.0" encoding="utf-8"?>
<!-- Generator: Adobe Illustrator 16.0.3, SVG Export Plug-In . SVG Version: 6.00 Build 0)  -->
<!DOCTYPE svg PUBLIC "-//W3C//DTD SVG 1.1//EN" "http://www.w3.org/Graphics/SVG/1.1/DTD/svg11.dtd">
<svg version="1.1" id="Layer_1" xmlns="http://www.w3.org/2000/svg" xmlns:xlink="http://www.w3.org/1999/xlink" x="0px" y="0px"
	 width="84px" height="90px" viewBox="0 0 84 90" enable-background="new 0 0 84 90" xml:space="preserve">
<path fill="#93B4CB" d="M56.061,46.872c-0.698-0.461-1.576-0.576-2.364-0.344c-1.179,0.336-2.082,1.518-2.16,2.814
	c-0.112,1.264,0.563,2.541,1.625,3.098c1.09,0.6,2.518,0.389,3.399-0.527c0.626-0.615,0.976-1.533,0.934-2.443
	C57.467,48.419,56.905,47.411,56.061,46.872z"/>
<path fill="#93B4CB" d="M47.74,30.72c-0.642-0.402-1.426-0.48-2.146-0.322c-1.177,0.281-2.125,1.396-2.268,2.68
	c-0.168,1.197,0.376,2.463,1.341,3.098c0.96,0.668,2.274,0.662,3.232-0.002c0.846-0.566,1.382-1.607,1.369-2.67
	C49.282,32.368,48.666,31.269,47.74,30.72z"/>
<path fill="#93B4CB" d="M49.241,41.099c-0.01-0.078-0.025-0.156-0.041-0.234c-0.002-0.006-0.004-0.012-0.004-0.02
	c-0.015-0.066-0.032-0.133-0.05-0.197c-0.007-0.02-0.012-0.041-0.018-0.061c-0.015-0.045-0.028-0.09-0.045-0.137
	c-0.013-0.037-0.026-0.074-0.039-0.111c-0.009-0.018-0.019-0.035-0.024-0.055c-0.178-0.439-0.448-0.84-0.79-1.146
	c-0.007-0.008-0.014-0.012-0.021-0.02c-0.033-0.029-0.066-0.061-0.104-0.09c-0.114-0.096-0.238-0.184-0.366-0.26
	c-0.008-0.004-0.018-0.008-0.023-0.014c0.004-0.006,0.011-0.012,0.016-0.018c-0.142-0.07-0.286-0.133-0.435-0.186
	c-0.132-0.049-0.266-0.088-0.402-0.117c-0.403-0.092-0.817-0.107-1.223-0.008c-0.025,0.004-0.049,0.012-0.075,0.018h-0.003
	l-0.004,0.002c-0.732,0.178-1.376,0.678-1.791,1.342c-0.003,0.002-0.005,0.006-0.008,0.008c-0.039,0.061-0.072,0.125-0.107,0.189
	c-0.004,0.01-0.012,0.02-0.016,0.027c-0.03,0.061-0.058,0.119-0.086,0.178c-0.007,0.018-0.016,0.037-0.024,0.057
	c-0.02,0.049-0.041,0.102-0.061,0.154c-0.012,0.029-0.02,0.061-0.03,0.09c-0.014,0.043-0.028,0.084-0.039,0.127
	c-0.014,0.043-0.024,0.088-0.034,0.133c-0.007,0.029-0.013,0.057-0.021,0.086c-0.013,0.063-0.023,0.125-0.032,0.188
	c0,0.008-0.005,0.016-0.005,0.027c-0.002,0.006-0.002,0.012-0.002,0.012c-0.002,0.025-0.006,0.043-0.008,0.063
	c-0.005,0.027-0.007,0.057-0.009,0.084c-0.004,0.045-0.011,0.088-0.014,0.133c-0.032,0.463,0.04,0.932,0.198,1.363
	c0.043,0.135,0.092,0.266,0.146,0.396c0.007-0.004,0.011-0.012,0.018-0.018c0.041,0.082,0.086,0.162,0.137,0.238
	c0.011,0.018,0.023,0.037,0.034,0.055c0.028,0.041,0.054,0.084,0.085,0.125c0.021,0.031,0.045,0.061,0.069,0.092
	s0.047,0.059,0.071,0.088c0.025,0.029,0.052,0.059,0.078,0.088c0.026,0.031,0.054,0.059,0.082,0.088
	c0.026,0.027,0.053,0.053,0.078,0.076c0.026,0.025,0.055,0.049,0.082,0.074c0.034,0.029,0.067,0.059,0.102,0.086
	c0.009,0.006,0.017,0.012,0.022,0.016c0.68,0.533,1.572,0.762,2.405,0.557c0.406-0.09,0.79-0.279,1.122-0.541
	c0.015-0.01,0.028-0.02,0.041-0.031c0.021-0.018,0.043-0.033,0.067-0.053c0.336-0.285,0.61-0.648,0.806-1.055
	c0.005-0.01,0.009-0.018,0.012-0.025c0.03-0.061,0.056-0.123,0.08-0.186c0.004-0.01,0.008-0.016,0.01-0.027
	c0.113-0.291,0.183-0.598,0.209-0.912c0-0.006,0-0.014,0.002-0.021c0.002-0.047,0.004-0.094,0.006-0.141
	c0.005-0.123,0.005-0.242-0.004-0.363C49.258,41.239,49.251,41.169,49.241,41.099z"/>
<path fill="#93B4CB" d="M57.241,32.196c-0.464-1.127-1.579-1.918-2.736-1.875c-0.041,0-0.082,0.002-0.123,0.002c0,0-0.008,0-0.012,0
	c-0.171,0.006-0.338,0.025-0.504,0.064c-0.014,0.004-0.029,0.006-0.041,0.01c-1.178,0.281-2.127,1.396-2.27,2.68
	c-0.054,0.381-0.034,0.771,0.05,1.145c0.015,0.104,0.035,0.207,0.057,0.309c0.007-0.008,0.013-0.014,0.02-0.021
	c0.215,0.682,0.639,1.287,1.216,1.666c0.306,0.213,0.646,0.357,0.998,0.434c0.197,0.045,0.398,0.064,0.601,0.064
	c0.02,0,0.041,0,0.059,0c0.03-0.002,0.061,0,0.089-0.002c0.023,0,0.048-0.004,0.072-0.006c0.006,0,0.012,0,0.019-0.002
	c1.27-0.064,2.429-1.109,2.69-2.441c0.005-0.016,0.005-0.033,0.01-0.049c0.043-0.221,0.067-0.445,0.064-0.67
	c0.003-0.238-0.023-0.475-0.074-0.705C57.384,32.591,57.326,32.388,57.241,32.196z"/>
<path fill="#93B4CB" d="M54.24,44.726c0.769,0.061,1.616-0.154,2.154-0.777c0.29-0.33,0.639-0.621,0.816-1.039
	c0.522-1.164,0.31-2.658-0.544-3.576c-0.768-0.867-2.007-1.197-3.063-0.822c-1.38,0.451-2.299,2.061-2.024,3.576
	C51.778,43.474,52.933,44.618,54.24,44.726z"/>
<path fill="#93B4CB" d="M47.833,46.872c-0.699-0.463-1.577-0.576-2.365-0.344c-1.177,0.336-2.08,1.518-2.158,2.814
	c-0.115,1.262,0.562,2.541,1.625,3.096c1.088,0.602,2.518,0.389,3.397-0.525c0.629-0.615,0.977-1.533,0.936-2.443
	C49.239,48.417,48.676,47.411,47.833,46.872z"/>
<path fill="#93B4CB" d="M39.281,30.601c-0.612-0.311-1.326-0.346-1.979-0.189c-1.385,0.354-2.395,1.867-2.238,3.381
	c0.084,1.084,0.731,2.088,1.648,2.557c0.967,0.512,2.19,0.414,3.068-0.26c0.816-0.6,1.305-1.67,1.241-2.729
	C40.993,32.187,40.285,31.075,39.281,30.601z"/>
<path fill="#93B4CB" d="M28.871,38.517c-1.182,0.396-2.05,1.641-2.06,2.965c-0.049,1.346,0.807,2.652,2.002,3.076
	c0.999,0.395,2.181,0.135,2.969-0.625c0.899-0.834,1.249-2.273,0.823-3.467C32.109,38.882,30.347,37.958,28.871,38.517z"/>
<path fill="#93B4CB" d="M31.823,35.841c0.887-0.844,1.205-2.277,0.771-3.457c-0.487-1.457-2.043-2.361-3.455-1.992
	c-1.329,0.293-2.357,1.66-2.328,3.113c-0.017,1.109,0.57,2.193,1.477,2.74C29.387,36.938,30.894,36.778,31.823,35.841z"/>
<path fill="#93B4CB" d="M29.007,46.522c-1.181,0.33-2.105,1.5-2.186,2.805c-0.12,1.273,0.565,2.57,1.645,3.119
	c1.161,0.635,2.69,0.338,3.551-0.715c0.967-1.094,1.024-2.932,0.137-4.098C31.438,46.628,30.141,46.181,29.007,46.522z"/>
<path fill="#93B4CB" d="M39.944,47.149c-0.01-0.01-0.021-0.02-0.032-0.027c0.006-0.006,0.011-0.01,0.015-0.016
	c-0.205-0.166-0.429-0.307-0.664-0.418c-0.021-0.01-0.039-0.018-0.059-0.025c-0.055-0.023-0.108-0.047-0.16-0.066
	c-0.031-0.012-0.06-0.023-0.09-0.033c-0.422-0.146-0.868-0.195-1.313-0.121c-0.09,0.01-0.176,0.025-0.263,0.047
	c-0.01,0-0.02,0.002-0.03,0.004c-0.041,0.01-0.08,0.023-0.119,0.035c-0.021,0.006-0.041,0.01-0.063,0.018
	c-0.059,0.018-0.115,0.039-0.172,0.063c-0.015,0.006-0.029,0.01-0.045,0.018c-0.059,0.023-0.115,0.053-0.173,0.082
	c-0.014,0.004-0.026,0.012-0.039,0.018c-0.055,0.027-0.106,0.059-0.161,0.092c-0.013,0.008-0.029,0.016-0.043,0.025
	c-0.043,0.027-0.084,0.059-0.128,0.086c-0.023,0.018-0.048,0.033-0.071,0.053c-0.018,0.014-0.034,0.025-0.053,0.039
	c-0.456,0.359-0.821,0.854-1.026,1.42c-0.007,0.016-0.014,0.033-0.018,0.051c-0.015,0.041-0.028,0.082-0.041,0.125
	c-0.015,0.047-0.028,0.094-0.039,0.143c-0.004,0.012-0.006,0.027-0.011,0.041c-0.021,0.096-0.041,0.191-0.055,0.289
	c-0.056,0.316-0.058,0.633-0.013,0.943c0.044,0.344,0.144,0.678,0.289,0.988c0.084,0.189,0.182,0.375,0.29,0.549
	c0.007-0.006,0.013-0.012,0.019-0.016c0.035,0.047,0.07,0.096,0.106,0.141c-0.002,0.004-0.004,0.008-0.008,0.012
	c0.231,0.27,0.506,0.494,0.805,0.668c0.164,0.1,0.334,0.176,0.512,0.238c0.028,0.01,0.055,0.02,0.082,0.029
	c0.016,0.004,0.031,0.008,0.049,0.012c0.496,0.152,1.024,0.176,1.531,0.039c1.22-0.303,2.192-1.5,2.261-2.844
	c0.002-0.021,0.004-0.045,0.004-0.066c0.002-0.006,0.002-0.01,0.002-0.01c0.069-1.004-0.362-1.99-1.064-2.639
	C39.953,47.14,39.949,47.146,39.944,47.149z"/>
<path fill="#93B4CB" d="M38.06,44.739c1.451,0.023,2.799-1.248,2.945-2.791c0.14-1.084-0.297-2.211-1.095-2.889
	c-0.729-0.633-1.742-0.857-2.646-0.59c-1.452,0.377-2.459,2.049-2.17,3.617C35.304,43.587,36.641,44.78,38.06,44.739z"/>
<path fill="#93B4CB" d="M83.653,16.769c-0.073-3.797-1.394-7.551-3.701-10.447l-0.037,0.012c-0.314-0.406-0.641-0.799-0.984-1.168
	c-2.293-2.342-5.221-3.992-8.362-4.531c-1.665-0.322-3.362-0.215-5.048-0.234c-10.264-0.01-20.437,0.021-30.7-0.014h-0.098
	l-1.835,0.014c-5.614,0.004-11.231-0.006-16.849,0.006c-4.461,0.059-8.826,2.309-11.68,5.959c-2.306,2.896-3.628,6.65-3.701,10.447
	c-0.015,2.922,0.023,5.842-0.011,8.764l0.011,2.572c0.007,5.707-0.005,11.41,0.004,17.117c-0.006,1.449,0.514,2.906,1.498,3.924
	c0.927,0.994,2.233,1.551,3.546,1.557c2.571,0.006,5.144,0.004,7.715,0.002v33.104l0.008,0.002
	c-0.008,1.773,0.677,4.088,3.373,4.584c0,0,0.165,0.063,0.646,0.027l0.007,0.012c0.043-0.01,0.085-0.018,0.128-0.021
	c0.031-0.004,0.065-0.008,0.1-0.012c0.014-0.002,0.028-0.002,0.043-0.004l0.15-0.004c0.631,0.002,1.205,0.293,1.531,0.664
	c0.601,0.648,1.865,0.613,2.833,0.5c0.457-0.059,0.755-0.275,1.03-0.51c0,0.006-0.004,0.01-0.005,0.018l0.702-0.512
	c0.092-0.037,0.189-0.068,0.291-0.092l0.82-0.045c0.047,0.006,0.096,0.012,0.141,0.02c0.004,0,0.004,0.002,0.006,0.002
	c0.01,0,0.021,0.004,0.031,0.006c0.309,0.068,0.588,0.201,0.811,0.369l0.035,0.025c0.086,0.068,0.166,0.141,0.232,0.219
	c0.6,0.648,1.867,0.613,2.833,0.5c0.141-0.018,0.264-0.051,0.378-0.094c0.014-0.006,0.027-0.012,0.039-0.018
	c0.034-0.012,0.063-0.025,0.094-0.041c0.01-0.004,0.02-0.01,0.029-0.016c0.002,0,0.006,0,0.006-0.002
	c0.033-0.008,0.064-0.016,0.1-0.025c0.025-0.025,0.049-0.051,0.074-0.078c0.184-0.119,0.344-0.264,0.505-0.402
	c0.167-0.137,0.346-0.266,0.566-0.352c0.092-0.035,0.188-0.061,0.288-0.082c0.01,0,0.018-0.004,0.025-0.004
	c0.092-0.014,0.184-0.025,0.274-0.037c0.25-0.018,0.503,0.002,0.739,0.057c0.229,0.063,0.438,0.156,0.621,0.275
	c0.029,0.02,0.057,0.043,0.082,0.064l-0.002-0.01c0.11,0.082,0.211,0.17,0.291,0.264c0.603,0.648,1.868,0.613,2.836,0.5
	c0.673-0.086,1.002-0.521,1.426-0.84c0.629-0.459,1.833-0.412,2.395,0.086l-0.002-0.01c0.349,0.277,0.617,0.619,1.164,0.723
	c0.66,0.115,1.375,0.111,2.039,0.014c0.929-0.154,1.131-0.984,2.08-1.111c0.789-0.162,1.557,0.172,1.953,0.625
	c0.6,0.648,1.865,0.611,2.832,0.5c0.676-0.088,1.006-0.521,1.427-0.84c0.628-0.459,1.837-0.412,2.396,0.086
	c0.352,0.313,0.711,0.68,1.324,0.756c0.934,0.09,2.152,0.156,2.76-0.449c0.393-0.438,1.081-0.814,1.878-0.697
	c0.802,0.053,1.151,0.598,1.671,0.936c0.736,0.389,1.733,0.25,2.568,0.131c0.902-0.137,1.124-0.943,2.053-1.049
	c0.646-0.037,1.523-0.135,2-0.412c1.883-0.79,2.699-2.351,2.795-3.893l0.01-0.303V50.704c2.575,0,5.15,0.002,7.727-0.004
	c1.313-0.004,2.616-0.561,3.546-1.557c0.982-1.016,1.502-2.473,1.496-3.922c0.009-5.707-0.002-11.412,0.004-17.117l0.011-2.572
	C83.632,22.61,83.67,19.688,83.653,16.769z M67.784,80.685l-0.03,3.144c0.02,0.781-0.869,1.562-1.556,2.175
	c-1.176,0.053-2.3,0.369-3.206,0.883c-1.482-0.863-3.648-1.127-5.458-0.619c-0.567,0.125-0.99,0.443-1.536,0.582
	c-0.815-0.4-1.723-0.742-2.738-0.809c-1.498-0.154-3.012,0.205-4.186,0.84c-1.91-1.156-5.008-1.15-6.921,0.004
	c-1.852-1.104-4.802-1.168-6.718-0.115c-0.072,0.035-0.144,0.07-0.213,0.107c-0.369-0.191-0.769-0.361-1.188-0.498
	c-0.016-0.006-0.033-0.012-0.051-0.018c-0.778-0.25-1.627-0.389-2.499-0.348c-0.112,0-0.215,0.012-0.31,0.027
	c-0.264,0.021-0.523,0.057-0.781,0.104c-0.645,0.111-1.258,0.303-1.801,0.574c-0.115,0.055-0.23,0.113-0.344,0.172
	c-0.912-0.555-2.099-0.844-3.295-0.869c-0.009,0-0.017,0-0.025,0c-1.301-0.025-2.613,0.26-3.607,0.859
	c-0.105-0.055-0.213-0.107-0.325-0.158c-0.351-0.18-0.735-0.324-1.138-0.434c-0.021-0.004-0.039-0.01-0.057-0.016
	c-0.016-0.004-0.031-0.008-0.045-0.012c-0.516-0.143-1.06-0.232-1.625-0.25c-0.703-0.561-1.136-1.283-1.157-2.025l-0.108-3.301
	V51.817c0-0.645,0.522-1.168,1.167-1.168s1.167,0.523,1.167,1.168v27.699h0.018v3.753l0.021,0.646
	c0.38,0.056,0.76,0.136,1.135,0.239l0.09,0.024c0.295,0.08,0.579,0.173,0.854,0.279c1.045-0.408,2.238-0.627,3.469-0.627
	l0.204,0.002c1.178,0.025,2.308,0.245,3.296,0.632c0.45-0.175,0.939-0.317,1.453-0.422l0.217-0.055l0.195-0.021
	c0.248-0.042,0.51-0.077,0.774-0.101c0.161-0.023,0.332-0.039,0.517-0.042c1.078-0.048,2.17,0.109,3.246,0.455l0.152,0.053
	c0.115,0.037,0.237,0.08,0.363,0.128c0.531-0.214,1.111-0.376,1.725-0.483l0.215-0.031l0.152-0.025
	c1.618-0.216,3.412-0.03,4.869,0.533c2.102-0.819,4.863-0.817,6.955,0.006c1.387-0.53,2.904-0.75,4.387-0.596
	c0.963,0.063,1.838,0.321,2.553,0.605c0.258-0.113,0.572-0.235,0.939-0.322c1.916-0.523,4.184-0.395,6.013,0.315
	c0.702-0.274,1.454-0.467,2.231-0.568c0.088-0.088,0.164-0.172,0.224-0.246V59.88H65.45v-8.063c0-0.645,0.522-1.168,1.167-1.168
	s1.167,0.523,1.167,1.168V80.685z M44.141,73.87c-0.252-0.331-0.581-0.626-0.985-0.884c-0.405-0.258-0.865-0.499-1.38-0.726
	c-0.516-0.225-1.047-0.464-1.593-0.717c-0.547-0.253-1.077-0.538-1.593-0.859c-0.516-0.32-0.975-0.704-1.38-1.151
	c-0.404-0.446-0.733-0.976-0.985-1.585s-0.379-1.34-0.379-2.191c0-0.978,0.182-1.837,0.545-2.578
	c0.362-0.741,0.851-1.356,1.466-1.845c0.615-0.489,1.341-0.854,2.177-1.097c0.835-0.241,1.721-0.362,2.656-0.362
	c0.484,0,0.967,0.036,1.451,0.11c0.483,0.073,0.936,0.173,1.355,0.3c0.421,0.126,0.794,0.268,1.12,0.425
	c0.325,0.158,0.542,0.29,0.646,0.396c0.104,0.104,0.177,0.194,0.213,0.268s0.068,0.171,0.095,0.292
	c0.026,0.12,0.045,0.273,0.055,0.457c0.011,0.185,0.016,0.412,0.016,0.686c0,0.305-0.008,0.563-0.023,0.773
	c-0.016,0.21-0.042,0.383-0.078,0.52c-0.037,0.137-0.09,0.236-0.158,0.3s-0.16,0.095-0.275,0.095c-0.116,0-0.301-0.073-0.553-0.221
	c-0.252-0.146-0.563-0.308-0.93-0.48c-0.368-0.174-0.794-0.331-1.277-0.474c-0.484-0.142-1.015-0.213-1.593-0.213
	c-0.452,0-0.847,0.056-1.183,0.166c-0.337,0.11-0.618,0.263-0.844,0.457c-0.227,0.194-0.395,0.428-0.504,0.702
	c-0.111,0.272-0.166,0.562-0.166,0.866c0,0.453,0.123,0.844,0.37,1.176c0.247,0.33,0.579,0.625,0.993,0.883
	c0.416,0.258,0.887,0.499,1.412,0.725c0.525,0.227,1.061,0.466,1.607,0.718s1.084,0.539,1.609,0.859
	c0.525,0.321,0.993,0.705,1.402,1.151c0.41,0.447,0.742,0.973,0.994,1.577s0.379,1.316,0.379,2.137c0,1.072-0.2,2.013-0.6,2.822
	s-0.941,1.484-1.624,2.026c-0.684,0.541-1.482,0.949-2.397,1.222c-0.914,0.274-1.892,0.41-2.933,0.41
	c-0.704,0-1.358-0.058-1.964-0.173c-0.604-0.116-1.137-0.255-1.6-0.418s-0.85-0.334-1.159-0.513
	c-0.311-0.179-0.534-0.337-0.671-0.473c-0.137-0.137-0.233-0.334-0.291-0.592c-0.059-0.258-0.087-0.628-0.087-1.111
	c0-0.326,0.011-0.6,0.032-0.82c0.021-0.221,0.055-0.399,0.102-0.536c0.048-0.137,0.111-0.233,0.189-0.292
	c0.079-0.058,0.171-0.087,0.275-0.087c0.147,0,0.355,0.087,0.623,0.261c0.269,0.173,0.613,0.365,1.033,0.575
	s0.923,0.402,1.506,0.576c0.584,0.173,1.26,0.261,2.026,0.261c0.505,0,0.957-0.061,1.356-0.182c0.398-0.121,0.738-0.292,1.018-0.513
	c0.277-0.221,0.49-0.495,0.639-0.82c0.146-0.326,0.22-0.688,0.22-1.088C44.519,74.598,44.393,74.201,44.141,73.87z M78.966,27.378
	c-0.068,5.947-0.004,11.896-0.029,17.844c0.029,0.219-0.096,0.426-0.316,0.432l-16.114,0.02c-0.188,0-0.375,0-0.563,0.002
	c0.019,2.025,0.005,4.051,0.007,6.078c0.014,0.971-0.222,1.951-0.737,2.758c-0.792,1.303-2.231,2.107-3.683,2.078
	c-5.897,0.006-11.795-0.006-17.695,0.004c0.013,0.012,0.017,0.027,0.03,0.041c-4.361,0-8.721,0.002-13.082-0.002
	c-1.451,0.031-2.891-0.775-3.684-2.078c-0.516-0.807-0.748-1.787-0.736-2.756c0.002-2.027-0.01-4.053,0.007-6.08
	c-0.187-0.002-0.375-0.002-0.563-0.002l-16.114-0.02c-0.219-0.004-0.347-0.213-0.314-0.432C5.35,39.317,5.414,33.368,5.345,27.423
	l-0.005-1.08c0.069-2.26,0.016-4.518,0.033-6.775c0.026-1.543-0.095-3.105,0.196-4.629c0.514-2.828,2.055-5.41,4.211-7.133
	c1.796-1.447,4.019-2.297,6.272-2.35c5.691-0.008,11.388-0.008,17.084-0.014h0.119c0,0,0.005,0,0.009,0l5.99-0.012
	c1.775,0.051,3.55,0.01,5.322,0.023c7.842,0,15.681,0,23.521,0c2.771,0.016,5.505,1.244,7.483,3.309
	c1.447,1.605,2.652,3.672,3.089,5.861c0.387,1.711,0.227,3.484,0.268,5.229c0.011,2.146-0.032,4.295,0.033,6.445L78.966,27.378z"/>
<g>
	<path fill="#93B4CB" d="M22.076,15.192c-0.244-0.105-0.498-0.172-0.766-0.2c-0.268-0.027-0.544-0.042-0.828-0.042h-1.166v3.307
		h1.229c0.438,0,0.803-0.042,1.098-0.127c0.296-0.086,0.537-0.205,0.725-0.358s0.33-0.336,0.428-0.55
		c0.096-0.214,0.146-0.445,0.146-0.696c0-0.342-0.083-0.623-0.251-0.844C22.523,15.461,22.318,15.298,22.076,15.192z"/>
	<path fill="#93B4CB" d="M33.104,15.018c-0.139-0.024-0.296-0.044-0.474-0.06c-0.178-0.015-0.422-0.022-0.734-0.022h-1.229V17.7
		h1.395c0.39,0,0.73-0.034,1.021-0.103c0.291-0.067,0.534-0.162,0.729-0.286c0.195-0.123,0.34-0.27,0.438-0.44
		s0.146-0.361,0.146-0.572c0-0.321-0.102-0.593-0.303-0.813S33.563,15.109,33.104,15.018z"/>
	<path fill="#93B4CB" d="M71.016,14.036c-0.098-1.34-1.347-2.364-2.569-2.362l-52.396,0.004c-1.391,0-2.621,1.32-2.611,2.807
		c-0.018,2.279,0,4.559-0.008,6.836c0,0.45-0.01,0.905,0.073,1.351c0.196,0.996,0.942,1.841,1.858,2.119
		c0.847,0.224,1.732,0.067,2.597,0.11l28.665-0.013c1.855,0.002,3.727,0.02,5.571-0.021l15.583,0.043
		c0.602,0.02,1.202,0.014,1.758-0.259c0.984-0.468,1.624-1.603,1.576-2.747C71.09,19.273,71.1,16.663,71.016,14.036z M25.45,17.836
		c-0.236,0.421-0.58,0.776-1.031,1.065c-0.452,0.288-1.005,0.508-1.661,0.659c-0.656,0.15-1.429,0.226-2.317,0.226h-1.124v3.111
		c0,0.05-0.023,0.095-0.068,0.135s-0.119,0.073-0.225,0.098c-0.104,0.026-0.242,0.046-0.416,0.062
		c-0.174,0.015-0.396,0.022-0.666,0.022c-0.265,0-0.484-0.008-0.662-0.022c-0.177-0.016-0.317-0.035-0.422-0.062
		c-0.104-0.024-0.177-0.058-0.219-0.098c-0.041-0.04-0.063-0.085-0.063-0.135V14.13c0-0.236,0.086-0.412,0.256-0.531
		c0.17-0.117,0.394-0.177,0.672-0.177h3.176c0.32,0,0.623,0.009,0.912,0.025c0.287,0.019,0.633,0.056,1.035,0.113
		c0.403,0.058,0.812,0.165,1.225,0.321c0.412,0.155,0.766,0.353,1.057,0.59c0.292,0.239,0.514,0.519,0.666,0.837
		c0.153,0.318,0.23,0.676,0.23,1.073C25.805,16.929,25.687,17.414,25.45,17.836z M37.885,23.052
		c-0.027,0.037-0.094,0.068-0.197,0.094c-0.104,0.024-0.258,0.042-0.459,0.053c-0.201,0.01-0.475,0.016-0.822,0.016
		c-0.291,0-0.523-0.006-0.697-0.016c-0.174-0.011-0.312-0.029-0.412-0.056c-0.101-0.028-0.172-0.063-0.213-0.105
		c-0.042-0.043-0.076-0.095-0.104-0.155l-1.208-2.177c-0.146-0.246-0.289-0.465-0.428-0.655c-0.139-0.191-0.293-0.35-0.463-0.479
		c-0.17-0.128-0.366-0.225-0.589-0.29c-0.222-0.065-0.479-0.098-0.771-0.098h-0.854v3.714c0,0.05-0.023,0.095-0.068,0.135
		s-0.119,0.073-0.224,0.098c-0.104,0.026-0.243,0.046-0.417,0.062c-0.174,0.015-0.396,0.022-0.666,0.022
		c-0.264,0-0.484-0.008-0.662-0.022c-0.176-0.016-0.316-0.035-0.421-0.062c-0.104-0.024-0.177-0.058-0.22-0.098
		c-0.041-0.04-0.062-0.085-0.062-0.135v-8.851c0-0.221,0.077-0.381,0.233-0.479c0.157-0.098,0.35-0.146,0.578-0.146h3.49
		c0.354,0,0.645,0.005,0.874,0.015s0.438,0.023,0.626,0.038c0.541,0.056,1.028,0.15,1.463,0.286
		c0.434,0.136,0.801,0.313,1.104,0.531c0.302,0.218,0.533,0.477,0.692,0.775s0.239,0.642,0.239,1.028
		c0,0.326-0.057,0.624-0.172,0.893c-0.114,0.27-0.283,0.508-0.504,0.72c-0.223,0.211-0.497,0.394-0.823,0.549
		c-0.326,0.156-0.698,0.281-1.114,0.377c0.201,0.07,0.391,0.156,0.566,0.256c0.178,0.102,0.344,0.223,0.501,0.365
		c0.156,0.144,0.304,0.307,0.442,0.489c0.139,0.185,0.274,0.391,0.406,0.622l1.135,1.921c0.104,0.19,0.174,0.33,0.209,0.418
		c0.034,0.088,0.052,0.156,0.052,0.208C37.927,22.967,37.912,23.014,37.885,23.052z M42.687,22.897c0,0.05-0.022,0.095-0.067,0.135
		c-0.046,0.04-0.12,0.073-0.225,0.098c-0.104,0.026-0.243,0.046-0.416,0.062c-0.174,0.015-0.396,0.022-0.666,0.022
		c-0.266,0-0.485-0.008-0.662-0.022c-0.178-0.016-0.318-0.035-0.422-0.062c-0.104-0.024-0.179-0.058-0.225-0.098
		c-0.045-0.04-0.066-0.085-0.066-0.135v-9.204c0-0.051,0.021-0.096,0.066-0.136c0.046-0.04,0.122-0.073,0.229-0.098
		c0.108-0.025,0.249-0.046,0.422-0.062c0.174-0.014,0.392-0.021,0.657-0.021c0.27,0,0.492,0.008,0.666,0.021
		c0.173,0.016,0.313,0.036,0.416,0.062c0.104,0.024,0.179,0.058,0.225,0.098c0.045,0.04,0.067,0.085,0.067,0.136V22.897z
		 M56.736,22.476c0,0.115-0.027,0.219-0.084,0.309c-0.055,0.091-0.129,0.165-0.224,0.227c-0.093,0.06-0.204,0.104-0.333,0.132
		c-0.129,0.026-0.258,0.041-0.391,0.041h-1.166c-0.244,0-0.453-0.018-0.631-0.054c-0.176-0.034-0.34-0.099-0.489-0.191
		s-0.293-0.219-0.433-0.377c-0.139-0.158-0.295-0.362-0.468-0.613l-3.354-4.558c-0.193-0.271-0.392-0.563-0.593-0.877
		c-0.202-0.313-0.382-0.619-0.542-0.915h-0.021c0.028,0.361,0.049,0.723,0.063,1.081c0.015,0.359,0.021,0.729,0.021,1.11v5.1
		c0,0.05-0.02,0.096-0.057,0.135c-0.039,0.04-0.104,0.075-0.199,0.103c-0.093,0.027-0.22,0.049-0.379,0.064
		c-0.16,0.015-0.365,0.022-0.615,0.022c-0.242,0-0.443-0.008-0.604-0.022c-0.16-0.016-0.285-0.037-0.375-0.064
		s-0.152-0.063-0.188-0.103c-0.035-0.039-0.052-0.085-0.052-0.135v-8.76c0-0.236,0.095-0.412,0.286-0.531
		c0.191-0.117,0.426-0.177,0.703-0.177h1.469c0.264,0,0.485,0.016,0.666,0.049c0.181,0.032,0.342,0.087,0.484,0.162
		c0.143,0.074,0.275,0.179,0.4,0.313c0.125,0.133,0.254,0.297,0.386,0.493l2.624,3.563c0.153,0.217,0.305,0.429,0.454,0.637
		c0.149,0.209,0.293,0.417,0.432,0.625c0.14,0.209,0.274,0.413,0.406,0.614c0.132,0.2,0.261,0.401,0.386,0.603h0.01
		c-0.021-0.353-0.036-0.719-0.047-1.101c-0.01-0.381-0.016-0.745-0.016-1.092v-4.572c0-0.05,0.021-0.095,0.063-0.135
		c0.042-0.04,0.111-0.076,0.209-0.105c0.098-0.03,0.225-0.052,0.385-0.064s0.365-0.018,0.615-0.018c0.236,0,0.434,0.005,0.594,0.018
		c0.159,0.013,0.282,0.034,0.369,0.064c0.087,0.029,0.147,0.065,0.183,0.105c0.034,0.04,0.052,0.085,0.052,0.135V22.476z
		 M68.614,14.608c-0.017,0.103-0.044,0.186-0.078,0.249c-0.034,0.062-0.077,0.108-0.13,0.139c-0.053,0.029-0.109,0.045-0.172,0.045
		H64.86v7.856c0,0.05-0.022,0.095-0.068,0.135c-0.045,0.04-0.12,0.073-0.224,0.098c-0.104,0.026-0.245,0.046-0.422,0.062
		c-0.178,0.015-0.398,0.022-0.662,0.022s-0.483-0.008-0.66-0.022c-0.178-0.016-0.318-0.035-0.422-0.062
		c-0.104-0.024-0.18-0.058-0.225-0.098s-0.067-0.085-0.067-0.135v-7.856h-3.374c-0.07,0-0.129-0.016-0.178-0.045
		c-0.049-0.03-0.09-0.077-0.125-0.139c-0.035-0.063-0.061-0.146-0.078-0.249c-0.018-0.104-0.025-0.228-0.025-0.373
		c0-0.15,0.008-0.278,0.025-0.384s0.043-0.189,0.078-0.253c0.035-0.063,0.076-0.107,0.125-0.136
		c0.049-0.027,0.107-0.041,0.178-0.041h9.498c0.063,0,0.119,0.014,0.172,0.041c0.053,0.028,0.096,0.073,0.13,0.136
		c0.034,0.063,0.062,0.147,0.078,0.253c0.018,0.105,0.026,0.233,0.026,0.384C68.641,14.381,68.632,14.505,68.614,14.608z"/>
</g>
<rect id="_x3C_Slice_x3E__25_" fill="none" width="84" height="90"/>
</svg>
