<?xml version="1.0" encoding="utf-8"?>
<!-- Generator: Adobe Illustrator 16.0.3, SVG Export Plug-In . SVG Version: 6.00 Build 0)  -->
<!DOCTYPE svg PUBLIC "-//W3C//DTD SVG 1.1//EN" "http://www.w3.org/Graphics/SVG/1.1/DTD/svg11.dtd">
<svg version="1.1" id="Layer_1" xmlns="http://www.w3.org/2000/svg" xmlns:xlink="http://www.w3.org/1999/xlink" x="0px" y="0px"
	 width="85px" height="83px" viewBox="0 0 85 83" enable-background="new 0 0 85 83" xml:space="preserve">
<path fill="#97BBD5" d="M82.863,54.76l-4.574-0.002c-5.199,0-5.199,0-5.199-5.205l-0.004-15.326c0.004-0.416-0.18-0.832-0.5-1.152
	c-0.318-0.318-0.73-0.5-1.133-0.5l-16.01-0.008c-0.447,0-0.852,0.166-1.166,0.482c-0.316,0.316-0.484,0.717-0.484,1.162
	l-0.014,15.332c-0.002,5.193-0.068,5.199-5.209,5.199L44.01,54.75c-0.459-0.002-0.863,0.164-1.178,0.475
	c-0.313,0.313-0.477,0.715-0.477,1.166c-0.002,0.361,0.109,0.701,0.313,0.979l18.873,24.439c0.52,0.467,1.18,0.721,1.881,0.721
	c0.697-0.004,1.355-0.258,1.871-0.725L84.217,57.35c0.186-0.246,0.293-0.582,0.293-0.947C84.51,55.611,83.666,54.76,82.863,54.76z"
	/>
<path fill="#97BBD5" d="M8.412,61.887V7.725h9.596v26.777h34.361V7.725h3.053l7.154,6.967v11.211h7.582V13.861l-0.006-0.004
	c0.057-1.461-0.537-2.875-1.605-3.881l0.023-0.031L60.1,1.699h-0.016c-0.996-1.02-2.383-1.568-3.818-1.512l-0.057-0.043H5.92l0,0
	c-2.811,0-5.088,2.279-5.088,5.086v59.154c0,2.809,2.277,5.088,5.088,5.088l0,0h37.84l-6.963-7.586H8.412z M37.199,7.725h7.584
	v19.191h-7.584V7.725z"/>
<rect id="_x3C_Slice_x3E__127_" x="0.745" y="0.145" fill="none" width="83.765" height="82.385"/>
<rect id="_x3C_Slice_x3E__122_" fill="none" width="85" height="83"/>
</svg>
