<?xml version="1.0" encoding="utf-8"?>
<!-- Generator: Adobe Illustrator 16.0.3, SVG Export Plug-In . SVG Version: 6.00 Build 0)  -->
<!DOCTYPE svg PUBLIC "-//W3C//DTD SVG 1.1//EN" "http://www.w3.org/Graphics/SVG/1.1/DTD/svg11.dtd">
<svg version="1.1" id="Layer_1" xmlns="http://www.w3.org/2000/svg" xmlns:xlink="http://www.w3.org/1999/xlink" x="0px" y="0px"
	 width="84px" height="71px" viewBox="0 0 84 71" enable-background="new 0 0 84 71" xml:space="preserve">
<path fill="#97BBD5" d="M53.224,13.033c0-0.881-0.715-1.596-1.598-1.596c-0.879,0-1.596,0.715-1.596,1.596
	c0,0.88,0.717,1.598,1.596,1.598C52.509,14.631,53.224,13.913,53.224,13.033z"/>
<path fill="#97BBD5" d="M76.776,0.541h-38.25c-6.953,0-6.953,0-6.953,6.951v6.955H20.999c-2.328,0-4.398,0.922-5.895,2.4
	l-8.793,8.83c-1.586,1.568-2.559,3.758-2.559,6.158v17.473c-3.525,0-3.479,0.014-3.479,4.26c0,4.441-0.047,4.349,4.346,4.349h6.123
	c0.438,6.798,6.104,12.171,13.002,12.171c6.906,0,12.572-5.373,13.008-12.171h12.219c0.453,6.798,6.123,12.171,13.025,12.171
	c6.906,0,12.572-5.373,13.01-12.171h1.77c6.959,0,6.959,0,6.959-6.955V7.492C83.735,0.541,83.735,0.541,76.776,0.541z
	 M23.745,61.396c-2.4,0-4.342-1.951-4.342-4.35c0-2.4,1.941-4.349,4.342-4.349c2.402,0,4.346,1.948,4.346,4.349
	C28.091,59.445,26.147,61.396,23.745,61.396z M31.573,37.053H12.444v-4.398c0-1.74,0.695-2.555,2-3.859l3.74-3.742
	c1.18-1.182,2.088-1.91,3.785-1.91h9.604V37.053z M40.802,23.999c0.354-0.64,0.477-0.671,0.523-0.683
	c0.014-0.004,0.029-0.004,0.045-0.004c0.459,0,3.025,1.686,3.158,2.073c0.037,0.105,0.061,0.192,0.014,0.265
	c-0.057,0.086-0.166,0.096-0.43,0.122c-0.201,0.019-0.496,0.048-0.916,0.121c0.949,2.84,4.391,4.302,5.672,4.302
	c0.199,0,0.342-0.035,0.41-0.101c0.131-0.132,0.5-1.401,1.076-10.288h-2.143c0.016,0.156,0.033,0.275,0.045,0.365
	c0.025,0.176,0.037,0.254-0.018,0.314c-0.045,0.057-0.123,0.057-0.186,0.057c-0.322,0-1.816-1.348-1.816-1.639
	c0-0.273,1.512-1.636,1.816-1.636c0.076,0,0.143,0.005,0.186,0.057c0.055,0.062,0.043,0.144,0.018,0.321
	c-0.014,0.09-0.029,0.207-0.045,0.361h2.258c0.041-0.658,0.07-1.232,0.1-1.677c-1.42-0.456-2.406-1.803-2.406-3.298
	c0-1.91,1.553-3.463,3.463-3.463s3.465,1.553,3.465,3.463c0,1.568-1.047,2.931-2.555,3.34c0.023,0.44,0.055,0.996,0.094,1.635h2.258
	c-0.016-0.154-0.031-0.271-0.045-0.361c-0.023-0.179-0.037-0.26,0.02-0.321c0.043-0.052,0.109-0.057,0.186-0.057
	c0.305,0,1.818,1.362,1.818,1.636c0,0.291-1.496,1.639-1.818,1.639c-0.064,0-0.141,0-0.189-0.057
	c-0.053-0.061-0.039-0.141-0.016-0.316c0.014-0.09,0.029-0.207,0.047-0.363h-2.146c0.578,8.887,0.947,10.156,1.08,10.288
	c0.064,0.065,0.211,0.101,0.41,0.101c1.281,0,4.723-1.462,5.67-4.302c-0.42-0.073-0.715-0.103-0.916-0.121
	c-0.264-0.026-0.375-0.036-0.43-0.122c-0.047-0.072-0.021-0.159,0.014-0.265c0.133-0.388,2.701-2.073,3.16-2.073
	c0.016,0,0.031,0,0.045,0.006c0.047,0.01,0.172,0.041,0.531,0.695c0.361,0.662,1.018,2.129,0.883,2.52
	c-0.037,0.113-0.08,0.238-0.223,0.238c-0.078,0-0.172-0.037-0.342-0.107c-0.178-0.073-0.441-0.182-0.844-0.309
	c-1.408,4.966-5.512,8.295-10.23,8.295H51.55c-4.721,0-8.824-3.329-10.23-8.295c-0.4,0.125-0.664,0.234-0.844,0.307
	c-0.17,0.07-0.266,0.109-0.342,0.109h-0.002c-0.143,0-0.188-0.132-0.225-0.238C39.776,26.139,40.437,24.664,40.802,23.999z
	 M61.997,61.396c-2.4,0-4.342-1.951-4.342-4.35c0-2.4,1.941-4.349,4.342-4.349s4.346,1.948,4.346,4.349
	C66.343,59.445,64.397,61.396,61.997,61.396z M77.081,43.067c0,2.463-2.096,4.46-4.682,4.46h-29.73c-2.588,0-4.684-1.997-4.684-4.46
	v-4.853c0.525-0.684,1.232-1.594,1.463-1.73c0.135-0.075,0.25-0.109,0.363-0.14c0.121-0.032,0.334-0.092,0.498-0.252
	c0.023,0.001,0.049,0.005,0.076,0.005c0.17,0,0.328-0.065,0.443-0.182l0.068-0.068c2.506,1.982,5.477,3.213,8.646,3.58v0.098
	c0,0.199,0.096,0.375,0.246,0.495c0.002,0.228,0.109,0.419,0.172,0.526c0.059,0.104,0.119,0.209,0.158,0.355
	c0.072,0.279-0.1,1.576-0.213,2.435c-0.061,0.462-0.117,0.896-0.158,1.278c-0.072,0.662,0.178,1.097,0.4,1.346
	c0.334,0.374,0.846,0.588,1.402,0.588c0.555,0,1.066-0.214,1.4-0.588c0.225-0.249,0.475-0.684,0.402-1.347
	c-0.041-0.372-0.096-0.794-0.156-1.241c-0.107-0.818-0.291-2.189-0.215-2.471c0.039-0.146,0.098-0.252,0.156-0.354
	c0.061-0.108,0.172-0.301,0.172-0.528c0.15-0.12,0.244-0.296,0.244-0.495v-0.098c3.17-0.369,6.143-1.6,8.645-3.582l0.07,0.069
	c0.117,0.116,0.275,0.179,0.445,0.179c0.025,0,0.053,0,0.076-0.004c0.162,0.162,0.377,0.221,0.496,0.254
	c0.113,0.03,0.23,0.063,0.363,0.137c0.248,0.148,1.047,1.19,1.578,1.88c0.279,0.367,0.545,0.712,0.783,1.01
	c0.348,0.433,0.818,0.671,1.322,0.671c0.771,0,1.527-0.558,1.797-1.326c0.25-0.701,0.035-1.41-0.568-1.895
	c-0.295-0.236-0.633-0.496-0.99-0.77c-0.656-0.502-1.752-1.341-1.896-1.591c-0.078-0.134-0.111-0.251-0.143-0.364
	c-0.031-0.118-0.092-0.334-0.25-0.494c0.021-0.187-0.035-0.375-0.17-0.516l-0.006-0.004l-0.002-0.004l-0.068-0.068
	c1.982-2.504,3.213-5.475,3.582-8.646h0.096c0.199,0,0.375-0.094,0.494-0.244c0.006,0,0.008,0,0.012,0
	c0.215,0,0.373-0.09,0.516-0.172c0.104-0.059,0.207-0.119,0.355-0.158c0.004-0.002,0.057-0.015,0.221-0.015
	c0.496,0,1.371,0.116,2.217,0.228c0.461,0.061,0.895,0.118,1.275,0.158c0.076,0.008,0.15,0.013,0.227,0.013
	c1.123,0,1.707-0.913,1.707-1.815c0-0.901-0.586-1.814-1.709-1.814c-0.074,0-0.148,0.003-0.225,0.012
	c-0.371,0.041-0.797,0.096-1.24,0.156c-0.859,0.113-1.748,0.23-2.248,0.23c-0.168,0-0.221-0.014-0.225-0.014
	c-0.145-0.041-0.252-0.101-0.354-0.158c-0.143-0.082-0.303-0.173-0.516-0.173c-0.006,0-0.01,0-0.014,0
	c-0.117-0.147-0.291-0.239-0.484-0.243H68.72h-0.004H68.62c-0.369-3.172-1.602-6.143-3.584-8.646l0.068-0.068
	c0.141-0.143,0.199-0.334,0.176-0.523c0.162-0.16,0.221-0.375,0.254-0.494c0.031-0.113,0.064-0.231,0.139-0.363
	c0.125-0.213,0.91-0.83,1.566-1.336h5.16c2.586,0,4.682,1.996,4.682,4.459V43.067z"/>
<rect id="_x3C_Slice_x3E__139_" x="0.395" y="0.541" fill="none" width="83.221" height="69.547"/>
<rect id="_x3C_Slice_x3E__84_" fill="none" width="84" height="71"/>
</svg>
