<?xml version="1.0" encoding="utf-8"?>
<!-- Generator: Adobe Illustrator 16.0.3, SVG Export Plug-In . SVG Version: 6.00 Build 0)  -->
<!DOCTYPE svg PUBLIC "-//W3C//DTD SVG 1.1//EN" "http://www.w3.org/Graphics/SVG/1.1/DTD/svg11.dtd">
<svg version="1.1" id="Layer_1" xmlns="http://www.w3.org/2000/svg" xmlns:xlink="http://www.w3.org/1999/xlink" x="0px" y="0px"
	 width="84px" height="86px" viewBox="0 0 84 86" enable-background="new 0 0 84 86" xml:space="preserve">
<path fill="#97BBD5" d="M23.289,42.297h38.016c0.939,0,1.703-0.762,1.703-1.702V2.58c0-0.94-0.764-1.702-1.703-1.702H23.289
	c-0.939,0-1.701,0.762-1.701,1.702v38.015C21.588,41.535,22.35,42.297,23.289,42.297z"/>
<path fill="#97BBD5" d="M1.921,85.896h36.061c0.892,0,1.615-0.723,1.615-1.613V48.221c0-0.892-0.724-1.614-1.615-1.614H1.921
	c-0.892,0-1.614,0.723-1.614,1.614v36.062C0.307,85.173,1.029,85.896,1.921,85.896z"/>
<path fill="#97BBD5" d="M44.684,48.221v36.062c0,0.891,0.723,1.613,1.615,1.613h36.061c0.891,0,1.615-0.723,1.615-1.613V48.221
	c0-0.892-0.725-1.614-1.615-1.614H46.299C45.406,46.606,44.684,47.329,44.684,48.221z"/>
<rect id="_x3C_Slice_x3E__99_" fill="none" width="84" height="86"/>
</svg>
