<?xml version="1.0" encoding="utf-8"?>
<!-- Generator: Adobe Illustrator 16.0.3, SVG Export Plug-In . SVG Version: 6.00 Build 0)  -->
<!DOCTYPE svg PUBLIC "-//W3C//DTD SVG 1.1//EN" "http://www.w3.org/Graphics/SVG/1.1/DTD/svg11.dtd">
<svg version="1.1" id="Layer_1" xmlns="http://www.w3.org/2000/svg" xmlns:xlink="http://www.w3.org/1999/xlink" x="0px" y="0px"
	 width="85px" height="77px" viewBox="0 0 85 77" enable-background="new 0 0 85 77" xml:space="preserve">
<path fill="#97BBD5" d="M73.61,46.746l9.521-1.351c-4.887-2.658-9.773-5.316-14.659-7.975c-0.009-0.006-0.021-0.011-0.03-0.016
	c-0.053-0.025-0.105-0.047-0.164-0.061c-0.009-0.003-0.02,0-0.029-0.002c-0.104-0.023-0.214-0.033-0.33-0.017l-8.5,1.194
	L73.61,46.746z"/>
<path fill="#97BBD5" d="M29.837,55.345c1.078-0.215,1.953-1.265,1.953-2.344s-0.875-1.779-1.953-1.564
	c-1.079,0.215-1.953,1.264-1.953,2.344C27.884,54.858,28.758,55.56,29.837,55.345z"/>
<path fill="#97BBD5" d="M72.746,60.899c1.079-0.215,1.953-1.264,1.953-2.343s-0.874-1.78-1.953-1.563
	c-1.079,0.214-1.954,1.263-1.954,2.342S71.667,61.114,72.746,60.899z"/>
<path fill="#97BBD5" d="M60.843,76.251l22.865-3.213c0.572-0.08,1.036-0.645,1.037-1.257l0.045-24.515l-23.947,3.396V76.251z
	 M72.746,53.478c3.302-0.658,5.978,1.486,5.978,4.787c0,1.188-0.348,2.363-0.945,3.414l-4.599,8.107
	c-0.077,0.179-0.242,0.324-0.434,0.363c-0.19,0.037-0.349-0.045-0.428-0.188l-0.004,0.003l-0.604-0.837l-3.998-5.444h0.001
	c-0.598-0.812-0.946-1.849-0.946-3.037C66.768,57.345,69.444,54.136,72.746,53.478z"/>
<path fill="#97BBD5" d="M17.935,70.696l22.863-3.214c0.573-0.081,1.037-0.644,1.037-1.257l0.046-24.515l-23.946,3.396V70.696z
	 M29.837,47.923c3.301-0.658,5.979,1.485,5.979,4.787c0,1.188-0.349,2.363-0.947,3.412h0.001l-4.599,8.109
	c-0.076,0.178-0.242,0.324-0.434,0.362c-0.19,0.038-0.349-0.044-0.428-0.188l-0.004,0.003l-0.604-0.837l-3.998-5.444
	c-0.597-0.812-0.945-1.849-0.945-3.037C23.858,51.79,26.535,48.58,29.837,47.923z"/>
<polygon fill="#97BBD5" points="56.157,38.979 46.079,40.396 60.019,48.674 70.356,47.208 "/>
<polygon fill="#97BBD5" points="53.066,10.005 38.743,1.794 28.662,3.212 42.601,11.489 "/>
<path fill="#97BBD5" d="M65.715,8.212c-4.886-2.658-9.772-5.316-14.659-7.975c-0.01-0.006-0.02-0.012-0.031-0.016
	c-0.051-0.026-0.105-0.047-0.162-0.061c-0.01-0.004-0.021,0-0.03-0.002c-0.104-0.023-0.214-0.033-0.329-0.018l-8.48,1.192
	l14.318,8.207L65.715,8.212z"/>
<path fill="#97BBD5" d="M40.223,39.841c-4.886-2.658-9.772-5.316-14.659-7.975c-0.01-0.006-0.02-0.012-0.031-0.017
	c-0.051-0.025-0.105-0.046-0.162-0.06c-0.01-0.004-0.021,0-0.03-0.002c-0.104-0.023-0.214-0.033-0.329-0.018l-8.505,1.195
	l14.175,8.229L40.223,39.841z"/>
<path fill="#97BBD5" d="M43.427,39.067l22.864-3.214c0.573-0.08,1.036-0.644,1.036-1.257l0.047-24.515l-23.947,3.396V39.067z
	 M55.329,16.294c3.301-0.658,5.979,1.485,5.979,4.787c0,1.188-0.349,2.363-0.947,3.413h0.001l-4.599,8.108
	c-0.076,0.178-0.242,0.324-0.434,0.362c-0.189,0.038-0.348-0.044-0.428-0.187l-0.004,0.002l-0.604-0.837l-3.998-5.444h0.001
	c-0.598-0.812-0.946-1.849-0.946-3.037C49.351,20.161,52.027,16.951,55.329,16.294z"/>
<path fill="#97BBD5" d="M55.329,23.716c1.078-0.215,1.953-1.265,1.953-2.344c0-1.078-0.875-1.779-1.953-1.563
	c-1.079,0.214-1.953,1.263-1.953,2.343C53.376,23.229,54.25,23.931,55.329,23.716z"/>
<polygon fill="#97BBD5" points="27.429,41.655 13.249,33.424 3.169,34.84 17.108,43.118 "/>
<path fill="#97BBD5" d="M0.981,35.966c-0.024,0.1-0.043,0.201-0.043,0.305L0.894,61.138c-0.001,0.395,0.189,0.715,0.479,0.872
	c4.826,2.625,9.65,5.251,14.477,7.876v-25.09L0.981,35.966z M5.659,55.752L4.866,55.27v-7.145l0.793,0.482V55.752z M7.318,56.758
	l-0.794-0.48v-7.145l0.794,0.481V56.758z M8.112,57.24l-0.396-0.241v-7.144l0.396,0.24V57.24z M9.398,58.02l-0.397-0.24v-7.145
	l0.397,0.242V58.02z M10.589,58.742l-0.793-0.48v-7.145l0.793,0.481V58.742z M12.558,59.938l-1.19-0.723v-7.144l1.19,0.722V59.938z"
	/>
<path fill="#97BBD5" d="M43.892,41.521c-0.025,0.1-0.043,0.201-0.043,0.307l-0.047,24.866c0,0.395,0.191,0.715,0.479,0.872
	c4.826,2.625,9.652,5.25,14.479,7.875v-25.09L43.892,41.521z M47.911,61.222l-0.794-0.481v-7.145l0.794,0.482V61.222z
	 M49.569,62.229l-0.793-0.481v-7.145l0.793,0.481V62.229z M50.364,62.71l-0.397-0.241v-7.144l0.397,0.241V62.71z M51.649,63.49
	l-0.396-0.24v-7.145l0.396,0.241V63.49z M52.841,64.213l-0.794-0.481v-7.144l0.794,0.48V64.213z M54.809,65.407l-1.19-0.722v-7.145
	l1.19,0.723V65.407z"/>
<path fill="#97BBD5" d="M26.474,4.337c-0.024,0.1-0.042,0.201-0.042,0.306l-0.046,24.866c-0.001,0.395,0.189,0.715,0.479,0.872
	c4.826,2.626,9.65,5.251,14.478,7.876v-25.09L26.474,4.337z M30.761,24.607l-0.793-0.481v-7.145l0.793,0.482V24.607z M32.42,25.613
	l-0.794-0.48v-7.145l0.794,0.482V25.613z M33.214,26.096l-0.396-0.24v-7.145l0.396,0.24V26.096z M34.5,26.876l-0.397-0.241v-7.144
	l0.397,0.241V26.876z M35.69,27.598l-0.793-0.48v-7.145l0.793,0.482V27.598z M37.659,28.793l-1.19-0.723v-7.143l1.19,0.721V28.793z"
	/>
<rect id="_x3C_Slice_x3E__98_" fill="none" width="85" height="77"/>
</svg>
