<?xml version="1.0" encoding="utf-8"?>
<!-- Generator: Adobe Illustrator 16.0.3, SVG Export Plug-In . SVG Version: 6.00 Build 0)  -->
<!DOCTYPE svg PUBLIC "-//W3C//DTD SVG 1.1//EN" "http://www.w3.org/Graphics/SVG/1.1/DTD/svg11.dtd">
<svg version="1.1" id="Layer_1" xmlns="http://www.w3.org/2000/svg" xmlns:xlink="http://www.w3.org/1999/xlink" x="0px" y="0px"
	 width="85px" height="86px" viewBox="0 0 85 86" enable-background="new 0 0 85 86" xml:space="preserve">
<g>
	<path fill="#97BBD5" d="M43.09,12.998l3.469,1.525l-0.799,1.734c-0.23,0.5,0.004,1.084,0.523,1.305
		c0.52,0.222,1.125-0.004,1.357-0.504l0.789-1.714l3.598,1.58c1.34,0.587,2.924,0.019,3.537-1.271
		c0.611-1.289,0.021-2.813-1.32-3.402l-8.938-3.927c-1.34-0.588-2.924-0.02-3.537,1.271C41.158,10.886,41.748,12.408,43.09,12.998z"
		/>
	<path fill="#97BBD5" d="M75.145,74.659H4.816c-2.238,0-4.055,1.927-4.055,4.304v2.399c0,2.377,1.816,4.304,4.055,4.304h70.328
		c2.24,0,4.057-1.927,4.057-4.304v-2.399C79.201,76.586,77.385,74.659,75.145,74.659z"/>
	<path fill="#97BBD5" d="M62.885,23.868l-1.295,1.634c-0.344,0.435-0.256,1.056,0.195,1.387c0.453,0.33,1.098,0.248,1.441-0.188
		l1.193-1.509l2.932,2.527c1.096,0.944,2.787,0.856,3.77-0.199c0.984-1.056,0.891-2.68-0.207-3.628l-7.316-6.307
		c-1.098-0.945-2.785-0.857-3.77,0.199s-0.891,2.68,0.207,3.627L62.885,23.868z"/>
	<path fill="#97BBD5" d="M58.031,25.891c-4.627-3.969-9.484-6.252-13.723-7.559c-4.01-1.408-8.029-2.063-11.859-1.692
		c-0.137,0.009-0.217,0.015-0.217,0.015V4.426c0-2.088-1.814-3.781-4.055-3.781H4.816c-2.238,0-4.055,1.693-4.055,3.781v51.363
		v10.447v0.223c0,1.966,1.816,3.56,4.055,3.56h23.361h46.967c2.24,0,4.057-1.594,4.057-3.56v-10.67
		C79.201,47.85,69.904,34.753,58.031,25.891z M23.115,17.648c-2.24,0-4.055-1.746-4.055-3.9V7.525c0-2.154,1.814-3.9,4.055-3.9
		h1.545c2.24,0,4.055,1.746,4.055,3.9v6.223c0,2.154-1.814,3.9-4.055,3.9H23.115z M37.742,58.437v4.209h-4.203v-3.92
		c-2.875-0.124-5.662-0.866-7.293-1.774l1.287-4.827c1.803,0.949,4.332,1.815,7.121,1.815c2.445,0,4.117-0.908,4.117-2.559
		c0-1.567-1.373-2.558-4.547-3.589c-4.59-1.485-7.721-3.549-7.721-7.551c0-3.631,2.66-6.478,7.25-7.345v-3.919h4.203v3.631
		c2.873,0.124,4.803,0.701,6.219,1.361l-1.244,4.662c-1.115-0.454-3.088-1.402-6.176-1.402c-2.789,0-3.689,1.155-3.689,2.311
		c0,1.361,1.502,2.228,5.148,3.548c5.104,1.733,7.162,4.002,7.162,7.716C45.377,54.476,42.676,57.611,37.742,58.437z"/>
	<path fill="#97BBD5" d="M83.586,39.66l-5.758-7.657c-0.861-1.148-2.531-1.407-3.727-0.576s-1.463,2.437-0.6,3.587l2.086,2.773
		l-1.633,1.196c-0.453,0.331-0.541,0.952-0.195,1.388c0.344,0.434,0.988,0.518,1.439,0.188l1.594-1.168l2.467,3.281
		c0.863,1.146,2.533,1.406,3.729,0.576C84.182,42.416,84.451,40.811,83.586,39.66z"/>
</g>
<rect id="_x3C_Slice_x3E__87_" fill="none" width="85" height="86"/>
</svg>
