<?xml version="1.0" encoding="utf-8"?>
<!-- Generator: Adobe Illustrator 16.0.3, SVG Export Plug-In . SVG Version: 6.00 Build 0)  -->
<!DOCTYPE svg PUBLIC "-//W3C//DTD SVG 1.1//EN" "http://www.w3.org/Graphics/SVG/1.1/DTD/svg11.dtd">
<svg version="1.1" id="Layer_1" xmlns="http://www.w3.org/2000/svg" xmlns:xlink="http://www.w3.org/1999/xlink" x="0px" y="0px"
	 width="68px" height="86px" viewBox="0 0 68 86" enable-background="new 0 0 68 86" xml:space="preserve">
<path fill="#97BBD5" d="M64.364,19.537c0-1.247-1.104-2.258-2.466-2.258H51.042C48.313,7.146,41.844,0.004,34.313,0.004
	S20.314,7.146,17.584,17.279H6.217c-1.362,0-2.466,1.011-2.466,2.258L0.75,82.783c0,1.247,1.104,2.259,2.467,2.259h61.682
	c1.362,0,2.466-1.012,2.466-2.259L64.364,19.537z M48.945,21.735c0.315,2.009,0.483,4.114,0.483,6.283
	c0,0.292-0.007,0.581-0.014,0.87c-1.457-0.598-2.486-2.026-2.486-3.699C46.929,23.706,47.746,22.426,48.945,21.735z M34.313,3.004
	c6.013,0,11.216,5.842,13.648,14.275H20.664C23.097,8.846,28.301,3.004,34.313,3.004z M19.681,21.735
	c1.199,0.69,2.017,1.971,2.017,3.454c0,1.673-1.029,3.102-2.486,3.699c-0.006-0.289-0.014-0.578-0.014-0.87
	C19.197,25.85,19.365,23.744,19.681,21.735z M13.697,25.189c0-1.871,1.291-3.43,3.027-3.867c-0.342,2.146-0.527,4.389-0.527,6.696
	c0,0.294,0.009,0.587,0.015,0.878C14.739,28.307,13.697,26.873,13.697,25.189z M52.412,39.294l-4.339,21.721
	c-0.484,2.402-1.253,4.543-2.286,6.365c-1.047,1.845-2.369,3.413-3.935,4.66c-1.563,1.246-3.38,2.193-5.399,2.813
	c-1.994,0.613-4.219,0.924-6.611,0.924c-2.554,0-4.789-0.324-6.646-0.963c-1.926-0.662-3.48-1.671-4.619-2.997
	c-1.144-1.331-1.891-3.008-2.217-4.984c-0.317-1.909-0.221-4.132,0.285-6.604l4.281-21.354c0.076-0.381,0.255-0.724,0.53-1.019
	c0.274-0.292,0.646-0.505,1.138-0.654c0.367-0.111,0.81-0.196,1.352-0.261c0.517-0.061,1.162-0.091,1.919-0.091
	c0.74,0,1.372,0.03,1.878,0.091c0.551,0.066,0.981,0.157,1.316,0.277c0.508,0.181,0.873,0.464,1.086,0.841
	c0.209,0.375,0.273,0.801,0.186,1.233l-4.283,21.359c-0.272,1.313-0.352,2.439-0.237,3.357c0.106,0.853,0.354,1.551,0.736,2.077
	c0.372,0.514,0.866,0.885,1.513,1.135c0.707,0.275,1.588,0.415,2.617,0.415c1.057,0,2.045-0.161,2.937-0.479
	c0.876-0.314,1.661-0.777,2.333-1.377c0.684-0.61,1.277-1.371,1.764-2.261c0.492-0.902,0.862-1.953,1.1-3.122l4.311-21.522
	c0.076-0.381,0.254-0.725,0.529-1.019c0.269-0.284,0.635-0.501,1.092-0.648c0.355-0.115,0.8-0.202,1.357-0.267
	c0.525-0.061,1.166-0.091,1.904-0.091c0.742,0,1.365,0.031,1.855,0.092c0.529,0.066,0.947,0.157,1.283,0.275
	c0.508,0.183,0.873,0.466,1.085,0.842C52.435,38.433,52.499,38.859,52.412,39.294z M52.414,28.896
	c0.006-0.291,0.015-0.584,0.015-0.878c0-2.308-0.185-4.55-0.526-6.696c1.735,0.438,3.026,1.996,3.026,3.867
	C54.929,26.873,53.887,28.307,52.414,28.896z"/>
<rect id="_x3C_Slice_x3E__30_" fill="none" width="68" height="86"/>
</svg>
