<?xml version="1.0" encoding="utf-8"?>
<!-- Generator: Adobe Illustrator 16.0.3, SVG Export Plug-In . SVG Version: 6.00 Build 0)  -->
<!DOCTYPE svg PUBLIC "-//W3C//DTD SVG 1.1//EN" "http://www.w3.org/Graphics/SVG/1.1/DTD/svg11.dtd">
<svg version="1.1" id="Layer_1" xmlns="http://www.w3.org/2000/svg" xmlns:xlink="http://www.w3.org/1999/xlink" x="0px" y="0px"
	 width="73px" height="86px" viewBox="0 0 73 86" enable-background="new 0 0 73 86" xml:space="preserve">
<path fill="#97BBD5" d="M3.363,47.871l7.806,0.006c8.871,0,8.871,0,8.871,8.877l0.004,26.15c-0.004,0.707,0.307,1.418,0.854,1.965
	c0.542,0.543,1.247,0.852,1.934,0.852l27.314,0.016c0.76,0,1.451-0.285,1.988-0.824c0.539-0.539,0.826-1.225,0.826-1.984
	l0.024-26.156c0.003-8.859,0.114-8.871,8.884-8.871l7.781-0.012c0.784,0.002,1.473-0.279,2.01-0.811
	c0.533-0.533,0.814-1.219,0.814-1.988c0.002-0.617-0.188-1.197-0.535-1.672L39.739,1.723c-0.885-0.793-2.012-1.227-3.207-1.227
	C35.344,0.5,34.218,0.936,33.341,1.73L1.054,43.453c-0.316,0.42-0.5,0.994-0.5,1.617C0.554,46.42,1.993,47.871,3.363,47.871z"/>
<rect id="_x3C_Slice_x3E__162_" fill="none" width="73" height="86"/>
<rect id="_x3C_Slice_x3E__165_" fill="none" width="73" height="86"/>
</svg>
