<?xml version="1.0" encoding="utf-8"?>
<!-- Generator: Adobe Illustrator 16.0.3, SVG Export Plug-In . SVG Version: 6.00 Build 0)  -->
<!DOCTYPE svg PUBLIC "-//W3C//DTD SVG 1.1//EN" "http://www.w3.org/Graphics/SVG/1.1/DTD/svg11.dtd">
<svg version="1.1" id="Layer_1" xmlns="http://www.w3.org/2000/svg" xmlns:xlink="http://www.w3.org/1999/xlink" x="0px" y="0px"
	 width="73px" height="86px" viewBox="0 0 73 86" enable-background="new 0 0 73 86" xml:space="preserve">
<path fill="#97BBD5" d="M36.744,45.171c12.438,0,19.377-15.198,19.377-25.538c0-10.346-8.676-18.742-19.377-18.742
	c-10.707,0-19.377,8.396-19.377,18.742C17.367,29.973,24.084,45.171,36.744,45.171z"/>
<path fill="#97BBD5" d="M8.135,85.908h57.213c4.082,0,7.383-3.169,7.383-7.086v-3.543v-3.541c0-0.619-0.016-1.242,0-1.77
	c-0.057-2.053-0.885-5.9-2.42-7.813c-3.875-4.853-8.561-8.006-15.281-9.792L48.736,73.51c0,1.948-1.658,3.544-3.689,3.544
	c-2.029,0-3.686-1.596-3.686-3.544V56.685c0-2.446-2.072-4.429-4.617-4.429s-4.615,1.982-4.615,4.429V73.51
	c0,1.948-1.658,3.544-3.691,3.544c-2.025,0-3.691-1.596-3.691-3.544l-6.293-21.146c-6.717,1.807-11.4,4.939-15.275,9.792
	c-1.537,1.913-2.365,5.761-2.418,7.813c0.016,0.527,0,1.15,0,1.77v3.541v3.543C0.76,82.739,4.059,85.908,8.135,85.908z"/>
<rect id="_x3C_Slice_x3E__137_" x="0.76" y="0.85" fill="none" width="71.971" height="85.018"/>
<rect id="_x3C_Slice_x3E__100_" fill="none" width="73" height="86"/>
</svg>
