<?xml version="1.0" encoding="UTF-8" standalone="no"?>
<!-- Generator: Adobe Illustrator 15.0.2, SVG Export Plug-In . SVG Version: 6.00 Build 0)  -->

<svg
   xmlns:a="http://ns.adobe.com/AdobeSVGViewerExtensions/3.0/"
   xmlns:dc="http://purl.org/dc/elements/1.1/"
   xmlns:cc="http://creativecommons.org/ns#"
   xmlns:rdf="http://www.w3.org/1999/02/22-rdf-syntax-ns#"
   xmlns:svg="http://www.w3.org/2000/svg"
   xmlns="http://www.w3.org/2000/svg"
   xmlns:xlink="http://www.w3.org/1999/xlink"
   xmlns:sodipodi="http://sodipodi.sourceforge.net/DTD/sodipodi-0.dtd"
   xmlns:inkscape="http://www.inkscape.org/namespaces/inkscape"
   version="1.1"
   id="Layer_1"
   x="0px"
   y="0px"
   width="35.433071"
   height="35.433071"
   viewBox="0 0 35.433071 35.433071"
   enable-background="new 0 0 590.9702148 766.4414063"
   xml:space="preserve"
   inkscape:version="0.48.2 r9819"
   sodipodi:docname="red-e-ssh.svg"><metadata
   id="metadata50"><rdf:RDF><cc:Work
       rdf:about=""><dc:format>image/svg+xml</dc:format><dc:type
         rdf:resource="http://purl.org/dc/dcmitype/StillImage" /><dc:title /></cc:Work></rdf:RDF></metadata><defs
   id="defs48">
	
	
	
	<radialGradient
   gradientUnits="userSpaceOnUse"
   r="181.69044"
   cy="161.08984"
   cx="297.29346"
   id="SVGID_1_">
		<stop
   id="stop12"
   style="stop-color:#C62128"
   offset="0" />
		<stop
   id="stop14"
   style="stop-color:#750506"
   offset="1" />
		<a:midPointStop
   style="stop-color:#C62128"
   offset="0" />
		<a:midPointStop
   style="stop-color:#C62128"
   offset="0.5" />
		<a:midPointStop
   style="stop-color:#750506"
   offset="1" />
	</radialGradient>
	
	
	<radialGradient
   gradientUnits="userSpaceOnUse"
   r="175.25668"
   cy="412.4248"
   cx="140.34277"
   id="SVGID_2_">
		<stop
   id="stop21"
   style="stop-color:#C62128"
   offset="0" />
		<stop
   id="stop23"
   style="stop-color:#750506"
   offset="1" />
		<a:midPointStop
   style="stop-color:#C62128"
   offset="0" />
		<a:midPointStop
   style="stop-color:#C62128"
   offset="0.5" />
		<a:midPointStop
   style="stop-color:#750506"
   offset="1" />
	</radialGradient>
	
	
	
<radialGradient
   inkscape:collect="always"
   xlink:href="#SVGID_3_"
   id="radialGradient3049"
   gradientUnits="userSpaceOnUse"
   gradientTransform="matrix(1,0,0,1.0417,0,-2.3903389)"
   cx="399.50342"
   cy="391.82617"
   r="193.58957" /><radialGradient
   inkscape:collect="always"
   xlink:href="#SVGID_2_"
   id="radialGradient3051"
   gradientUnits="userSpaceOnUse"
   cx="140.34277"
   cy="412.4248"
   r="175.25668" /><radialGradient
   inkscape:collect="always"
   xlink:href="#SVGID_1_"
   id="radialGradient3053"
   gradientUnits="userSpaceOnUse"
   cx="297.29346"
   cy="161.08984"
   r="181.69044" /><radialGradient
   inkscape:collect="always"
   xlink:href="#SVGID_1_"
   id="radialGradient3074"
   gradientUnits="userSpaceOnUse"
   cx="297.29346"
   cy="161.08984"
   r="181.69044" /><radialGradient
   inkscape:collect="always"
   xlink:href="#SVGID_2_"
   id="radialGradient3076"
   gradientUnits="userSpaceOnUse"
   cx="140.34277"
   cy="412.4248"
   r="175.25668" /><radialGradient
   inkscape:collect="always"
   xlink:href="#SVGID_3_"
   id="radialGradient3078"
   gradientUnits="userSpaceOnUse"
   gradientTransform="matrix(1,0,0,1.0417,0,-2.3903389)"
   cx="399.50342"
   cy="391.82617"
   r="193.58957" /></defs><sodipodi:namedview
   pagecolor="#ffffff"
   bordercolor="#666666"
   borderopacity="1"
   objecttolerance="10"
   gridtolerance="10"
   guidetolerance="10"
   inkscape:pageopacity="0"
   inkscape:pageshadow="2"
   inkscape:window-width="1920"
   inkscape:window-height="1056"
   id="namedview46"
   showgrid="false"
   inkscape:document-units="mm"
   units="mm"
   inkscape:zoom="19.70666"
   inkscape:cx="19.178521"
   inkscape:cy="15.522969"
   inkscape:window-x="0"
   inkscape:window-y="24"
   inkscape:window-maximized="1"
   inkscape:current-layer="Layer_1" />
<g
   id="g3057"
   transform="matrix(1.3504235,0,0,1.3504235,-6.2962029,-5.2776012)"><path
     d="M 2.1956086,2.0278811"
     id="path7"
     inkscape:connector-curvature="0"
     style="fill:#a81218" /><path
     d="M 6.8287494,26.88578"
     id="path9"
     inkscape:connector-curvature="0"
     style="fill:#a81218" /><polygon
     transform="matrix(0.04717306,0,0,0.04717306,3.7424151,-0.84069238)"
     points="235.6084,210.17676 45.077148,168.24316 358.97314,112.00244 549.51025,153.93799 "
     id="polygon16"
     style="fill:url(#radialGradient3074)" /><polygon
     transform="matrix(0.04717306,0,0,0.04717306,3.7424151,-0.84069238)"
     points="235.6084,233.18604 233.21045,234.6416 233.21045,625.67285 230.31494,628.81738 235.6084,631.87402 549.8208,557.76465 549.51025,179.18799 "
     id="polygon18"
     style="fill:none" /><polygon
     transform="matrix(0.04717306,0,0,0.04717306,3.7424151,-0.84069238)"
     points="235.6084,641.23535 45.077148,598.0127 45.077148,183.61328 235.6084,226.14209 "
     id="polygon25"
     style="fill:url(#radialGradient3076)" /><g
     transform="matrix(0.04717306,0,0,0.04717306,3.7424151,-0.84069238)"
     id="g27">
		<g
   id="g29">
			<path
   stroke-miterlimit="10"
   d="m 110.88379,581.8584 c 5.7417,1.2998 8.61133,1.94922 14.34717,3.24512 -4.9e-4,-0.42676 0,-0.64063 -4.9e-4,-1.06739 -5.08838,-3.70508 -8.89893,-8.43359 -11.56738,-14.34765 -4.65967,-10.32618 -4.125,-22.93555 -4.19288,-34.00098 -0.0644,-10.50391 -0.51367,-24.83496 8.08594,-32.0459 7.88819,-6.61426 20.49512,-5.73242 30.24903,-3.36719 4.42773,0.96485 6.64111,1.44629 11.06543,2.40723 0.004,6.38184 0.006,9.57422 0.0107,15.96484 -3.03955,-0.66211 -4.55957,-0.99316 -7.60059,-1.65722 -20.50635,-5.10742 -27.1831,3.77734 -27.00586,23.69043 0.29444,33.10644 11.35889,47.08105 44.11328,54.16699 16.38575,3.70898 32.76953,7.42578 49.14698,11.1709 4.8e-4,6.35742 4.8e-4,9.54297 4.8e-4,15.93066 -35.52685,-8.2539 -71.08642,-16.36133 -106.64355,-24.4834 -0.003,-6.24609 -0.005,-9.36816 -0.008,-15.60644 z"
   id="path31"
   inkscape:connector-curvature="0"
   style="fill:#ffffff;stroke:#ffffff;stroke-miterlimit:10" />
			<path
   stroke-miterlimit="10"
   d="m 184.6001,372.21387 c 29.93652,6.88086 34.52441,34.80371 34.29297,61.63281 -0.14209,16.50781 2.70703,43.17969 -9.87159,55.60449 -11.08496,10.9502 -30.54882,7.09766 -44.38183,4.48145 -18.33106,-3.4668 -39.54785,-11.34766 -48.73389,-29.12305 -6.86865,-13.29102 -6.63672,-29.86133 -6.49902,-44.53711 0.1499,-15.98926 -2.45899,-42.26367 14.06348,-51.68164 13.35546,-7.6123 30.31396,-2.83691 44.53662,-0.1875 0.0254,36.49316 0.0483,72.98633 0.0723,109.47949 9.06348,1.90528 20.0376,3.35254 27.38819,-1.31933 11.25097,-7.15137 8.77636,-31.96289 8.72021,-44.15918 -0.0552,-11.94532 0.75684,-28.12696 -8.06055,-37.74317 -2.76806,-3.01855 -4.60351,-3.97265 -11.51806,-6.09082 -0.003,-6.54101 -0.005,-9.81152 -0.009,-16.35644 z m -31.11426,10.20312 c -28.49072,-6.69922 -29.27295,19.8877 -29.28711,41.54004 -0.0156,23.94824 3.76025,43.54395 29.35254,50.36133 -0.0229,-30.63379 -0.0449,-61.26758 -0.0654,-91.90137 z"
   id="path33"
   inkscape:connector-curvature="0"
   style="fill:#ffffff;stroke:#ffffff;stroke-miterlimit:10" />
			<path
   stroke-miterlimit="10"
   d="m 217.521,238.85791 c 0,6.24512 0,9.36035 0,15.58154 -5.44483,-1.16845 -8.16797,-1.75195 -13.61426,-2.92382 0,0.34472 0,0.5166 0,0.86132 15.7749,12.06348 15.00439,33.23096 14.98437,51.10645 -0.0161,14.33056 1.60108,34.1958 -7.81738,46.02978 -10.86768,13.65479 -31.77686,9.14795 -46.52783,6.24317 -18.35938,-3.61572 -39.29395,-11.28223 -48.72168,-28.81787 -8.09375,-15.0542 -6.52686,-34.74854 -6.71924,-51.34375 -0.15283,-13.19483 -1.375,-34.78223 14.27832,-40.21875 -4.9e-4,-0.43262 -4.9e-4,-0.64942 -9.8e-4,-1.08203 -19.93017,-4.34375 -39.858394,-8.69874 -59.784175,-13.06299 0,-6.20996 0,-9.31494 0,-15.52491 51.295405,11.10743 102.598145,22.17969 153.922855,33.15186 z m -87.15772,83.01465 c 7.06934,10.83154 22.18799,14.71289 34.1709,17.31933 31.29248,6.80616 39.98926,-5.69043 39.61621,-36.33593 -0.17041,-14.00782 1.23291,-31.13721 -6.46728,-43.20313 -6.70411,-10.50488 -20.88868,-14.45703 -32.53174,-16.93994 -32.89698,-7.01465 -41.32032,5.20508 -41.28321,37.44531 0.0151,13.33106 -1.02295,30.19532 6.49512,41.71436 z"
   id="path35"
   inkscape:connector-curvature="0"
   style="fill:#ffffff;stroke:#ffffff;stroke-miterlimit:10" />
		</g>
	</g><g
     transform="matrix(0.04717306,0,0,0.04717306,3.7424151,-0.84069238)"
     id="g37">
		
			<radialGradient
   id="SVGID_3_"
   cx="399.50342"
   cy="391.82617"
   r="193.58957"
   gradientTransform="matrix(1,0,0,1.0417,0,-2.3903389)"
   gradientUnits="userSpaceOnUse">
			<stop
   offset="0"
   style="stop-color:#C62128"
   id="stop40" />
			<stop
   offset="1"
   style="stop-color:#750506"
   id="stop42" />
			<a:midPointStop
   offset="0"
   style="stop-color:#C62128" />
			<a:midPointStop
   offset="0.5"
   style="stop-color:#C62128" />
			<a:midPointStop
   offset="1"
   style="stop-color:#750506" />
		</radialGradient>
		<path
   d="m 249.0708,224.20703 c 100.21191,-19.31055 200.6416,-37.46435 300.86426,-56.71533 0,27.18359 0,54.3667 0,81.55029 -80.04199,16.12061 -160.21973,31.55322 -240.31641,47.40039 -0.0117,27.70948 -0.0239,55.41944 -0.0332,83.12891 80.10547,-16.55664 160.2998,-32.68018 240.34961,-49.5083 0,27.31006 0,54.6206 0,81.93115 -80.0625,17.55664 -160.26953,34.44434 -240.38477,51.75586 -0.0117,27.35938 -0.023,54.71777 -0.0332,82.07715 80.125,-17.97168 160.34473,-35.51172 240.41797,-53.71387 0,27.00977 0.002,54.01856 0,81.02832 -100.22266,23.91895 -200.68604,46.8125 -300.86426,70.91602 0.005,-139.9502 0,-279.90039 0,-419.85059 z"
   id="path44"
   inkscape:connector-curvature="0"
   style="fill:url(#radialGradient3078)" />
	</g></g>
<g
   style="font-size:10.69077396px;font-style:normal;font-variant:normal;font-weight:normal;font-stretch:normal;line-height:125%;letter-spacing:0px;word-spacing:0px;fill:#cccccc;fill-opacity:1;stroke:#000000;stroke-width:0.21044828;stroke-miterlimit:4;stroke-opacity:1;font-family:Ubuntu;-inkscape-font-specification:Ubuntu"
   id="text3080"><path
     d="m 17.190529,32.629196 c 0.235194,10e-7 0.427627,-0.01782 0.577302,-0.05345 0.156794,-0.04276 0.28152,-0.09622 0.374177,-0.160362 0.09265,-0.07127 0.156794,-0.153233 0.192434,-0.245888 0.03563,-0.09265 0.05345,-0.195995 0.05345,-0.310032 -4e-6,-0.242322 -0.114038,-0.441883 -0.342104,-0.598683 -0.228074,-0.163923 -0.620068,-0.338539 -1.175985,-0.523848 -0.242327,-0.08552 -0.484651,-0.18174 -0.726973,-0.288651 -0.242326,-0.114032 -0.459705,-0.253012 -0.652137,-0.41694 -0.192435,-0.171049 -0.349233,-0.374173 -0.470394,-0.609375 -0.121163,-0.242319 -0.181744,-0.534533 -0.181743,-0.876643 -10e-7,-0.342099 0.06414,-0.648568 0.192433,-0.919407 0.128289,-0.277953 0.310032,-0.51315 0.54523,-0.705591 0.235195,-0.192426 0.520282,-0.338534 0.855262,-0.438321 0.334975,-0.106901 0.712715,-0.160354 1.133222,-0.160362 0.498899,8e-6 0.930093,0.05346 1.293584,0.160362 0.363481,0.106915 0.662822,0.224513 0.898025,0.352795 l -0.481085,1.314965 c -0.206693,-0.106902 -0.438327,-0.199555 -0.694901,-0.27796 -0.249455,-0.08552 -0.55236,-0.128283 -0.908715,-0.128289 -0.399126,6e-6 -0.687776,0.05702 -0.865953,0.171052 -0.171055,0.106914 -0.256581,0.274403 -0.256579,0.502467 -2e-6,0.135421 0.03207,0.249456 0.09622,0.342104 0.06414,0.09266 0.153232,0.178185 0.26727,0.256579 0.121159,0.07128 0.256575,0.138985 0.406249,0.203125 0.156795,0.05702 0.327847,0.117603 0.513157,0.181743 0.384864,0.142548 0.719841,0.285091 1.004933,0.427631 0.285083,0.13542 0.520279,0.295782 0.705591,0.481085 0.192429,0.18531 0.334972,0.402689 0.427631,0.652137 0.09265,0.249454 0.138974,0.552359 0.13898,0.908716 -6e-6,0.691338 -0.24233,1.229439 -0.726973,1.614307 -0.484653,0.37774 -1.215188,0.56661 -2.191608,0.566611 -0.327853,-10e-7 -0.623631,-0.02138 -0.887334,-0.06414 -0.263708,-0.03564 -0.498905,-0.08196 -0.705592,-0.13898 -0.199562,-0.05702 -0.374178,-0.117599 -0.523847,-0.181743 -0.142545,-0.06415 -0.263707,-0.124726 -0.363487,-0.181743 l 0.470394,-1.325656 c 0.220942,0.121163 0.491775,0.231634 0.812499,0.331414 0.327849,0.09265 0.72697,0.138981 1.197367,0.13898"
     style="font-weight:bold;-inkscape-font-specification:Ubuntu Bold"
     id="path3012" /><path
     d="m 23.412893,32.629196 c 0.235194,10e-7 0.427628,-0.01782 0.577302,-0.05345 0.156794,-0.04276 0.28152,-0.09622 0.374177,-0.160362 0.09265,-0.07127 0.156794,-0.153233 0.192434,-0.245888 0.03563,-0.09265 0.05345,-0.195995 0.05345,-0.310032 -4e-6,-0.242322 -0.114039,-0.441883 -0.342105,-0.598683 -0.228073,-0.163923 -0.620068,-0.338539 -1.175985,-0.523848 -0.242327,-0.08552 -0.48465,-0.18174 -0.726973,-0.288651 -0.242325,-0.114032 -0.459704,-0.253012 -0.652137,-0.41694 -0.192435,-0.171049 -0.349233,-0.374173 -0.470394,-0.609375 -0.121163,-0.242319 -0.181744,-0.534533 -0.181743,-0.876643 -10e-7,-0.342099 0.06414,-0.648568 0.192434,-0.919407 0.128288,-0.277953 0.310031,-0.51315 0.545229,-0.705591 0.235196,-0.192426 0.520283,-0.338534 0.855262,-0.438321 0.334975,-0.106901 0.712716,-0.160354 1.133222,-0.160362 0.498899,8e-6 0.930093,0.05346 1.293584,0.160362 0.363481,0.106915 0.662823,0.224513 0.898025,0.352795 l -0.481085,1.314965 c -0.206693,-0.106902 -0.438326,-0.199555 -0.6949,-0.27796 -0.249456,-0.08552 -0.552361,-0.128283 -0.908716,-0.128289 -0.399125,6e-6 -0.687776,0.05702 -0.865953,0.171052 -0.171054,0.106914 -0.25658,0.274403 -0.256578,0.502467 -2e-6,0.135421 0.03207,0.249456 0.09622,0.342104 0.06414,0.09266 0.153232,0.178185 0.267269,0.256579 0.12116,0.07128 0.256576,0.138985 0.40625,0.203125 0.156794,0.05702 0.327847,0.117603 0.513157,0.181743 0.384864,0.142548 0.719841,0.285091 1.004932,0.427631 0.285083,0.13542 0.52028,0.295782 0.705592,0.481085 0.192428,0.18531 0.334972,0.402689 0.42763,0.652137 0.09265,0.249454 0.138975,0.552359 0.138981,0.908716 -6e-6,0.691338 -0.24233,1.229439 -0.726973,1.614307 -0.484653,0.37774 -1.215189,0.56661 -2.191609,0.566611 -0.327853,-10e-7 -0.62363,-0.02138 -0.887334,-0.06414 -0.263707,-0.03564 -0.498904,-0.08196 -0.705591,-0.13898 -0.199562,-0.05702 -0.374178,-0.117599 -0.523848,-0.181743 -0.142544,-0.06415 -0.263706,-0.124726 -0.363486,-0.181743 l 0.470394,-1.325656 c 0.220941,0.121163 0.491774,0.231634 0.812499,0.331414 0.327848,0.09265 0.72697,0.138981 1.197366,0.13898"
     style="font-weight:bold;-inkscape-font-specification:Ubuntu Bold"
     id="path3014" /><path
     d="m 32.083445,26.492691 1.667761,0 0,7.408707 -1.667761,0 0,-3.143088 -2.800983,0 0,3.143088 -1.667761,0 0,-7.408707 1.667761,0 0,2.833055 2.800983,0 0,-2.833055"
     style="font-weight:bold;-inkscape-font-specification:Ubuntu Bold"
     id="path3016" /></g>
</svg>